<?xml version="1.0" encoding="UTF-8" standalone="no"?>
<!-- Created with Inkscape (http://www.inkscape.org/) -->

<svg
   xmlns:dc="http://purl.org/dc/elements/1.1/"
   xmlns:cc="http://creativecommons.org/ns#"
   xmlns:rdf="http://www.w3.org/1999/02/22-rdf-syntax-ns#"
   xmlns:svg="http://www.w3.org/2000/svg"
   xmlns="http://www.w3.org/2000/svg"
   xmlns:sodipodi="http://sodipodi.sourceforge.net/DTD/sodipodi-0.dtd"
   xmlns:inkscape="http://www.inkscape.org/namespaces/inkscape"
   width="2500"
   height="2500"
   viewBox="0 0 661.45831 661.45831"
   version="1.1"
   id="svg10572"
   inkscape:version="0.92.5 (0.92.5+68)"
   sodipodi:docname="bakiwi_logo_1-1_bw.svg"
   inkscape:export-filename="/home/ku3i/work/so2walker/Bakiwi/documents/logo/bakiwi_logo_1-1_bw_1250px.png"
   inkscape:export-xdpi="48"
   inkscape:export-ydpi="48">
  <defs
     id="defs10566" />
  <sodipodi:namedview
     id="base"
     pagecolor="#ffffff"
     bordercolor="#666666"
     borderopacity="1.0"
     inkscape:pageopacity="0.0"
     inkscape:pageshadow="2"
     inkscape:zoom="0.24748737"
     inkscape:cx="980.04935"
     inkscape:cy="1090.948"
     inkscape:document-units="mm"
     inkscape:current-layer="layer1"
     showgrid="false"
     fit-margin-top="0"
     fit-margin-left="0"
     fit-margin-right="0"
     fit-margin-bottom="0"
     inkscape:window-width="2560"
     inkscape:window-height="1341"
     inkscape:window-x="0"
     inkscape:window-y="35"
     inkscape:window-maximized="1"
     units="px" />
  <metadata
     id="metadata10569">
    <rdf:RDF>
      <cc:Work
         rdf:about="">
        <dc:format>image/svg+xml</dc:format>
        <dc:type
           rdf:resource="http://purl.org/dc/dcmitype/StillImage" />
        <dc:title></dc:title>
      </cc:Work>
    </rdf:RDF>
  </metadata>
  <g
     inkscape:label="Ebene 1"
     inkscape:groupmode="layer"
     id="layer1"
     transform="translate(200.6868,285.39069)">
    <g
       id="g5028"
       transform="matrix(1.1017182,0,0,1.1017182,5.3460996,-11.1853)">
      <g
         transform="matrix(0.13970272,0,0,0.13970272,-182.49774,-195.34819)"
         id="g5528">
        <path
           id="path5418"
           transform="matrix(1.8939025,0,0,1.8939025,-130.19832,-490.9296)"
           d="m 440.64453,349.08398 c -42.03299,-0.22453 -86.93349,3.92175 -118.75976,34.69922 -33.52556,24.46897 -42.36334,67.66713 -56.43555,104.91797 -42.97181,7.65855 -67.8756,56.03635 -71.72852,93.08594 -3.42458,20.31117 9.92488,110.46452 36.14063,156.0918 5.59617,13.40216 -14.81561,46.59117 9.93359,56.23047 19.04222,14.17285 41.8104,-4.82245 45.64844,-22.4336 0.67567,-8.01304 7.66773,-11.43399 -0.78711,-21.54492 -1.66959,-14.87035 -13.8247,-11.03161 -32.9082,-13.75195 -14.97301,7.29809 -19.82174,-23.18124 -26.78711,-32.51172 -3.45961,-10.74867 -4.76752,-14.61562 -8.24805,-29.17383 -6.05333,-12.3669 -6.19823,-31.2221 -7.85547,-37.89648 -0.0354,-2.74703 -4.46407,-15.6618 -4.71875,-29.6211 0.354,-11.97439 0.48813,-13.86194 1.76563,-20.79687 0.39834,-19.11018 7.03502,-25.50188 12.13281,-43.93164 11.68737,-35.12545 32.89895,-26.95847 43.3125,-34.29883 -3.70823,12.65021 8.45122,51.74114 1.43945,60.27148 -40.27766,22.22492 13.91841,56.96799 30.93946,40.12305 10.69712,-13.89816 8.88547,-27.85471 5.70898,-35.29297 -6.00482,-7.64517 -13.39119,-12.14627 -22.07812,-9.44922 -6.34975,-25.61987 -4.42261,-41.19797 -3.04297,-54.19922 16.75171,-7.18258 56.02617,8.84131 78.4375,19.90821 18.03131,13.31081 32.33898,30.32062 49.34765,44.60546 21.88924,28.93912 50.27298,51.89516 75.22266,77.43165 19.12022,25.6994 50.056,47.73385 58.74805,79.33593 2.3635,39.70828 -45.97258,50.06321 -49.59766,85.72461 26.27222,38.00919 -41.55777,39.70057 -25.40234,87.00977 -10.06503,28.60823 0.89647,59.63882 24.6875,72.14648 -27.55624,8.76603 -27.40514,45.08563 0.22265,57.61723 18.6829,21.0764 39.15356,44.9468 60.5957,59.791 -17.13503,35.7692 -35.88584,71.532 -40.68945,112.6328 -7.77369,35.0575 -14.32727,72.3743 -19.01562,108.873 3.7358,23.2612 -8.34632,57.2277 0.004,87.6895 0.58878,42.6952 20.84993,81.5559 47.60547,114.4414 22.67804,17.4261 48.99571,24.6744 77.30664,19.5801 54.29461,0.2852 80.66323,-72.3313 59.13672,-113.375 -4.60134,-9.754 -28.963,-27.9206 -37.58789,-13.0274 9.05902,19.2099 38.64842,37.0439 21.62695,68.0938 -5.21177,19.1523 -27.59914,39.848 -47.85156,36.0137 -25.63005,4.8097 -48.6745,-11.3652 -59.46484,-34.7208 -11.62317,-24.5675 -13.83452,-58.5283 -16.61524,-79.6992 1.08812,-40.5371 5.2949,-81.4784 19.87305,-117.1308 20.79192,-48.4265 43.9617,-99.024 83.74023,-133.8614 54.60266,-2.8837 112.44838,5.7805 162.70118,-18.6718 25.8518,-4.2003 47.05748,0.7948 64.74414,-11.6328 15.18742,17.4976 8.30993,38.4825 5.60547,58.3847 6.03177,28.5444 32.75352,3.2177 47.47265,5.4043 2.22076,29.3515 23.65569,50.3836 54.32227,50.3906 -0.93743,28.7311 23.06665,44.1958 50.26371,42.961 12.8319,10.614 18.5924,32.665 38.7304,32.4101 20.8798,7.6905 -1.6103,26.4583 -7.9472,34.4453 -23.8654,30.7144 -44.4502,66.3349 -81.22855,83.8926 -19.11825,2.5619 -44.33095,3.2767 -58.1211,4.3985 -27.44386,40.4998 55.84686,4.7978 46.625,15.0371 0.40747,17.9048 -36.55054,28.5509 -28.01172,52.1523 20.52144,13.3856 23.41158,-24.981 39.12891,-34.3223 23.45311,-29.4176 55.14056,-52.7538 73.70116,-84.1601 16.637,-18.302 29.8532,-43.3263 48.416,-56.7598 37.2612,11.1539 72.0818,32.594 106.9434,44.7383 -5.1325,14.4264 -12.9339,31.5892 -24.5293,45.1192 -18.4229,29.5212 -35.0137,58.6254 -58.7344,81.9902 -18.8242,10.62 -44.6261,11.1668 -63.6836,25.1055 -9.649,26.6894 15.1534,13.1432 29.4004,6.7578 36.8545,-13.993 30.1176,85.5754 24.0762,75.2832 7.5363,17.162 27.0195,11.7585 20.498,-8.416 -2.0903,-34.1881 -13.5008,-81.6545 19.3535,-102.4278 23.8902,-35.3991 51.1693,-73.4253 70.8165,-111.1855 35.4318,1.1865 69.341,18.399 105.8242,18.5332 31.0169,7.2096 67.7968,9.6151 101.0918,11.666 27.2046,-2.7118 47.0355,-0.8654 71.6562,-5.5859 70.4393,-3.88 139.7747,-20.2151 203.6113,-46.4727 21.2208,-14.7985 24.9677,13.0266 28.0958,29.5547 10.7369,38.8547 27.6412,80.6336 36.7011,122.832 -8.2271,13.0793 -24.0823,23.1671 -34.6914,28.0625 -10.0086,5.9297 -24.455,31.8425 -6.3476,36.0781 14.037,-3.6736 10.4849,-22.4424 28.3359,-24.8652 13.6308,-4.0849 22.6802,-29.3205 29.2344,-5.0527 11.5602,16.271 5.8361,36.0294 21.0605,49.6816 25.9962,-6.5613 0.6953,-33.5819 -3.3887,-51.6797 -9.0803,-24.5585 -17.8844,-46.6239 -27.1953,-69.541 -6.7467,-19.3809 -17.2003,-51.8908 -23.8086,-75.3848 2.2285,-16.572 -25.3259,-55.6709 2.5606,-56.8984 19.9935,-12.2395 23.3797,-14.0392 58.7207,-23.6074 20.1636,-7.1803 44.7004,-19.8503 53.1758,-22.5703 6.7874,23.5455 26.6626,51.6156 28.455,71.9297 13.3179,31.0725 21.3416,65.5479 27.6856,98.1074 -4.8884,20.5149 -33.7412,34.217 -30.043,56.2519 20.6046,23.183 19.4263,-6.6287 29.6875,-19.1992 9.2554,-26.8513 25.9434,0.6663 29.5703,15.3926 12.9439,14.1347 14.1893,37.4011 32.5606,45.2129 18.6849,-16.2545 -14.7677,-37.1177 -19.8887,-54.6602 -16.8285,-21.2298 -9.4373,-51.405 -29.9414,-67.5508 -13.3295,-55.2726 -34.3454,-106.729 -51.7266,-159.5996 29.3987,-21.9853 62.6256,-40.6442 88.4981,-67.7461 36.56,-31.0984 66.8107,-73.6249 95.3164,-110.2285 25.8571,-42.0442 50.4899,-82.3981 62.6133,-129.61911 15.5598,-46.20613 17.8803,-96.08971 34.6933,-143.43555 8.8886,-34.04811 4.7997,-69.85116 5.5821,-104.20117 4.1645,-33.75842 -72.9071,-16.32819 -27.5059,-41.89258 26.1675,-18.79429 52.4376,-54.8249 41.4024,-88.07031 -16.0884,-22.01769 -48.7856,-14.94698 -66.2149,0.0937 -32.59,14.11213 -71.2246,26.87951 -106.6113,12.09961 -0.5097,-39.09284 -39.9658,-41.03035 -68.3281,-28.35742 -47.1339,1.62894 -87.2564,-46.80904 -135.7207,-28.07618 -18.8278,-16.0655 -46.2865,-23.16425 -70.3067,-30.08398 -34.2481,-11.16913 -74.4111,0.71336 -103.8086,-22.52148 -30.0116,-9.99368 -64.0208,-20.94812 -95.6289,-9.18946 -11.6579,5.182 -23.3379,7.18357 -29.9238,-2.2207 -33.2177,-12.67799 -67.7893,-29.95509 -103.9414,-22.27734 -27.273,-3.40031 -57.7812,14.67902 -78.3946,-1.5254 -35.4261,-2.10325 -71.6305,-1.26467 -105.8789,0.73633 -61.9317,6.81748 -125.0698,23.41458 -179.0195,53.875 -23.456,11.31244 -36.61135,18.77803 -56.36913,35.87696 -35.9613,25.87976 -76.94533,50.00492 -106.41797,85.46289 -35.55362,49.97654 -56.36369,-24.43317 -96.80078,-7.35157 -34.38155,33.59091 -41.66127,-12.52448 -76.2207,-8.07226 -19.46225,5.60823 -49.46209,48.71854 -48.48047,11.75781 -6.00828,-43.15754 -5.72444,-85.1595 -22.85937,-124.46484 -6.06399,-14.55116 -16.61006,-38.17313 -23.28126,-53.12305 -8.78928,-9.69219 -20.85743,-38.94928 -39.35351,-52.6543 -27.03979,-35.31914 -71.32199,-48.94233 -114.2168,-55.82226 -2.77199,-0.0472 -5.56108,-0.0807 -8.36328,-0.0957 z M 1104.5215,1601.6055 c -0.2769,-0.6306 -0.5405,-1.2847 -0.7832,-1.9766 0.2575,0.8875 0.5193,1.527 0.7832,1.9766 z M 401.02148,365.81445 c 46.76455,0.14771 95.47739,3.43477 134.1836,36.49414 27.94096,22.07688 48.14598,61.46741 63.59765,85.86719 10.46147,31.32061 28.06204,73.57254 26.60352,111.5332 4.4252,35.42744 15.47029,78.33939 -29.18359,88.44727 -14.98395,32.0165 -46.90745,30.04119 -61.30469,2.57031 -20.33139,-30.78281 -50.91247,-53.92634 -70.59375,-84.16992 -9.67974,-6.48278 -21.15074,-24.90899 -28.08789,-25.73633 -17.08318,-24.48807 -49.09724,-47.04406 -77.09571,-67.0957 -23.7306,-15.80752 -60.03321,-25.79539 -81.63671,-24.59961 3.09815,-10.42496 4.3645,-22.42222 9.23242,-30.74805 2.24619,-8.1174 3.28586,-10.63333 9.65625,-23.56445 5.44417,-12.03329 14.33035,-22.80444 21.4668,-30.37695 11.60252,-14.61294 41.2274,-32.31695 62.66015,-35.14258 5.35964,-5.15369 1.27504,1.93959 11.17969,-3.47461 3.09679,-0.0102 6.20463,-0.0137 9.32226,-0.004 z M 1282.0293,475.3457 c 25.2145,0.5562 41.5649,24.2105 66.1758,12.17383 25.9669,-7.63203 52.7383,-9.14374 79.2871,-8.16406 29.7729,6.22704 59.9911,22.85255 86.6992,29.23047 30.1744,-10.5426 66.5263,-11.22256 96.1387,1.84765 14.0465,6.4628 43.9082,27.36408 65.9277,20.02344 30.715,-2.21937 64.253,9.43902 94.6524,21.08203 21.4142,16.70883 45.1784,14.76537 70.7929,13.3418 38.6393,10.0721 74.8979,45.9453 115.7735,26.9082 28.3398,-14.24229 25.5989,11.9036 33.041,28.38282 41.1149,14.85126 86.6673,9.25111 127.6875,-12.95899 15.2586,-10.91274 52.3278,-18.72476 46.1543,8.16211 -7.0017,18.44315 -13.5419,36.45279 -32.2188,47.50781 -16.0504,15.97616 -33.0214,28.39437 -55.2968,31.66211 -49.7573,12.88563 13.2284,13.88914 25.6406,32.44336 12.0425,19.44095 3.0389,57.25905 -12.043,69.39258 -10.4364,14.66337 -30.8772,23.90626 -49.6543,34.52539 -10.6493,13.92543 -42.2188,2.63272 -48.0117,19.87695 5.5171,15.20559 44.8354,13.52831 27.0996,38.8125 -6.4797,14.54373 -18.1977,13.66952 -23.6172,19.64258 -26.0011,5.03648 -38.4673,19.55893 -27.1289,43.8125 -8.1709,22.98719 -47.831,13.90279 -46.1309,38.55664 -2.4557,34.13938 -46.3164,29.23208 -71.0859,34.13478 -33.9652,-10.0024 -82.093,17.2643 -60.168,55.1289 9.6217,24.4787 -30.4761,30.3267 -45.4355,30.6523 -18.4437,-1.3866 -25.5508,5.1896 -40.5156,17.3008 -10.0872,18.0688 -27.7982,28.6245 -50.1973,17.8887 -35.8393,-3.0176 -74.9551,-15.7927 -106.4687,-12.3008 -13.7605,23.2302 18.9094,48.0491 -9.793,64.8867 -30.6329,16.9588 -76.2217,21.184 -110.3652,1.125 -20.8654,2.5323 -33.4167,38.1552 -56.2598,16.4766 -37.4006,-16.7739 -73.4086,-41.5829 -111.3203,-57.7305 -16.9882,14.646 28.1978,35.2424 -2.8907,52.5235 -35.5834,20.2927 -72.178,-6.399 -107.4726,-13.0977 -37.7022,-17.8815 -66.6792,-51.1733 -102.582,-70.4043 -4.5454,-3.6662 -14.3843,-8.662 -23.8379,-20.1914 -8.2215,-9.4006 -37.94148,-29.3805 -16.2754,-5.0254 33.3931,39.5923 77.0996,69.8431 119.9726,99.877 36.8137,17.072 77.5639,30.377 117.9258,32.5586 15.8553,-3.9016 24.7315,-14.7344 36.2383,-23.627 5.5999,-8.241 5.4679,-29.2821 18.875,-15.7148 33.8752,12.4959 63.1052,48.3148 102.252,42.9296 18.1832,-23.7747 42.9407,-15.2804 68.1113,-7.5429 35.5084,0.7884 107.712,-8.8004 98.0293,-59.0645 -15.2135,-36.9776 43.7871,-11.1219 62.1992,-11.6035 27.7621,5.0529 70.0665,19.6399 85.1855,-15.3398 14.0489,-28.9973 44.8664,-9.5298 67.3223,-24.9942 20.8114,-8.3207 37.4025,-20.4766 25.9902,-46.3476 -25.2593,-22.2184 24.726,-39.6636 42.9219,-30.3946 30.7002,-3.6494 84.0117,-3.9249 89.2403,-46.44528 14.3064,-11.05616 35.4761,-20.6534 47.7441,-40.32421 -15.6889,-27.863 13.4744,-28.1013 31.3183,-41.56836 35.7654,-14.94697 3.2289,-59.62466 27.2852,-67.37891 27.8163,-17.68829 60.0214,-34.44748 73.0449,-68.11133 17.9114,-20.51465 -19.2032,-70.76013 22.336,-60.00781 15.6926,21.58763 0.6064,51.35404 1.6269,76.11719 3.1242,19.36002 -7.7818,28.74068 -11.1269,47.53711 -3.2431,15.40438 -11.1344,40.86896 -13.584,61.43164 -4.6491,20.12991 -5.5774,44.53674 -15.3985,63.61914 -4.2751,13.96239 -12.8586,38.62412 -15.2285,46.95902 -6.4477,16.5667 -21.3471,33.7881 -28.8711,49.2832 -15.0613,32.4868 -37.1709,62.213 -63.5214,91.1328 -12.1244,15.7242 -21.7682,24.1447 -36.377,38.1172 -25.5416,18.1838 -44.2105,47.5154 -71.1816,54.4961 -7.1883,12.1951 -25.4106,17.5076 -25.002,-2.6661 -11.8161,-30.4376 -16.6388,-68.3417 -34.9922,-92.8183 -20.847,0.1513 -1.9739,25.8443 0.8555,36.707 10.0759,25.7762 14.768,51.9322 22.5664,78.707 -18.4808,21.3396 -49.5009,25.2719 -74.3106,37.0879 -5.6778,-0.2682 -21.3708,10.3106 -26.9843,12.5059 -61.4454,21.4993 -120.7211,49.1454 -185.3145,60.0312 -24.7852,1.4898 -47.5481,7.5095 -76.7031,8.4063 -46.3813,2.4602 -93.5971,2.1876 -139.1074,-4.9121 -35.8856,-4.5528 -75.8173,-6.7798 -108.8731,-19.418 -34.8251,-2.4149 7.5143,-34.1851 8.836,-51.1523 1.4198,-12.2261 27.4933,-43.9516 1.5683,-43.1211 -13.1859,21.072 -19.7512,48.2919 -33.1699,67.9453 -13.6594,28.7029 -31.0993,0.5989 -50.959,-0.7149 -28.7039,-10.1794 -59.6936,-22.6385 -85.0859,-30.1289 -0.5461,-16.2154 -42.5172,-9.1663 -43.4043,-31.8164 -14.154,-22.4577 -51.53767,-5.4027 -57.32815,-36.5605 -5.0059,-27.6775 -44.25729,-13.9545 -49.25781,-41.3613 0.84973,-23.0698 -10.58828,-59.3327 -31.60937,-24.336 -33.0224,17.0829 -5.59439,-21.8048 -18.84571,-35.375 -4.06763,-18.6138 -18.28376,-36.1701 -30.61133,-44.7109 -13.42788,19.26 -29.4065,22.9165 -53.38085,20.0879 -21.34799,-1.2757 -41.83243,17.655 -66.26563,15.0527 -34.33566,8.378 -76.00514,5.3762 -111.09375,1.1387 -14.46479,14.3401 -21.91968,36.584 -36.13477,53.1308 -27.74734,30.3107 -37.2495,71.0973 -55.19335,106.4395 -8.2331,19.8247 -11.71875,39.7719 -12.64649,62.5234 -7.98853,30.6363 -5.44788,62.4945 -1.80273,92.6446 -20.32377,-28.444 -11.87209,-63.3552 -17.38672,-95.5489 4.76838,-32.8852 6.80792,-66.3197 13.21094,-98.875 8.4631,-51.0802 19.58824,-109.3532 54.51171,-152.7812 -4.47958,-23.066 -29.54049,-20.7518 -40.6875,-38.6016 -12.43428,-18.778 -32.40612,-32.2254 -41.5957,-52.914 7.5129,-8.88766 42.79115,-10.88627 22.19336,-28.20512 -19.72254,-18.20236 -42.04382,-40.32244 -26.51563,-69.60546 1.83296,-15.89845 -0.91345,-39.84987 21.13282,-42.91211 15.0983,-7.89935 13.89187,-17.49357 5.67968,-30.72852 -18.06886,-29.01269 28.75831,-38.36864 36.51758,-62.57812 9.23837,-11.83648 1.5351,-31.2297 19.57813,-38.7461 31.01134,5.88565 31.0652,-34.03564 57.85156,-37.02734 11.47166,-11.43287 27.29756,-11.95832 39.95313,-24.72461 16.82679,-8.23906 31.76069,-32.95052 53.96679,-23.95508 11.30027,23.82224 35.51434,16.64486 54.5,5.0293 27.33425,-14.25153 37.49755,18.09464 57.28711,25.22461 40.28217,2.3836 65.03965,-35.02611 96.38281,-53.46875 31.64139,-28.55726 63.66069,-58.75566 104.67187,-73.13282 5.3591,-12.91227 18.9547,-21.81061 35.9258,-26.02929 13.8024,-10.46227 37.0331,-18.15978 50.1777,-22.82422 22.8732,-1.0923 34.3381,-11.85759 55.4336,-12.67578 33.5928,-7.68743 67.5238,-9.36326 101.4317,-10.11133 4.0138,-1.03473 7.7963,-1.42711 11.3984,-1.34766 z M 670.92773,765.61914 c -69.38562,12.69128 -105.21985,89.56739 -99.4082,155.17774 4.27853,43.51586 14.6074,101.46462 58.0293,120.19922 21.21582,5.6929 40.69428,7.2519 54.27539,7.6133 11.50334,-2.3091 39.68647,2.315 50.23437,-9.5547 22.72599,-7.3654 40.23773,-32.342 51.8125,-52.94923 13.628,-26.25647 19.58298,-58.29318 19.39844,-89.8418 C 803.86381,849.921 787.86199,793.4825 737.10352,780.36719 717.30609,769.03705 692.9728,767.43021 670.92773,765.61914 Z m 8.44336,19.24805 c 43.40593,3.21461 92.5887,23.33771 101.38086,71.05859 14.41342,51.00754 6.63727,114.40407 -34.05664,150.86132 6.68799,-16.58632 10.45972,-45.29843 10.86719,-66.87304 0.028,-39.13343 -20.94621,-72.75171 -57.32227,-87.35351 -31.34068,-13.83604 -70.16481,-4.34035 -94.45507,17.69336 -11.04161,-7.59438 3.2779,-32.88323 8.99804,-44.37891 15.97749,-22.82124 36.19261,-40.09314 64.58789,-41.00781 z m 16.27149,96.60547 a 16.782537,16.782537 0 0 1 16.7832,16.7832 16.782537,16.782537 0 0 1 -16.7832,16.7832 16.782537,16.782537 0 0 1 -16.78125,-16.7832 16.782537,16.782537 0 0 1 16.78125,-16.7832 z m 589.08982,326.56254 c -0.3255,0.1302 0.3081,0.077 0,0 z m -2.3437,4.373 c -0.2106,0.1404 -0.089,0.19 0,0 z m -18.7559,15.625 c -0.019,-0.01 -0.071,0 -0.1758,0.021 -0.01,0.097 0.2315,0 0.1758,-0.021 z m -10.8984,37.8008 c -0.9186,-0.024 0.6074,0.6368 0.5547,0.059 -0.2428,-0.037 -0.4235,-0.055 -0.5547,-0.059 z m 8.3242,3.3203 c 0.04,0.074 0.2809,0.057 0,0 z"
           style="fill:#000000;stroke-width:0.70401371"
           inkscape:connector-curvature="0" />
        <path
           inkscape:connector-curvature="0"
           style="fill:#000000;stroke-width:1.33333337"
           d="m 3113.9688,2472.846 c -1.5719,-2.703 -1.9514,-1.8379 -0.6648,1.515 0.4573,1.1916 1.1122,1.8858 1.4556,1.5424 0.3433,-0.3432 -0.013,-1.719 -0.7908,-3.0574 z"
           id="path5416" />
        <path
           inkscape:connector-curvature="0"
           style="fill:#000000;stroke-width:1.33333337"
           d="m 3186.7168,2293.496 c -0.4256,-1.0636 -0.7416,-0.7478 -0.8056,0.8056 -0.057,1.4054 0.2573,2.193 0.7004,1.75 0.443,-0.4431 0.4904,-1.5931 0.1053,-2.5556 z"
           id="path5414" />
        <path
           inkscape:connector-curvature="0"
           style="fill:#000000;stroke-width:1.33333337"
           d="m 849.13917,2061.746 c -0.45323,-0.7334 -0.18864,-1.3334 0.58797,-1.3334 0.77661,0 1.41203,0.6 1.41203,1.3334 0,0.7333 -0.26459,1.3333 -0.58798,1.3333 -0.32338,0 -0.9588,-0.6 -1.41202,-1.3333 z"
           id="path5410" />
        <path
           inkscape:connector-curvature="0"
           style="fill:#000000;stroke-width:1.33333337"
           d="m 2223.1393,1940.334 c 0,-0.7767 0.6,-1.0412 1.3333,-0.588 0.7333,0.4532 1.3333,1.0886 1.3333,1.412 0,0.3234 -0.6,0.588 -1.3333,0.588 -0.7333,0 -1.3333,-0.6355 -1.3333,-1.412 z"
           id="path5408" />
        <path
           inkscape:connector-curvature="0"
           style="fill:#000000;stroke-width:1.33333337"
           d="m 849.4725,1831.9702 c -0.55,-1.3433 -0.98176,-4.0433 -0.95945,-6 0.0352,-3.0929 0.22052,-3.2484 1.41861,-1.1902 0.75793,1.302 1.18969,4.002 0.95945,6 -0.34961,3.0338 -0.58345,3.2301 -1.41861,1.1902 z"
           id="path5406" />
        <path
           inkscape:connector-curvature="0"
           style="fill:#000000;stroke-width:1.33333337"
           d="m 2021.5559,1798.1685 c 0.9626,-0.3852 2.1126,-0.3379 2.5556,0.1053 0.4431,0.4431 -0.3445,0.7583 -1.75,0.7004 -1.5533,-0.064 -1.8692,-0.38 -0.8056,-0.8056 z"
           id="path5404" />
        <path
           inkscape:connector-curvature="0"
           style="fill:#000000;stroke-width:1.33333337"
           d="m 2917.556,1664.8352 c 0.9625,-0.3852 2.1125,-0.3379 2.5556,0.1053 0.443,0.4431 -0.3446,0.7583 -1.75,0.7004 -1.5534,-0.064 -1.8692,-0.38 -0.8056,-0.8056 z"
           id="path5402" />
        <path
           inkscape:connector-curvature="0"
           style="fill:#000000;stroke-width:1.33333337"
           d="m 3923.1393,749.90338 c 0,-0.73334 0.6,-1.70415 1.3334,-2.15738 0.7333,-0.45322 1.3333,-0.22404 1.3333,0.5093 0,0.73333 -0.6,1.70414 -1.3333,2.15737 -0.7334,0.45323 -1.3334,0.22404 -1.3334,-0.50929 z"
           id="path5396" />
        <path
           inkscape:connector-curvature="0"
           style="fill:#000000;stroke-width:1.33333337"
           d="m 1573.8059,718.0045 c 0,-0.69592 0.9,-2.01224 2,-2.92516 1.1,-0.91292 2,-1.24354 2,-0.7347 0,0.50884 -0.9,1.82518 -2,2.92518 -1.1,1.1 -2,1.4306 -2,0.73468 z"
           id="path5394" />
        <path
           inkscape:connector-curvature="0"
           style="fill:#000000;stroke-width:1.33333337"
           d="m 821.39648,2172.7713 c -0.33805,-1.2972 -0.63688,-0.5587 -0.66405,1.6413 -0.0272,2.2 0.24941,3.2615 0.61465,2.3587 0.36523,-0.9027 0.38746,-2.7027 0.0495,-4 z"
           id="path5392" />
        <path
           inkscape:connector-curvature="0"
           style="fill:#000000;stroke-width:1.33333337"
           d="m 2950.1646,2088.822 c 1.2974,-0.338 3.0974,-0.3159 4,0.049 0.9028,0.3652 -0.1586,0.6417 -2.3586,0.6147 -2.2,-0.027 -2.9386,-0.326 -1.6414,-0.6642 z"
           id="path5388" />
        <path
           inkscape:connector-curvature="0"
           style="fill:#000000;stroke-width:1.33333337"
           d="m 2182.7782,2116.9404 c -0.4431,-0.4431 -1.5931,-0.4904 -2.5556,-0.1054 -1.0636,0.4256 -0.7477,0.7416 0.8056,0.8056 1.4055,0.057 2.1931,-0.2573 1.75,-0.7004 z"
           id="path5386" />
        <path
           inkscape:connector-curvature="0"
           style="fill:#000000;stroke-width:1.33333337"
           d="m 2079.1393,2072.4126 c 0,-0.7333 -0.6355,-1.3333 -1.412,-1.3333 -0.7767,0 -1.0412,0.6 -0.588,1.3333 0.4532,0.7334 1.0886,1.3334 1.412,1.3334 0.3234,0 0.588,-0.6 0.588,-1.3334 z"
           id="path5384" />
        <path
           inkscape:connector-curvature="0"
           style="fill:#000000;stroke-width:1.33333337"
           d="m 3039.1393,2064.4126 c 0,-0.7333 -0.6355,-1.3333 -1.412,-1.3333 -0.7767,0 -1.0412,0.6 -0.588,1.3333 0.4532,0.7334 1.0887,1.3334 1.412,1.3334 0.3235,0 0.588,-0.6 0.588,-1.3334 z"
           id="path5382" />
        <path
           inkscape:connector-curvature="0"
           style="fill:#000000;stroke-width:1.33333337"
           d="m 3434.4727,2051.0793 c 0.4532,-0.7333 0.1886,-1.3333 -0.588,-1.3333 -0.7766,0 -1.412,0.6 -1.412,1.3333 0,0.7333 0.2645,1.3333 0.588,1.3333 0.3233,0 0.9588,-0.6 1.412,-1.3333 z"
           id="path5380" />
        <path
           inkscape:connector-curvature="0"
           style="fill:#000000;stroke-width:1.33333337"
           d="m 817.38331,2038.8293 c -0.42563,-1.0636 -0.74157,-0.7477 -0.80555,0.8056 -0.0579,1.4055 0.25724,2.1931 0.7003,1.75 0.44305,-0.4431 0.49041,-1.5931 0.1052,-2.5556 z"
           id="path5378" />
        <path
           inkscape:connector-curvature="0"
           style="fill:#000000;stroke-width:1.33333337"
           d="m 2022.4726,2016.4126 c -0.4532,-0.7333 -1.5387,-1.3241 -2.412,-1.3129 -0.9541,0.013 -0.7897,0.5363 0.412,1.3129 1.1,0.711 2.1855,1.3018 2.412,1.313 0.2267,0.013 0.041,-0.5796 -0.412,-1.313 z"
           id="path5376" />
        <path
           inkscape:connector-curvature="0"
           style="fill:#000000;stroke-width:1.33333337"
           d="m 3799.1393,1480.4126 c 0,-0.7333 0.6355,-1.3333 1.412,-1.3333 0.7767,0 1.0412,0.6 0.588,1.3333 -0.4532,0.7334 -1.0886,1.3334 -1.412,1.3334 -0.3234,0 -0.588,-0.6 -0.588,-1.3334 z"
           id="path5372" />
        <path
           inkscape:connector-curvature="0"
           style="fill:#000000;stroke-width:1.33333337"
           d="m 3814.4976,1457.1205 c 0.1604,-2.6412 0.6704,-5.1809 1.1333,-5.6439 1.2598,-1.2597 0.9754,6.6608 -0.312,8.691 -0.6918,1.0912 -1.0025,-0.061 -0.8213,-3.0471 z"
           id="path5370" />
        <path
           inkscape:connector-curvature="0"
           style="fill:#000000;stroke-width:1.33333337"
           d="m 3831.1801,1418.4126 c 0,-0.7333 0.5816,-2.2333 1.2926,-3.3333 0.7109,-1.1 1.2925,-1.4 1.2925,-0.6667 0,0.7334 -0.5816,2.2334 -1.2925,3.3334 -0.711,1.1 -1.2926,1.4 -1.2926,0.6666 z"
           id="path5368" />
        <path
           inkscape:connector-curvature="0"
           style="fill:#000000;stroke-width:1.33333337"
           d="m 3541.806,1812.4126 c 0,-0.7333 -0.6,-1.3333 -1.3333,-1.3333 -0.7334,0 -1.3334,0.6 -1.3334,1.3333 0,0.7334 0.6,1.3334 1.3334,1.3334 0.7333,0 1.3333,-0.6 1.3333,-1.3334 z"
           id="path5366" />
        <path
           inkscape:connector-curvature="0"
           style="fill:#000000;stroke-width:1.33333337"
           d="m 2090.4726,1791.0793 c -0.4532,-0.7333 -1.5387,-1.3241 -2.412,-1.3129 -0.9541,0.013 -0.7897,0.5362 0.412,1.3129 1.1,0.7109 2.1855,1.3017 2.412,1.3129 0.2267,0.013 0.041,-0.5796 -0.412,-1.3129 z"
           id="path5364" />
        <path
           inkscape:connector-curvature="0"
           style="fill:#000000;stroke-width:1.33333337"
           d="m 2074.7782,1786.2737 c -0.4431,-0.4431 -1.5931,-0.4904 -2.5556,-0.1053 -1.0636,0.4256 -0.7477,0.7416 0.8056,0.8056 1.4055,0.057 2.1931,-0.2574 1.75,-0.7004 z"
           id="path5362" />
        <path
           inkscape:connector-curvature="0"
           style="fill:#000000;stroke-width:1.33333337"
           d="m 864.02221,1750.746 c -0.36988,-0.9167 -0.67252,-0.1667 -0.67252,1.6666 0,1.8334 0.30264,2.5834 0.67252,1.6667 0.36988,-0.9167 0.36988,-2.4167 0,-3.3333 z"
           id="path5360" />
        <path
           inkscape:connector-curvature="0"
           style="fill:#000000;stroke-width:1.33333337"
           d="m 2331.1393,1743.0793 c 0,-0.7333 -0.2646,-1.3333 -0.588,-1.3333 -0.3234,0 -0.9588,0.6 -1.412,1.3333 -0.4532,0.7333 -0.1887,1.3333 0.588,1.3333 0.7765,0 1.412,-0.6 1.412,-1.3333 z"
           id="path5358" />
        <path
           inkscape:connector-curvature="0"
           style="fill:#000000;stroke-width:1.33333337"
           d="m 1524.9327,1673.0218 c -0.4343,-1.1316 -1.0755,-1.7716 -1.4251,-1.4221 -0.3494,0.3496 -0.24,1.2755 0.2435,2.0576 1.3147,2.1272 2.0832,1.714 1.1816,-0.6355 z"
           id="path5354" />
        <path
           inkscape:connector-curvature="0"
           style="fill:#000000;stroke-width:1.33333337"
           d="m 2898.1646,1666.2048 c -0.9026,-0.3654 -2.7026,-0.3875 -4,-0.049 -1.2972,0.3382 -0.5586,0.637 1.6414,0.6642 2.2,0.027 3.2614,-0.2495 2.3586,-0.6147 z"
           id="path5352" />
        <path
           inkscape:connector-curvature="0"
           style="fill:#000000;stroke-width:1.33333337"
           d="m 3712.9815,1631.6768 c 0.4553,-1.1867 0.2317,-1.7219 -0.5242,-1.2547 -0.7249,0.448 -1.318,1.3792 -1.318,2.0692 0,1.9179 0.9558,1.4953 1.8422,-0.8145 z"
           id="path5350" />
        <path
           inkscape:connector-curvature="0"
           style="fill:#000000;stroke-width:1.33333337"
           d="m 3737.3239,1594.4126 c -0.4222,-1.1 -0.087,-2 0.7462,-2 0.8326,0 1.1536,-0.3601 0.7135,-0.8001 -1.4007,-1.4007 -3.5577,0.8077 -2.7767,2.8428 0.4131,1.0765 1.0511,1.9573 1.4178,1.9573 0.3666,0 0.3213,-0.9 -0.1014,-2 z"
           id="path5348" />
        <path
           inkscape:connector-curvature="0"
           style="fill:#000000;stroke-width:1.33333337"
           d="m 3743.1393,1588.4913 c 0,-0.69 -0.537,-1.5865 -1.1936,-1.9923 -0.6565,-0.4057 -1.5377,0.1588 -1.9581,1.2546 -0.4644,1.2102 0,1.9924 1.1936,1.9924 1.0769,0 1.9581,-0.5646 1.9581,-1.2547 z"
           id="path5346" />
        <path
           inkscape:connector-curvature="0"
           style="fill:#000000;stroke-width:1.33333337"
           d="m 3846.4727,1459.0793 c 0.4532,-0.7333 0.1886,-1.3333 -0.588,-1.3333 -0.7766,0 -1.412,0.6 -1.412,1.3333 0,0.7333 0.2645,1.3333 0.588,1.3333 0.3233,0 0.9588,-0.6 1.412,-1.3333 z"
           id="path5344" />
        <path
           inkscape:connector-curvature="0"
           style="fill:#000000;stroke-width:1.33333337"
           d="m 787.13916,1417.158 c 0,-0.3234 -0.6,-0.9588 -1.33333,-1.412 -0.73333,-0.4532 -1.33333,-0.1887 -1.33333,0.588 0,0.7765 0.6,1.412 1.33333,1.412 0.73333,0 1.33333,-0.2646 1.33333,-0.588 z"
           id="path5342" />
        <path
           inkscape:connector-curvature="0"
           style="fill:#000000;stroke-width:1.33333337"
           d="m 3864.0501,1336.1626 c -0.4256,-1.0636 -0.7416,-0.7477 -0.8056,0.8056 -0.057,1.4055 0.2574,2.1931 0.7004,1.75 0.4431,-0.443 0.4904,-1.593 0.1054,-2.5556 z"
           id="path5340" />
        <path
           inkscape:connector-curvature="0"
           style="fill:#000000;stroke-width:1.33333337"
           d="m 3881.2783,1266.107 c -1.3554,-1.3553 -2.4738,0.6852 -1.3618,2.4846 0.8402,1.3592 1.1542,1.3602 1.6059,0 0.3087,-0.9263 0.1989,-2.0468 -0.2441,-2.4899 z"
           id="path5338" />
        <path
           inkscape:connector-curvature="0"
           style="fill:#000000;stroke-width:1.33333337"
           d="m 820.4725,1063.0793 c 0,-0.7333 -0.63542,-1.3333 -1.41203,-1.3333 -0.77661,0 -1.0412,0.6 -0.58797,1.3333 0.45322,0.7333 1.08864,1.3333 1.41202,1.3333 0.32339,0 0.58798,-0.6 0.58798,-1.3333 z"
           id="path5336" />
        <path
           inkscape:connector-curvature="0"
           style="fill:#000000;stroke-width:1.33333337"
           d="m 3933.3835,1037.496 c -0.4256,-1.0637 -0.7416,-0.7477 -0.8056,0.8055 -0.057,1.4056 0.2573,2.1931 0.7004,1.75 0.443,-0.443 0.4904,-1.593 0.1053,-2.5555 z"
           id="path5334" />
        <path
           inkscape:connector-curvature="0"
           style="fill:#000000;stroke-width:1.33333337"
           d="m 354.77804,1020.9404 c -0.44307,-0.443 -1.59307,-0.4904 -2.55556,-0.1052 -1.06364,0.4256 -0.74771,0.7416 0.80556,0.8056 1.40555,0.058 2.19305,-0.2573 1.75,-0.7003 z"
           id="path5332" />
        <path
           inkscape:connector-curvature="0"
           style="fill:#000000;stroke-width:1.33333337"
           d="m 867.13917,1004.4126 c 0,-0.7333 -0.93542,-1.3333 -2.0787,-1.3333 -1.14328,0 -1.70786,0.6 -1.25464,1.3333 0.45323,0.7334 1.38864,1.3334 2.0787,1.3334 0.69005,0 1.25464,-0.6 1.25464,-1.3334 z"
           id="path5330" />
        <path
           inkscape:connector-curvature="0"
           style="fill:#000000;stroke-width:1.33333337"
           d="m 331.13914,939.65214 c 0,-0.3666 -1.2,-0.024 -2.66666,0.7605 -1.46667,0.785 -2.66667,1.7272 -2.66667,2.0939 0,0.3666 1.2,0.024 2.66667,-0.7605 1.46666,-0.785 2.66666,-1.7272 2.66666,-2.0939 z"
           id="path5326" />
        <path
           inkscape:connector-curvature="0"
           style="fill:#000000;stroke-width:1.33333337"
           d="m 411.13915,936.41264 c 0,-0.7333 -0.6,-1.3333 -1.33334,-1.3333 -0.73333,0 -1.33333,0.6 -1.33333,1.3333 0,0.7334 0.6,1.3334 1.33333,1.3334 0.73334,0 1.33334,-0.6 1.33334,-1.3334 z"
           id="path5324" />
        <path
           inkscape:connector-curvature="0"
           style="fill:#000000;stroke-width:1.33333337"
           d="m 410.47248,932.41264 c -0.45323,-0.7333 -1.53864,-1.3241 -2.41203,-1.3129 -0.95414,0.012 -0.78969,0.5363 0.41203,1.3129 1.1,0.7109 2.18541,1.3017 2.41203,1.313 0.22661,0.011 0.0412,-0.5796 -0.41203,-1.313 z"
           id="path5322" />
        <path
           inkscape:connector-curvature="0"
           style="fill:#000000;stroke-width:1.33333337"
           d="m 3941.3557,922.74604 c -0.3698,-0.9167 -0.6725,-0.1667 -0.6725,1.6666 0,1.8334 0.3027,2.5834 0.6725,1.6667 0.3699,-0.9167 0.3699,-2.4167 0,-3.3333 z"
           id="path5320" />
        <path
           inkscape:connector-curvature="0"
           style="fill:#000000;stroke-width:1.33333337"
           d="m 895.80583,831.07934 c -0.45322,-0.73334 -0.18864,-1.33334 0.58798,-1.33334 0.77661,0 1.41202,0.6 1.41202,1.33334 0,0.73333 -0.26458,1.33333 -0.58797,1.33333 -0.32339,0 -0.9588,-0.6 -1.41203,-1.33333 z"
           id="path5314" />
        <path
           inkscape:connector-curvature="0"
           style="fill:#000000;stroke-width:1.33333337"
           d="m 522.47249,468.41267 c -0.45323,-0.73333 -0.18864,-1.33333 0.58797,-1.33333 0.77661,0 1.41203,0.6 1.41203,1.33333 0,0.73333 -0.26459,1.33333 -0.58798,1.33333 -0.32338,0 -0.9588,-0.6 -1.41202,-1.33333 z"
           id="path5312" />
        <path
           inkscape:connector-curvature="0"
           style="fill:#000000;stroke-width:1.33333337"
           d="m 1142.4726,761.746 c 0.4532,-0.73333 0.224,-1.33333 -0.5093,-1.33333 -0.7334,0 -1.7042,0.6 -2.1574,1.33333 -0.4532,0.73334 -0.224,1.33334 0.5093,1.33334 0.7333,0 1.7041,-0.6 2.1574,-1.33334 z"
           id="path5308" />
        <path
           inkscape:connector-curvature="0"
           style="fill:#000000;stroke-width:1.33333337"
           d="m 1274.778,754.27378 c -0.443,-0.44306 -1.593,-0.49042 -2.5555,-0.1052 -1.0637,0.42562 -0.7477,0.74157 0.8055,0.80554 1.4056,0.0579 2.1931,-0.25724 1.75,-0.70029 z"
           id="path5306" />
        <path
           inkscape:connector-curvature="0"
           style="fill:#000000;stroke-width:1.33333337"
           d="m 818.33515,737.52378 c -0.37768,-0.61111 -1.25129,-1.11111 -1.94135,-1.11111 -0.69005,0 -1.25464,0.5 -1.25464,1.11111 0,0.61112 0.87362,1.11112 1.94135,1.11112 1.06775,0 1.63233,-0.5 1.25464,-1.11112 z"
           id="path5304" />
        <path
           inkscape:connector-curvature="0"
           style="fill:#000000;stroke-width:1.33333337"
           d="m 796.4725,716.55532 c 0,-0.65488 -0.86944,-1.52432 -1.9321,-1.93209 -1.29136,-0.49555 -1.68622,-0.10067 -1.19068,1.19068 0.80928,2.10897 3.12278,2.65824 3.12278,0.74141 z"
           id="path5302" />
        <path
           inkscape:connector-curvature="0"
           style="fill:#000000;stroke-width:1.33333337"
           d="m 251.13917,667.07934 c 0,-0.73334 -0.6,-1.33334 -1.3334,-1.33334 -0.7333,0 -1.3333,0.6 -1.3333,1.33334 0,0.73333 0.6,1.33333 1.3333,1.33333 0.7334,0 1.3334,-0.6 1.3334,-1.33333 z"
           id="path5300" />
        <path
           inkscape:connector-curvature="0"
           style="fill:#000000;stroke-width:1.33333337"
           d="m 3493.1393,632.41267 c 0.4532,-0.73333 0.1887,-1.33333 -0.588,-1.33333 -0.7765,0 -1.412,0.6 -1.412,1.33333 0,0.73333 0.2646,1.33333 0.588,1.33333 0.3234,0 0.9588,-0.6 1.412,-1.33333 z"
           id="path5294" />
        <path
           inkscape:connector-curvature="0"
           style="fill:#000000;stroke-width:1.33333337"
           d="m 3347.1384,573.41267 c 0,-1.41152 -5.0214,-1.24861 -5.9116,0.19173 -0.4051,0.65546 0.759,1.10546 2.587,1 1.828,-0.10546 3.324,-0.64173 3.3246,-1.19173 z"
           id="path5292" />
        <path
           inkscape:connector-curvature="0"
           style="fill:#000000;stroke-width:1.33333337"
           d="m 267.13917,567.8247 c 0,-0.32339 -0.6,-0.9588 -1.3334,-1.41203 -0.7333,-0.45323 -1.3333,-0.18864 -1.3333,0.58797 0,0.77662 0.6,1.41203 1.3333,1.41203 0.7334,0 1.3334,-0.26459 1.3334,-0.58797 z"
           id="path5290" />
        <path
           inkscape:connector-curvature="0"
           style="fill:#000000;stroke-width:1.33333337"
           d="m 3172.4726,532.41267 c 0,-0.73333 -0.6354,-1.33333 -1.412,-1.33333 -0.7766,0 -1.0412,0.6 -0.588,1.33333 0.4532,0.73333 1.0887,1.33333 1.412,1.33333 0.3235,0 0.588,-0.6 0.588,-1.33333 z"
           id="path5288" />
        <path
           inkscape:connector-curvature="0"
           style="fill:#000000;stroke-width:1.33333337"
           d="m 387.13915,514.49136 c 0,-0.32338 -0.6,-0.9588 -1.33334,-1.41202 -0.73333,-0.45323 -1.33333,-0.18864 -1.33333,0.58797 0,0.77661 0.6,1.41203 1.33333,1.41203 0.73334,0 1.33334,-0.26459 1.33334,-0.58798 z"
           id="path5286" />
        <path
           inkscape:connector-curvature="0"
           style="fill:#000000;stroke-width:1.33333337"
           d="m 386.71663,498.82934 c -0.42563,-1.06364 -0.74158,-0.74771 -0.80555,0.80556 -0.0579,1.40554 0.25723,2.19305 0.70029,1.75 0.44306,-0.44306 0.49042,-1.59307 0.1052,-2.55556 z"
           id="path5282" />
        <path
           inkscape:connector-curvature="0"
           style="fill:#000000;stroke-width:1.33333337"
           d="m 1898.4726,459.07934 c -0.4532,-0.73334 -1.424,-1.33334 -2.1573,-1.33334 -0.7334,0 -0.9626,0.6 -0.5094,1.33334 0.4532,0.73333 1.424,1.33333 2.1574,1.33333 0.7333,0 0.9625,-0.6 0.5093,-1.33333 z"
           id="path5280" />
        <path
           inkscape:connector-curvature="0"
           style="fill:#000000;stroke-width:1.33333337"
           d="m 1926.4726,444.41267 c 0.4532,-0.73333 0.224,-1.33333 -0.5093,-1.33333 -0.7334,0 -1.7042,0.6 -2.1574,1.33333 -0.4532,0.73333 -0.224,1.33333 0.5094,1.33333 0.7333,0 1.7041,-0.6 2.1573,-1.33333 z"
           id="path5276" />
        <path
           inkscape:connector-curvature="0"
           style="fill:#000000;stroke-width:1.33333337"
           d="m 2039.6686,432.6349 c 0.3777,-0.61112 -0.1605,-1.11112 -1.196,-1.11112 -1.0355,0 -1.5737,0.5 -1.196,1.11112 0.3777,0.6111 0.9159,1.1111 1.196,1.1111 0.2801,0 0.8183,-0.5 1.196,-1.1111 z"
           id="path5274" />
        <path
           inkscape:connector-curvature="0"
           style="fill:#000000;stroke-width:1.33333337"
           d="m 1031.6685,417.52378 c -0.3777,-0.61111 -1.2513,-1.11111 -1.9413,-1.11111 -0.6901,0 -1.2547,0.5 -1.2547,1.11111 0,0.61112 0.8736,1.11112 1.9414,1.11112 1.0677,0 1.6323,-0.5 1.2546,-1.11112 z"
           id="path5272" />
        <path
           inkscape:connector-curvature="0"
           style="fill:#000000;stroke-width:1.33333337"
           d="m 2262.8097,410.07028 c 0.365,-1.09681 -0.4936,-1.51524 -2.4859,-1.21121 -3.9651,0.60512 -4.8431,3.24092 -1.0129,3.04068 1.6174,-0.0845 3.1918,-0.90781 3.4988,-1.82947 z"
           id="path5270" />
        <path
           inkscape:connector-curvature="0"
           style="fill:#000000;stroke-width:1.33333337"
           d="m 2183.8059,409.746 c 0.4532,-0.73333 0.224,-1.33333 -0.5093,-1.33333 -0.7333,0 -1.7041,0.6 -2.1573,1.33333 -0.4532,0.73334 -0.224,1.33334 0.5093,1.33334 0.7333,0 1.7041,-0.6 2.1573,-1.33334 z"
           id="path5268" />
        <path
           inkscape:connector-curvature="0"
           style="fill:#000000;stroke-width:1.33333337"
           d="m 2206.2621,407.81391 c 0.4954,-1.29136 0.1,-1.68623 -1.1907,-1.19068 -2.1091,0.80928 -2.6583,3.12277 -0.7415,3.12277 0.655,0 1.5243,-0.86944 1.9322,-1.93209 z"
           id="path5266" />
        <path
           inkscape:connector-curvature="0"
           style="fill:#000000;stroke-width:1.33333337"
           d="m 2442.8883,405.39736 c 0.2584,-1.34182 -0.3682,-2.31802 -1.488,-2.31802 -2.3814,0 -5.245,3.23824 -3.9812,4.5021 1.5958,1.59575 5.0034,0.23495 5.4692,-2.18408 z"
           id="path5264" />
        <path
           inkscape:connector-curvature="0"
           style="fill:#000000;stroke-width:1.33333337"
           d="m 2265.8059,403.07934 c 1.1,-0.71088 1.4,-1.2925 0.6667,-1.2925 -0.7333,0 -2.2333,0.58162 -3.3333,1.2925 -1.1,0.71088 -1.4,1.29249 -0.6667,1.29249 0.7333,0 2.2333,-0.58161 3.3333,-1.29249 z"
           id="path5262" />
        <path
           inkscape:connector-curvature="0"
           style="fill:#000000;stroke-width:1.33333337"
           d="m 1019.1392,395.07934 c 0,-0.73334 -0.6,-1.33334 -1.3334,-1.33334 -0.7333,0 -1.3333,0.6 -1.3333,1.33334 0,0.73333 0.6,1.33333 1.3333,1.33333 0.7334,0 1.3334,-0.6 1.3334,-1.33333 z"
           id="path5260" />
        <path
           inkscape:connector-curvature="0"
           style="fill:#000000;stroke-width:1.33333337"
           d="m 464.47248,283.07935 c 0,-0.73334 -0.6,-1.33334 -1.33333,-1.33334 -0.73333,0 -1.33333,0.6 -1.33333,1.33334 0,0.73333 0.6,1.33333 1.33333,1.33333 0.73333,0 1.33333,-0.6 1.33333,-1.33333 z"
           id="path5258" />
        <path
           inkscape:connector-curvature="0"
           style="fill:#000000;stroke-width:1.33333337"
           d="m 587.13915,204.41268 c 0,-0.73333 -0.26458,-1.33333 -0.58797,-1.33333 -0.32339,0 -0.9588,0.6 -1.41203,1.33333 -0.45322,0.73333 -0.18864,1.33333 0.58798,1.33333 0.77661,0 1.41202,-0.6 1.41202,-1.33333 z"
           id="path5256" />
        <path
           inkscape:connector-curvature="0"
           style="fill:#000000;stroke-width:1.33333337"
           d="m 3135.1393,2423.0006 c 0,-0.7766 0.6,-1.0412 1.3333,-0.588 0.7334,0.4532 1.3334,1.0887 1.3334,1.412 0,0.3235 -0.6,0.588 -1.3334,0.588 -0.7333,0 -1.3333,-0.6354 -1.3333,-1.412 z"
           id="path5254" />
        <path
           inkscape:connector-curvature="0"
           style="fill:#000000;stroke-width:1.33333337"
           d="m 1910.8893,2362.1685 c 0.9625,-0.3852 2.1125,-0.3379 2.5556,0.1053 0.443,0.4431 -0.3446,0.7583 -1.75,0.7004 -1.5534,-0.064 -1.8692,-0.38 -0.8056,-0.8056 z"
           id="path5252" />
        <path
           inkscape:connector-curvature="0"
           style="fill:#000000;stroke-width:1.33333337"
           d="m 1933.4726,2355.5296 c 0.9167,-0.3699 2.4167,-0.3699 3.3333,0 0.9167,0.3698 0.1667,0.6725 -1.6666,0.6725 -1.8334,0 -2.5834,-0.3027 -1.6667,-0.6725 z"
           id="path5250" />
        <path
           inkscape:connector-curvature="0"
           style="fill:#000000;stroke-width:1.33333337"
           d="m 1952.117,2349.5805 c 0.9045,-0.9112 1.9804,-1.3209 2.3909,-0.9104 0.4104,0.4105 -0.3296,1.1561 -1.6445,1.6568 -1.9003,0.7236 -2.0533,0.5704 -0.7464,-0.7464 z"
           id="path5248" />
        <path
           inkscape:connector-curvature="0"
           style="fill:#000000;stroke-width:1.33333337"
           d="m 2019.8059,2292.4126 c 0.4532,-0.7333 1.0887,-1.3333 1.412,-1.3333 0.3235,0 0.588,0.6 0.588,1.3333 0,0.7334 -0.6354,1.3334 -1.412,1.3334 -0.7766,0 -1.0412,-0.6 -0.588,-1.3334 z"
           id="path5246" />
        <path
           inkscape:connector-curvature="0"
           style="fill:#000000;stroke-width:1.33333337"
           d="m 2079.1393,2077.6673 c 0,-0.7767 0.6,-1.0412 1.3333,-0.588 0.7333,0.4532 1.3333,1.0887 1.3333,1.412 0,0.3235 -0.6,0.588 -1.3333,0.588 -0.7333,0 -1.3333,-0.6355 -1.3333,-1.412 z"
           id="path5244" />
        <path
           inkscape:connector-curvature="0"
           style="fill:#000000;stroke-width:1.33333337"
           d="m 787.80583,2056.4126 c 0.45323,-0.7333 1.08864,-1.3333 1.41203,-1.3333 0.32338,0 0.58797,0.6 0.58797,1.3333 0,0.7334 -0.63541,1.3334 -1.41203,1.3334 -0.77661,0 -1.0412,-0.6 -0.58797,-1.3334 z"
           id="path5242" />
        <path
           inkscape:connector-curvature="0"
           style="fill:#000000;stroke-width:1.33333337"
           d="m 938.4725,1881.746 c 0.45323,-0.7334 1.08864,-1.3334 1.41203,-1.3334 0.32339,0 0.58797,0.6 0.58797,1.3334 0,0.7333 -0.63541,1.3333 -1.41202,1.3333 -0.77662,0 -1.0412,-0.6 -0.58798,-1.3333 z"
           id="path5240" />
        <path
           inkscape:connector-curvature="0"
           style="fill:#000000;stroke-width:1.33333337"
           d="m 1045.3614,447.52378 c -0.4889,-0.48888 -0.8889,-1.50888 -0.8889,-2.26667 0,-0.83547 0.621,-0.75675 1.5778,0.2 0.8678,0.86779 1.2678,1.88779 0.8889,2.26667 -0.3789,0.37889 -1.0889,0.28889 -1.5778,-0.2 z"
           id="path5203" />
      </g>
      <g
         transform="matrix(0,14.059653,-14.059653,0,4067.5114,791.58618)"
         id="g20609">
        <path
           d="m -43.705735,295.1768 h 3.28083"
           style="fill:none;stroke:#000000;stroke-width:0.6773333;stroke-linecap:round;stroke-linejoin:round;stroke-miterlimit:10;stroke-dasharray:none;stroke-opacity:1"
           id="path9292"
           inkscape:connector-curvature="0" />
        <path
           d="m -40.424905,295.1768 h 3.28084"
           style="fill:none;stroke:#000000;stroke-width:0.6773333;stroke-linecap:round;stroke-linejoin:round;stroke-miterlimit:10;stroke-dasharray:none;stroke-opacity:1"
           id="path9294"
           inkscape:connector-curvature="0" />
        <path
           d="m -37.144065,295.1768 v -3.28084"
           style="fill:none;stroke:#000000;stroke-width:0.6773333;stroke-linecap:round;stroke-linejoin:round;stroke-miterlimit:10;stroke-dasharray:none;stroke-opacity:1"
           id="path9296"
           inkscape:connector-curvature="0" />
        <path
           d="m -40.424905,286.1598 0.0212,0.46566 0.10583,0.4445 0.16934,0.4445 0.21166,0.40217 0.29634,0.381 0.3175,0.33867 0.381,0.27516 0.40216,0.23284 0.4445,0.14816 0.46567,0.10584 0.46567,0.0423"
           style="fill:none;stroke:#000000;stroke-width:0.6773333;stroke-linecap:round;stroke-linejoin:round;stroke-miterlimit:10;stroke-dasharray:none;stroke-opacity:1"
           id="path9298"
           inkscape:connector-curvature="0" />
        <path
           d="m -40.424905,286.1598 h 3.28084"
           style="fill:none;stroke:#000000;stroke-width:0.6773333;stroke-linecap:round;stroke-linejoin:round;stroke-miterlimit:10;stroke-dasharray:none;stroke-opacity:1"
           id="path9300"
           inkscape:connector-curvature="0" />
        <path
           d="m -37.144065,286.1598 v 3.28083"
           style="fill:none;stroke:#000000;stroke-width:0.6773333;stroke-linecap:round;stroke-linejoin:round;stroke-miterlimit:10;stroke-dasharray:none;stroke-opacity:1"
           id="path9302"
           inkscape:connector-curvature="0" />
        <path
           d="m -43.705735,283.6833 h 3.28083"
           style="fill:none;stroke:#000000;stroke-width:0.6773333;stroke-linecap:round;stroke-linejoin:round;stroke-miterlimit:10;stroke-dasharray:none;stroke-opacity:1"
           id="path9304"
           inkscape:connector-curvature="0" />
        <path
           d="m -40.424905,283.6833 h 3.28084"
           style="fill:none;stroke:#000000;stroke-width:0.6773333;stroke-linecap:round;stroke-linejoin:round;stroke-miterlimit:10;stroke-dasharray:none;stroke-opacity:1"
           id="path9306"
           inkscape:connector-curvature="0" />
        <path
           d="m -40.424905,283.6833 0.46567,-0.0212 0.4445,-0.10583 0.4445,-0.16934 0.42333,-0.21166 0.35984,-0.29634 0.33866,-0.3175 0.27517,-0.381 0.23283,-0.40216 0.14817,-0.4445 0.10583,-0.46567 0.0423,-0.46567"
           style="fill:none;stroke:#000000;stroke-width:0.6773333;stroke-linecap:round;stroke-linejoin:round;stroke-miterlimit:10;stroke-dasharray:none;stroke-opacity:1"
           id="path9308"
           inkscape:connector-curvature="0" />
        <path
           d="m -40.424905,283.6833 v -3.28084"
           style="fill:none;stroke:#000000;stroke-width:0.6773333;stroke-linecap:round;stroke-linejoin:round;stroke-miterlimit:10;stroke-dasharray:none;stroke-opacity:1"
           id="path9310"
           inkscape:connector-curvature="0" />
        <path
           d="m -40.424905,277.94713 h 3.28084"
           style="fill:none;stroke:#000000;stroke-width:0.6773333;stroke-linecap:round;stroke-linejoin:round;stroke-miterlimit:10;stroke-dasharray:none;stroke-opacity:1"
           id="path9312"
           inkscape:connector-curvature="0" />
        <path
           d="m -40.424905,275.4918 0.46567,-0.0423 0.4445,-0.10583 0.4445,-0.14817 0.42333,-0.23283 0.35984,-0.27517 0.33866,-0.33866 0.27517,-0.381 0.23283,-0.40217 0.14817,-0.4445 0.10583,-0.4445 0.0423,-0.48683"
           style="fill:none;stroke:#000000;stroke-width:0.6773333;stroke-linecap:round;stroke-linejoin:round;stroke-miterlimit:10;stroke-dasharray:none;stroke-opacity:1"
           id="path9314"
           inkscape:connector-curvature="0" />
        <path
           d="m -37.144065,272.1898 h -3.28084"
           style="fill:none;stroke:#000000;stroke-width:0.6773333;stroke-linecap:round;stroke-linejoin:round;stroke-miterlimit:10;stroke-dasharray:none;stroke-opacity:1"
           id="path9316"
           inkscape:connector-curvature="0" />
        <path
           d="m -40.424905,272.1898 0.46567,-0.0212 0.4445,-0.10583 0.4445,-0.16934 0.42333,-0.21166 0.35984,-0.27517 0.33866,-0.33867 0.27517,-0.381 0.23283,-0.40216 0.14817,-0.4445 0.10583,-0.46567 0.0423,-0.46567"
           style="fill:none;stroke:#000000;stroke-width:0.6773333;stroke-linecap:round;stroke-linejoin:round;stroke-miterlimit:10;stroke-dasharray:none;stroke-opacity:1"
           id="path9318"
           inkscape:connector-curvature="0" />
        <path
           d="m -37.144065,268.90896 h -3.28084"
           style="fill:none;stroke:#000000;stroke-width:0.6773333;stroke-linecap:round;stroke-linejoin:round;stroke-miterlimit:10;stroke-dasharray:none;stroke-opacity:1"
           id="path9320"
           inkscape:connector-curvature="0" />
        <path
           d="m -40.424905,266.45363 h 3.28084"
           style="fill:none;stroke:#000000;stroke-width:0.6773333;stroke-linecap:round;stroke-linejoin:round;stroke-miterlimit:10;stroke-dasharray:none;stroke-opacity:1"
           id="path9322"
           inkscape:connector-curvature="0" />
        <path
           d="m -37.144065,291.89596 -0.46567,0.0423 -0.46567,0.0847 -0.4445,0.16934 -0.40216,0.23283 -0.381,0.27517 -0.3175,0.3175 -0.29634,0.381 -0.21166,0.42333 -0.16934,0.42333 -0.10583,0.46567 -0.0212,0.46567"
           style="fill:none;stroke:#000000;stroke-width:0.6773333;stroke-linecap:round;stroke-linejoin:round;stroke-miterlimit:10;stroke-dasharray:none;stroke-opacity:1"
           id="path9324"
           inkscape:connector-curvature="0" />
        <path
           d="m -41.652565,277.7778 c 0.0935,0 0.16933,0.0758 0.16933,0.16933 0,0.0935 -0.0758,0.16933 -0.16933,0.16933 -0.0935,0 -0.16934,-0.0758 -0.16934,-0.16933 0,-0.0935 0.0758,-0.16933 0.16934,-0.16933 z"
           style="fill:none;stroke:#000000;stroke-width:0.33866665;stroke-linecap:round;stroke-linejoin:round;stroke-miterlimit:10;stroke-dasharray:none;stroke-opacity:1"
           id="path9326"
           inkscape:connector-curvature="0" />
        <path
           d="m -41.652565,266.2843 c 0.0935,0 0.16933,0.0758 0.16933,0.16933 0,0.0935 -0.0758,0.16933 -0.16933,0.16933 -0.0935,0 -0.16934,-0.0758 -0.16934,-0.16933 0,-0.0935 0.0758,-0.16933 0.16934,-0.16933 z"
           style="fill:none;stroke:#000000;stroke-width:0.33866665;stroke-linecap:round;stroke-linejoin:round;stroke-miterlimit:10;stroke-dasharray:none;stroke-opacity:1"
           id="path9328"
           inkscape:connector-curvature="0" />
      </g>
    </g>
  </g>
</svg>
