<?xml version="1.0" encoding="UTF-8" standalone="no"?>
<svg
   xmlns:dc="http://purl.org/dc/elements/1.1/"
   xmlns:cc="http://creativecommons.org/ns#"
   xmlns:rdf="http://www.w3.org/1999/02/22-rdf-syntax-ns#"
   xmlns:svg="http://www.w3.org/2000/svg"
   xmlns="http://www.w3.org/2000/svg"
   xmlns:sodipodi="http://sodipodi.sourceforge.net/DTD/sodipodi-0.dtd"
   xmlns:inkscape="http://www.inkscape.org/namespaces/inkscape"
   inkscape:export-ydpi="96"
   inkscape:export-xdpi="96"
   inkscape:export-filename="/home/ku3i/work/so2walker/Bakiwi/images/logo/png/bakiwi_logo_3-1_dynamic_1600px.png"
   sodipodi:docname="bakiwi_logo_3-1_dynamic_EN.svg"
   inkscape:version="1.0.1 (1.0.1+r73)"
   id="svg1028"
   version="1.1"
   viewBox="0 0 423.33332 141.02292"
   height="533"
   width="1600">
  <defs
     id="defs1022" />
  <sodipodi:namedview
     inkscape:window-maximized="1"
     inkscape:window-y="35"
     inkscape:window-x="0"
     inkscape:window-height="1341"
     inkscape:window-width="2560"
     units="px"
     fit-margin-bottom="0"
     fit-margin-right="0"
     fit-margin-left="0"
     fit-margin-top="0"
     showgrid="false"
     inkscape:document-rotation="0"
     inkscape:current-layer="layer1"
     inkscape:document-units="mm"
     inkscape:cy="397.12161"
     inkscape:cx="845.05462"
     inkscape:zoom="0.7"
     inkscape:pageshadow="2"
     inkscape:pageopacity="0.0"
     borderopacity="1.0"
     bordercolor="#666666"
     pagecolor="#ffffff"
     id="base" />
  <metadata
     id="metadata1025">
    <rdf:RDF>
      <cc:Work
         rdf:about="">
        <dc:format>image/svg+xml</dc:format>
        <dc:type
           rdf:resource="http://purl.org/dc/dcmitype/StillImage" />
        <dc:title />
      </cc:Work>
    </rdf:RDF>
  </metadata>
  <g
     transform="translate(172.8948,11.502579)"
     id="layer1"
     inkscape:groupmode="layer"
     inkscape:label="Ebene 1">
    <rect
       style="fill:#ffffff;stroke-width:1;stroke-linecap:round;stroke-linejoin:round;stroke-opacity:0"
       id="rect925"
       width="492.65756"
       height="215.40233"
       x="-214.55722"
       y="-25.210087" />
    <path
       id="path9292-6-3"
       d="m -151.43327,32.330958 a 2.6724118,2.6724118 0 0 0 -2.6315,2.70951 v 25.46156 a 2.6724118,2.6724118 0 0 0 0,0.85842 v 24.89026 a 2.6724118,2.6724118 0 0 0 1.43697,2.9624 2.6724118,2.6724118 0 0 0 1.622,0.27204 h 25.11935 a 2.6724118,2.6724118 0 0 0 1.6191,-0.27494 2.6724118,2.6724118 0 0 0 1.37114,-3.20049 l -0.28333,-3.11205 a 2.6724118,2.6724118 0 0 0 -0.0316,-0.23664 l -0.66875,-3.67408 a 2.6724118,2.6724118 0 0 0 -0.13166,-0.47357 l -1.33605,-3.50646 a 2.6724118,2.6724118 0 0 0 -0.18416,-0.38801 l -1.83689,-3.17296 a 2.6724118,2.6724118 0 0 0 -0.14703,-0.22592 l -2.17127,-3.00647 a 2.6724118,2.6724118 0 0 0 -0.27609,-0.32452 l -2.50564,-2.50564 a 2.6724118,2.6724118 0 0 0 -0.24882,-0.21924 l -3.00561,-2.33802 a 2.6724118,2.6724118 0 0 0 -0.44603,-0.28044 l -3.3397,-1.67043 a 2.6724118,2.6724118 0 0 0 -0.20272,-0.0911 l -3.33998,-1.33604 a 2.6724118,2.6724118 0 0 0 -0.40108,-0.125 l -3.67407,-0.83521 a 2.6724118,2.6724118 0 0 0 -0.4701,-0.0635 l -1.12347,-0.0511 v -23.33295 a 2.6724118,2.6724118 0 0 0 -2.71299,-2.7095 z m 90.686575,0 a 2.6724118,2.6724118 0 0 0 -2.632662,2.70951 v 25.50768 a 2.6724118,2.6724118 0 0 0 0,0.76185 v 25.5039 a 2.6724118,2.6724118 0 1 0 5.3445,0 v -9.27725 l 1.612138,1.95666 a 2.6724118,2.6724118 0 0 0 0.112811,0.12934 l 2.505641,2.67211 a 2.6724118,2.6724118 0 0 0 0.384839,0.33871 l 3.005614,2.17156 a 2.6724118,2.6724118 0 0 0 0.22562,0.14559 l 3.173233,1.83718 a 2.6724118,2.6724118 0 0 0 0.49417,0.22244 l 3.506452,1.16958 a 2.6724118,2.6724118 0 0 0 0.253172,0.0702 l 3.674073,0.83521 a 2.6724118,2.6724118 0 0 0 0.350903,0.0557 l 3.674077,0.33321 a 2.6724118,2.6724118 0 1 0 0.483147,-5.32246 l -3.496304,-0.31784 -3.372753,-0.76619 -3.124801,-1.04141 -2.820302,-1.63302 -2.688635,-1.9413 -2.27016,-2.42212 -2.091227,-2.53986 -1.475253,-2.9505 -1.22759,-3.21906 -0.735457,-3.09232 -0.02873,-0.62903 h 23.090205 a 2.6724118,2.6724118 0 1 0 0,-5.3445 h -23.214904 v -23.21403 a 2.6724118,2.6724118 0 0 0 -2.711841,-2.70951 z m 45.298768,16.23738 c -1.460209,0 -2.672091,1.21257 -2.672091,2.67239 0,1.46012 1.212268,2.67211 2.672091,2.67211 1.460132,0 2.6724,-1.21229 2.6724,-2.67211 0,-1.46012 -1.212567,-2.67239 -2.6724,-2.67239 z m 90.686593,0 c -1.46021,0 -2.67211,1.21257 -2.67211,2.67239 0,1.46012 1.21228,2.67211 2.67211,2.67211 1.46012,0 2.6724,-1.21229 2.6724,-2.67211 0,-1.46012 -1.21256,-2.67239 -2.6724,-2.67239 z m -155.526181,9.64904 a 2.6724118,2.6724118 0 0 0 -0.528101,0.0609 l -3.227182,0.14616 a 2.6724118,2.6724118 0 0 0 -0.49764,0.0702 l -3.50645,0.83522 a 2.6724118,2.6724118 0 0 0 -0.33322,0.10208 l -3.50616,1.33606 a 2.6724118,2.6724118 0 0 0 -0.29377,0.13252 l -3.17324,1.67044 a 2.6724118,2.6724118 0 0 0 -0.39557,0.25549 l -3.00677,2.33802 a 2.6724118,2.6724118 0 0 0 -0.18734,0.15979 l -2.672102,2.50565 a 2.6724118,2.6724118 0 0 0 -0.33873,0.38483 l -2.1704,3.00532 a 2.6724118,2.6724118 0 0 0 -0.14674,0.22592 l -1.83718,3.17323 a 2.6724118,2.6724118 0 0 0 -0.22243,0.49416 l -1.16843,3.50762 a 2.6724118,2.6724118 0 0 0 -0.0713,0.25202 l -0.83521,3.67407 a 2.6724118,2.6724118 0 0 0 -0.0548,0.35091 l -0.28334,3.1164 a 2.6724118,2.6724118 0 0 0 1.36796,3.19584 2.6724118,2.6724118 0 0 0 1.63244,0.27494 h 25.111239 a 2.6724118,2.6724118 0 0 0 1.582269,-0.25609 2.6724118,2.6724118 0 0 0 1.474965,-2.98269 v -24.88214 a 2.6724118,2.6724118 0 0 0 -0.761267,-2.34092 2.6724118,2.6724118 0 0 0 -0.09454,-0.0899 2.6724118,2.6724118 0 0 0 -0.04815,-0.0435 2.6724118,2.6724118 0 0 0 -1.808763,-0.67252 z m 64.800149,0 a 2.6724118,2.6724118 0 0 0 -2.632652,2.70952 v 25.887 a 2.6724118,2.6724118 0 1 0 5.344491,0 v -25.887 a 2.6724118,2.6724118 0 0 0 -2.711839,-2.70952 z m 19.3940958,0 a 2.6724118,2.6724118 0 0 0 -2.642534,2.95167 l 0.334372,3.67408 a 2.6724118,2.6724118 0 0 0 0.06118,0.377 l 0.835216,3.50732 a 2.6724118,2.6724118 0 0 0 0.06468,0.22591 l 1.168422,3.50762 a 2.6724118,2.6724118 0 0 0 0.194021,0.44253 l 1.837177,3.34 a 2.6724118,2.6724118 0 0 0 0.218091,0.33525 l 2.171258,2.83885 a 2.6724118,2.6724118 0 0 0 0.233463,0.26651 l 2.6721012,2.67211 a 2.6724118,2.6724118 0 0 0 0.324511,0.27724 l 3.00649,2.17156 a 2.6724118,2.6724118 0 0 0 0.225914,0.14559 l 3.173235,1.83718 a 2.6724118,2.6724118 0 0 0 0.493289,0.22244 l 3.507322,1.16958 a 2.6724118,2.6724118 0 0 0 0.226796,0.0647 l 3.506446,0.83406 a 2.6724118,2.6724118 0 0 0 0.388028,0.0624 l 3.464692,0.3016 a 2.6724118,2.6724118 0 0 0 3.265739,-2.34905 2.6724118,2.6724118 0 0 0 0.01487,-0.40222 v -9.08384 l 1.38448,1.81022 a 2.6724118,2.6724118 0 0 0 0.233457,0.26651 l 2.672116,2.6721 a 2.6724118,2.6724118 0 0 0 0.324509,0.27724 l 3.00649,2.17156 a 2.6724118,2.6724118 0 0 0 0.225914,0.14559 l 3.173238,1.83718 a 2.6724118,2.6724118 0 0 0 0.493003,0.22244 l 3.507603,1.16958 a 2.6724118,2.6724118 0 0 0 0.253182,0.0702 l 3.674065,0.83521 a 2.6724118,2.6724118 0 0 0 0.34975,0.0557 l 3.29591,0.2987 a 2.6724118,2.6724118 0 0 0 2.44881,-0.65105 2.6724118,2.6724118 0 0 0 0.84361,-2.36412 v -25.49753 a 2.6724118,2.6724118 0 0 0 -2.7127,-2.70953 2.6724118,2.6724118 0 0 0 -2.63179,2.70953 v 22.95998 l -0.58292,-0.0531 -3.372761,-0.76619 -3.123925,-1.04141 -2.821165,-1.63303 -2.723737,-1.96739 -2.394863,-2.39514 -1.909395,-2.49666 -1.497282,-2.99459 -1.226735,-3.21905 -0.73632,-3.09233 -0.155731,-3.42292 a 2.6724118,2.6724118 0 0 0 -0.0021,-0.0255 2.6724118,2.6724118 0 0 0 -0.01796,-0.21925 2.6724118,2.6724118 0 0 0 -0.0064,-0.0464 2.6724118,2.6724118 0 0 0 -0.04029,-0.21982 2.6724118,2.6724118 0 0 0 -0.0095,-0.0385 2.6724118,2.6724118 0 0 0 -0.06293,-0.21779 2.6724118,2.6724118 0 0 0 -0.01363,-0.0394 2.6724118,2.6724118 0 0 0 -0.08322,-0.20735 2.6724118,2.6724118 0 0 0 -0.01942,-0.0415 2.6724118,2.6724118 0 0 0 -0.103238,-0.19721 2.6724118,2.6724118 0 0 0 -0.02143,-0.0365 2.6724118,2.6724118 0 0 0 -0.122671,-0.18648 2.6724118,2.6724118 0 0 0 -0.02755,-0.0374 2.6724118,2.6724118 0 0 0 -0.13603,-0.16763 2.6724118,2.6724118 0 0 0 -0.03883,-0.0427 2.6724118,2.6724118 0 0 0 -0.143836,-0.14529 2.6724118,2.6724118 0 0 0 -0.04899,-0.044 2.6724118,2.6724118 0 0 0 -0.15631,-0.12876 2.6724118,2.6724118 0 0 0 -0.05191,-0.0383 2.6724118,2.6724118 0 0 0 -0.16587,-0.11079 2.6724118,2.6724118 0 0 0 -0.06033,-0.0357 2.6724118,2.6724118 0 0 0 -0.171394,-0.0914 2.6724118,2.6724118 0 0 0 -0.06989,-0.0325 2.6724118,2.6724118 0 0 0 -0.171974,-0.0705 2.6724118,2.6724118 0 0 0 -0.08206,-0.0284 2.6724118,2.6724118 0 0 0 -0.166764,-0.0496 2.6724118,2.6724118 0 0 0 -0.09482,-0.0229 2.6724118,2.6724118 0 0 0 -0.165023,-0.0316 2.6724118,2.6724118 0 0 0 -0.103518,-0.014 2.6724118,2.6724118 0 0 0 -0.154009,-0.0136 2.6724118,2.6724118 0 0 0 -0.05393,-0.005 2.6724118,2.6724118 0 0 0 -0.06496,0 2.6724118,2.6724118 0 0 0 -0.07859,-0.003 2.6724118,2.6724118 0 0 0 -0.06583,0.005 2.6724118,2.6724118 0 0 0 -0.127312,0.008 2.6724118,2.6724118 0 0 0 -0.132818,0.0149 2.6724118,2.6724118 0 0 0 -0.136022,0.0226 2.6724118,2.6724118 0 0 0 -0.125852,0.0269 2.6724118,2.6724118 0 0 0 -0.134274,0.0362 2.6724118,2.6724118 0 0 0 -0.118028,0.038 2.6724118,2.6724118 0 0 0 -0.139782,0.0534 2.6724118,2.6724118 0 0 0 -0.103256,0.045 2.6724118,2.6724118 0 0 0 -0.142677,0.0716 2.6724118,2.6724118 0 0 0 -0.08873,0.0499 2.6724118,2.6724118 0 0 0 -0.146746,0.0928 2.6724118,2.6724118 0 0 0 -0.07223,0.0507 2.6724118,2.6724118 0 0 0 -0.140641,0.11021 2.6724118,2.6724118 0 0 0 -0.06699,0.0577 2.6724118,2.6724118 0 0 0 -0.131377,0.12615 2.6724118,2.6724118 0 0 0 -0.05595,0.0592 2.6724118,2.6724118 0 0 0 -0.121803,0.14268 2.6724118,2.6724118 0 0 0 -0.04725,0.0609 2.6724118,2.6724118 0 0 0 -0.113977,0.16443 2.6724118,2.6724118 0 0 0 -0.03075,0.0493 2.6724118,2.6724118 0 0 0 -0.102955,0.1856 2.6724118,2.6724118 0 0 0 -0.02379,0.0481 2.6724118,2.6724118 0 0 0 -0.08352,0.19461 2.6724118,2.6724118 0 0 0 -0.02003,0.0531 2.6724118,2.6724118 0 0 0 -0.06323,0.20068 2.6724118,2.6724118 0 0 0 -0.01453,0.0537 2.6724118,2.6724118 0 0 0 -0.04377,0.21026 2.6724118,2.6724118 0 0 0 -0.0079,0.049 2.6724118,2.6724118 0 0 0 -0.02352,0.2204 2.6724118,2.6724118 0 0 0 -0.0028,0.0493 2.6724118,2.6724118 0 0 0 -0.0034,0.18821 v 22.94376 l -0.741831,-0.0641 -3.201654,-0.763 -3.13699,-1.04576 -2.821453,-1.63302 -2.723732,-1.9674 -2.39486,-2.39514 -1.941293,-2.53841 -1.6231662,-2.95167 -1.055605,-3.16542 -0.763011,-3.20628 -0.31668,-3.48326 a 2.6724118,2.6724118 0 0 0 -2.67993,-2.46824 z m 71.2913362,0 a 2.6724118,2.6724118 0 0 0 -2.63151,2.70952 v 25.887 a 2.6724118,2.6724118 0 1 0 5.34451,0 v -25.887 a 2.6724118,2.6724118 0 0 0 -2.713,-2.70952 z m -223.918336,5.50574 0.64205,0.0293 3.23675,0.73546 3.04186,1.21685 3.00416,1.50253 2.66574,2.07265 2.23593,2.2371 1.96768,2.72286 1.66145,2.87047 1.17191,3.07579 0.60262,3.31332 0.0583,0.64234 h -20.28845 z m 65.800962,0.002 v 20.41779 h -20.287882 l 0.0531,-0.58289 0.76619,-3.37277 1.04112,-3.1248 1.633312,-2.82031 1.94216,-2.68863 2.39399,-2.24492 2.72256,-2.11762 2.82146,-1.48396 3.19383,-1.21774 3.09203,-0.73545 z"
       style="color:#000000;font-style:normal;font-variant:normal;font-weight:normal;font-stretch:normal;font-size:medium;line-height:normal;font-family:sans-serif;font-variant-ligatures:normal;font-variant-position:normal;font-variant-caps:normal;font-variant-numeric:normal;font-variant-alternates:normal;font-feature-settings:normal;text-indent:0;text-align:start;text-decoration:none;text-decoration-line:none;text-decoration-style:solid;text-decoration-color:#000000;letter-spacing:normal;word-spacing:normal;text-transform:none;writing-mode:lr-tb;direction:ltr;text-orientation:mixed;dominant-baseline:auto;baseline-shift:baseline;text-anchor:start;white-space:normal;shape-padding:0;clip-rule:nonzero;display:inline;overflow:visible;visibility:visible;opacity:1;isolation:auto;mix-blend-mode:normal;color-interpolation:sRGB;color-interpolation-filters:linearRGB;solid-color:#000000;solid-opacity:1;vector-effect:none;fill:#ffffff;fill-opacity:1;fill-rule:nonzero;stroke:#fdfdfd;stroke-width:2;stroke-linecap:round;stroke-linejoin:round;stroke-miterlimit:10;stroke-dasharray:none;stroke-dashoffset:0;stroke-opacity:1;color-rendering:auto;image-rendering:auto;shape-rendering:auto;text-rendering:auto;enable-background:accumulate"
       inkscape:connector-curvature="0" />
    <g
       transform="matrix(0.91994234,0,0,0.91994234,-18.02356,-371.5283)"
       id="g1673">
      <g
         transform="matrix(0.32568661,0.09869423,-0.09869423,0.32568661,173.12042,451.59338)"
         id="g5176">
        <path
           style="fill:#ffffff;stroke-width:0.158881"
           d="m -112.96484,-107.2793 c -13.17754,0.44894 -26.64671,8.504449 -31.01954,21.4043 -1.49252,3.546123 -1.98091,7.746247 -4.54101,10.712891 -11.84222,4.282262 -17.56108,18.226498 -15.50977,30.044921 0.80954,10.232825 4.36624,20.04557 7.92383,29.595704 -0.77464,4.320979 -1.67279,10.5702531 3.22656,12.8769528 6.09083,3.40445267 13.8502,-2.1469462 14.09766,-8.7578128 0.56432,-4.576098 -3.54944,-9.517931 -8.38867,-8.136718 -2.83849,0.290764 -4.71996,-2.161306 -5.11535,-4.716768 -4.83817,-11.799659 -7.80713,-25.992729 -1.87003,-37.949637 1.05822,-1.960191 2.79786,-3.519969 4.86624,-4.353127 -0.0509,3.160901 1.96249,6.61912 0.43164,9.619141 -4.90387,2.80938 -3.38775,10.875413 1.82812,12.445312 4.35014,2.486862 10.88775,-4.84e-4 11.29688,-5.332031 0.77385,-4.046579 -1.86687,-8.620879 -5.98242,-9.527344 -0.58214,-2.557796 -0.69232,-5.232285 -0.16992,-7.810546 12.19028,0.390089 21.26941,9.821679 28.70901,18.441479 8.80061,9.287825 18.955984,17.593078 25.665985,28.634692 1.571881,5.831103 -4.338928,9.637679 -7.659106,13.3566155 -2.575262,2.630849 -3.745143,6.90652602 -1.915113,10.207838 -0.540594,4.9651412 -7.191386,6.38507 -7.259766,11.6269535 -0.16938,3.853993 -0.36908,7.732977 -0.42969,11.568359 0.44982,3.496853 2.0899,6.764979 4.35352,9.439453 -4.83336,4.573666 -2.21919,13.074036 3.371092,15.742188 3.942301,3.859315 7.58042,8.021456 11.640626,11.761718 -9.678429,18.264421 -11.777526,39.379786 -13.337425,59.681346 -0.41079,13.60983 2.944429,28.86276 13.987815,37.89287 8.255654,5.79504 20.764593,5.78477 28.171875,-1.38086 6.933192,-6.97015 8.499507,-20.12698 0.871094,-27.13281 -2.518593,-2.29046 -8.500952,-2.75967 -9.154297,1.60742 0.410734,4.38897 6.105089,6.51415 5.630859,11.34375 0.08895,7.65596 -9.438723,13.17581 -15.986643,9.01874 -6.947052,-4.13049 -7.803533,-13.1586 -8.492483,-20.40211 -1.286155,-19.44152 6.565002,-38.700262 18.635376,-53.653736 1.856966,-2.425166 4.626022,-3.561489 7.645773,-3.347057 10.262038,0.121601 20.649337,0.319816 30.377983,-3.286296 4.785672,-2.231264 10.322808,-0.439552 15.120776,-2.74946 1.945469,4.76722 -2.477954,10.927242 2.0546871,14.728516 2.7330733,1.647719 6.0113179,0.432808 8.6953125,-0.681641 0.70794668,6.370119 7.1995539,9.558832 12.1601564,11.947266 1.265575,5.660278 7.232341,8.875198 12.488281,9.068358 2.322063,3.24288 5.18975,6.48581 9.189453,7.5625 -6.351729,6.51722 -10.031373,15.67523 -18.070312,20.4707 -3.927863,2.71955 -8.7559362,1.88808 -13.199219,2.30665 -3.5675342,0.0111 -6.5546356,4.14194 -4.2402344,7.24414 1.5728828,2.77285 5.0901736,1.30635 7.5546875,1.46875 0.8577902,1.50851 -2.1769485,2.397 -2.2460937,3.84375 -1.96259904,2.80675 -0.7962043,7.88418 3.2441406,7.58203 3.3957607,-0.11955 5.110248,-3.36961 6.328125,-6.02344 7.029124,-9.68923 16.997476,-16.95393 23.09835,-27.3709 1.805914,-2.18437 3.592387,-5.07597 5.936806,-6.34199 7.079795,2.42443 13.693359,5.97139 20.554688,8.92383 -4.715416,8.94202 -10.26517,17.56261 -16.876953,25.19336 -4.919007,3.70304 -13.084576,2.15082 -15.935547,8.45117 -1.091529,3.1848 2.384769,6.41639 5.464843,4.85156 1.958119,-0.83112 5.415385,-3.34645 6.652344,-0.29102 1.909077,3.88945 1.739029,8.49894 0.341797,12.42579 -0.97124,4.71162 6.227468,7.27186 8.59375,3.19531 1.437885,-5.45855 -1.397383,-11.153 -0.634765,-16.79102 0.162621,-5.94295 5.166195,-9.73397 8.339843,-14.17187 4.144622,-6.16283 8.012515,-12.51092 11.814453,-18.89258 7.369769,0.29621 14.307933,3.16594 21.590435,3.95551 26.610461,4.54788 54.269221,1.72029 79.821351,-6.69805 2.95487,-0.71228 5.80487,-2.68291 8.73275,-2.91371 2.1465,1.38863 1.20898,4.57289 2.24414,6.63672 2.06609,8.68989 6.42381,16.89513 7.42773,25.90625 -3.89524,3.84808 -10.91021,5.98687 -10.89844,12.41601 0.0455,4.05439 6.82536,5.81747 7.96094,1.37891 1.63759,-2.52661 4.6776,-3.54676 6.95898,-5.23437 1.92396,0.41091 1.15298,3.39086 2.00586,4.76367 0.63457,3.19809 2.47962,8.29054 6.62305,7.36133 3.65936,-1.43834 3.93838,-6.59144 1.64722,-9.34277 -6.325,-15.03009 -12.33483,-30.46809 -15.39136,-46.47559 1.87916,-3.24843 6.32182,-3.1988 9.32227,-4.89063 5.07433,-1.77873 10.27995,-3.28077 15.08593,-5.74023 5.31634,11.22046 9.79754,23.0509 11.47266,35.39258 -1.37958,4.70163 -7.63701,7.43397 -6.29687,12.95507 0.69487,3.71141 6.38687,5.403 8.20117,1.62305 1.09678,-2.02942 1.45368,-4.4406 3.0039,-6.22461 3.80617,5.17237 4.80122,12.92672 11.01563,15.85938 4.22098,0.13738 4.63249,-6.01465 2.51367,-8.68555 -2.56628,-3.49847 -5.60776,-6.77309 -6.58398,-11.1543 -1.1619,-4.34066 -2.88519,-8.50773 -4.95263,-12.45034 -3.28314,-10.33551 -6.53025,-20.76553 -10.37941,-30.84849 -0.11729,-3.91277 4.90476,-4.47111 7.0039,-6.87777 22.17145,-16.507087 40.03204,-39.622883 48.21876,-66.100742 2.89477,-10.975672 4.62477,-22.212376 7.55777,-33.1940601 1.41584,-8.1662204 1.76602,-16.7934209 0.22543,-25.0168769 -1.30237,-2.544144 -4.23972,-3.372142 -6.78711,-3.96875 6.92804,-4.940899 13.20637,-13.513688 10.58594,-22.371094 -3.16173,-6.195432 -12.07371,-6.085753 -17.03665,-2.218952 -6.48648,3.620372 -14.37629,6.046067 -21.72702,3.734577 -0.87057,-7.195374 -9.83157,-10.586467 -15.92773,-7.570313 -9.19598,2.182085 -16.52202,-6.120255 -25.41602,-6.537109 -3.21632,-0.626319 -6.75633,1.247066 -9.38985,-1.262085 -9.45554,-5.296737 -20.77742,-5.642924 -31.26594,-7.336796 -8.67296,-4.094044 -18.45816,-7.577948 -27.9926,-4.425503 -3.0775,1.126337 -5.96172,-0.493873 -8.54913,-1.957632 -9.61375,-4.307343 -20.50038,-5.137931 -30.673574,-2.617593 -5.020949,0.529273 -9.677927,-2.081066 -14.692217,-1.644749 -25.456056,-1.021208 -51.472027,5.830695 -71.99568,21.197815 -9.3865453,6.761292 -19.0885857,13.539521 -26.657806,22.339512 -5.39739,1.020348 -8.093896,-5.685532 -13.34375,-5.708985 -3.165878,-0.577898 -5.935676,1.394507 -8.285156,3.009766 -4.573756,0.557549 -7.055947,-5.242051 -11.767578,-4.375 -3.986821,0.18715 -7.103288,3.013965 -9.824219,5.609375 -1.350625,-13.528903 -2.823013,-27.473827 -9.75867,-39.463253 -6.322565,-13.271269 -17.974529,-25.171402 -33.07019,-27.198792 -4.26242,-0.82239 -8.5383,-0.94287 -12.88598,-0.82038 z m 0.90039,7.941409 c 12.05531,-0.166754 25.201019,4.120434 31.938094,14.746972 10.265359,13.198147 14.024386,30.275198 14.224012,46.682716 -0.111028,3.429759 -2.51618,6.491659 -5.902344,7.195312 -2.377772,1.806106 -4.012825,6.251257 -7.761718,4.951172 -4.305989,-1.25309 -5.126528,-6.465779 -8.402999,-9.039745 -11.626244,-13.051956 -22.766375,-27.427273 -38.097005,-36.25713 -4.52026,-2.447416 -9.494,-4.159944 -14.56836,-4.40625 2.16505,-12.711419 13.48762,-24.455066 26.93106,-23.86028 0.54622,-0.01714 1.09288,-0.006 1.63926,-0.01277 z m 196.406247,24.886719 c 5.282777,1.971528 11.356517,5.079339 16.828053,1.939171 10.06787,-2.776698 20.88463,-0.600762 29.93371,4.282462 4.19021,1.696856 8.59342,0.24295 12.74019,-0.618117 7.85394,-0.71428 15.18024,2.94172 21.9668,6.345703 7.18272,1.410103 14.98,-0.609661 21.71883,2.999785 6.36759,2.752481 12.8879,6.415251 20.07978,5.222784 8.13396,0.490371 14.3423,7.574535 22.71506,7.144618 2.9802,0.234368 5.92885,-1.363773 8.54101,-1.808593 2.30236,1.506842 0.80832,5.220672 3.4961,6.517578 4.30383,2.859701 9.75227,2.264566 14.73242,2.300781 7.7374,-0.630554 14.77944,-4.512766 21.9082,-7.082031 2.66388,0.631912 0.67742,3.760905 -0.0371,5.199219 -4.05767,7.75103 -12.33349,12.235183 -20.63672,13.93164 -2.53041,1.198021 -2.21899,5.151943 0.60352,5.779297 3.42862,1.220316 8.80817,2.170583 8.86719,6.839844 0.37231,7.4790564 -5.80727,13.3144321 -12.1211,16.175781 -3.52222,3.1123824 -8.87789,1.9601469 -12.56445,4.4863281 -2.44205,2.2644642 -0.97675,6.3842649 2.22701,6.9283809 1.91351,0.239974 4.1752,2.412485 2.39409,4.218103 -3.53349,3.991468 -10.78072,3.308974 -12.19532,9.265626 -0.58693,2.281609 1.4449,6.258455 -2.02734,6.996093 -3.22846,1.117638 -7.7962,2.5979 -7.54102,6.857422 -0.3654,3.390371 -3.6906,4.913805 -6.71484,5.142578 -7.00201,1.228509 -15.39187,-1.500041 -21.00781,4.15625 -3.38898,2.97983 -4.10418,8.51551 -1.82032,12.363281 -0.76298,3.721496 -5.63495,3.05851 -8.44335,3.494141 -4.70575,0.101763 -9.3069,2.387149 -11.67383,6.529297 -2.04305,2.525924 -5.55553,3.100951 -8.42884,1.832728 -8.28053,-1.305404 -16.71445,-4.02436 -25.0653,-2.654994 -3.65791,2.511624 -1.61828,7.41876 -0.80664,10.833985 -0.10513,4.608061 -5.73047,5.473291 -9.19038,6.363192 -5.63373,1.169741 -11.30497,-0.626778 -16.49908,-2.566317 -3.80341,-0.0286 -5.80356,4.349525 -9.27343,4.951172 -9.843453,-4.208496 -18.472089,-10.94649 -28.619146,-14.408204 -3.557132,1.009899 -2.794552,6.165873 -1.134765,8.660157 2.416456,2.258987 -1.131077,4.858013 -3.472657,4.660156 -8.991466,0.222133 -17.729446,-3.47718 -25.285724,-8.093966 -8.61084,-6.185923 -17.29588,-12.316639 -25.339276,-19.224393 -1.745213,-1.765314 -6.148544,-1.475218 -5.134765,1.863281 2.141038,4.515847 6.62404,7.428672 9.971071,11.026391 12.673519,11.630804 28.400426,21.673538 46.067991,22.258765 5.414242,0.339254 8.828368,-4.101686 12.638672,-7.158203 2.624296,-2.156692 5.133755,1.453937 7.517578,2.46875 5.109965,3.259404 11.462371,7.467322 17.712891,5.097656 2.25281,-1.64985 5.01853,-3.852628 7.95323,-2.439169 8.53768,2.239745 18.38018,1.867252 25.83583,-3.197549 3.91485,-2.501776 5.49396,-7.371135 4.58399,-11.757813 0.2593,-2.536553 3.48588,-0.870674 4.95703,-0.822266 7.22549,1.13018 14.61706,4.08398 21.92187,2.292969 3.6839,-1.055162 5.50317,-4.541443 7.81055,-7.205078 3.79348,-2.62314 8.92525,-0.567906 12.86914,-2.857422 4.8589,-1.691323 9.75002,-7.61034 6.87695,-12.822266 -1.23698,-1.417525 -1.88591,-3.629555 0.4336,-4.208984 4.80052,-1.889582 10.01645,0.265129 14.95159,-1.110805 5.84879,-0.818073 12.52723,-3.834341 14.16169,-10.09232 3.1907,-4.001294 10.04184,-5.385479 10.67578,-11.080078 -0.6244,-1.675866 -0.7048,-4.482159 1.62891,-4.734375 5.06951,-1.832647 11.17846,-6.013147 9.85351,-12.228516 -0.63128,-2.678186 0.0189,-6.1615817 3.10851,-6.8864501 7.16698,-3.862854 13.73228,-9.684852 16.64345,-17.3967527 0.98532,9.5816677 -4.46176,18.3821005 -5.17469,27.7754578 -2.36213,13.80463 -6.65204,27.500079 -14.60266,39.15423 -8.7165,15.481124 -21.50624,28.50296 -36.03906,38.595703 -2.66516,2.683757 -4.01262,1.887234 -4.26172,-1.560547 -1.79838,-6.911395 -3.11746,-14.430364 -8.03711,-19.925781 -3.69769,-1.829926 -7.07757,3.852871 -4.3586,6.640954 2.84599,6.601942 4.81722,13.555334 6.19649,20.603182 -7.39868,5.39385 -16.78937,6.66129 -24.70201,11.05648 -18.70997,7.4989 -38.28638,14.22432 -58.69643,14.11149 -17.83388,0.65173 -35.784393,-1.24661 -53.007809,-5.94922 3.890376,-4.65574 6.023714,-10.43278 8.013672,-16.04296 0.609376,-3.52169 -4.377188,-7.237744 -6.798828,-3.78125 -2.75491,4.89303 -3.852315,10.76662 -7.367187,15.29101 -1.833055,2.91994 -4.995096,0.0571 -7.300583,-0.73584 -7.606678,-3.02302 -15.983397,-4.57816 -22.793167,-9.38525 C 34.477521,105.62881 30.6794,104.78915 30.169932,101.3418 27.231768,97.311236 19.903824,99.765687 18.0625,94.439453 17.067171,89.33814 10.839052,89.151293 7.53125,86.332031 6.1295677,82.380706 7.0168399,75.956384 1.7011719,74.896484 c -2.0980298,-0.0589 -3.682596,1.555883 -5.3554688,2.589844 0.4132447,-7.096486 -3.8386697,-14.215119 -9.8769531,-17.658203 -2.490281,0.803818 -3.120481,4.570722 -6.162109,4.519531 -4.894884,0.971013 -10.207908,-0.04405 -14.71875,2.53125 -10.247799,3.41111 -21.196857,1.899563 -31.748047,1.957032 -3.647679,1.531235 -4.33706,6.10886 -6.952155,8.784793 -6.255348,8.538087 -11.30128,17.787623 -14.714487,27.824739 -0.919654,4.19624 -2.60956,3.34563 -1.487655,-0.65641 1.85681,-14.327185 4.711504,-29.132894 13.03125,-41.242185 0.82564,-4.969944 -4.899473,-6.8001 -7.990388,-9.270447 -3.335525,-3.246326 -6.06813,-7.181697 -9.128753,-10.59674 0.409856,-1.667362 2.999398,-1.193176 3.91211,-2.66211 2.166458,-1.942494 1.308625,-5.248326 -0.942057,-6.723994 -3.128623,-3.00238 -7.69377,-7.121039 -5.540365,-11.965459 0.799433,-3.276788 -0.183958,-8.543971 4.08789,-9.720703 3.721268,-1.382803 5.10749,-6.5126422 2.339844,-9.4628908 -1.426272,-2.33373389 -0.0144,-5.106252 2.375,-5.9824218 4.174136,-2.9715001 7.202239,-7.5524654 7.675781,-12.6972654 1.396667,-2.781554 5.53449,-0.672535 7.138672,-3.429688 2.565952,-2.829517 4.75897,-6.635313 8.825593,-7.455209 5.422547,-2.948978 10.540589,-6.461399 15.404876,-10.160025 2.972374,-0.680824 3.967276,3.502434 6.865234,3.513672 4.290228,1.194121 8.181421,-1.862292 12.101563,-2.75586 4.531588,0.979212 6.472153,7.328696 11.677734,6.261719 8.8309489,-0.76801 14.8385365,-8.214914 21.5086354,-13.198018 7.3521816,-6.472667 15.3899496,-12.438648 24.0440996,-16.866435 3.027338,-4.628159 9.100501,-5.171576 13.484456,-7.872522 13.672011,-4.931614 28.310085,-6.829828 42.785075,-6.95365 z M 276.75,-19.230469 c 1.0685,2.136977 0.91391,4.903987 -0.0508,6.994141 -0.518,-2.510529 -2.14017,-5.468359 -0.44727,-7.925781 l 0.24948,0.466667 z m -332.373047,6.115235 c -14.811706,3.2432299 -24.124499,19.1813686 -23.451959,33.681214 0.0488,10.79615 2.270226,22.973911 10.813287,30.242614 7.371133,4.785837 16.731687,4.426183 25.058576,3.269294 12.168872,-3.291723 18.860231,-16.113918 20.621112,-27.820076 1.44904,-10.457442 -0.130057,-22.1359382 -7.065347,-30.4014969 -6.628286,-6.8062461 -16.786935,-9.0890961 -25.975669,-8.9715491 z m 2.869141,8.4648434 c 9.782263,-0.1173036 20.772706,6.4038822 21.573452,16.9265096 1.156629,6.276513 1.463795,13.225564 -1.323452,19.096928 -0.312041,-6.472588 -1.357035,-13.347116 -5.681641,-18.515625 -6.85002,-8.7234805 -20.337234,-10.2959968 -29.462891,-4.4121095 2.255069,-6.4486871 7.573474,-12.8556755 14.894532,-13.0957031 z M 90.113281,86.548828 c 1.441068,1.994237 -2.561339,0.671185 -0.240234,-0.199219 z"
           id="path5418-5"
           inkscape:connector-curvature="0" />
        <g
           id="g5212">
          <path
             style="opacity:1;fill:#ff00ff;fill-opacity:0.994891;stroke:#ff8400;stroke-width:0;stroke-linecap:round;stroke-linejoin:bevel;stroke-miterlimit:10;stroke-dasharray:none;stroke-dashoffset:0;stroke-opacity:1"
             d="m 75.802794,-76.603687 c -6.70572,0.309292 -13.388326,1.021062 -19.976125,2.328199 -2.972901,0.4672 -5.636074,1.839802 -8.61747,2.300145 -6.46406,1.684443 -12.703689,4.352871 -18.382044,7.871283 -1.206189,0.65086 -1.98426,1.753866 -2.861999,2.747394 -2.630155,2.04111 -5.930508,2.987947 -8.652763,4.942626 -7.9245889,5.139344 -14.591129,11.91308 -22.1566615,17.524529 -3.399902,2.517675 -6.7222205,5.541139 -10.9888185,6.402578 -1.65031,0.339376 -3.666079,1.023553 -5.039873,-0.349526 -2.688162,-1.721326 -4.663882,-4.675401 -7.837944,-5.554283 -3.348817,-0.417798 -6.071772,2.244941 -9.295746,2.68251 -1.790425,0.26249 -4.018324,0.443667 -5.198851,-1.247327 -1.229906,-1.515566 -3.220214,-2.92737 -5.242191,-2.073428 -4.244599,1.755359 -7.501325,5.186785 -11.472173,7.434192 -2.023626,1.297967 -4.325211,2.214473 -6.200887,3.695494 -2.157279,0.178832 -3.493092,2.238877 -5.014761,3.54522 -1.720162,1.543143 -3.045649,3.70585 -5.206037,4.662983 -1.749101,0.100359 -3.903658,0.09963 -4.860037,1.886092 -1.415767,2.5977 -1.366825,5.798665 -3.179343,8.2297908 -2.170627,3.4924986 -6.365462,5.2415115 -8.230677,8.9394713 -1.213773,3.1736619 2.817816,5.8105642 1.574904,8.9751506 -1.227469,2.3541033 -4.740043,2.1098233 -5.739832,4.7004613 -1.301379,2.995914 -1.013015,6.308975 -2.06373,9.384649 -1.07312,3.502333 0.78508,7.013341 3.070911,9.572854 1.628509,2.056437 3.784844,3.745171 5.0434,6.043081 -1.1407,2.25406 -4.338502,2.167109 -5.812119,4.115552 -0.329979,1.385132 1.071468,2.528466 1.711989,3.628521 2.522411,3.183897 5.325132,6.13921 7.942241,9.240199 2.175604,2.335739 5.477489,3.301376 7.451105,5.827402 0.427802,0.666904 0.706723,1.416452 1.077265,2.114865 -0.112773,-0.0017 0.825454,0.714951 1.355398,0.942385 1.705419,0.842145 3.4102,1.645003 5.018717,2.675524 1.483811,1.148887 3.083545,2.093737 4.707968,3.010081 0.851212,0.757898 1.813178,1.604377 3.025069,1.196278 5.233053,0.158249 10.493054,0.770649 15.75095,0.385734 6.276876,-0.290919 12.5592,-1.289054 18.445583,-3.541697 4.31728,-1.372465 9.40009,0.40171 13.293948,-2.429591 2.572607,-2.29634 9.0379358,-5.833671 12.0972063,-5.756153 1.7674292,-0.452377 3.70894675,-0.438243 5.52647627,-0.100923 0.77107813,0.05288 1.54942353,0.32207 2.37448383,0.164835 1.2995282,-0.04453 2.6138391,-0.06013 3.8250816,0.42712 1.7347275,0.296745 3.50236,0.601073 5.261146,0.457545 -0.508862,0.09372 0.586991,0.09625 0.755054,0.248587 1.406523,0.437705 3.014307,0.479901 4.275131,0.94636 0.966922,0.476412 1.801349,0.885296 2.867702,0.929599 3.787648,2.011042 6.344858,5.634215 9.971323,7.888206 7.028439,4.5113 13.384667,9.957915 20.365357,14.533801 5.149929,2.338699 10.565888,4.104677 16.032018,5.540611 2.943585,0.539549 6.054255,0.706217 8.984858,0.04367 2.050875,-0.837249 4.471356,-2.154629 5.025328,-4.48009 -0.17194,-2.227686 -1.963225,-3.962096 -2.419892,-6.092894 -0.273544,-0.632872 -0.355488,-2.206891 0.726424,-1.846438 5.046704,1.872325 9.658457,4.773995 14.44633,7.239861 3.974618,2.057197 7.781643,4.455287 11.840883,6.338377 2.73578,1.181453 5.23005,-1.074773 7.27651,-2.584411 1.15002,-0.693824 2.20435,-1.802093 3.54551,-2.003673 2.2952,0.724206 4.44825,1.932476 6.88277,2.220214 6.65945,1.222139 13.95507,0.387355 19.60104,-3.560181 2.19773,-1.725591 1.54056,-4.895704 1.07956,-7.272556 -0.5943,-2.107683 -0.89324,-4.372285 -0.0212,-6.459053 7.11271,-0.289947 14.05485,1.429749 21.05208,2.472767 3.2937,0.459421 6.84536,2.048129 10.08239,0.520553 3.63252,-2.615979 6.19212,-7.166712 10.92561,-7.944603 3.85198,-0.18314 7.98157,-0.490427 11.30422,-2.640724 1.84344,-1.099756 2.24709,-3.596466 1.13677,-5.360755 -1.34505,-3.206407 -0.66474,-7.469036 2.44018,-9.407551 3.08052,-2.225758 7.10851,-2.860258 10.81892,-2.393868 3.99876,-0.07131 8.08688,-0.359932 11.90679,-1.609724 2.53127,-1.03181 4.60191,-3.345585 4.77691,-6.152329 0.27519,-2.400436 2.5381,-3.710575 4.60609,-4.337646 2.21005,-0.659927 4.7488,-1.792301 5.61717,-4.094996 -0.0146,-1.418439 -0.92395,-2.734984 -0.62547,-4.186954 0.1167,-2.45801 2.27027,-4.314786 4.46026,-5.013873 2.56859,-0.418701 4.77783,-2.094752 6.70291,-3.765591 1.44895,-1.476526 2.96934,-4.186211 1.18483,-5.975194 -1.90332,-1.533922 -4.5587,-2.2029415 -5.99328,-4.2566234 0.056,-1.499394 2.03387,-1.7112609 3.17052,-2.0588765 2.89713,-0.5101898 5.95626,-0.9150562 8.35663,-2.7748089 4.61185,-2.78675898 9.94618,-5.3512876 12.39045,-10.4684033 1.85767,-3.6372889 2.92162,-8.2627239 0.90711,-12.0544499 -2.12795,-3.497752 -6.5932,-3.785132 -9.81528,-5.734983 -0.90913,-0.504842 0.55923,-0.901989 0.94855,-1.079038 4.48368,-1.328802 9.21516,-2.670347 12.79292,-5.895007 3.23955,-2.784908 6.87642,-5.538692 8.39016,-9.705541 0.64583,-1.886109 2.27313,-4.098578 1.10626,-6.09286 -1.26433,-2.151516 -4.1325,-1.817378 -6.14078,-1.114879 -4.93247,1.656594 -9.37751,4.635764 -14.55131,5.611176 -5.05716,0.997051 -10.37676,1.059607 -15.44397,-0.08223 -1.13921,-0.542918 -3.12555,-0.212702 -3.18466,-1.87792 -0.76,-1.908756 -1.03864,-4.174867 -2.39818,-5.765272 -2.16218,-1.095082 -4.5681,0.386161 -6.672,0.956134 -5.15992,1.725361 -10.39632,-0.834178 -15.03596,-2.831641 -2.72115,-1.15096 -5.33775,-2.671993 -8.10899,-3.619709 -4.92692,-0.30641 -10.25807,0.601772 -14.7926,-1.841543 -8.48181,-4.544727 -18.21885,-6.654602 -27.82211,-6.011555 -2.19748,0.212293 -3.98245,-1.503224 -5.98591,-2.197705 -3.47253,-1.521664 -6.84824,-3.488643 -10.60317,-4.208832 -5.49895,-0.692587 -11.12141,-0.181493 -16.4499,1.320136 -5.93793,-2.042107 -11.71396,-4.629444 -17.815,-6.157924 -4.40182,-0.634705 -8.90864,-0.314845 -13.3058,0.238249 -3.01965,0.303066 -5.882302,1.425707 -8.871128,1.83233 -3.710438,-0.132243 -6.926475,-2.455998 -10.426335,-3.325898 -2.931429,0.152151 -5.862867,0.304285 -8.794306,0.456411 z m -128.77994,65.732151 c 6.365805,0.122545 12.567356,2.301407 18.088306,5.3703083 5.734973,3.6600627 8.299429,10.5437964 9.469128,16.9708037 1.567654,9.434376 0.347533,19.721832 -4.368016,28.087602 -3.158962,5.334604 -7.835438,10.299611 -13.996516,11.959686 -3.439957,0.575074 -6.947071,0.696715 -10.421794,0.597686 -4.017083,-0.473342 -8.243571,-0.756977 -11.825237,-2.791467 -5.473065,-3.549579 -8.007467,-10.05615 -9.382126,-16.209903 -2.347429,-10.122954 -2.373748,-21.336589 2.95512,-30.5383032 2.892543,-4.8339498 6.921478,-9.2910958 12.006836,-11.9014795 2.294381,-1.1149903 4.909449,-1.5852873 7.474299,-1.5449333 z m 48.5694987,70.201639 c -0.2051652,0.147792 0.3843543,-0.462151 0,0 z"
             id="path14400"
             inkscape:connector-curvature="0"
             sodipodi:nodetypes="ccccccccccccccccccccccccccccccccccccccccccccccccccccccccccccccccccccccccccccccccccccccccccccccccccccccccccccccccccccc" />
          <path
             style="opacity:1;fill:#8000ff;fill-opacity:0.992337;stroke:#ff8400;stroke-width:0;stroke-linecap:round;stroke-linejoin:bevel;stroke-miterlimit:10;stroke-dasharray:none;stroke-dashoffset:0;stroke-opacity:1"
             d="m 275.46716,-22.28508 c -2.111,-0.0232 -2.7189,2.456177 -2.44722,4.149048 0.56659,3.542508 1.10233,7.405183 -0.77009,10.654042 -3.29053,6.5882255 -9.83428,10.5054985 -15.81491,14.3436424 -1.05047,0.7063111 -2.31615,1.4951718 -2.2667,2.945094 -0.58673,3.4138046 0.58083,7.3777256 -1.66087,10.3455426 -2.55205,2.986096 -6.68182,3.813007 -9.65747,6.265261 -1.52856,1.270459 -1.05755,3.375276 -0.40949,4.967131 0.45165,1.102255 -0.93858,1.827204 -1.50569,2.590902 -2.42582,2.593512 -5.71539,4.14045 -8.13812,6.72278 -1.64179,2.169659 -2.33161,5.116826 -4.75998,6.653119 -4.14524,2.658089 -9.25657,3.060363 -14.04117,3.464197 -3.16813,0.247 -6.49512,-0.706831 -9.50924,0.709987 -1.85071,0.763767 -4.22221,2.330477 -3.5981,4.660364 0.58458,1.568467 1.79776,2.901806 1.87068,4.661695 0.27899,1.437554 0.23873,3.07488 -1.00057,4.07455 -1.10626,0.791044 0.0845,1.833098 0.18777,2.791467 0.12205,0.290109 0.40299,1.437896 0.72465,1.841568 1.65797,-0.596697 -0.30117,-0.292847 0.14502,0.458424 0.18914,0.393923 0.35086,1.056264 0.57871,0.243981 -0.18153,0.06022 -0.2273,0.779316 0.0335,1.19208 0.17773,1.552585 1.08532,2.828435 1.77635,4.18344 0.087,0.798678 0.70849,1.077639 1.43695,0.774437 1.48415,1.215827 2.15205,3.225948 2.90108,4.939708 2.28195,5.860684 3.62104,12.042849 5.77919,17.938087 1.08792,1.669483 3.39243,0.64274 4.5127,-0.45224 2.3964,-1.796241 5.28547,-2.996613 7.52536,-5.091817 4.46768,-3.937897 8.91334,-7.914502 13.19506,-12.055217 8.01483,-8.162185 14.83143,-17.501439 20.13378,-27.634415 1.68318,-2.943414 3.46707,-5.843216 4.99128,-8.863635 2.89359,-7.449852 5.12405,-15.171509 6.72984,-22.999444 1.40055,-7.428494 2.94311,-14.849619 5.3634,-22.01563148 1.03752,-5.64197652 1.34726,-11.40232652 1.56608,-17.12559952 0.0471,-2.125876 -0.62134,-5.042959 -3.17185,-5.2845 -0.23134,-0.03574 -0.46573,-0.05536 -0.69994,-0.04802 z M 205.6331,76.459242 c 0.0131,0.02098 0.1184,0.07301 0,0 z m -2.94441,-9.318519 c -1.02909,0.389428 -1.00757,0.105793 0,0 z m 1.27475,6.127729 c -0.34278,-0.560429 1.56049,-0.898065 0,0 z m -0.005,4.27e-4 c 0.005,0.01962 -0.0178,-0.03011 0,0 z m 1.42459,2.688319 c -0.002,-0.0051 0.003,-0.01749 0,0 z"
             id="path14398"
             inkscape:connector-curvature="0" />
          <path
             style="opacity:1;fill:#c400ff;fill-opacity:1;stroke:#ff8400;stroke-width:0;stroke-linecap:round;stroke-linejoin:bevel;stroke-miterlimit:10;stroke-dasharray:none;stroke-dashoffset:0;stroke-opacity:1"
             d="m -0.9523642,58.286787 c -1.2757639,-0.149174 -2.8253222,0.126127 -4.1490659,0.321771 -0.8118582,0.0476 -1.5210549,0.310469 -2.2462079,0.665574 -0.119,0.08727 0.1622638,0.310895 -0.119,0.08727 -1.0067998,0.400047 -2.0861558,0.583434 -3.10354,0.871871 -0.727114,0.223714 -1.922486,0.975454 -2.175688,1.096216 -0.16296,-0.018 -1.121975,0.611317 -0.812356,1.081674 0.07751,-1.194085 0.169534,0.802542 0.920789,0.670853 2.7513107,2.408454 4.4634484,5.726633 5.825061,9.062307 0.749436,2.161854 0.534205,4.577925 0.4181384,6.839277 -0.3812845,1.04341 0.339399,2.48615 1.5841552,2.186693 2.4950865,-0.460881 3.7650511,-3.093134 5.8579769,-4.121711 1.9549909,0.391552 2.4508076,2.830217 2.8998641,4.46536 0.5713523,2.591653 0.2781044,5.955764 2.9404641,7.494308 2.7195244,1.623986 6.5364813,1.811859 8.2165723,4.869297 0.684599,1.861399 1.235075,4.095738 3.254271,4.988728 3.144863,1.647425 7.428772,1.191665 9.78134,4.221345 0.657701,1.58761 1.735136,3.05423 3.432783,3.63027 2.384955,0.98419 5.027299,1.5532 6.966966,3.36887 4.856553,2.63157 10.303176,3.89358 15.426936,5.89405 3.552573,1.19615 7.02124,2.62293 10.450636,4.11607 2.251032,0.8685 4.047102,-1.18554 5.056343,-2.92943 2.840913,-4.59982 4.396406,-9.81993 7.138436,-14.44656 0.315339,-0.82106 1.258066,-0.28819 1.634409,-0.82865 -0.05058,-0.0551 0.63073,-1.35931 0.582709,-1.49821 0.02602,-0.470246 0.08761,-0.2696 0.17014,-0.901835 0.172775,-0.500356 0.187532,-0.834196 0.245081,-0.99793 0.38634,-2.011273 0.729085,-4.056451 1.161459,-6.095547 -0.979156,-0.958122 -1.875012,0.65492 -2.893293,0.953422 -1.757185,1.148392 -3.878865,1.184234 -5.852539,0.771648 C 64.548379,93.112492 57.769986,90.490031 50.912865,88.375737 50.394316,88.297007 50.360718,87.38789 49.634592,87.535597 44.418653,84.446792 39.661469,80.637145 34.834011,76.991975 29.641092,72.866068 24.648227,68.405246 20.531686,63.184291 c -0.242949,-0.127637 -0.450705,-1.125192 -0.508663,-0.794729 0.06005,-1.113523 -1.248771,-0.818356 -1.879927,-1.392868 -1.735405,-0.763988 -3.675051,-0.745172 -5.47536,-1.342176 -1.71356,-0.112096 -3.4425557,-0.106799 -5.1082036,-0.516587 -0.2194506,1.444873 0.3597779,-0.08713 -0.555825,-0.07762 -1.8860914,-0.855775 -4.0645051,-0.04819 -5.9950545,-0.594163 -0.63377534,0.05672 -1.33306405,-0.24979 -1.9610171,-0.179395 z M 78.885164,100.05154 c 0.0026,-0.0336 -0.01,0.0714 0,0 z M -12.600411,61.24749 c -0.12794,0.05519 0.04307,-0.01186 0,0 z m -0.10182,0.05638 c 0.01782,0.0034 0.07372,-0.01732 0,0 z m -0.02424,0.0068 c 0.008,-0.0017 0.02485,-0.02167 0,0 z m -0.0084,0.0034 c 0.0035,0.0034 0.02463,-0.01186 0,0 z M 79.20783,97.547952 c 0.0043,0.06107 0.0034,0.04811 0,0 z m 0.223476,-0.0661 c -0.01083,0.0068 0.0068,-0.0174 0,0 z m -0.353936,1.417987 c -0.449058,0.322521 0.179591,-0.211142 0,0 z m -0.199678,1.185691 c -0.01177,0.0462 0.0099,-0.0295 0,0 z m -0.01766,0.10359 c -0.02141,0.14103 0.03591,-0.201398 0,0 z m -0.223468,0.16308 c 0.543012,1.35262 -0.449595,-0.545766 0,0 z m -0.210263,0.98646 c -0.0034,0.0111 0.0026,-0.0173 0,0 z m -0.111959,0.32177 c -0.0051,0.0264 0.01177,-0.0995 0,0 z m -0.02772,0.0675 c -0.04188,0.064 0.02755,-0.27091 0,0 z m -0.06303,0.22437 c -0.01279,0.0324 0.01578,-0.022 0,0 z m -0.138862,0.16484 c 0.0122,-0.004 0.02533,-0.0403 0,0 z"
             id="path14394"
             inkscape:connector-curvature="0"
             sodipodi:nodetypes="cccccccccccccccccccccccccccccccccccccccccccccccccccccccccccccccccccccccccc" />
          <path
             style="opacity:1;fill:#ffbf00;fill-opacity:1;stroke:#ff8400;stroke-width:0;stroke-linecap:round;stroke-linejoin:bevel;stroke-miterlimit:10;stroke-dasharray:none;stroke-dashoffset:0;stroke-opacity:1"
             d="m -78.401754,62.63199 c -3.974644,5.433991 -6.956238,11.560637 -8.742914,18.052955 -1.151157,3.886422 -2.209588,7.838265 -2.501815,11.889641 -1.090828,2.592531 -1.165692,5.531441 -1.708382,8.280664 -0.869623,6.75706 -2.077727,13.51236 -2.163427,20.33915 0.27989,5.53066 0.400193,11.1532 1.787802,16.54247 0.377739,0.88177 0.552207,2.19007 1.521131,2.59443 1.082881,-0.32658 0.403165,-1.83166 0.49888,-2.65403 -0.52437,-4.14589 -0.631886,-8.26381 -0.03934,-12.40967 0.825461,-7.11867 1.381423,-14.4288 4.542669,-20.9876 2.33782,-5.280019 4.408966,-10.69765 7.132457,-15.788784 3.074207,-4.849192 6.822411,-9.259596 9.618253,-14.302419 0.819114,-1.255362 1.559197,-2.896953 3.163476,-3.26486 0.716355,-1.078996 -0.849716,-1.225116 -1.320135,-1.924885 -1.443968,-0.930154 -2.934177,-1.635876 -4.283497,-2.723137 -2.051067,-1.494216 -4.389331,-2.406748 -6.586571,-3.642594 -0.307154,-0.251427 -0.583548,-0.126332 -0.918584,-0.0017 z"
             id="path14392"
             inkscape:connector-curvature="0" />
          <path
             style="opacity:1;fill:#a000ff;fill-opacity:1;stroke:#ff8400;stroke-width:0;stroke-linecap:round;stroke-linejoin:bevel;stroke-miterlimit:10;stroke-dasharray:none;stroke-dashoffset:0;stroke-opacity:1"
             d="m 201.31435,65.410237 c -3.61957,3.683672 -8.99462,4.48943 -13.90312,4.977059 -1.85456,0.252716 -3.92113,0.603581 -5.00764,2.324003 -1.90979,2.245529 -3.28779,5.421418 -6.48124,6.081873 -4.6199,0.886039 -9.30744,-0.409361 -13.86094,-1.131307 -4.09276,-0.609363 -8.13266,-2.112741 -12.30989,-1.872172 -1.38543,0.09379 -2.88822,1.290325 -2.35113,2.809098 0.81764,2.903427 0.9026,6.322537 -1.1729,8.744186 -3.52412,4.089759 -9.26109,5.165411 -14.31873,5.832409 -4.41745,0.612246 -8.77021,-0.455712 -13.07177,-1.276055 -2.76581,-0.530593 -5.59391,0.514182 -7.54746,2.493912 -2.33208,1.71347 -5.4462,0.661778 -7.90538,-0.236697 -5.981671,-2.447647 -10.984456,-6.775697 -16.931673,-9.272228 -1.766618,-0.490947 -2.287461,1.782568 -2.837305,2.958494 -0.90001,1.907536 -2.84227,3.009339 -4.110273,4.513586 -0.07856,0.537519 -0.431205,1.119955 -0.09916,1.634862 -0.27386,-0.956084 -0.210263,0.505549 -0.372454,0.732582 -0.05391,0.338446 -0.188035,0.983029 -0.190432,1.112525 0.371448,0.169193 -0.07583,-0.05109 -0.06832,0.401557 -0.316201,1.470589 -0.553025,3.05684 -0.956928,4.377356 -0.398503,0.61972 -0.771144,1.65952 0.268427,1.87817 1.491402,0.86097 0.424843,2.80994 0.03045,4.04548 -0.92258,1.96962 -1.593928,4.04907 -2.325308,6.07402 -1.372243,2.92893 -3.958778,5.39213 -4.583477,8.65595 -0.0936,1.81527 2.179536,2.03905 3.449526,2.54022 8.72902,2.51745 17.834725,3.30322 26.820757,4.39443 12.54837,1.43807 25.25668,1.45712 37.78855,-0.16583 8.33382,-0.91299 16.65745,-2.32792 24.56665,-5.18895 9.35564,-3.29381 18.71147,-6.63215 27.84576,-10.50212 5.68989,-2.75398 11.94078,-4.3021 17.5072,-7.36068 1.2547,-0.83217 2.57561,-1.8652 3.21913,-3.20923 -1.76025,-6.837466 -3.62497,-13.661799 -6.19031,-20.247636 -0.36831,-1.516633 -1.27432,-3.360589 -0.37686,-4.827417 0.5723,-0.550611 0.27837,-0.890303 0.38878,-0.923005 -0.45245,-1.04289 -1.14054,-2.203351 -1.63575,-3.112795 -1.48142,0.110859 0.11042,0.250028 -0.045,-0.303245 -0.25539,-0.503673 0.0116,-1.678191 -0.95781,-1.066397 -0.21277,-0.255606 1.04498,-0.01365 0.44872,-0.747858 -0.67805,-1.330269 -1.18469,-2.851277 -1.62649,-4.20856 -1.3798,0.659237 0.39175,0.168699 -0.20233,-0.407706 -0.10886,-0.437364 -0.36988,-0.769925 -0.89389,-0.521884 z M 78.98566,95.057503 c -0.0051,-0.01885 0.02576,-0.08078 0,0 z m -0.186005,1.18437 c -0.02968,-0.02252 0.0017,-0.273254 0,0 z m -0.321771,1.605775 c -0.06585,-0.01015 -0.0043,-0.182329 0,0 z m -0.603854,2.720042 c -0.02585,0.0128 -0.0094,-0.0263 0,0 z m 0.314256,0.0824 c -0.03395,0.0421 -0.333413,-0.14755 0,0 z m -0.714499,0.76212 c -0.0051,-0.0434 0.07233,-0.22379 0,0 z m 0.05604,0.0661 c -0.03489,-0.0207 0.08905,-0.0597 0,0 z m -0.01723,0.0211 c -0.163547,0.36434 -0.104957,-0.0548 0,0 z m -0.104915,0.1146 c -5.2e-4,-0.002 0.0026,-0.005 0,0 z m 0.02073,0.25698 c -0.123355,-0.0225 -6.99e-4,-0.36901 0,0 z"
             id="path14161"
             inkscape:connector-curvature="0" />
          <g
             transform="matrix(0.11916092,0,0,0.11916092,-190.42456,-125.48574)"
             id="g5528">
            <path
               style="fill:#000000;stroke-width:1.33333"
               d="m 720.1792,170.38372 c -83.99818,-1.43114 -176.46376,3.3592 -240.75801,65.5347 -63.49414,46.34183 -80.23243,128.15318 -106.88382,198.70264 -81.38442,14.50455 -128.55214,106.12813 -135.84918,176.29645 -6.48582,38.46738 18.79995,209.20918 68.45002,295.62279 10.5986,25.3824 -28.06249,88.24051 18.81009,106.4964 36.06411,26.842 79.18656,-9.1334 86.45544,-42.48719 1.27965,-15.17591 14.5235,-21.65518 -1.48914,-40.8043 -3.16204,-28.16299 -26.18328,-20.89317 -62.32557,-26.04523 -28.35741,13.82188 -37.54242,-43.90406 -50.73415,-61.57508 -6.55215,-20.35692 -9.02881,-27.67747 -15.62059,-55.24931 -11.46442,-23.4217 -11.73671,-59.13314 -14.87536,-71.77377 -0.0671,-5.2026 -8.45535,-29.6606 -8.93769,-56.09815 0.67044,-22.67833 0.92485,-26.25495 3.3443,-39.38904 0.75443,-36.19282 13.32421,-48.29854 22.97893,-83.20272 22.13475,-66.52417 62.30577,-51.05746 82.02801,-64.95939 -7.02302,23.95826 16.00703,97.99276 2.72742,114.14839 -76.28196,42.09182 26.35936,107.89429 58.59557,75.99161 20.25931,-26.32175 16.82874,-52.75414 10.81277,-66.84148 -11.37254,-14.4792 -25.36208,-23.00648 -41.81429,-17.89852 -12.0258,-48.52153 -8.37738,-78.02318 -5.76449,-102.64628 31.72611,-13.60312 106.1071,16.7457 148.55196,37.70533 34.14955,25.20939 61.24853,57.42386 93.4613,84.47796 41.45608,54.80787 95.21378,98.28334 142.46603,146.64696 36.21183,48.67216 94.80062,90.40354 111.26251,150.25481 4.47625,75.2036 -87.06793,94.81448 -93.93348,162.3537 49.75702,71.9857 -78.70562,75.1881 -48.10882,164.7871 -19.06217,54.1812 1.69495,112.9503 46.75284,136.6386 -52.18882,16.602 -51.9006,85.39 0.42375,109.1236 35.38359,39.9167 74.15207,85.1225 114.7614,113.2359 -32.45208,67.7435 -67.96292,135.4749 -77.06049,213.3157 -14.72262,66.3955 -27.13473,137.0717 -36.01401,206.1967 7.07524,44.0544 -15.80651,108.3828 0.008,166.0745 1.11509,80.8606 39.48778,154.4599 90.16016,216.7419 42.95,33.0033 92.79064,46.7317 146.40879,37.0836 102.8287,0.5401 152.7701,-136.9913 112.001,-214.7241 -8.7145,-18.4731 -54.8539,-52.8763 -71.1886,-24.6699 17.1569,36.3816 73.1947,70.1573 40.9577,128.9628 -9.8706,36.2726 -52.2682,75.468 -90.6243,68.2062 -48.54082,9.1092 -92.18657,-21.5274 -112.62242,-65.7606 -22.01314,-46.5285 -26.19946,-110.8454 -31.46586,-150.9409 2.06079,-76.7734 10.02674,-154.3126 37.63633,-221.8348 39.37787,-91.7151 83.25979,-187.5401 158.59645,-253.5186 103.4121,-5.4615 212.9671,10.9459 308.141,-35.3645 48.9608,-7.9548 89.122,1.5063 122.6188,-22.0305 28.7635,33.1389 15.7397,72.8835 10.6177,110.5764 11.4236,54.0602 62.0293,6.0932 89.9059,10.2345 4.2059,55.5889 44.8011,95.4215 102.8806,95.4348 -1.7754,54.4139 43.688,83.7009 95.1965,81.3623 24.3025,20.1019 35.2123,61.8646 73.3517,61.382 39.5442,14.5649 -3.0512,50.1095 -15.0528,65.2361 -45.1987,58.17 -84.1838,125.6302 -153.8384,158.8829 -36.2081,4.852 -83.9589,6.2091 -110.0761,8.3336 -51.976,76.7028 105.769,9.0834 88.3037,28.4756 0.7717,33.91 -69.2241,54.0734 -53.0524,98.7721 38.8656,25.351 44.3392,-47.3106 74.1063,-65.002 44.4179,-55.7141 104.4326,-99.9111 139.5846,-159.3915 31.5089,-34.6621 56.5375,-82.0555 91.6936,-107.4972 70.5691,21.1244 136.5163,61.728 202.5407,84.7282 -9.7205,27.3222 -24.4937,59.8301 -46.4542,85.4546 -34.8912,55.9103 -66.3137,111.0285 -111.2384,155.2792 -35.6512,20.1132 -84.5159,21.1493 -120.609,47.5478 -18.2743,50.5472 28.6972,24.8904 55.6797,12.7971 72.8476,-27.659 55.768,178.9989 44.1135,138.8379 12.9723,36.9752 53.1127,27.417 40.3079,-12.1956 -3.9589,-64.7489 -25.5712,-154.6465 36.6517,-193.9891 45.2456,-67.0424 96.9107,-139.0612 134.1205,-210.5754 67.1044,2.2472 131.3262,34.8478 200.4217,35.102 58.7431,13.6544 128.3971,18.211 191.4546,22.0952 51.5229,-5.1359 89.0812,-1.6413 135.7104,-10.5815 133.4051,-7.3482 264.7208,-38.2838 385.6212,-88.0132 40.1901,-28.027 47.2856,24.6716 53.2099,55.9742 20.3348,73.5871 52.3511,152.7104 69.5098,232.6301 -15.5814,24.7708 -45.6116,43.878 -65.7042,53.1495 -18.9553,11.2302 -46.3157,60.3056 -12.0222,68.3274 26.5847,-6.9575 19.8577,-42.5035 53.6658,-47.092 25.8154,-7.7364 42.956,-55.5291 55.369,-9.5684 21.8939,30.8158 11.0507,68.2349 39.8843,94.0909 49.2343,-12.4264 1.318,-63.6009 -6.4167,-97.8764 -17.1972,-46.5114 -33.8691,-88.3002 -51.5029,-131.703 -12.7776,-36.7056 -32.5787,-98.2774 -45.0941,-142.7726 4.2205,-31.3858 -47.9636,-105.4349 4.8507,-107.7597 37.8658,-23.1804 44.2772,-26.5902 111.2095,-44.7114 38.1879,-13.5988 84.6583,-37.5922 100.7098,-42.7436 12.8548,44.5929 50.4974,97.7528 53.8921,136.2257 25.2228,58.8483 40.4199,124.1404 52.4349,185.8048 -9.2581,38.8533 -63.9026,64.8047 -56.8985,106.5367 39.023,43.9063 36.791,-12.5539 56.2247,-36.3612 17.5288,-50.8538 49.1334,1.2633 56.0025,29.1535 24.5145,26.7697 26.875,70.8334 61.6685,85.6281 35.3874,-30.7845 -27.9701,-70.2982 -37.6687,-103.522 -31.8716,-40.2073 -17.872,-97.3551 -56.7048,-127.9336 -25.2448,-104.681 -65.0469,-202.1338 -97.9651,-302.2654 55.6781,-41.6381 118.6042,-76.9767 167.6042,-128.3049 69.2411,-58.8975 126.535,-139.4398 180.5221,-208.7634 48.9709,-79.6276 95.6226,-156.0517 118.5831,-245.4837 29.4688,-87.5099 33.8618,-181.9865 65.7041,-271.6549 16.8341,-64.4838 9.0917,-132.29104 10.5734,-197.34662 7.8873,-63.93516 -138.0773,-30.92414 -52.0919,-79.34061 49.5587,-35.59456 99.312,-103.8333 78.4124,-166.79687 -30.4697,-41.69936 -92.3982,-28.30813 -125.4075,0.17755 -61.7223,26.727 -134.892,50.90606 -201.9109,22.91436 -0.9653,-74.03803 -75.6911,-77.70754 -129.4067,-53.70625 -89.2669,3.08507 -165.255,-88.65178 -257.0418,-53.17356 -35.658,-30.4265 -87.6598,-43.86981 -133.1517,-56.9751 -64.8626,-21.15325 -140.9281,1.35189 -196.6041,-42.65264 -56.839,-18.92704 -121.2488,-39.67545 -181.1114,-17.4057 -22.0789,9.81419 -44.1993,13.60563 -56.6724,-4.20514 -62.911,-24.01087 -128.3897,-56.72946 -196.8583,-42.18855 -51.6524,-6.43985 -109.4315,27.80008 -148.4711,-2.8895 -67.0937,-3.98335 -135.6598,-2.39742 -200.5228,1.39228 -117.2927,12.91164 -236.8704,44.34796 -339.0459,102.03704 -44.4234,21.42466 -69.3393,35.56028 -106.7586,67.94397 -68.1072,49.01375 -145.7255,94.70737 -201.5438,161.86131 -67.3351,94.65071 -106.747,-46.27384 -183.3309,-13.92294 -65.1153,63.61791 -78.9025,-23.72311 -144.3547,-15.29105 -36.8596,10.62145 -93.6779,92.26866 -91.8188,22.26865 -11.3791,-81.73617 -10.8424,-161.28102 -43.2943,-235.72151 -11.4846,-27.55847 -31.4547,-72.29875 -44.0893,-100.61245 C 994.38136,357.4698 971.52312,302.06125 936.49334,276.10529 885.28261,209.21428 801.41779,183.41365 720.1792,170.38372 Z m -108.53845,31.51025 c 93.84021,-0.30835 193.59312,2.32444 271.78596,69.10976 52.91746,41.81146 91.18572,116.41376 120.44969,162.62456 19.813,59.31818 53.1446,139.33739 50.3823,211.23119 8.3809,67.09611 29.3006,148.36994 -55.26951,167.51328 -28.37813,60.63613 -88.83826,56.89414 -116.10524,4.86698 C 844.37828,758.94009 786.46178,715.10647 749.18735,657.82807 730.85487,645.55031 709.12786,610.65253 695.98958,609.08564 663.6357,562.70762 603.00662,519.99143 549.98026,482.01557 c -44.94345,-29.9379 -113.69977,-48.85314 -154.6147,-46.58845 5.86761,-19.74386 8.26848,-42.46648 17.48784,-58.23479 4.25407,-15.37357 6.22056,-20.1382 18.28545,-44.62848 10.31073,-22.78987 27.1433,-43.19043 40.65903,-57.53203 21.97405,-27.67547 78.08039,-61.20425 118.67193,-66.55572 10.15064,-9.76058 2.41251,3.67184 21.17094,-6.58213 z M 2276.252,411.88025 c 60.8144,-15.67746 93.6481,46.55793 146.9173,20.50505 49.1788,-14.45432 99.8811,-17.31593 150.162,-15.46052 56.387,11.79341 113.6195,43.27768 164.202,55.35683 57.1474,-19.96665 125.9929,-21.25481 182.0758,3.4989 26.6027,12.2399 83.1597,51.82531 124.8626,37.92286 58.1712,-4.20328 121.6895,17.87786 179.2629,39.92859 40.5565,31.64489 85.5604,27.96323 134.0719,25.26713 73.179,19.07558 141.8498,87.01641 219.2642,50.96201 53.6728,-26.97352 48.4822,22.54466 62.5767,53.75469 77.8677,28.12685 164.1392,17.51901 241.8274,-24.54475 28.8983,-20.66767 99.104,-35.4606 87.4119,15.46052 -13.2605,34.92953 -25.6467,69.03736 -61.0189,89.9745 -30.398,30.25728 -62.5372,53.77676 -104.7248,59.96554 -94.2353,24.40412 25.0534,26.30267 48.5609,61.44256 22.8074,36.81926 5.7541,108.44481 -22.8095,131.42454 -19.7655,27.771 -58.4805,45.2738 -94.0425,65.3854 -20.1688,26.3734 -79.9556,4.9895 -90.9268,37.6484 10.4488,28.7979 84.911,25.6193 51.3212,73.5051 -12.272,27.5444 -34.4631,25.8881 -44.727,37.2005 -49.2436,9.5386 -72.8517,37.0428 -51.3778,82.9767 -15.4749,43.5355 -90.5875,26.3328 -87.3675,73.0248 -4.6509,64.6567 -87.7218,55.3617 -134.6328,64.6469 -64.3268,-18.9435 -155.4741,32.6982 -113.9502,104.41 18.2225,46.3603 -57.7203,57.4358 -86.0519,58.0526 -34.9305,-2.6262 -48.3915,9.828 -76.7335,32.7654 -19.1041,34.2205 -52.6459,54.2117 -95.0676,33.8792 -67.8762,-5.715 -141.9569,-29.9112 -201.6406,-23.2978 -26.0609,43.9958 35.812,91.0004 -18.5476,122.8892 -58.0157,32.1183 -144.3573,40.1205 -209.0219,2.1307 -39.5169,4.7958 -63.2862,72.2608 -106.5488,31.2036 -70.833,-31.7681 -139.0284,-78.7516 -210.8296,-109.3335 -32.1739,27.7381 53.4021,66.7457 -5.4764,99.4744 -67.3916,38.4324 -136.6968,-12.1202 -203.5413,-24.8069 -71.4043,-33.8658 -126.2832,-96.9158 -194.2796,-133.3375 -8.6084,-6.9434 -27.2424,-16.4062 -45.1467,-38.2417 -15.5706,-17.8038 -71.8576,-55.6422 -30.8242,-9.516 63.2434,74.984 146.017,132.2729 227.2143,189.1542 69.7215,32.3328 146.8987,57.5329 223.3403,61.6646 30.0283,-7.3891 46.8414,-27.9055 68.6341,-44.7472 10.6056,-15.6076 10.356,-55.4579 35.7477,-29.7629 64.1563,23.666 119.5137,91.5052 193.6539,81.3062 34.4373,-45.027 81.325,-28.9423 128.9957,-14.2883 67.2495,1.4931 203.997,-16.6666 185.6588,-111.8618 -28.8129,-70.0321 82.9294,-21.0619 117.8002,-21.9739 52.5787,9.5696 132.6987,37.1955 161.3327,-29.0527 26.6072,-54.9179 84.9725,-18.0499 127.5018,-47.3379 39.4147,-15.7586 70.8365,-38.778 49.2227,-87.7752 -47.8387,-42.0794 46.8286,-75.119 81.2899,-57.5643 58.1431,-6.9116 159.1102,-7.4352 169.0125,-87.9647 27.0951,-20.9393 67.1881,-39.1158 90.4224,-76.3704 -29.7132,-52.7698 25.5171,-53.2219 59.3118,-78.7272 67.7361,-28.3081 6.1159,-112.921 51.6762,-127.6068 52.6814,-33.4999 113.6766,-65.2431 138.3418,-128.99914 33.9223,-38.85276 -36.3694,-134.00981 42.3017,-113.64596 29.7204,40.88486 1.1462,97.25642 3.079,144.1554 5.9169,36.666 -14.7348,54.4324 -21.0701,90.031 -6.1421,29.1744 -21.0879,77.4037 -25.7273,116.3474 -8.8049,38.1241 -10.5653,84.3477 -29.1654,120.4879 -8.0968,26.4434 -24.3503,73.152 -28.8386,88.9374 -12.2113,31.3758 -40.4292,63.9901 -54.6789,93.3362 -28.5247,61.5269 -70.4009,117.8249 -120.3063,172.5961 -22.9624,29.7802 -41.2247,45.7271 -68.8924,72.1895 -48.3733,34.4385 -83.7298,89.9906 -134.8105,103.2113 -13.6139,23.0965 -48.1281,33.1585 -47.3542,-5.0485 -22.3785,-57.646 -31.5095,-129.4319 -66.2691,-175.7883 -39.4822,0.2865 -3.7403,48.9448 1.6183,69.5178 19.0828,48.8175 27.9681,98.3553 42.7374,149.0643 -35.0008,40.415 -93.7479,47.8619 -140.7349,70.2404 -10.7532,-0.5081 -40.4757,19.5272 -51.1071,23.6849 -116.3716,40.7175 -228.6337,93.0753 -350.9672,113.6921 -46.9408,2.8215 -90.0501,14.2222 -145.2668,15.9207 -87.8417,4.6593 -177.2628,4.1431 -263.455,-9.3031 -67.9638,-8.6226 -143.5917,-12.8405 -206.1962,-36.7759 -65.9554,-4.5736 14.2327,-64.7412 16.7357,-96.8755 2.689,-23.155 52.0696,-83.242 2.9702,-81.6692 -24.9728,39.9083 -37.4089,91.4626 -62.8227,128.6843 -25.8696,54.3605 -58.9,1.1324 -96.5123,-1.3558 -54.3625,-19.2789 -113.0524,-42.874 -161.143,-57.06 -1.0343,-30.7104 -80.5218,-17.359 -82.2019,-60.2561 -26.8062,-42.5328 -97.608,-10.2335 -108.5746,-69.2434 -9.4807,-52.4184 -83.8213,-26.4298 -93.2918,-78.3357 1.6093,-43.6918 -20.0528,-112.3674 -59.8647,-46.087 -62.5412,32.3533 -10.5944,-41.2991 -35.6911,-66.9997 -7.7037,-35.2528 -34.6288,-68.5002 -57.976,-84.6756 -25.4311,36.4765 -55.6916,43.4011 -101.0967,38.0439 -40.431,-2.416 -79.2261,33.4361 -125.5002,28.5076 -65.0284,15.867 -143.9476,10.1806 -210.402,2.1551 -27.3949,27.1588 -41.5143,69.2864 -68.43629,100.6246 -52.55077,57.4054 -70.54715,134.6535 -104.53106,201.5881 -15.59268,37.5461 -22.19444,75.3245 -23.95149,118.4136 -15.12949,58.0221 -10.31772,118.356 -3.41416,175.4573 -38.49123,-53.8701 -22.48257,-119.9862 -32.92674,-180.9578 9.03085,-62.2814 12.89424,-125.6051 25.02093,-187.2616 16.0283,-96.741 37.09798,-207.1027 103.23964,-289.3511 -8.4839,-43.6847 -55.94912,-39.3038 -77.06047,-73.1096 -23.54933,-35.5637 -61.37145,-61.0307 -78.77562,-100.2129 14.2287,-16.8323 81.04136,-20.6155 42.03116,-53.4157 -37.35256,-34.4735 -79.62836,-76.3689 -50.21947,-131.8281 3.47144,-30.1101 -1.72802,-75.47 40.02546,-81.2696 28.59471,-14.9606 26.30802,-33.1322 10.75495,-58.1979 -34.22067,-54.9472 54.46744,-72.6682 69.16274,-118.5186 17.49656,-22.41714 2.90769,-59.14466 37.07943,-73.37998 58.73245,11.14684 58.83273,-64.46125 109.56349,-70.12724 21.7262,-21.65273 51.6998,-22.64738 75.6682,-46.82549 31.8683,-15.60398 60.1503,-62.40511 102.2065,-45.36862 21.4016,45.11699 67.2625,31.52283 103.2195,9.52409 51.7684,-26.991 71.0145,34.2704 108.494,47.77387 76.2905,4.51432 123.179,-66.33361 182.5399,-101.26218 59.9257,-54.08466 120.5673,-111.27816 198.2385,-138.50709 10.1496,-24.45459 35.8993,-41.30954 68.0408,-49.29932 26.1405,-19.81451 70.1365,-34.39171 95.0312,-43.2257 43.3195,-2.0687 65.0343,-22.45843 104.9872,-24.008 63.6214,-14.55924 127.8822,-17.73231 192.1003,-19.14909 z M 1140.4746,959.08024 c -131.4096,24.03604 -199.27725,169.63156 -188.27054,293.89116 8.10311,82.4148 27.66389,192.1625 109.90074,227.6439 40.1807,10.7818 77.0724,13.7345 102.7937,14.419 21.7862,-4.3732 75.1614,4.3846 95.1381,-18.0954 43.0408,-13.9494 76.2068,-61.2513 98.1283,-100.2793 25.8101,-49.7272 37.0899,-110.4045 36.7404,-170.1545 -2.6623,-87.7685 -32.9684,-194.6551 -129.1,-219.49422 -37.4944,-21.45817 -83.5795,-24.50065 -125.3307,-27.93064 z m 15.9892,36.4539 c 82.2066,6.08816 175.356,44.19766 192.0075,134.57636 27.2976,96.6033 12.5687,216.6685 -64.5016,285.715 12.6664,-31.4129 19.81,-85.7902 20.5817,-126.6504 0.053,-74.1149 -39.6699,-137.7825 -108.5626,-165.4369 -59.3562,-26.2041 -132.8843,-8.2218 -178.8877,33.5079 -20.91173,-14.383 6.2051,-62.2785 17.0385,-84.0502 30.2598,-43.2212 68.5463,-75.92946 122.3242,-77.66176 z M 3302.4416,1591.069 c -0.07,0.065 0.021,0.03 0,0 z m -999.4819,205.9022 c -0.6166,0.2467 0.5835,0.1461 0,0 z m -4.4391,8.2811 c -0.3988,0.2659 -0.1676,0.3599 0,0 z m -0.3833,0.561 c -0.1572,0.07 0.029,0.059 0,0 z m -35.4694,29.0727 c -0.025,0.2452 0.7914,-0.1748 0,0 z m -19.258,71.6607 c -3.6779,-0.5612 0.1142,1.2515 0,0 z m 14.617,6.0939 c 0.01,0.062 0.1783,0.015 0,0 z m 0.097,0.085 c 0.075,0.1394 0.5321,0.1082 0,0 z"
               id="path5418"
               inkscape:connector-curvature="0"
               sodipodi:nodetypes="ccccccccccccccccccccccccccccccccccccccccccccccccccccccccccccccccccccccccccccccccccccccccccccccccccccccccccccccccccccccccccccccccccccccccccccccccccccccccccccccccccccccccccccccccccccccccccccccccccccccccccccccccccccccccccccccccccccccccccccccccccccccccccccccccccccccccccccccccccccccccccc" />
            <path
               inkscape:connector-curvature="0"
               style="fill:#000000;stroke-width:1.33333"
               d="m 3113.9688,2472.846 c -1.5719,-2.703 -1.9514,-1.8379 -0.6648,1.515 0.4573,1.1916 1.1122,1.8858 1.4556,1.5424 0.3433,-0.3432 -0.013,-1.719 -0.7908,-3.0574 z"
               id="path5416" />
            <path
               inkscape:connector-curvature="0"
               style="fill:#000000;stroke-width:1.33333"
               d="m 3186.7168,2293.496 c -0.4256,-1.0636 -0.7416,-0.7478 -0.8056,0.8056 -0.057,1.4054 0.2573,2.193 0.7004,1.75 0.443,-0.4431 0.4904,-1.5931 0.1053,-2.5556 z"
               id="path5414" />
            <path
               inkscape:connector-curvature="0"
               style="fill:#000000;stroke-width:1.33333"
               d="m 2223.1393,1940.334 c 0,-0.7767 0.6,-1.0412 1.3333,-0.588 0.7333,0.4532 1.3333,1.0886 1.3333,1.412 0,0.3234 -0.6,0.588 -1.3333,0.588 -0.7333,0 -1.3333,-0.6355 -1.3333,-1.412 z"
               id="path5408" />
            <path
               inkscape:connector-curvature="0"
               style="fill:#000000;stroke-width:1.33333"
               d="m 2021.5559,1798.1685 c 0.9626,-0.3852 2.1126,-0.3379 2.5556,0.1053 0.4431,0.4431 -0.3445,0.7583 -1.75,0.7004 -1.5533,-0.064 -1.8692,-0.38 -0.8056,-0.8056 z"
               id="path5404" />
            <path
               inkscape:connector-curvature="0"
               style="fill:#000000;stroke-width:1.33333"
               d="m 1573.8059,718.0045 c 0,-0.69592 0.9,-2.01224 2,-2.92516 1.1,-0.91292 2,-1.24354 2,-0.7347 0,0.50884 -0.9,1.82518 -2,2.92518 -1.1,1.1 -2,1.4306 -2,0.73468 z"
               id="path5394" />
            <path
               inkscape:connector-curvature="0"
               style="fill:#000000;stroke-width:1.33333"
               d="m 821.39648,2172.7713 c -0.33805,-1.2972 -0.63688,-0.5587 -0.66405,1.6413 -0.0272,2.2 0.24941,3.2615 0.61465,2.3587 0.36523,-0.9027 0.38746,-2.7027 0.0495,-4 z"
               id="path5392" />
            <path
               inkscape:connector-curvature="0"
               style="fill:#000000;stroke-width:1.33333"
               d="m 2950.1646,2088.822 c 1.2974,-0.338 3.0974,-0.3159 4,0.049 0.9028,0.3652 -0.1586,0.6417 -2.3586,0.6147 -2.2,-0.027 -2.9386,-0.326 -1.6414,-0.6642 z"
               id="path5388" />
            <path
               inkscape:connector-curvature="0"
               style="fill:#000000;stroke-width:1.33333"
               d="m 2182.7782,2116.9404 c -0.4431,-0.4431 -1.5931,-0.4904 -2.5556,-0.1054 -1.0636,0.4256 -0.7477,0.7416 0.8056,0.8056 1.4055,0.057 2.1931,-0.2573 1.75,-0.7004 z"
               id="path5386" />
            <path
               inkscape:connector-curvature="0"
               style="fill:#000000;stroke-width:1.33333"
               d="m 2079.1393,2072.4126 c 0,-0.7333 -0.6355,-1.3333 -1.412,-1.3333 -0.7767,0 -1.0412,0.6 -0.588,1.3333 0.4532,0.7334 1.0886,1.3334 1.412,1.3334 0.3234,0 0.588,-0.6 0.588,-1.3334 z"
               id="path5384" />
            <path
               inkscape:connector-curvature="0"
               style="fill:#000000;stroke-width:1.33333"
               d="m 3039.1393,2064.4126 c 0,-0.7333 -0.6355,-1.3333 -1.412,-1.3333 -0.7767,0 -1.0412,0.6 -0.588,1.3333 0.4532,0.7334 1.0887,1.3334 1.412,1.3334 0.3235,0 0.588,-0.6 0.588,-1.3334 z"
               id="path5382" />
            <path
               inkscape:connector-curvature="0"
               style="fill:#000000;stroke-width:1.33333"
               d="m 3434.4727,2051.0793 c 0.4532,-0.7333 0.1886,-1.3333 -0.588,-1.3333 -0.7766,0 -1.412,0.6 -1.412,1.3333 0,0.7333 0.2645,1.3333 0.588,1.3333 0.3233,0 0.9588,-0.6 1.412,-1.3333 z"
               id="path5380" />
            <path
               inkscape:connector-curvature="0"
               style="fill:#000000;stroke-width:1.33333"
               d="m 2022.4726,2016.4126 c -0.4532,-0.7333 -1.5387,-1.3241 -2.412,-1.3129 -0.9541,0.013 -0.7897,0.5363 0.412,1.3129 1.1,0.711 2.1855,1.3018 2.412,1.313 0.2267,0.013 0.041,-0.5796 -0.412,-1.313 z"
               id="path5376" />
            <path
               inkscape:connector-curvature="0"
               style="fill:#000000;stroke-width:1.33333"
               d="m 3541.806,1812.4126 c 0,-0.7333 -0.6,-1.3333 -1.3333,-1.3333 -0.7334,0 -1.3334,0.6 -1.3334,1.3333 0,0.7334 0.6,1.3334 1.3334,1.3334 0.7333,0 1.3333,-0.6 1.3333,-1.3334 z"
               id="path5366" />
            <path
               inkscape:connector-curvature="0"
               style="fill:#000000;stroke-width:1.33333"
               d="m 2090.4726,1791.0793 c -0.4532,-0.7333 -1.5387,-1.3241 -2.412,-1.3129 -0.9541,0.013 -0.7897,0.5362 0.412,1.3129 1.1,0.7109 2.1855,1.3017 2.412,1.3129 0.2267,0.013 0.041,-0.5796 -0.412,-1.3129 z"
               id="path5364" />
            <path
               inkscape:connector-curvature="0"
               style="fill:#000000;stroke-width:1.33333"
               d="m 2074.7782,1786.2737 c -0.4431,-0.4431 -1.5931,-0.4904 -2.5556,-0.1053 -1.0636,0.4256 -0.7477,0.7416 0.8056,0.8056 1.4055,0.057 2.1931,-0.2574 1.75,-0.7004 z"
               id="path5362" />
            <path
               inkscape:connector-curvature="0"
               style="fill:#000000;stroke-width:1.33333"
               d="m 864.02221,1750.746 c -0.36988,-0.9167 -0.67252,-0.1667 -0.67252,1.6666 0,1.8334 0.30264,2.5834 0.67252,1.6667 0.36988,-0.9167 0.36988,-2.4167 0,-3.3333 z"
               id="path5360" />
            <path
               inkscape:connector-curvature="0"
               style="fill:#000000;stroke-width:1.33333"
               d="m 2331.1393,1743.0793 c 0,-0.7333 -0.2646,-1.3333 -0.588,-1.3333 -0.3234,0 -0.9588,0.6 -1.412,1.3333 -0.4532,0.7333 -0.1887,1.3333 0.588,1.3333 0.7765,0 1.412,-0.6 1.412,-1.3333 z"
               id="path5358" />
            <path
               inkscape:connector-curvature="0"
               style="fill:#000000;stroke-width:1.33333"
               d="m 1524.9327,1673.0218 c -0.4343,-1.1316 -1.0755,-1.7716 -1.4251,-1.4221 -0.3494,0.3496 -0.24,1.2755 0.2435,2.0576 1.3147,2.1272 2.0832,1.714 1.1816,-0.6355 z"
               id="path5354" />
            <path
               inkscape:connector-curvature="0"
               style="fill:#000000;stroke-width:1.33333"
               d="m 2898.1646,1666.2048 c -0.9026,-0.3654 -2.7026,-0.3875 -4,-0.049 -1.2972,0.3382 -0.5586,0.637 1.6414,0.6642 2.2,0.027 3.2614,-0.2495 2.3586,-0.6147 z"
               id="path5352" />
            <path
               inkscape:connector-curvature="0"
               style="fill:#000000;stroke-width:1.33333"
               d="m 3712.9815,1631.6768 c 0.4553,-1.1867 0.2317,-1.7219 -0.5242,-1.2547 -0.7249,0.448 -1.318,1.3792 -1.318,2.0692 0,1.9179 0.9558,1.4953 1.8422,-0.8145 z"
               id="path5350" />
            <path
               inkscape:connector-curvature="0"
               style="fill:#000000;stroke-width:1.33333"
               d="m 3846.4727,1459.0793 c 0.4532,-0.7333 0.1886,-1.3333 -0.588,-1.3333 -0.7766,0 -1.412,0.6 -1.412,1.3333 0,0.7333 0.2645,1.3333 0.588,1.3333 0.3233,0 0.9588,-0.6 1.412,-1.3333 z"
               id="path5344" />
            <path
               inkscape:connector-curvature="0"
               style="fill:#000000;stroke-width:1.33333"
               d="m 787.13916,1417.158 c 0,-0.3234 -0.6,-0.9588 -1.33333,-1.412 -0.73333,-0.4532 -1.33333,-0.1887 -1.33333,0.588 0,0.7765 0.6,1.412 1.33333,1.412 0.73333,0 1.33333,-0.2646 1.33333,-0.588 z"
               id="path5342" />
            <path
               inkscape:connector-curvature="0"
               style="fill:#000000;stroke-width:1.33333"
               d="m 3864.0501,1336.1626 c -0.4256,-1.0636 -0.7416,-0.7477 -0.8056,0.8056 -0.057,1.4055 0.2574,2.1931 0.7004,1.75 0.4431,-0.443 0.4904,-1.593 0.1054,-2.5556 z"
               id="path5340" />
            <path
               inkscape:connector-curvature="0"
               style="fill:#000000;stroke-width:1.33333"
               d="m 3881.2783,1266.107 c -1.3554,-1.3553 -2.4738,0.6852 -1.3618,2.4846 0.8402,1.3592 1.1542,1.3602 1.6059,0 0.3087,-0.9263 0.1989,-2.0468 -0.2441,-2.4899 z"
               id="path5338" />
            <path
               inkscape:connector-curvature="0"
               style="fill:#000000;stroke-width:1.33333"
               d="m 820.4725,1063.0793 c 0,-0.7333 -0.63542,-1.3333 -1.41203,-1.3333 -0.77661,0 -1.0412,0.6 -0.58797,1.3333 0.45322,0.7333 1.08864,1.3333 1.41202,1.3333 0.32339,0 0.58798,-0.6 0.58798,-1.3333 z"
               id="path5336" />
            <path
               inkscape:connector-curvature="0"
               style="fill:#000000;stroke-width:1.33333"
               d="m 3933.3835,1037.496 c -0.4256,-1.0637 -0.7416,-0.7477 -0.8056,0.8055 -0.057,1.4056 0.2573,2.1931 0.7004,1.75 0.443,-0.443 0.4904,-1.593 0.1053,-2.5555 z"
               id="path5334" />
            <path
               inkscape:connector-curvature="0"
               style="fill:#000000;stroke-width:1.33333"
               d="m 354.77804,1020.9404 c -0.44307,-0.443 -1.59307,-0.4904 -2.55556,-0.1052 -1.06364,0.4256 -0.74771,0.7416 0.80556,0.8056 1.40555,0.058 2.19305,-0.2573 1.75,-0.7003 z"
               id="path5332" />
            <path
               inkscape:connector-curvature="0"
               style="fill:#000000;stroke-width:1.33333"
               d="m 867.13917,1004.4126 c 0,-0.7333 -0.93542,-1.3333 -2.0787,-1.3333 -1.14328,0 -1.70786,0.6 -1.25464,1.3333 0.45323,0.7334 1.38864,1.3334 2.0787,1.3334 0.69005,0 1.25464,-0.6 1.25464,-1.3334 z"
               id="path5330" />
            <path
               inkscape:connector-curvature="0"
               style="fill:#000000;stroke-width:1.33333"
               d="m 331.13914,939.65214 c 0,-0.3666 -1.2,-0.024 -2.66666,0.7605 -1.46667,0.785 -2.66667,1.7272 -2.66667,2.0939 0,0.3666 1.2,0.024 2.66667,-0.7605 1.46666,-0.785 2.66666,-1.7272 2.66666,-2.0939 z"
               id="path5326" />
            <path
               inkscape:connector-curvature="0"
               style="fill:#000000;stroke-width:1.33333"
               d="m 411.13915,936.41264 c 0,-0.7333 -0.6,-1.3333 -1.33334,-1.3333 -0.73333,0 -1.33333,0.6 -1.33333,1.3333 0,0.7334 0.6,1.3334 1.33333,1.3334 0.73334,0 1.33334,-0.6 1.33334,-1.3334 z"
               id="path5324" />
            <path
               inkscape:connector-curvature="0"
               style="fill:#000000;stroke-width:1.33333"
               d="m 410.47248,932.41264 c -0.45323,-0.7333 -1.53864,-1.3241 -2.41203,-1.3129 -0.95414,0.012 -0.78969,0.5363 0.41203,1.3129 1.1,0.7109 2.18541,1.3017 2.41203,1.313 0.22661,0.011 0.0412,-0.5796 -0.41203,-1.313 z"
               id="path5322" />
            <path
               inkscape:connector-curvature="0"
               style="fill:#000000;stroke-width:1.33333"
               d="m 895.80583,831.07934 c -0.45322,-0.73334 -0.18864,-1.33334 0.58798,-1.33334 0.77661,0 1.41202,0.6 1.41202,1.33334 0,0.73333 -0.26458,1.33333 -0.58797,1.33333 -0.32339,0 -0.9588,-0.6 -1.41203,-1.33333 z"
               id="path5314" />
            <path
               inkscape:connector-curvature="0"
               style="fill:#000000;stroke-width:1.33333"
               d="m 522.47249,468.41267 c -0.45323,-0.73333 -0.18864,-1.33333 0.58797,-1.33333 0.77661,0 1.41203,0.6 1.41203,1.33333 0,0.73333 -0.26459,1.33333 -0.58798,1.33333 -0.32338,0 -0.9588,-0.6 -1.41202,-1.33333 z"
               id="path5312" />
            <path
               inkscape:connector-curvature="0"
               style="fill:#000000;stroke-width:1.33333"
               d="m 1142.4726,761.746 c 0.4532,-0.73333 0.224,-1.33333 -0.5093,-1.33333 -0.7334,0 -1.7042,0.6 -2.1574,1.33333 -0.4532,0.73334 -0.224,1.33334 0.5093,1.33334 0.7333,0 1.7041,-0.6 2.1574,-1.33334 z"
               id="path5308" />
            <path
               inkscape:connector-curvature="0"
               style="fill:#000000;stroke-width:1.33333"
               d="m 1274.778,754.27378 c -0.443,-0.44306 -1.593,-0.49042 -2.5555,-0.1052 -1.0637,0.42562 -0.7477,0.74157 0.8055,0.80554 1.4056,0.0579 2.1931,-0.25724 1.75,-0.70029 z"
               id="path5306" />
            <path
               inkscape:connector-curvature="0"
               style="fill:#000000;stroke-width:1.33333"
               d="m 818.33515,737.52378 c -0.37768,-0.61111 -1.25129,-1.11111 -1.94135,-1.11111 -0.69005,0 -1.25464,0.5 -1.25464,1.11111 0,0.61112 0.87362,1.11112 1.94135,1.11112 1.06775,0 1.63233,-0.5 1.25464,-1.11112 z"
               id="path5304" />
            <path
               inkscape:connector-curvature="0"
               style="fill:#000000;stroke-width:1.33333"
               d="m 796.4725,716.55532 c 0,-0.65488 -0.86944,-1.52432 -1.9321,-1.93209 -1.29136,-0.49555 -1.68622,-0.10067 -1.19068,1.19068 0.80928,2.10897 3.12278,2.65824 3.12278,0.74141 z"
               id="path5302" />
            <path
               inkscape:connector-curvature="0"
               style="fill:#000000;stroke-width:1.33333"
               d="m 251.13917,667.07934 c 0,-0.73334 -0.6,-1.33334 -1.3334,-1.33334 -0.7333,0 -1.3333,0.6 -1.3333,1.33334 0,0.73333 0.6,1.33333 1.3333,1.33333 0.7334,0 1.3334,-0.6 1.3334,-1.33333 z"
               id="path5300" />
            <path
               inkscape:connector-curvature="0"
               style="fill:#000000;stroke-width:1.33333"
               d="m 3493.1393,632.41267 c 0.4532,-0.73333 0.1887,-1.33333 -0.588,-1.33333 -0.7765,0 -1.412,0.6 -1.412,1.33333 0,0.73333 0.2646,1.33333 0.588,1.33333 0.3234,0 0.9588,-0.6 1.412,-1.33333 z"
               id="path5294" />
            <path
               inkscape:connector-curvature="0"
               style="fill:#000000;stroke-width:1.33333"
               d="m 3347.1384,573.41267 c 0,-1.41152 -5.0214,-1.24861 -5.9116,0.19173 -0.4051,0.65546 0.759,1.10546 2.587,1 1.828,-0.10546 3.324,-0.64173 3.3246,-1.19173 z"
               id="path5292" />
            <path
               inkscape:connector-curvature="0"
               style="fill:#000000;stroke-width:1.33333"
               d="m 267.13917,567.8247 c 0,-0.32339 -0.6,-0.9588 -1.3334,-1.41203 -0.7333,-0.45323 -1.3333,-0.18864 -1.3333,0.58797 0,0.77662 0.6,1.41203 1.3333,1.41203 0.7334,0 1.3334,-0.26459 1.3334,-0.58797 z"
               id="path5290" />
            <path
               inkscape:connector-curvature="0"
               style="fill:#000000;stroke-width:1.33333"
               d="m 3172.4726,532.41267 c 0,-0.73333 -0.6354,-1.33333 -1.412,-1.33333 -0.7766,0 -1.0412,0.6 -0.588,1.33333 0.4532,0.73333 1.0887,1.33333 1.412,1.33333 0.3235,0 0.588,-0.6 0.588,-1.33333 z"
               id="path5288" />
            <path
               inkscape:connector-curvature="0"
               style="fill:#000000;stroke-width:1.33333"
               d="m 387.13915,514.49136 c 0,-0.32338 -0.6,-0.9588 -1.33334,-1.41202 -0.73333,-0.45323 -1.33333,-0.18864 -1.33333,0.58797 0,0.77661 0.6,1.41203 1.33333,1.41203 0.73334,0 1.33334,-0.26459 1.33334,-0.58798 z"
               id="path5286" />
            <path
               inkscape:connector-curvature="0"
               style="fill:#000000;stroke-width:1.33333"
               d="m 386.71663,498.82934 c -0.42563,-1.06364 -0.74158,-0.74771 -0.80555,0.80556 -0.0579,1.40554 0.25723,2.19305 0.70029,1.75 0.44306,-0.44306 0.49042,-1.59307 0.1052,-2.55556 z"
               id="path5282" />
            <path
               inkscape:connector-curvature="0"
               style="fill:#000000;stroke-width:1.33333"
               d="m 1898.4726,459.07934 c -0.4532,-0.73334 -1.424,-1.33334 -2.1573,-1.33334 -0.7334,0 -0.9626,0.6 -0.5094,1.33334 0.4532,0.73333 1.424,1.33333 2.1574,1.33333 0.7333,0 0.9625,-0.6 0.5093,-1.33333 z"
               id="path5280" />
            <path
               inkscape:connector-curvature="0"
               style="fill:#000000;stroke-width:1.33333"
               d="m 1926.4726,444.41267 c 0.4532,-0.73333 0.224,-1.33333 -0.5093,-1.33333 -0.7334,0 -1.7042,0.6 -2.1574,1.33333 -0.4532,0.73333 -0.224,1.33333 0.5094,1.33333 0.7333,0 1.7041,-0.6 2.1573,-1.33333 z"
               id="path5276" />
            <path
               inkscape:connector-curvature="0"
               style="fill:#000000;stroke-width:1.33333"
               d="m 2039.6686,432.6349 c 0.3777,-0.61112 -0.1605,-1.11112 -1.196,-1.11112 -1.0355,0 -1.5737,0.5 -1.196,1.11112 0.3777,0.6111 0.9159,1.1111 1.196,1.1111 0.2801,0 0.8183,-0.5 1.196,-1.1111 z"
               id="path5274" />
            <path
               inkscape:connector-curvature="0"
               style="fill:#000000;stroke-width:1.33333"
               d="m 1031.6685,417.52378 c -0.3777,-0.61111 -1.2513,-1.11111 -1.9413,-1.11111 -0.6901,0 -1.2547,0.5 -1.2547,1.11111 0,0.61112 0.8736,1.11112 1.9414,1.11112 1.0677,0 1.6323,-0.5 1.2546,-1.11112 z"
               id="path5272" />
            <path
               inkscape:connector-curvature="0"
               style="fill:#000000;stroke-width:1.33333"
               d="m 2262.8097,410.07028 c 0.365,-1.09681 -0.4936,-1.51524 -2.4859,-1.21121 -3.9651,0.60512 -4.8431,3.24092 -1.0129,3.04068 1.6174,-0.0845 3.1918,-0.90781 3.4988,-1.82947 z"
               id="path5270" />
            <path
               inkscape:connector-curvature="0"
               style="fill:#000000;stroke-width:1.33333"
               d="m 2183.8059,409.746 c 0.4532,-0.73333 0.224,-1.33333 -0.5093,-1.33333 -0.7333,0 -1.7041,0.6 -2.1573,1.33333 -0.4532,0.73334 -0.224,1.33334 0.5093,1.33334 0.7333,0 1.7041,-0.6 2.1573,-1.33334 z"
               id="path5268" />
            <path
               inkscape:connector-curvature="0"
               style="fill:#000000;stroke-width:1.33333"
               d="m 2206.2621,407.81391 c 0.4954,-1.29136 0.1,-1.68623 -1.1907,-1.19068 -2.1091,0.80928 -2.6583,3.12277 -0.7415,3.12277 0.655,0 1.5243,-0.86944 1.9322,-1.93209 z"
               id="path5266" />
            <path
               inkscape:connector-curvature="0"
               style="fill:#000000;stroke-width:1.33333"
               d="m 2442.8883,405.39736 c 0.2584,-1.34182 -0.3682,-2.31802 -1.488,-2.31802 -2.3814,0 -5.245,3.23824 -3.9812,4.5021 1.5958,1.59575 5.0034,0.23495 5.4692,-2.18408 z"
               id="path5264" />
            <path
               inkscape:connector-curvature="0"
               style="fill:#000000;stroke-width:1.33333"
               d="m 2265.8059,403.07934 c 1.1,-0.71088 1.4,-1.2925 0.6667,-1.2925 -0.7333,0 -2.2333,0.58162 -3.3333,1.2925 -1.1,0.71088 -1.4,1.29249 -0.6667,1.29249 0.7333,0 2.2333,-0.58161 3.3333,-1.29249 z"
               id="path5262" />
            <path
               inkscape:connector-curvature="0"
               style="fill:#000000;stroke-width:1.33333"
               d="m 1019.1392,395.07934 c 0,-0.73334 -0.6,-1.33334 -1.3334,-1.33334 -0.7333,0 -1.3333,0.6 -1.3333,1.33334 0,0.73333 0.6,1.33333 1.3333,1.33333 0.7334,0 1.3334,-0.6 1.3334,-1.33333 z"
               id="path5260" />
            <path
               inkscape:connector-curvature="0"
               style="fill:#000000;stroke-width:1.33333"
               d="m 464.47248,283.07935 c 0,-0.73334 -0.6,-1.33334 -1.33333,-1.33334 -0.73333,0 -1.33333,0.6 -1.33333,1.33334 0,0.73333 0.6,1.33333 1.33333,1.33333 0.73333,0 1.33333,-0.6 1.33333,-1.33333 z"
               id="path5258" />
            <path
               inkscape:connector-curvature="0"
               style="fill:#000000;stroke-width:1.33333"
               d="m 587.13915,204.41268 c 0,-0.73333 -0.26458,-1.33333 -0.58797,-1.33333 -0.32339,0 -0.9588,0.6 -1.41203,1.33333 -0.45322,0.73333 -0.18864,1.33333 0.58798,1.33333 0.77661,0 1.41202,-0.6 1.41202,-1.33333 z"
               id="path5256" />
            <path
               inkscape:connector-curvature="0"
               style="fill:#000000;stroke-width:1.33333"
               d="m 3135.1393,2423.0006 c 0,-0.7766 0.6,-1.0412 1.3333,-0.588 0.7334,0.4532 1.3334,1.0887 1.3334,1.412 0,0.3235 -0.6,0.588 -1.3334,0.588 -0.7333,0 -1.3333,-0.6354 -1.3333,-1.412 z"
               id="path5254" />
            <path
               inkscape:connector-curvature="0"
               style="fill:#000000;stroke-width:1.33333"
               d="m 1910.8893,2362.1685 c 0.9625,-0.3852 2.1125,-0.3379 2.5556,0.1053 0.443,0.4431 -0.3446,0.7583 -1.75,0.7004 -1.5534,-0.064 -1.8692,-0.38 -0.8056,-0.8056 z"
               id="path5252" />
            <path
               inkscape:connector-curvature="0"
               style="fill:#000000;stroke-width:1.33333"
               d="m 1933.4726,2355.5296 c 0.9167,-0.3699 2.4167,-0.3699 3.3333,0 0.9167,0.3698 0.1667,0.6725 -1.6666,0.6725 -1.8334,0 -2.5834,-0.3027 -1.6667,-0.6725 z"
               id="path5250" />
            <path
               inkscape:connector-curvature="0"
               style="fill:#000000;stroke-width:1.33333"
               d="m 1952.117,2349.5805 c 0.9045,-0.9112 1.9804,-1.3209 2.3909,-0.9104 0.4104,0.4105 -0.3296,1.1561 -1.6445,1.6568 -1.9003,0.7236 -2.0533,0.5704 -0.7464,-0.7464 z"
               id="path5248" />
            <path
               inkscape:connector-curvature="0"
               style="fill:#000000;stroke-width:1.33333"
               d="m 2019.8059,2292.4126 c 0.4532,-0.7333 1.0887,-1.3333 1.412,-1.3333 0.3235,0 0.588,0.6 0.588,1.3333 0,0.7334 -0.6354,1.3334 -1.412,1.3334 -0.7766,0 -1.0412,-0.6 -0.588,-1.3334 z"
               id="path5246" />
            <path
               inkscape:connector-curvature="0"
               style="fill:#000000;stroke-width:1.33333"
               d="m 2079.1393,2077.6673 c 0,-0.7767 0.6,-1.0412 1.3333,-0.588 0.7333,0.4532 1.3333,1.0887 1.3333,1.412 0,0.3235 -0.6,0.588 -1.3333,0.588 -0.7333,0 -1.3333,-0.6355 -1.3333,-1.412 z"
               id="path5244" />
            <path
               inkscape:connector-curvature="0"
               style="fill:#000000;stroke-width:1.33333"
               d="m 1045.3614,447.52378 c -0.4889,-0.48888 -0.8889,-1.50888 -0.8889,-2.26667 0,-0.83547 0.621,-0.75675 1.5778,0.2 0.8678,0.86779 1.2678,1.88779 0.8889,2.26667 -0.3789,0.37889 -1.0889,0.28889 -1.5778,-0.2 z"
               id="path5203" />
          </g>
          <circle
             r="2.7343695"
             cy="21.335247"
             cx="-49.46833"
             id="path5674"
             style="opacity:1;fill:#ffffff;fill-opacity:1;stroke:#ffffff;stroke-width:5.46874;stroke-linecap:round;stroke-linejoin:bevel;stroke-miterlimit:4;stroke-dasharray:none;stroke-dashoffset:0;stroke-opacity:1" />
          <path
             inkscape:connector-curvature="0"
             id="path5676"
             d="m -37.272894,42.962011 c 0.01896,-0.06111 0.175124,-0.544487 0.3477,-1.074157 0.969912,-2.977124 1.685938,-7.541321 1.932357,-12.316598 0.220342,-4.271078 -0.48306,-7.868256 -2.229387,-11.401245 -1.928622,-3.901764 -5.063323,-7.039309 -9.009819,-9.017861 -2.389458,-1.1979648 -4.536171,-1.8661703 -6.803546,-2.1177215 -0.980105,-0.1087432 -3.272133,-0.091154 -4.3358,0.033247 -4.147697,0.485187 -8.344997,2.2850825 -11.360222,4.8714975 l -0.509669,0.437172 -0.215128,-0.206114 c -1.011455,-0.96907 -0.815114,-3.0797628 0.580312,-6.2376472 0.926175,-2.0959124 1.684692,-3.4965831 2.434143,-4.4948644 3.802781,-5.0653319 7.904667,-7.6775922 12.865404,-8.1932704 0.990121,-0.1029294 2.369486,0.012268 4.551699,0.3801063 7.208139,1.2150268 12.950685,4.293397 16.29026,8.7326423 1.318383,1.7524607 2.378317,4.0869277 2.846382,6.2688141 0.08741,0.4074388 0.256079,1.1074926 0.374844,1.5556753 1.156652,4.364845 1.527821,9.731244 0.993973,14.371476 -0.713833,6.204513 -2.796245,11.471946 -6.252215,15.814615 -0.589971,0.741314 -2.559189,2.783711 -2.501288,2.594209 z"
             style="opacity:1;fill:#ffffff;fill-opacity:1;stroke:#ffffff;stroke-width:0.370399;stroke-linecap:round;stroke-linejoin:bevel;stroke-miterlimit:4;stroke-dasharray:none;stroke-dashoffset:0;stroke-opacity:1" />
        </g>
      </g>
      <g
         id="g1585"
         transform="matrix(1.71595,0,0,1.71595,-114.35592,-420.30064)">
        <g
           id="g5180"
           transform="matrix(0.35550662,0,0,0.35550662,29.273945,423.90628)">
          <path
             id="path9292-6"
             d="m -132.60982,216.22418 a 4.7620118,4.7620118 0 0 0 -4.68912,4.82811 v 45.37036 a 4.7620118,4.7620118 0 0 0 0,1.52963 v 44.35234 a 4.7620118,4.7620118 0 0 0 2.56056,5.27873 4.7620118,4.7620118 0 0 0 2.89027,0.48475 h 44.760577 a 4.7620118,4.7620118 0 0 0 2.8851,-0.48991 4.7620118,4.7620118 0 0 0 2.44326,-5.70301 l -0.50488,-5.5454 a 4.7620118,4.7620118 0 0 0 -0.0563,-0.42167 l -1.19166,-6.5469 a 4.7620118,4.7620118 0 0 0 -0.23461,-0.84386 l -2.38073,-6.24822 a 4.7620118,4.7620118 0 0 0 -0.32815,-0.69141 l -3.27318,-5.65393 a 4.7620118,4.7620118 0 0 0 -0.262,-0.40257 l -3.86901,-5.35728 a 4.7620118,4.7620118 0 0 0 -0.49197,-0.57827 l -4.464846,-4.46485 a 4.7620118,4.7620118 0 0 0 -0.44338,-0.39065 l -5.355741,-4.16616 a 4.7620118,4.7620118 0 0 0 -0.79478,-0.49972 l -5.95107,-2.97656 a 4.7620118,4.7620118 0 0 0 -0.36122,-0.16227 l -5.95157,-2.38072 a 4.7620118,4.7620118 0 0 0 -0.71469,-0.22273 l -6.54688,-1.48828 a 4.7620118,4.7620118 0 0 0 -0.83768,-0.11316 l -2.00194,-0.091 v -41.57732 a 4.7620118,4.7620118 0 0 0 -4.83433,-4.82811 z m 161.595817,0 a 4.7620118,4.7620118 0 0 0 -4.69118,4.82811 v 45.45253 a 4.7620118,4.7620118 0 0 0 0,1.35756 v 45.44578 a 4.7620118,4.7620118 0 1 0 9.52345,0 v -16.53127 l 2.87269,3.4866 a 4.7620118,4.7620118 0 0 0 0.20102,0.23048 l 4.46484,4.76147 a 4.7620118,4.7620118 0 0 0 0.68575,0.60356 l 5.35575,3.86954 a 4.7620118,4.7620118 0 0 0 0.40204,0.25942 l 5.65443,3.27369 a 4.7620118,4.7620118 0 0 0 0.88057,0.39637 l 6.2482,2.0841 a 4.7620118,4.7620118 0 0 0 0.45113,0.12507 l 6.54689,1.48828 a 4.7620118,4.7620118 0 0 0 0.62528,0.0992 l 6.54689,0.59375 a 4.7620118,4.7620118 0 1 0 0.86093,-9.48418 l -6.23012,-0.56636 -6.00996,-1.36528 -5.56813,-1.85571 -5.02554,-2.90991 -4.79092,-3.45922 -4.04523,-4.31601 -3.72639,-4.52583 -2.62878,-5.25754 -2.18746,-5.73609 -1.31052,-5.51026 -0.0512,-1.12086 h 41.14479 a 4.7620118,4.7620118 0 1 0 0,-9.52346 h -41.36699 v -41.36544 a 4.7620118,4.7620118 0 0 0 -4.83227,-4.82811 z m 80.718573,28.93364 c -2.60197,0 -4.76144,2.16069 -4.76144,4.76197 0,2.60181 2.16016,4.76147 4.76144,4.76147 2.60183,0 4.76199,-2.16019 4.76199,-4.76147 0,-2.60181 -2.16069,-4.76197 -4.76199,-4.76197 z m 161.59583,0 c -2.60196,0 -4.76147,2.16069 -4.76147,4.76197 0,2.60181 2.16019,4.76147 4.76147,4.76147 2.60181,0 4.762,-2.16019 4.762,-4.76147 0,-2.60181 -2.16069,-4.76197 -4.762,-4.76197 z M -5.8340925,262.35158 a 4.7620118,4.7620118 0 0 0 -0.94103,0.10853 l -5.7505595,0.26046 a 4.7620118,4.7620118 0 0 0 -0.88676,0.12504 l -6.248201,1.48828 a 4.7620118,4.7620118 0 0 0 -0.59376,0.1819 l -6.24768,2.38075 a 4.7620118,4.7620118 0 0 0 -0.52348,0.23614 l -5.65444,2.97657 a 4.7620118,4.7620118 0 0 0 -0.70487,0.45526 l -5.35781,4.16616 a 4.7620118,4.7620118 0 0 0 -0.33383,0.28474 l -4.76146,4.46485 a 4.7620118,4.7620118 0 0 0 -0.60358,0.68574 l -3.86747,5.35522 a 4.7620118,4.7620118 0 0 0 -0.26148,0.40257 l -3.2737,5.65443 a 4.7620118,4.7620118 0 0 0 -0.39636,0.88056 l -2.08204,6.25028 a 4.7620118,4.7620118 0 0 0 -0.12713,0.44908 l -1.48828,6.54688 a 4.7620118,4.7620118 0 0 0 -0.0977,0.62529 l -0.50488,5.55315 a 4.7620118,4.7620118 0 0 0 2.43758,5.69473 4.7620118,4.7620118 0 0 0 2.90887,0.48991 h 44.7461005 a 4.7620118,4.7620118 0 0 0 2.8194696,-0.45633 4.7620118,4.7620118 0 0 0 2.6282601,-5.3149 V 267.959 a 4.7620118,4.7620118 0 0 0 -1.35651,-4.17131 4.7620118,4.7620118 0 0 0 -0.16846,-0.16021 4.7620118,4.7620118 0 0 0 -0.0858,-0.0775 4.7620118,4.7620118 0 0 0 -3.2230597,-1.19838 z m 115.4683825,0 a 4.7620118,4.7620118 0 0 0 -4.69116,4.82814 v 46.12844 a 4.7620118,4.7620118 0 1 0 9.52343,0 v -46.12844 a 4.7620118,4.7620118 0 0 0 -4.83227,-4.82814 z m 34.55864,0 a 4.7620118,4.7620118 0 0 0 -4.70877,5.25963 l 0.59582,6.5469 a 4.7620118,4.7620118 0 0 0 0.10903,0.67178 l 1.48828,6.24975 a 4.7620118,4.7620118 0 0 0 0.11526,0.40256 l 2.08203,6.25028 a 4.7620118,4.7620118 0 0 0 0.34573,0.78856 l 3.27369,5.95159 a 4.7620118,4.7620118 0 0 0 0.38862,0.59738 l 3.869,5.0586 a 4.7620118,4.7620118 0 0 0 0.41601,0.4749 l 4.76146,4.76146 a 4.7620118,4.7620118 0 0 0 0.57825,0.49403 l 5.35731,3.86954 a 4.7620118,4.7620118 0 0 0 0.40256,0.25942 l 5.65444,3.27369 a 4.7620118,4.7620118 0 0 0 0.879,0.39637 l 6.24975,2.0841 a 4.7620118,4.7620118 0 0 0 0.40413,0.11525 l 6.24819,1.48622 a 4.7620118,4.7620118 0 0 0 0.69143,0.1111 l 6.17379,0.53744 a 4.7620118,4.7620118 0 0 0 5.81927,-4.18581 4.7620118,4.7620118 0 0 0 0.0265,-0.71673 v -16.18663 l 2.46703,3.22565 a 4.7620118,4.7620118 0 0 0 0.416,0.4749 l 4.76147,4.76146 a 4.7620118,4.7620118 0 0 0 0.57825,0.49403 l 5.35731,3.86954 a 4.7620118,4.7620118 0 0 0 0.40256,0.25942 l 5.65444,3.27369 a 4.7620118,4.7620118 0 0 0 0.87849,0.39637 l 6.25025,2.0841 a 4.7620118,4.7620118 0 0 0 0.45115,0.12507 l 6.54687,1.48828 a 4.7620118,4.7620118 0 0 0 0.62323,0.0992 l 5.87303,0.53226 a 4.7620118,4.7620118 0 0 0 4.36357,-1.16012 4.7620118,4.7620118 0 0 0 1.50325,-4.21267 V 267.1797 a 4.7620118,4.7620118 0 0 0 -4.8338,-4.82814 4.7620118,4.7620118 0 0 0 -4.68964,4.82814 v 40.91274 l -1.0387,-0.0946 -6.00998,-1.36528 -5.56657,-1.85571 -5.02708,-2.90991 -4.85347,-3.50573 -4.26744,-4.26794 -3.40238,-4.44884 -2.66803,-5.33609 -2.18594,-5.73608 -1.31206,-5.51027 -0.2775,-6.09936 a 4.7620118,4.7620118 0 0 0 -0.004,-0.0455 4.7620118,4.7620118 0 0 0 -0.032,-0.39068 4.7620118,4.7620118 0 0 0 -0.0114,-0.0827 4.7620118,4.7620118 0 0 0 -0.0718,-0.39169 4.7620118,4.7620118 0 0 0 -0.0169,-0.0687 4.7620118,4.7620118 0 0 0 -0.11213,-0.38809 4.7620118,4.7620118 0 0 0 -0.0243,-0.0703 4.7620118,4.7620118 0 0 0 -0.14829,-0.36949 4.7620118,4.7620118 0 0 0 -0.0346,-0.0739 4.7620118,4.7620118 0 0 0 -0.18396,-0.3514 4.7620118,4.7620118 0 0 0 -0.0382,-0.0651 4.7620118,4.7620118 0 0 0 -0.21859,-0.33229 4.7620118,4.7620118 0 0 0 -0.0491,-0.0667 4.7620118,4.7620118 0 0 0 -0.24239,-0.29871 4.7620118,4.7620118 0 0 0 -0.0692,-0.076 4.7620118,4.7620118 0 0 0 -0.2563,-0.2589 4.7620118,4.7620118 0 0 0 -0.0873,-0.0785 4.7620118,4.7620118 0 0 0 -0.27853,-0.22944 4.7620118,4.7620118 0 0 0 -0.0925,-0.0682 4.7620118,4.7620118 0 0 0 -0.29557,-0.19741 4.7620118,4.7620118 0 0 0 -0.1075,-0.0636 4.7620118,4.7620118 0 0 0 -0.30541,-0.16277 4.7620118,4.7620118 0 0 0 -0.12454,-0.0579 4.7620118,4.7620118 0 0 0 -0.30644,-0.12557 4.7620118,4.7620118 0 0 0 -0.14623,-0.0506 4.7620118,4.7620118 0 0 0 -0.29716,-0.0884 4.7620118,4.7620118 0 0 0 -0.16896,-0.0408 4.7620118,4.7620118 0 0 0 -0.29406,-0.0563 4.7620118,4.7620118 0 0 0 -0.18446,-0.0249 4.7620118,4.7620118 0 0 0 -0.27443,-0.0243 4.7620118,4.7620118 0 0 0 -0.0961,-0.009 4.7620118,4.7620118 0 0 0 -0.11575,0 4.7620118,4.7620118 0 0 0 -0.14005,-0.005 4.7620118,4.7620118 0 0 0 -0.11731,0.008 4.7620118,4.7620118 0 0 0 -0.22686,0.0145 4.7620118,4.7620118 0 0 0 -0.23667,0.0265 4.7620118,4.7620118 0 0 0 -0.24238,0.0403 4.7620118,4.7620118 0 0 0 -0.22426,0.048 4.7620118,4.7620118 0 0 0 -0.23926,0.0646 4.7620118,4.7620118 0 0 0 -0.21032,0.0677 4.7620118,4.7620118 0 0 0 -0.24908,0.0951 4.7620118,4.7620118 0 0 0 -0.18399,0.0801 4.7620118,4.7620118 0 0 0 -0.25424,0.12764 4.7620118,4.7620118 0 0 0 -0.15811,0.0889 4.7620118,4.7620118 0 0 0 -0.26149,0.16536 4.7620118,4.7620118 0 0 0 -0.1287,0.0904 4.7620118,4.7620118 0 0 0 -0.25061,0.19638 4.7620118,4.7620118 0 0 0 -0.11938,0.10282 4.7620118,4.7620118 0 0 0 -0.2341,0.22479 4.7620118,4.7620118 0 0 0 -0.0997,0.10543 4.7620118,4.7620118 0 0 0 -0.21704,0.25424 4.7620118,4.7620118 0 0 0 -0.0842,0.10853 4.7620118,4.7620118 0 0 0 -0.2031,0.293 4.7620118,4.7620118 0 0 0 -0.0548,0.0878 4.7620118,4.7620118 0 0 0 -0.18346,0.33073 4.7620118,4.7620118 0 0 0 -0.0424,0.0858 4.7620118,4.7620118 0 0 0 -0.14883,0.34676 4.7620118,4.7620118 0 0 0 -0.0357,0.0946 4.7620118,4.7620118 0 0 0 -0.11266,0.35761 4.7620118,4.7620118 0 0 0 -0.0259,0.0956 4.7620118,4.7620118 0 0 0 -0.078,0.37465 4.7620118,4.7620118 0 0 0 -0.014,0.0873 4.7620118,4.7620118 0 0 0 -0.0419,0.39275 4.7620118,4.7620118 0 0 0 -0.005,0.0878 4.7620118,4.7620118 0 0 0 -0.006,0.33538 v 40.88382 l -1.32188,-0.11422 -5.70508,-1.35959 -5.58985,-1.86346 -5.02759,-2.90991 -4.85346,-3.50573 -4.26744,-4.26794 -3.45922,-4.52324 -2.89234,-5.25962 -1.881,-5.6405 -1.35962,-5.71333 -0.5643,-6.20687 a 4.7620118,4.7620118 0 0 0 -4.77541,-4.39819 z m 127.03514,0 a 4.7620118,4.7620118 0 0 0 -4.68914,4.82814 v 46.12844 a 4.7620118,4.7620118 0 1 0 9.52347,0 v -46.12844 a 4.7620118,4.7620118 0 0 0 -4.83433,-4.82814 z m -399.00356,9.81078 1.14411,0.0522 5.76761,1.31051 5.42034,2.16834 5.35316,2.67737 4.75011,3.69329 3.98424,3.98632 3.506251,4.8519 2.96055,5.11495 2.088246,5.48079 1.07383,5.90405 0.10387,1.14461 h -36.152317 z m 117.251758,0.003 v 36.38277 h -36.151281 l 0.0946,-1.03867 1.36529,-6.00999 1.85518,-5.56812 2.91042,-5.02555 3.46077,-4.79092 4.26589,-4.00026 4.85138,-3.77341 5.0276,-2.6443 5.69113,-2.1699 5.509741,-1.31051 z"
             style="color:#000000;font-style:normal;font-variant:normal;font-weight:normal;font-stretch:normal;font-size:medium;line-height:normal;font-family:sans-serif;font-variant-ligatures:normal;font-variant-position:normal;font-variant-caps:normal;font-variant-numeric:normal;font-variant-alternates:normal;font-feature-settings:normal;text-indent:0;text-align:start;text-decoration:none;text-decoration-line:none;text-decoration-style:solid;text-decoration-color:#000000;letter-spacing:normal;word-spacing:normal;text-transform:none;writing-mode:lr-tb;direction:ltr;text-orientation:mixed;dominant-baseline:auto;baseline-shift:baseline;text-anchor:start;white-space:normal;shape-padding:0;clip-rule:nonzero;display:inline;overflow:visible;visibility:visible;opacity:1;isolation:auto;mix-blend-mode:normal;color-interpolation:sRGB;color-interpolation-filters:linearRGB;solid-color:#000000;solid-opacity:1;vector-effect:none;fill:#000000;fill-opacity:1;fill-rule:nonzero;stroke:none;stroke-width:9.52307;stroke-linecap:round;stroke-linejoin:round;stroke-miterlimit:10;stroke-dasharray:none;stroke-dashoffset:0;stroke-opacity:1;color-rendering:auto;image-rendering:auto;shape-rendering:auto;text-rendering:auto;enable-background:accumulate"
             inkscape:connector-curvature="0" />
        </g>
        <text
           xml:space="preserve"
           style="font-style:normal;font-variant:normal;font-weight:300;font-stretch:normal;font-size:9.59675px;line-height:1.25;font-family:'Open Sans';-inkscape-font-specification:'Open Sans Light';letter-spacing:0px;word-spacing:0px;fill:#aa8800;fill-opacity:1;stroke:none;stroke-width:0.719757;"
           x="-19.74122"
           y="547.888"
           id="text5354"><tspan
             sodipodi:role="line"
             id="tspan5352"
             x="-19.74122"
             y="547.888"
             style="fill:#aa8800;stroke-width:0.719757;">The fabulous DIY walking robot kit.</tspan></text>
      </g>
    </g>
  </g>
</svg>
