<?xml version="1.0" encoding="UTF-8" standalone="no"?>
<!-- Created with Inkscape (http://www.inkscape.org/) -->

<svg
   xmlns:dc="http://purl.org/dc/elements/1.1/"
   xmlns:cc="http://creativecommons.org/ns#"
   xmlns:rdf="http://www.w3.org/1999/02/22-rdf-syntax-ns#"
   xmlns:svg="http://www.w3.org/2000/svg"
   xmlns="http://www.w3.org/2000/svg"
   xmlns:sodipodi="http://sodipodi.sourceforge.net/DTD/sodipodi-0.dtd"
   xmlns:inkscape="http://www.inkscape.org/namespaces/inkscape"
   width="640mm"
   height="640mm"
   viewBox="0 0 640 640"
   version="1.1"
   id="svg10572"
   inkscape:version="0.92.5 (0.92.5+68)"
   sodipodi:docname="bakiwi_logo_vectorized.svg">
  <defs
     id="defs10566" />
  <sodipodi:namedview
     id="base"
     pagecolor="#ffffff"
     bordercolor="#666666"
     borderopacity="1.0"
     inkscape:pageopacity="0.0"
     inkscape:pageshadow="2"
     inkscape:zoom="0.24748737"
     inkscape:cx="1539.4106"
     inkscape:cy="1173.9092"
     inkscape:document-units="mm"
     inkscape:current-layer="layer1"
     showgrid="false"
     fit-margin-top="0"
     fit-margin-left="0"
     fit-margin-right="0"
     fit-margin-bottom="0"
     inkscape:window-width="2560"
     inkscape:window-height="1341"
     inkscape:window-x="0"
     inkscape:window-y="35"
     inkscape:window-maximized="1" />
  <metadata
     id="metadata10569">
    <rdf:RDF>
      <cc:Work
         rdf:about="">
        <dc:format>image/svg+xml</dc:format>
        <dc:type
           rdf:resource="http://purl.org/dc/dcmitype/StillImage" />
        <dc:title></dc:title>
      </cc:Work>
    </rdf:RDF>
  </metadata>
  <g
     inkscape:label="Ebene 1"
     inkscape:groupmode="layer"
     id="layer1"
     transform="translate(200.6868,263.93239)">
    <g
       id="g10853"
       transform="matrix(0.52801027,0,0,0.52801027,-54.872558,378.14974)">
      <g
         transform="matrix(0.26458333,0,0,0.26458333,-241.70965,-1086.1492)"
         id="g5528">
        <path
           style="fill:#000000;stroke-width:1.33333337"
           d="m 720.1792,170.38372 c -83.99818,-1.43114 -176.46376,3.3592 -240.75801,65.5347 -63.49414,46.34183 -80.23243,128.15318 -106.88382,198.70264 -81.38442,14.50455 -128.55214,106.12813 -135.84918,176.29645 -6.48582,38.46738 18.79995,209.20918 68.45002,295.62279 10.5986,25.3824 -28.06249,88.24051 18.81009,106.4964 36.06411,26.842 79.18656,-9.1334 86.45544,-42.48719 1.27965,-15.17591 14.5235,-21.65518 -1.48914,-40.8043 -3.16204,-28.16299 -26.18328,-20.89317 -62.32557,-26.04523 -28.35741,13.82188 -37.54242,-43.90406 -50.73415,-61.57508 -6.55215,-20.35692 -9.02881,-27.67747 -15.62059,-55.24931 -11.46442,-23.4217 -11.73671,-59.13314 -14.87536,-71.77377 -0.0671,-5.2026 -8.45535,-29.6606 -8.93769,-56.09815 0.67044,-22.67833 0.92485,-26.25495 3.3443,-39.38904 0.75443,-36.19282 13.32421,-48.29854 22.97893,-83.20272 22.13475,-66.52417 62.30577,-51.05746 82.02801,-64.95939 -7.02302,23.95826 16.00703,97.99276 2.72742,114.14839 -76.28196,42.09182 26.35936,107.89429 58.59557,75.99161 20.25931,-26.32175 16.82874,-52.75414 10.81277,-66.84148 -11.37254,-14.4792 -25.36208,-23.00648 -41.81429,-17.89852 -12.0258,-48.52153 -8.37738,-78.02318 -5.76449,-102.64628 31.72611,-13.60312 106.1071,16.7457 148.55196,37.70533 34.14955,25.20939 61.24853,57.42386 93.4613,84.47796 41.45608,54.80787 95.21378,98.28334 142.46603,146.64696 36.21183,48.67216 94.80062,90.40354 111.26251,150.25481 4.47625,75.2036 -87.06793,94.81448 -93.93348,162.3537 49.75702,71.9857 -78.70562,75.1881 -48.10882,164.7871 -19.06217,54.1812 1.69495,112.9503 46.75284,136.6386 -52.18882,16.602 -51.9006,85.39 0.42375,109.1236 35.38359,39.9167 74.15207,85.1225 114.7614,113.2359 -32.45208,67.7435 -67.96292,135.4749 -77.06049,213.3157 -14.72262,66.3955 -27.13473,137.0717 -36.01401,206.1967 7.07524,44.0544 -15.80651,108.3828 0.008,166.0745 1.11509,80.8606 39.48778,154.4599 90.16016,216.7419 42.95,33.0033 92.79064,46.7317 146.40879,37.0836 102.8287,0.5401 152.7701,-136.9913 112.001,-214.7241 -8.7145,-18.4731 -54.8539,-52.8763 -71.1886,-24.6699 17.1569,36.3816 73.1947,70.1573 40.9577,128.9628 -9.8706,36.2726 -52.2682,75.468 -90.6243,68.2062 -48.54082,9.1092 -92.18657,-21.5274 -112.62242,-65.7606 -22.01314,-46.5285 -26.19946,-110.8454 -31.46586,-150.9409 2.06079,-76.7734 10.02674,-154.3126 37.63633,-221.8348 39.37787,-91.7151 83.25979,-187.5401 158.59645,-253.5186 103.4121,-5.4615 212.9671,10.9459 308.141,-35.3645 48.9608,-7.9548 89.122,1.5063 122.6188,-22.0305 28.7635,33.1389 15.7397,72.8835 10.6177,110.5764 11.4236,54.0602 62.0293,6.0932 89.9059,10.2345 4.2059,55.5889 44.8011,95.4215 102.8806,95.4348 -1.7754,54.4139 43.688,83.7009 95.1965,81.3623 24.3025,20.1019 35.2123,61.8646 73.3517,61.382 39.5442,14.5649 -3.0512,50.1095 -15.0528,65.2361 -45.1987,58.17 -84.1838,125.6302 -153.8384,158.8829 -36.2081,4.852 -83.9589,6.2091 -110.0761,8.3336 -51.976,76.7028 105.769,9.0834 88.3037,28.4756 0.7717,33.91 -69.2241,54.0734 -53.0524,98.7721 38.8656,25.351 44.3392,-47.3106 74.1063,-65.002 44.4179,-55.7141 104.4326,-99.9111 139.5846,-159.3915 31.5089,-34.6621 56.5375,-82.0555 91.6936,-107.4972 70.5691,21.1244 136.5163,61.728 202.5407,84.7282 -9.7205,27.3222 -24.4937,59.8301 -46.4542,85.4546 -34.8912,55.9103 -66.3137,111.0285 -111.2384,155.2792 -35.6512,20.1132 -84.5159,21.1493 -120.609,47.5478 -18.2743,50.5472 28.6972,24.8904 55.6797,12.7971 72.8476,-27.659 55.768,178.9989 44.1135,138.8379 12.9723,36.9752 53.1127,27.417 40.3079,-12.1956 -3.9589,-64.7489 -25.5712,-154.6465 36.6517,-193.9891 45.2456,-67.0424 96.9107,-139.0612 134.1205,-210.5754 67.1044,2.2472 131.3262,34.8478 200.4217,35.102 58.7431,13.6544 128.3971,18.211 191.4546,22.0952 51.5229,-5.1359 89.0812,-1.6413 135.7104,-10.5815 133.4051,-7.3482 264.7208,-38.2838 385.6212,-88.0132 40.1901,-28.027 47.2856,24.6716 53.2099,55.9742 20.3348,73.5871 52.3511,152.7104 69.5098,232.6301 -15.5814,24.7708 -45.6116,43.878 -65.7042,53.1495 -18.9553,11.2302 -46.3157,60.3056 -12.0222,68.3274 26.5847,-6.9575 19.8577,-42.5035 53.6658,-47.092 25.8154,-7.7364 42.956,-55.5291 55.369,-9.5684 21.8939,30.8158 11.0507,68.2349 39.8843,94.0909 49.2343,-12.4264 1.318,-63.6009 -6.4167,-97.8764 -17.1972,-46.5114 -33.8691,-88.3002 -51.5029,-131.703 -12.7776,-36.7056 -32.5787,-98.2774 -45.0941,-142.7726 4.2205,-31.3858 -47.9636,-105.4349 4.8507,-107.7597 37.8658,-23.1804 44.2772,-26.5902 111.2095,-44.7114 38.1879,-13.5988 84.6583,-37.5922 100.7098,-42.7436 12.8548,44.5929 50.4974,97.7528 53.8921,136.2257 25.2228,58.8483 40.4199,124.1404 52.4349,185.8048 -9.2581,38.8533 -63.9026,64.8047 -56.8985,106.5367 39.023,43.9063 36.791,-12.5539 56.2247,-36.3612 17.5288,-50.8538 49.1334,1.2633 56.0025,29.1535 24.5145,26.7697 26.875,70.8334 61.6685,85.6281 35.3874,-30.7845 -27.9701,-70.2982 -37.6687,-103.522 -31.8716,-40.2073 -17.872,-97.3551 -56.7048,-127.9336 -25.2448,-104.681 -65.0469,-202.1338 -97.9651,-302.2654 55.6781,-41.6381 118.6042,-76.9767 167.6042,-128.3049 69.2411,-58.8975 126.535,-139.4398 180.5221,-208.7634 48.9709,-79.6276 95.6226,-156.0517 118.5831,-245.4837 29.4688,-87.5099 33.8618,-181.9865 65.7041,-271.6549 16.8341,-64.4838 9.0917,-132.29104 10.5734,-197.34662 7.8873,-63.93516 -138.0773,-30.92414 -52.0919,-79.34061 49.5587,-35.59456 99.312,-103.8333 78.4124,-166.79687 -30.4697,-41.69936 -92.3982,-28.30813 -125.4075,0.17755 -61.7223,26.727 -134.892,50.90606 -201.9109,22.91436 -0.9653,-74.03803 -75.6911,-77.70754 -129.4067,-53.70625 -89.2669,3.08507 -165.255,-88.65178 -257.0418,-53.17356 -35.658,-30.4265 -87.6598,-43.86981 -133.1517,-56.9751 -64.8626,-21.15325 -140.9281,1.35189 -196.6041,-42.65264 -56.839,-18.92704 -121.2488,-39.67545 -181.1114,-17.4057 -22.0789,9.81419 -44.1993,13.60563 -56.6724,-4.20514 -62.911,-24.01087 -128.3897,-56.72946 -196.8583,-42.18855 -51.6524,-6.43985 -109.4315,27.80008 -148.4711,-2.8895 -67.0937,-3.98335 -135.6598,-2.39742 -200.5228,1.39228 -117.2927,12.91164 -236.8704,44.34796 -339.0459,102.03704 -44.4234,21.42466 -69.3393,35.56028 -106.7586,67.94397 -68.1072,49.01375 -145.7255,94.70737 -201.5438,161.86131 -67.3351,94.65071 -106.747,-46.27384 -183.3309,-13.92294 -65.1153,63.61791 -78.9025,-23.72311 -144.3547,-15.29105 -36.8596,10.62145 -93.6779,92.26866 -91.8188,22.26865 -11.3791,-81.73617 -10.8424,-161.28102 -43.2943,-235.72151 -11.4846,-27.55847 -31.4547,-72.29875 -44.0893,-100.61245 C 994.38136,357.4698 971.52312,302.06125 936.49334,276.10529 885.28261,209.21428 801.41779,183.41365 720.1792,170.38372 Z m -108.53845,31.51025 c 93.84021,-0.30835 193.59312,2.32444 271.78596,69.10976 52.91746,41.81146 91.18572,116.41376 120.44969,162.62456 19.813,59.31818 53.1446,139.33739 50.3823,211.23119 8.3809,67.09611 29.3006,148.36994 -55.26951,167.51328 -28.37813,60.63613 -88.83826,56.89414 -116.10524,4.86698 C 844.37828,758.94009 786.46178,715.10647 749.18735,657.82807 730.85487,645.55031 709.12786,610.65253 695.98958,609.08564 663.6357,562.70762 603.00662,519.99143 549.98026,482.01557 c -44.94345,-29.9379 -113.69977,-48.85314 -154.6147,-46.58845 5.86761,-19.74386 8.26848,-42.46648 17.48784,-58.23479 4.25407,-15.37357 6.22056,-20.1382 18.28545,-44.62848 10.31073,-22.78987 27.1433,-43.19043 40.65903,-57.53203 21.97405,-27.67547 78.08039,-61.20425 118.67193,-66.55572 10.15064,-9.76058 2.41251,3.67184 21.17094,-6.58213 z M 2276.252,411.88025 c 60.8144,-15.67746 93.6481,46.55793 146.9173,20.50505 49.1788,-14.45432 99.8811,-17.31593 150.162,-15.46052 56.387,11.79341 113.6195,43.27768 164.202,55.35683 57.1474,-19.96665 125.9929,-21.25481 182.0758,3.4989 26.6027,12.2399 83.1597,51.82531 124.8626,37.92286 58.1712,-4.20328 121.6895,17.87786 179.2629,39.92859 40.5565,31.64489 85.5604,27.96323 134.0719,25.26713 73.179,19.07558 141.8498,87.01641 219.2642,50.96201 53.6728,-26.97352 48.4822,22.54466 62.5767,53.75469 77.8677,28.12685 164.1392,17.51901 241.8274,-24.54475 28.8983,-20.66767 99.104,-35.4606 87.4119,15.46052 -13.2605,34.92953 -25.6467,69.03736 -61.0189,89.9745 -30.398,30.25728 -62.5372,53.77676 -104.7248,59.96554 -94.2353,24.40412 25.0534,26.30267 48.5609,61.44256 22.8074,36.81926 5.7541,108.44481 -22.8095,131.42454 -19.7655,27.771 -58.4805,45.2738 -94.0425,65.3854 -20.1688,26.3734 -79.9556,4.9895 -90.9268,37.6484 10.4488,28.7979 84.911,25.6193 51.3212,73.5051 -12.272,27.5444 -34.4631,25.8881 -44.727,37.2005 -49.2436,9.5386 -72.8517,37.0428 -51.3778,82.9767 -15.4749,43.5355 -90.5875,26.3328 -87.3675,73.0248 -4.6509,64.6567 -87.7218,55.3617 -134.6328,64.6469 -64.3268,-18.9435 -155.4741,32.6982 -113.9502,104.41 18.2225,46.3603 -57.7203,57.4358 -86.0519,58.0526 -34.9305,-2.6262 -48.3915,9.828 -76.7335,32.7654 -19.1041,34.2205 -52.6459,54.2117 -95.0676,33.8792 -67.8762,-5.715 -141.9569,-29.9112 -201.6406,-23.2978 -26.0609,43.9958 35.812,91.0004 -18.5476,122.8892 -58.0157,32.1183 -144.3573,40.1205 -209.0219,2.1307 -39.5169,4.7958 -63.2862,72.2608 -106.5488,31.2036 -70.833,-31.7681 -139.0284,-78.7516 -210.8296,-109.3335 -32.1739,27.7381 53.4021,66.7457 -5.4764,99.4744 -67.3916,38.4324 -136.6968,-12.1202 -203.5413,-24.8069 -71.4043,-33.8658 -126.2832,-96.9158 -194.2796,-133.3375 -8.6084,-6.9434 -27.2424,-16.4062 -45.1467,-38.2417 -15.5706,-17.8038 -71.8576,-55.6422 -30.8242,-9.516 63.2434,74.984 146.017,132.2729 227.2143,189.1542 69.7215,32.3328 146.8987,57.5329 223.3403,61.6646 30.0283,-7.3891 46.8414,-27.9055 68.6341,-44.7472 10.6056,-15.6076 10.356,-55.4579 35.7477,-29.7629 64.1563,23.666 119.5137,91.5052 193.6539,81.3062 34.4373,-45.027 81.325,-28.9423 128.9957,-14.2883 67.2495,1.4931 203.997,-16.6666 185.6588,-111.8618 -28.8129,-70.0321 82.9294,-21.0619 117.8002,-21.9739 52.5787,9.5696 132.6987,37.1955 161.3327,-29.0527 26.6072,-54.9179 84.9725,-18.0499 127.5018,-47.3379 39.4147,-15.7586 70.8365,-38.778 49.2227,-87.7752 -47.8387,-42.0794 46.8286,-75.119 81.2899,-57.5643 58.1431,-6.9116 159.1102,-7.4352 169.0125,-87.9647 27.0951,-20.9393 67.1881,-39.1158 90.4224,-76.3704 -29.7132,-52.7698 25.5171,-53.2219 59.3118,-78.7272 67.7361,-28.3081 6.1159,-112.921 51.6762,-127.6068 52.6814,-33.4999 113.6766,-65.2431 138.3418,-128.99914 33.9223,-38.85276 -36.3694,-134.00981 42.3017,-113.64596 29.7204,40.88486 1.1462,97.25642 3.079,144.1554 5.9169,36.666 -14.7348,54.4324 -21.0701,90.031 -6.1421,29.1744 -21.0879,77.4037 -25.7273,116.3474 -8.8049,38.1241 -10.5653,84.3477 -29.1654,120.4879 -8.0968,26.4434 -24.3503,73.152 -28.8386,88.9374 -12.2113,31.3758 -40.4292,63.9901 -54.6789,93.3362 -28.5247,61.5269 -70.4009,117.8249 -120.3063,172.5961 -22.9624,29.7802 -41.2247,45.7271 -68.8924,72.1895 -48.3733,34.4385 -83.7298,89.9906 -134.8105,103.2113 -13.6139,23.0965 -48.1281,33.1585 -47.3542,-5.0485 -22.3785,-57.646 -31.5095,-129.4319 -66.2691,-175.7883 -39.4822,0.2865 -3.7403,48.9448 1.6183,69.5178 19.0828,48.8175 27.9681,98.3553 42.7374,149.0643 -35.0008,40.415 -93.7479,47.8619 -140.7349,70.2404 -10.7532,-0.5081 -40.4757,19.5272 -51.1071,23.6849 -116.3716,40.7175 -228.6337,93.0753 -350.9672,113.6921 -46.9408,2.8215 -90.0501,14.2222 -145.2668,15.9207 -87.8417,4.6593 -177.2628,4.1431 -263.455,-9.3031 -67.9638,-8.6226 -143.5917,-12.8405 -206.1962,-36.7759 -65.9554,-4.5736 14.2327,-64.7412 16.7357,-96.8755 2.689,-23.155 52.0696,-83.242 2.9702,-81.6692 -24.9728,39.9083 -37.4089,91.4626 -62.8227,128.6843 -25.8696,54.3605 -58.9,1.1324 -96.5123,-1.3558 -54.3625,-19.2789 -113.0524,-42.874 -161.143,-57.06 -1.0343,-30.7104 -80.5218,-17.359 -82.2019,-60.2561 -26.8062,-42.5328 -97.608,-10.2335 -108.5746,-69.2434 -9.4807,-52.4184 -83.8213,-26.4298 -93.2918,-78.3357 1.6093,-43.6918 -20.0528,-112.3674 -59.8647,-46.087 -62.5412,32.3533 -10.5944,-41.2991 -35.6911,-66.9997 -7.7037,-35.2528 -34.6288,-68.5002 -57.976,-84.6756 -25.4311,36.4765 -55.6916,43.4011 -101.0967,38.0439 -40.431,-2.416 -79.2261,33.4361 -125.5002,28.5076 -65.0284,15.867 -143.9476,10.1806 -210.402,2.1551 -27.3949,27.1588 -41.5143,69.2864 -68.43629,100.6246 -52.55077,57.4054 -70.54715,134.6535 -104.53106,201.5881 -15.59268,37.5461 -22.19444,75.3245 -23.95149,118.4136 -15.12949,58.0221 -10.31772,118.356 -3.41416,175.4573 -38.49123,-53.8701 -22.48257,-119.9862 -32.92674,-180.9578 9.03085,-62.2814 12.89424,-125.6051 25.02093,-187.2616 16.0283,-96.741 37.09798,-207.1027 103.23964,-289.3511 -8.4839,-43.6847 -55.94912,-39.3038 -77.06047,-73.1096 -23.54933,-35.5637 -61.37145,-61.0307 -78.77562,-100.2129 14.2287,-16.8323 81.04136,-20.6155 42.03116,-53.4157 -37.35256,-34.4735 -79.62836,-76.3689 -50.21947,-131.8281 3.47144,-30.1101 -1.72802,-75.47 40.02546,-81.2696 28.59471,-14.9606 26.30802,-33.1322 10.75495,-58.1979 -34.22067,-54.9472 54.46744,-72.6682 69.16274,-118.5186 17.49656,-22.41714 2.90769,-59.14466 37.07943,-73.37998 58.73245,11.14684 58.83273,-64.46125 109.56349,-70.12724 21.7262,-21.65273 51.6998,-22.64738 75.6682,-46.82549 31.8683,-15.60398 60.1503,-62.40511 102.2065,-45.36862 21.4016,45.11699 67.2625,31.52283 103.2195,9.52409 51.7684,-26.991 71.0145,34.2704 108.494,47.77387 76.2905,4.51432 123.179,-66.33361 182.5399,-101.26218 59.9257,-54.08466 120.5673,-111.27816 198.2385,-138.50709 10.1496,-24.45459 35.8993,-41.30954 68.0408,-49.29932 26.1405,-19.81451 70.1365,-34.39171 95.0312,-43.2257 43.3195,-2.0687 65.0343,-22.45843 104.9872,-24.008 63.6214,-14.55924 127.8822,-17.73231 192.1003,-19.14909 z M 1140.4746,959.08024 c -131.4096,24.03604 -199.27725,169.63156 -188.27054,293.89116 8.10311,82.4148 27.66389,192.1625 109.90074,227.6439 40.1807,10.7818 77.0724,13.7345 102.7937,14.419 21.7862,-4.3732 75.1614,4.3846 95.1381,-18.0954 43.0408,-13.9494 76.2068,-61.2513 98.1283,-100.2793 25.8101,-49.7272 37.0899,-110.4045 36.7404,-170.1545 -2.6623,-87.7685 -32.9684,-194.6551 -129.1,-219.49422 -37.4944,-21.45817 -83.5795,-24.50065 -125.3307,-27.93064 z m 15.9892,36.4539 c 82.2066,6.08816 175.356,44.19766 192.0075,134.57636 27.2976,96.6033 12.5687,216.6685 -64.5016,285.715 12.6664,-31.4129 19.81,-85.7902 20.5817,-126.6504 0.053,-74.1149 -39.6699,-137.7825 -108.5626,-165.4369 -59.3562,-26.2041 -132.8843,-8.2218 -178.8877,33.5079 -20.91173,-14.383 6.2051,-62.2785 17.0385,-84.0502 30.2598,-43.2212 68.5463,-75.92946 122.3242,-77.66176 z M 3302.4416,1591.069 c -0.07,0.065 0.021,0.03 0,0 z m -999.4819,205.9022 c -0.6166,0.2467 0.5835,0.1461 0,0 z m -4.4391,8.2811 c -0.3988,0.2659 -0.1676,0.3599 0,0 z m -0.3833,0.561 c -0.1572,0.07 0.029,0.059 0,0 z m -35.4694,29.0727 c -0.025,0.2452 0.7914,-0.1748 0,0 z m -19.258,71.6607 c -3.6779,-0.5612 0.1142,1.2515 0,0 z m 14.617,6.0939 c 0.01,0.062 0.1783,0.015 0,0 z m 0.097,0.085 c 0.075,0.1394 0.5321,0.1082 0,0 z"
           id="path5418"
           inkscape:connector-curvature="0"
           sodipodi:nodetypes="ccccccccccccccccccccccccccccccccccccccccccccccccccccccccccccccccccccccccccccccccccccccccccccccccccccccccccccccccccccccccccccccccccccccccccccccccccccccccccccccccccccccccccccccccccccccccccccccccccccccccccccccccccccccccccccccccccccccccccccccccccccccccccccccccccccccccccccccccccccccccccc" />
        <path
           inkscape:connector-curvature="0"
           style="fill:#000000;stroke-width:1.33333337"
           d="m 3113.9688,2472.846 c -1.5719,-2.703 -1.9514,-1.8379 -0.6648,1.515 0.4573,1.1916 1.1122,1.8858 1.4556,1.5424 0.3433,-0.3432 -0.013,-1.719 -0.7908,-3.0574 z"
           id="path5416" />
        <path
           inkscape:connector-curvature="0"
           style="fill:#000000;stroke-width:1.33333337"
           d="m 3186.7168,2293.496 c -0.4256,-1.0636 -0.7416,-0.7478 -0.8056,0.8056 -0.057,1.4054 0.2573,2.193 0.7004,1.75 0.443,-0.4431 0.4904,-1.5931 0.1053,-2.5556 z"
           id="path5414" />
        <path
           inkscape:connector-curvature="0"
           style="fill:#000000;stroke-width:1.33333337"
           d="m 849.13917,2061.746 c -0.45323,-0.7334 -0.18864,-1.3334 0.58797,-1.3334 0.77661,0 1.41203,0.6 1.41203,1.3334 0,0.7333 -0.26459,1.3333 -0.58798,1.3333 -0.32338,0 -0.9588,-0.6 -1.41202,-1.3333 z"
           id="path5410" />
        <path
           inkscape:connector-curvature="0"
           style="fill:#000000;stroke-width:1.33333337"
           d="m 2223.1393,1940.334 c 0,-0.7767 0.6,-1.0412 1.3333,-0.588 0.7333,0.4532 1.3333,1.0886 1.3333,1.412 0,0.3234 -0.6,0.588 -1.3333,0.588 -0.7333,0 -1.3333,-0.6355 -1.3333,-1.412 z"
           id="path5408" />
        <path
           inkscape:connector-curvature="0"
           style="fill:#000000;stroke-width:1.33333337"
           d="m 849.4725,1831.9702 c -0.55,-1.3433 -0.98176,-4.0433 -0.95945,-6 0.0352,-3.0929 0.22052,-3.2484 1.41861,-1.1902 0.75793,1.302 1.18969,4.002 0.95945,6 -0.34961,3.0338 -0.58345,3.2301 -1.41861,1.1902 z"
           id="path5406" />
        <path
           inkscape:connector-curvature="0"
           style="fill:#000000;stroke-width:1.33333337"
           d="m 2021.5559,1798.1685 c 0.9626,-0.3852 2.1126,-0.3379 2.5556,0.1053 0.4431,0.4431 -0.3445,0.7583 -1.75,0.7004 -1.5533,-0.064 -1.8692,-0.38 -0.8056,-0.8056 z"
           id="path5404" />
        <path
           inkscape:connector-curvature="0"
           style="fill:#000000;stroke-width:1.33333337"
           d="m 2917.556,1664.8352 c 0.9625,-0.3852 2.1125,-0.3379 2.5556,0.1053 0.443,0.4431 -0.3446,0.7583 -1.75,0.7004 -1.5534,-0.064 -1.8692,-0.38 -0.8056,-0.8056 z"
           id="path5402" />
        <path
           inkscape:connector-curvature="0"
           style="fill:#000000;stroke-width:1.33333337"
           d="m 3923.1393,749.90338 c 0,-0.73334 0.6,-1.70415 1.3334,-2.15738 0.7333,-0.45322 1.3333,-0.22404 1.3333,0.5093 0,0.73333 -0.6,1.70414 -1.3333,2.15737 -0.7334,0.45323 -1.3334,0.22404 -1.3334,-0.50929 z"
           id="path5396" />
        <path
           inkscape:connector-curvature="0"
           style="fill:#000000;stroke-width:1.33333337"
           d="m 1573.8059,718.0045 c 0,-0.69592 0.9,-2.01224 2,-2.92516 1.1,-0.91292 2,-1.24354 2,-0.7347 0,0.50884 -0.9,1.82518 -2,2.92518 -1.1,1.1 -2,1.4306 -2,0.73468 z"
           id="path5394" />
        <path
           inkscape:connector-curvature="0"
           style="fill:#000000;stroke-width:1.33333337"
           d="m 821.39648,2172.7713 c -0.33805,-1.2972 -0.63688,-0.5587 -0.66405,1.6413 -0.0272,2.2 0.24941,3.2615 0.61465,2.3587 0.36523,-0.9027 0.38746,-2.7027 0.0495,-4 z"
           id="path5392" />
        <path
           inkscape:connector-curvature="0"
           style="fill:#000000;stroke-width:1.33333337"
           d="m 2950.1646,2088.822 c 1.2974,-0.338 3.0974,-0.3159 4,0.049 0.9028,0.3652 -0.1586,0.6417 -2.3586,0.6147 -2.2,-0.027 -2.9386,-0.326 -1.6414,-0.6642 z"
           id="path5388" />
        <path
           inkscape:connector-curvature="0"
           style="fill:#000000;stroke-width:1.33333337"
           d="m 2182.7782,2116.9404 c -0.4431,-0.4431 -1.5931,-0.4904 -2.5556,-0.1054 -1.0636,0.4256 -0.7477,0.7416 0.8056,0.8056 1.4055,0.057 2.1931,-0.2573 1.75,-0.7004 z"
           id="path5386" />
        <path
           inkscape:connector-curvature="0"
           style="fill:#000000;stroke-width:1.33333337"
           d="m 2079.1393,2072.4126 c 0,-0.7333 -0.6355,-1.3333 -1.412,-1.3333 -0.7767,0 -1.0412,0.6 -0.588,1.3333 0.4532,0.7334 1.0886,1.3334 1.412,1.3334 0.3234,0 0.588,-0.6 0.588,-1.3334 z"
           id="path5384" />
        <path
           inkscape:connector-curvature="0"
           style="fill:#000000;stroke-width:1.33333337"
           d="m 3039.1393,2064.4126 c 0,-0.7333 -0.6355,-1.3333 -1.412,-1.3333 -0.7767,0 -1.0412,0.6 -0.588,1.3333 0.4532,0.7334 1.0887,1.3334 1.412,1.3334 0.3235,0 0.588,-0.6 0.588,-1.3334 z"
           id="path5382" />
        <path
           inkscape:connector-curvature="0"
           style="fill:#000000;stroke-width:1.33333337"
           d="m 3434.4727,2051.0793 c 0.4532,-0.7333 0.1886,-1.3333 -0.588,-1.3333 -0.7766,0 -1.412,0.6 -1.412,1.3333 0,0.7333 0.2645,1.3333 0.588,1.3333 0.3233,0 0.9588,-0.6 1.412,-1.3333 z"
           id="path5380" />
        <path
           inkscape:connector-curvature="0"
           style="fill:#000000;stroke-width:1.33333337"
           d="m 817.38331,2038.8293 c -0.42563,-1.0636 -0.74157,-0.7477 -0.80555,0.8056 -0.0579,1.4055 0.25724,2.1931 0.7003,1.75 0.44305,-0.4431 0.49041,-1.5931 0.1052,-2.5556 z"
           id="path5378" />
        <path
           inkscape:connector-curvature="0"
           style="fill:#000000;stroke-width:1.33333337"
           d="m 2022.4726,2016.4126 c -0.4532,-0.7333 -1.5387,-1.3241 -2.412,-1.3129 -0.9541,0.013 -0.7897,0.5363 0.412,1.3129 1.1,0.711 2.1855,1.3018 2.412,1.313 0.2267,0.013 0.041,-0.5796 -0.412,-1.313 z"
           id="path5376" />
        <path
           inkscape:connector-curvature="0"
           style="fill:#000000;stroke-width:1.33333337"
           d="m 3799.1393,1480.4126 c 0,-0.7333 0.6355,-1.3333 1.412,-1.3333 0.7767,0 1.0412,0.6 0.588,1.3333 -0.4532,0.7334 -1.0886,1.3334 -1.412,1.3334 -0.3234,0 -0.588,-0.6 -0.588,-1.3334 z"
           id="path5372" />
        <path
           inkscape:connector-curvature="0"
           style="fill:#000000;stroke-width:1.33333337"
           d="m 3814.4976,1457.1205 c 0.1604,-2.6412 0.6704,-5.1809 1.1333,-5.6439 1.2598,-1.2597 0.9754,6.6608 -0.312,8.691 -0.6918,1.0912 -1.0025,-0.061 -0.8213,-3.0471 z"
           id="path5370" />
        <path
           inkscape:connector-curvature="0"
           style="fill:#000000;stroke-width:1.33333337"
           d="m 3831.1801,1418.4126 c 0,-0.7333 0.5816,-2.2333 1.2926,-3.3333 0.7109,-1.1 1.2925,-1.4 1.2925,-0.6667 0,0.7334 -0.5816,2.2334 -1.2925,3.3334 -0.711,1.1 -1.2926,1.4 -1.2926,0.6666 z"
           id="path5368" />
        <path
           inkscape:connector-curvature="0"
           style="fill:#000000;stroke-width:1.33333337"
           d="m 3541.806,1812.4126 c 0,-0.7333 -0.6,-1.3333 -1.3333,-1.3333 -0.7334,0 -1.3334,0.6 -1.3334,1.3333 0,0.7334 0.6,1.3334 1.3334,1.3334 0.7333,0 1.3333,-0.6 1.3333,-1.3334 z"
           id="path5366" />
        <path
           inkscape:connector-curvature="0"
           style="fill:#000000;stroke-width:1.33333337"
           d="m 2090.4726,1791.0793 c -0.4532,-0.7333 -1.5387,-1.3241 -2.412,-1.3129 -0.9541,0.013 -0.7897,0.5362 0.412,1.3129 1.1,0.7109 2.1855,1.3017 2.412,1.3129 0.2267,0.013 0.041,-0.5796 -0.412,-1.3129 z"
           id="path5364" />
        <path
           inkscape:connector-curvature="0"
           style="fill:#000000;stroke-width:1.33333337"
           d="m 2074.7782,1786.2737 c -0.4431,-0.4431 -1.5931,-0.4904 -2.5556,-0.1053 -1.0636,0.4256 -0.7477,0.7416 0.8056,0.8056 1.4055,0.057 2.1931,-0.2574 1.75,-0.7004 z"
           id="path5362" />
        <path
           inkscape:connector-curvature="0"
           style="fill:#000000;stroke-width:1.33333337"
           d="m 864.02221,1750.746 c -0.36988,-0.9167 -0.67252,-0.1667 -0.67252,1.6666 0,1.8334 0.30264,2.5834 0.67252,1.6667 0.36988,-0.9167 0.36988,-2.4167 0,-3.3333 z"
           id="path5360" />
        <path
           inkscape:connector-curvature="0"
           style="fill:#000000;stroke-width:1.33333337"
           d="m 2331.1393,1743.0793 c 0,-0.7333 -0.2646,-1.3333 -0.588,-1.3333 -0.3234,0 -0.9588,0.6 -1.412,1.3333 -0.4532,0.7333 -0.1887,1.3333 0.588,1.3333 0.7765,0 1.412,-0.6 1.412,-1.3333 z"
           id="path5358" />
        <path
           inkscape:connector-curvature="0"
           style="fill:#000000;stroke-width:1.33333337"
           d="m 1524.9327,1673.0218 c -0.4343,-1.1316 -1.0755,-1.7716 -1.4251,-1.4221 -0.3494,0.3496 -0.24,1.2755 0.2435,2.0576 1.3147,2.1272 2.0832,1.714 1.1816,-0.6355 z"
           id="path5354" />
        <path
           inkscape:connector-curvature="0"
           style="fill:#000000;stroke-width:1.33333337"
           d="m 2898.1646,1666.2048 c -0.9026,-0.3654 -2.7026,-0.3875 -4,-0.049 -1.2972,0.3382 -0.5586,0.637 1.6414,0.6642 2.2,0.027 3.2614,-0.2495 2.3586,-0.6147 z"
           id="path5352" />
        <path
           inkscape:connector-curvature="0"
           style="fill:#000000;stroke-width:1.33333337"
           d="m 3712.9815,1631.6768 c 0.4553,-1.1867 0.2317,-1.7219 -0.5242,-1.2547 -0.7249,0.448 -1.318,1.3792 -1.318,2.0692 0,1.9179 0.9558,1.4953 1.8422,-0.8145 z"
           id="path5350" />
        <path
           inkscape:connector-curvature="0"
           style="fill:#000000;stroke-width:1.33333337"
           d="m 3737.3239,1594.4126 c -0.4222,-1.1 -0.087,-2 0.7462,-2 0.8326,0 1.1536,-0.3601 0.7135,-0.8001 -1.4007,-1.4007 -3.5577,0.8077 -2.7767,2.8428 0.4131,1.0765 1.0511,1.9573 1.4178,1.9573 0.3666,0 0.3213,-0.9 -0.1014,-2 z"
           id="path5348" />
        <path
           inkscape:connector-curvature="0"
           style="fill:#000000;stroke-width:1.33333337"
           d="m 3743.1393,1588.4913 c 0,-0.69 -0.537,-1.5865 -1.1936,-1.9923 -0.6565,-0.4057 -1.5377,0.1588 -1.9581,1.2546 -0.4644,1.2102 0,1.9924 1.1936,1.9924 1.0769,0 1.9581,-0.5646 1.9581,-1.2547 z"
           id="path5346" />
        <path
           inkscape:connector-curvature="0"
           style="fill:#000000;stroke-width:1.33333337"
           d="m 3846.4727,1459.0793 c 0.4532,-0.7333 0.1886,-1.3333 -0.588,-1.3333 -0.7766,0 -1.412,0.6 -1.412,1.3333 0,0.7333 0.2645,1.3333 0.588,1.3333 0.3233,0 0.9588,-0.6 1.412,-1.3333 z"
           id="path5344" />
        <path
           inkscape:connector-curvature="0"
           style="fill:#000000;stroke-width:1.33333337"
           d="m 787.13916,1417.158 c 0,-0.3234 -0.6,-0.9588 -1.33333,-1.412 -0.73333,-0.4532 -1.33333,-0.1887 -1.33333,0.588 0,0.7765 0.6,1.412 1.33333,1.412 0.73333,0 1.33333,-0.2646 1.33333,-0.588 z"
           id="path5342" />
        <path
           inkscape:connector-curvature="0"
           style="fill:#000000;stroke-width:1.33333337"
           d="m 3864.0501,1336.1626 c -0.4256,-1.0636 -0.7416,-0.7477 -0.8056,0.8056 -0.057,1.4055 0.2574,2.1931 0.7004,1.75 0.4431,-0.443 0.4904,-1.593 0.1054,-2.5556 z"
           id="path5340" />
        <path
           inkscape:connector-curvature="0"
           style="fill:#000000;stroke-width:1.33333337"
           d="m 3881.2783,1266.107 c -1.3554,-1.3553 -2.4738,0.6852 -1.3618,2.4846 0.8402,1.3592 1.1542,1.3602 1.6059,0 0.3087,-0.9263 0.1989,-2.0468 -0.2441,-2.4899 z"
           id="path5338" />
        <path
           inkscape:connector-curvature="0"
           style="fill:#000000;stroke-width:1.33333337"
           d="m 820.4725,1063.0793 c 0,-0.7333 -0.63542,-1.3333 -1.41203,-1.3333 -0.77661,0 -1.0412,0.6 -0.58797,1.3333 0.45322,0.7333 1.08864,1.3333 1.41202,1.3333 0.32339,0 0.58798,-0.6 0.58798,-1.3333 z"
           id="path5336" />
        <path
           inkscape:connector-curvature="0"
           style="fill:#000000;stroke-width:1.33333337"
           d="m 3933.3835,1037.496 c -0.4256,-1.0637 -0.7416,-0.7477 -0.8056,0.8055 -0.057,1.4056 0.2573,2.1931 0.7004,1.75 0.443,-0.443 0.4904,-1.593 0.1053,-2.5555 z"
           id="path5334" />
        <path
           inkscape:connector-curvature="0"
           style="fill:#000000;stroke-width:1.33333337"
           d="m 354.77804,1020.9404 c -0.44307,-0.443 -1.59307,-0.4904 -2.55556,-0.1052 -1.06364,0.4256 -0.74771,0.7416 0.80556,0.8056 1.40555,0.058 2.19305,-0.2573 1.75,-0.7003 z"
           id="path5332" />
        <path
           inkscape:connector-curvature="0"
           style="fill:#000000;stroke-width:1.33333337"
           d="m 867.13917,1004.4126 c 0,-0.7333 -0.93542,-1.3333 -2.0787,-1.3333 -1.14328,0 -1.70786,0.6 -1.25464,1.3333 0.45323,0.7334 1.38864,1.3334 2.0787,1.3334 0.69005,0 1.25464,-0.6 1.25464,-1.3334 z"
           id="path5330" />
        <path
           inkscape:connector-curvature="0"
           style="fill:#000000;stroke-width:1.33333337"
           d="m 331.13914,939.65214 c 0,-0.3666 -1.2,-0.024 -2.66666,0.7605 -1.46667,0.785 -2.66667,1.7272 -2.66667,2.0939 0,0.3666 1.2,0.024 2.66667,-0.7605 1.46666,-0.785 2.66666,-1.7272 2.66666,-2.0939 z"
           id="path5326" />
        <path
           inkscape:connector-curvature="0"
           style="fill:#000000;stroke-width:1.33333337"
           d="m 411.13915,936.41264 c 0,-0.7333 -0.6,-1.3333 -1.33334,-1.3333 -0.73333,0 -1.33333,0.6 -1.33333,1.3333 0,0.7334 0.6,1.3334 1.33333,1.3334 0.73334,0 1.33334,-0.6 1.33334,-1.3334 z"
           id="path5324" />
        <path
           inkscape:connector-curvature="0"
           style="fill:#000000;stroke-width:1.33333337"
           d="m 410.47248,932.41264 c -0.45323,-0.7333 -1.53864,-1.3241 -2.41203,-1.3129 -0.95414,0.012 -0.78969,0.5363 0.41203,1.3129 1.1,0.7109 2.18541,1.3017 2.41203,1.313 0.22661,0.011 0.0412,-0.5796 -0.41203,-1.313 z"
           id="path5322" />
        <path
           inkscape:connector-curvature="0"
           style="fill:#000000;stroke-width:1.33333337"
           d="m 3941.3557,922.74604 c -0.3698,-0.9167 -0.6725,-0.1667 -0.6725,1.6666 0,1.8334 0.3027,2.5834 0.6725,1.6667 0.3699,-0.9167 0.3699,-2.4167 0,-3.3333 z"
           id="path5320" />
        <path
           inkscape:connector-curvature="0"
           style="fill:#000000;stroke-width:1.33333337"
           d="m 895.80583,831.07934 c -0.45322,-0.73334 -0.18864,-1.33334 0.58798,-1.33334 0.77661,0 1.41202,0.6 1.41202,1.33334 0,0.73333 -0.26458,1.33333 -0.58797,1.33333 -0.32339,0 -0.9588,-0.6 -1.41203,-1.33333 z"
           id="path5314" />
        <path
           inkscape:connector-curvature="0"
           style="fill:#000000;stroke-width:1.33333337"
           d="m 522.47249,468.41267 c -0.45323,-0.73333 -0.18864,-1.33333 0.58797,-1.33333 0.77661,0 1.41203,0.6 1.41203,1.33333 0,0.73333 -0.26459,1.33333 -0.58798,1.33333 -0.32338,0 -0.9588,-0.6 -1.41202,-1.33333 z"
           id="path5312" />
        <path
           inkscape:connector-curvature="0"
           style="fill:#000000;stroke-width:1.33333337"
           d="m 1142.4726,761.746 c 0.4532,-0.73333 0.224,-1.33333 -0.5093,-1.33333 -0.7334,0 -1.7042,0.6 -2.1574,1.33333 -0.4532,0.73334 -0.224,1.33334 0.5093,1.33334 0.7333,0 1.7041,-0.6 2.1574,-1.33334 z"
           id="path5308" />
        <path
           inkscape:connector-curvature="0"
           style="fill:#000000;stroke-width:1.33333337"
           d="m 1274.778,754.27378 c -0.443,-0.44306 -1.593,-0.49042 -2.5555,-0.1052 -1.0637,0.42562 -0.7477,0.74157 0.8055,0.80554 1.4056,0.0579 2.1931,-0.25724 1.75,-0.70029 z"
           id="path5306" />
        <path
           inkscape:connector-curvature="0"
           style="fill:#000000;stroke-width:1.33333337"
           d="m 818.33515,737.52378 c -0.37768,-0.61111 -1.25129,-1.11111 -1.94135,-1.11111 -0.69005,0 -1.25464,0.5 -1.25464,1.11111 0,0.61112 0.87362,1.11112 1.94135,1.11112 1.06775,0 1.63233,-0.5 1.25464,-1.11112 z"
           id="path5304" />
        <path
           inkscape:connector-curvature="0"
           style="fill:#000000;stroke-width:1.33333337"
           d="m 796.4725,716.55532 c 0,-0.65488 -0.86944,-1.52432 -1.9321,-1.93209 -1.29136,-0.49555 -1.68622,-0.10067 -1.19068,1.19068 0.80928,2.10897 3.12278,2.65824 3.12278,0.74141 z"
           id="path5302" />
        <path
           inkscape:connector-curvature="0"
           style="fill:#000000;stroke-width:1.33333337"
           d="m 251.13917,667.07934 c 0,-0.73334 -0.6,-1.33334 -1.3334,-1.33334 -0.7333,0 -1.3333,0.6 -1.3333,1.33334 0,0.73333 0.6,1.33333 1.3333,1.33333 0.7334,0 1.3334,-0.6 1.3334,-1.33333 z"
           id="path5300" />
        <path
           inkscape:connector-curvature="0"
           style="fill:#000000;stroke-width:1.33333337"
           d="m 3493.1393,632.41267 c 0.4532,-0.73333 0.1887,-1.33333 -0.588,-1.33333 -0.7765,0 -1.412,0.6 -1.412,1.33333 0,0.73333 0.2646,1.33333 0.588,1.33333 0.3234,0 0.9588,-0.6 1.412,-1.33333 z"
           id="path5294" />
        <path
           inkscape:connector-curvature="0"
           style="fill:#000000;stroke-width:1.33333337"
           d="m 3347.1384,573.41267 c 0,-1.41152 -5.0214,-1.24861 -5.9116,0.19173 -0.4051,0.65546 0.759,1.10546 2.587,1 1.828,-0.10546 3.324,-0.64173 3.3246,-1.19173 z"
           id="path5292" />
        <path
           inkscape:connector-curvature="0"
           style="fill:#000000;stroke-width:1.33333337"
           d="m 267.13917,567.8247 c 0,-0.32339 -0.6,-0.9588 -1.3334,-1.41203 -0.7333,-0.45323 -1.3333,-0.18864 -1.3333,0.58797 0,0.77662 0.6,1.41203 1.3333,1.41203 0.7334,0 1.3334,-0.26459 1.3334,-0.58797 z"
           id="path5290" />
        <path
           inkscape:connector-curvature="0"
           style="fill:#000000;stroke-width:1.33333337"
           d="m 3172.4726,532.41267 c 0,-0.73333 -0.6354,-1.33333 -1.412,-1.33333 -0.7766,0 -1.0412,0.6 -0.588,1.33333 0.4532,0.73333 1.0887,1.33333 1.412,1.33333 0.3235,0 0.588,-0.6 0.588,-1.33333 z"
           id="path5288" />
        <path
           inkscape:connector-curvature="0"
           style="fill:#000000;stroke-width:1.33333337"
           d="m 387.13915,514.49136 c 0,-0.32338 -0.6,-0.9588 -1.33334,-1.41202 -0.73333,-0.45323 -1.33333,-0.18864 -1.33333,0.58797 0,0.77661 0.6,1.41203 1.33333,1.41203 0.73334,0 1.33334,-0.26459 1.33334,-0.58798 z"
           id="path5286" />
        <path
           inkscape:connector-curvature="0"
           style="fill:#000000;stroke-width:1.33333337"
           d="m 386.71663,498.82934 c -0.42563,-1.06364 -0.74158,-0.74771 -0.80555,0.80556 -0.0579,1.40554 0.25723,2.19305 0.70029,1.75 0.44306,-0.44306 0.49042,-1.59307 0.1052,-2.55556 z"
           id="path5282" />
        <path
           inkscape:connector-curvature="0"
           style="fill:#000000;stroke-width:1.33333337"
           d="m 1898.4726,459.07934 c -0.4532,-0.73334 -1.424,-1.33334 -2.1573,-1.33334 -0.7334,0 -0.9626,0.6 -0.5094,1.33334 0.4532,0.73333 1.424,1.33333 2.1574,1.33333 0.7333,0 0.9625,-0.6 0.5093,-1.33333 z"
           id="path5280" />
        <path
           inkscape:connector-curvature="0"
           style="fill:#000000;stroke-width:1.33333337"
           d="m 1926.4726,444.41267 c 0.4532,-0.73333 0.224,-1.33333 -0.5093,-1.33333 -0.7334,0 -1.7042,0.6 -2.1574,1.33333 -0.4532,0.73333 -0.224,1.33333 0.5094,1.33333 0.7333,0 1.7041,-0.6 2.1573,-1.33333 z"
           id="path5276" />
        <path
           inkscape:connector-curvature="0"
           style="fill:#000000;stroke-width:1.33333337"
           d="m 2039.6686,432.6349 c 0.3777,-0.61112 -0.1605,-1.11112 -1.196,-1.11112 -1.0355,0 -1.5737,0.5 -1.196,1.11112 0.3777,0.6111 0.9159,1.1111 1.196,1.1111 0.2801,0 0.8183,-0.5 1.196,-1.1111 z"
           id="path5274" />
        <path
           inkscape:connector-curvature="0"
           style="fill:#000000;stroke-width:1.33333337"
           d="m 1031.6685,417.52378 c -0.3777,-0.61111 -1.2513,-1.11111 -1.9413,-1.11111 -0.6901,0 -1.2547,0.5 -1.2547,1.11111 0,0.61112 0.8736,1.11112 1.9414,1.11112 1.0677,0 1.6323,-0.5 1.2546,-1.11112 z"
           id="path5272" />
        <path
           inkscape:connector-curvature="0"
           style="fill:#000000;stroke-width:1.33333337"
           d="m 2262.8097,410.07028 c 0.365,-1.09681 -0.4936,-1.51524 -2.4859,-1.21121 -3.9651,0.60512 -4.8431,3.24092 -1.0129,3.04068 1.6174,-0.0845 3.1918,-0.90781 3.4988,-1.82947 z"
           id="path5270" />
        <path
           inkscape:connector-curvature="0"
           style="fill:#000000;stroke-width:1.33333337"
           d="m 2183.8059,409.746 c 0.4532,-0.73333 0.224,-1.33333 -0.5093,-1.33333 -0.7333,0 -1.7041,0.6 -2.1573,1.33333 -0.4532,0.73334 -0.224,1.33334 0.5093,1.33334 0.7333,0 1.7041,-0.6 2.1573,-1.33334 z"
           id="path5268" />
        <path
           inkscape:connector-curvature="0"
           style="fill:#000000;stroke-width:1.33333337"
           d="m 2206.2621,407.81391 c 0.4954,-1.29136 0.1,-1.68623 -1.1907,-1.19068 -2.1091,0.80928 -2.6583,3.12277 -0.7415,3.12277 0.655,0 1.5243,-0.86944 1.9322,-1.93209 z"
           id="path5266" />
        <path
           inkscape:connector-curvature="0"
           style="fill:#000000;stroke-width:1.33333337"
           d="m 2442.8883,405.39736 c 0.2584,-1.34182 -0.3682,-2.31802 -1.488,-2.31802 -2.3814,0 -5.245,3.23824 -3.9812,4.5021 1.5958,1.59575 5.0034,0.23495 5.4692,-2.18408 z"
           id="path5264" />
        <path
           inkscape:connector-curvature="0"
           style="fill:#000000;stroke-width:1.33333337"
           d="m 2265.8059,403.07934 c 1.1,-0.71088 1.4,-1.2925 0.6667,-1.2925 -0.7333,0 -2.2333,0.58162 -3.3333,1.2925 -1.1,0.71088 -1.4,1.29249 -0.6667,1.29249 0.7333,0 2.2333,-0.58161 3.3333,-1.29249 z"
           id="path5262" />
        <path
           inkscape:connector-curvature="0"
           style="fill:#000000;stroke-width:1.33333337"
           d="m 1019.1392,395.07934 c 0,-0.73334 -0.6,-1.33334 -1.3334,-1.33334 -0.7333,0 -1.3333,0.6 -1.3333,1.33334 0,0.73333 0.6,1.33333 1.3333,1.33333 0.7334,0 1.3334,-0.6 1.3334,-1.33333 z"
           id="path5260" />
        <path
           inkscape:connector-curvature="0"
           style="fill:#000000;stroke-width:1.33333337"
           d="m 464.47248,283.07935 c 0,-0.73334 -0.6,-1.33334 -1.33333,-1.33334 -0.73333,0 -1.33333,0.6 -1.33333,1.33334 0,0.73333 0.6,1.33333 1.33333,1.33333 0.73333,0 1.33333,-0.6 1.33333,-1.33333 z"
           id="path5258" />
        <path
           inkscape:connector-curvature="0"
           style="fill:#000000;stroke-width:1.33333337"
           d="m 587.13915,204.41268 c 0,-0.73333 -0.26458,-1.33333 -0.58797,-1.33333 -0.32339,0 -0.9588,0.6 -1.41203,1.33333 -0.45322,0.73333 -0.18864,1.33333 0.58798,1.33333 0.77661,0 1.41202,-0.6 1.41202,-1.33333 z"
           id="path5256" />
        <path
           inkscape:connector-curvature="0"
           style="fill:#000000;stroke-width:1.33333337"
           d="m 3135.1393,2423.0006 c 0,-0.7766 0.6,-1.0412 1.3333,-0.588 0.7334,0.4532 1.3334,1.0887 1.3334,1.412 0,0.3235 -0.6,0.588 -1.3334,0.588 -0.7333,0 -1.3333,-0.6354 -1.3333,-1.412 z"
           id="path5254" />
        <path
           inkscape:connector-curvature="0"
           style="fill:#000000;stroke-width:1.33333337"
           d="m 1910.8893,2362.1685 c 0.9625,-0.3852 2.1125,-0.3379 2.5556,0.1053 0.443,0.4431 -0.3446,0.7583 -1.75,0.7004 -1.5534,-0.064 -1.8692,-0.38 -0.8056,-0.8056 z"
           id="path5252" />
        <path
           inkscape:connector-curvature="0"
           style="fill:#000000;stroke-width:1.33333337"
           d="m 1933.4726,2355.5296 c 0.9167,-0.3699 2.4167,-0.3699 3.3333,0 0.9167,0.3698 0.1667,0.6725 -1.6666,0.6725 -1.8334,0 -2.5834,-0.3027 -1.6667,-0.6725 z"
           id="path5250" />
        <path
           inkscape:connector-curvature="0"
           style="fill:#000000;stroke-width:1.33333337"
           d="m 1952.117,2349.5805 c 0.9045,-0.9112 1.9804,-1.3209 2.3909,-0.9104 0.4104,0.4105 -0.3296,1.1561 -1.6445,1.6568 -1.9003,0.7236 -2.0533,0.5704 -0.7464,-0.7464 z"
           id="path5248" />
        <path
           inkscape:connector-curvature="0"
           style="fill:#000000;stroke-width:1.33333337"
           d="m 2019.8059,2292.4126 c 0.4532,-0.7333 1.0887,-1.3333 1.412,-1.3333 0.3235,0 0.588,0.6 0.588,1.3333 0,0.7334 -0.6354,1.3334 -1.412,1.3334 -0.7766,0 -1.0412,-0.6 -0.588,-1.3334 z"
           id="path5246" />
        <path
           inkscape:connector-curvature="0"
           style="fill:#000000;stroke-width:1.33333337"
           d="m 2079.1393,2077.6673 c 0,-0.7767 0.6,-1.0412 1.3333,-0.588 0.7333,0.4532 1.3333,1.0887 1.3333,1.412 0,0.3235 -0.6,0.588 -1.3333,0.588 -0.7333,0 -1.3333,-0.6355 -1.3333,-1.412 z"
           id="path5244" />
        <path
           inkscape:connector-curvature="0"
           style="fill:#000000;stroke-width:1.33333337"
           d="m 787.80583,2056.4126 c 0.45323,-0.7333 1.08864,-1.3333 1.41203,-1.3333 0.32338,0 0.58797,0.6 0.58797,1.3333 0,0.7334 -0.63541,1.3334 -1.41203,1.3334 -0.77661,0 -1.0412,-0.6 -0.58797,-1.3334 z"
           id="path5242" />
        <path
           inkscape:connector-curvature="0"
           style="fill:#000000;stroke-width:1.33333337"
           d="m 938.4725,1881.746 c 0.45323,-0.7334 1.08864,-1.3334 1.41203,-1.3334 0.32339,0 0.58797,0.6 0.58797,1.3334 0,0.7333 -0.63541,1.3333 -1.41202,1.3333 -0.77662,0 -1.0412,-0.6 -0.58798,-1.3333 z"
           id="path5240" />
        <path
           inkscape:connector-curvature="0"
           style="fill:#000000;stroke-width:1.33333337"
           d="m 1045.3614,447.52378 c -0.4889,-0.48888 -0.8889,-1.50888 -0.8889,-2.26667 0,-0.83547 0.621,-0.75675 1.5778,0.2 0.8678,0.86779 1.2678,1.88779 0.8889,2.26667 -0.3789,0.37889 -1.0889,0.28889 -1.5778,-0.2 z"
           id="path5203" />
      </g>
    </g>
    <g
       id="g20609"
       transform="matrix(0,14.059653,-14.059653,0,4067.5114,791.58618)">
      <path
         inkscape:connector-curvature="0"
         id="path9292"
         style="fill:none;stroke:#000000;stroke-width:0.6773333;stroke-linecap:round;stroke-linejoin:round;stroke-miterlimit:10;stroke-dasharray:none;stroke-opacity:1"
         d="m -43.705735,295.1768 h 3.28083" />
      <path
         inkscape:connector-curvature="0"
         id="path9294"
         style="fill:none;stroke:#000000;stroke-width:0.6773333;stroke-linecap:round;stroke-linejoin:round;stroke-miterlimit:10;stroke-dasharray:none;stroke-opacity:1"
         d="m -40.424905,295.1768 h 3.28084" />
      <path
         inkscape:connector-curvature="0"
         id="path9296"
         style="fill:none;stroke:#000000;stroke-width:0.6773333;stroke-linecap:round;stroke-linejoin:round;stroke-miterlimit:10;stroke-dasharray:none;stroke-opacity:1"
         d="m -37.144065,295.1768 v -3.28084" />
      <path
         inkscape:connector-curvature="0"
         id="path9298"
         style="fill:none;stroke:#000000;stroke-width:0.6773333;stroke-linecap:round;stroke-linejoin:round;stroke-miterlimit:10;stroke-dasharray:none;stroke-opacity:1"
         d="m -40.424905,286.1598 0.0212,0.46566 0.10583,0.4445 0.16934,0.4445 0.21166,0.40217 0.29634,0.381 0.3175,0.33867 0.381,0.27516 0.40216,0.23284 0.4445,0.14816 0.46567,0.10584 0.46567,0.0423" />
      <path
         inkscape:connector-curvature="0"
         id="path9300"
         style="fill:none;stroke:#000000;stroke-width:0.6773333;stroke-linecap:round;stroke-linejoin:round;stroke-miterlimit:10;stroke-dasharray:none;stroke-opacity:1"
         d="m -40.424905,286.1598 h 3.28084" />
      <path
         inkscape:connector-curvature="0"
         id="path9302"
         style="fill:none;stroke:#000000;stroke-width:0.6773333;stroke-linecap:round;stroke-linejoin:round;stroke-miterlimit:10;stroke-dasharray:none;stroke-opacity:1"
         d="m -37.144065,286.1598 v 3.28083" />
      <path
         inkscape:connector-curvature="0"
         id="path9304"
         style="fill:none;stroke:#000000;stroke-width:0.6773333;stroke-linecap:round;stroke-linejoin:round;stroke-miterlimit:10;stroke-dasharray:none;stroke-opacity:1"
         d="m -43.705735,283.6833 h 3.28083" />
      <path
         inkscape:connector-curvature="0"
         id="path9306"
         style="fill:none;stroke:#000000;stroke-width:0.6773333;stroke-linecap:round;stroke-linejoin:round;stroke-miterlimit:10;stroke-dasharray:none;stroke-opacity:1"
         d="m -40.424905,283.6833 h 3.28084" />
      <path
         inkscape:connector-curvature="0"
         id="path9308"
         style="fill:none;stroke:#000000;stroke-width:0.6773333;stroke-linecap:round;stroke-linejoin:round;stroke-miterlimit:10;stroke-dasharray:none;stroke-opacity:1"
         d="m -40.424905,283.6833 0.46567,-0.0212 0.4445,-0.10583 0.4445,-0.16934 0.42333,-0.21166 0.35984,-0.29634 0.33866,-0.3175 0.27517,-0.381 0.23283,-0.40216 0.14817,-0.4445 0.10583,-0.46567 0.0423,-0.46567" />
      <path
         inkscape:connector-curvature="0"
         id="path9310"
         style="fill:none;stroke:#000000;stroke-width:0.6773333;stroke-linecap:round;stroke-linejoin:round;stroke-miterlimit:10;stroke-dasharray:none;stroke-opacity:1"
         d="m -40.424905,283.6833 v -3.28084" />
      <path
         inkscape:connector-curvature="0"
         id="path9312"
         style="fill:none;stroke:#000000;stroke-width:0.6773333;stroke-linecap:round;stroke-linejoin:round;stroke-miterlimit:10;stroke-dasharray:none;stroke-opacity:1"
         d="m -40.424905,277.94713 h 3.28084" />
      <path
         inkscape:connector-curvature="0"
         id="path9314"
         style="fill:none;stroke:#000000;stroke-width:0.6773333;stroke-linecap:round;stroke-linejoin:round;stroke-miterlimit:10;stroke-dasharray:none;stroke-opacity:1"
         d="m -40.424905,275.4918 0.46567,-0.0423 0.4445,-0.10583 0.4445,-0.14817 0.42333,-0.23283 0.35984,-0.27517 0.33866,-0.33866 0.27517,-0.381 0.23283,-0.40217 0.14817,-0.4445 0.10583,-0.4445 0.0423,-0.48683" />
      <path
         inkscape:connector-curvature="0"
         id="path9316"
         style="fill:none;stroke:#000000;stroke-width:0.6773333;stroke-linecap:round;stroke-linejoin:round;stroke-miterlimit:10;stroke-dasharray:none;stroke-opacity:1"
         d="m -37.144065,272.1898 h -3.28084" />
      <path
         inkscape:connector-curvature="0"
         id="path9318"
         style="fill:none;stroke:#000000;stroke-width:0.6773333;stroke-linecap:round;stroke-linejoin:round;stroke-miterlimit:10;stroke-dasharray:none;stroke-opacity:1"
         d="m -40.424905,272.1898 0.46567,-0.0212 0.4445,-0.10583 0.4445,-0.16934 0.42333,-0.21166 0.35984,-0.27517 0.33866,-0.33867 0.27517,-0.381 0.23283,-0.40216 0.14817,-0.4445 0.10583,-0.46567 0.0423,-0.46567" />
      <path
         inkscape:connector-curvature="0"
         id="path9320"
         style="fill:none;stroke:#000000;stroke-width:0.6773333;stroke-linecap:round;stroke-linejoin:round;stroke-miterlimit:10;stroke-dasharray:none;stroke-opacity:1"
         d="m -37.144065,268.90896 h -3.28084" />
      <path
         inkscape:connector-curvature="0"
         id="path9322"
         style="fill:none;stroke:#000000;stroke-width:0.6773333;stroke-linecap:round;stroke-linejoin:round;stroke-miterlimit:10;stroke-dasharray:none;stroke-opacity:1"
         d="m -40.424905,266.45363 h 3.28084" />
      <path
         inkscape:connector-curvature="0"
         id="path9324"
         style="fill:none;stroke:#000000;stroke-width:0.6773333;stroke-linecap:round;stroke-linejoin:round;stroke-miterlimit:10;stroke-dasharray:none;stroke-opacity:1"
         d="m -37.144065,291.89596 -0.46567,0.0423 -0.46567,0.0847 -0.4445,0.16934 -0.40216,0.23283 -0.381,0.27517 -0.3175,0.3175 -0.29634,0.381 -0.21166,0.42333 -0.16934,0.42333 -0.10583,0.46567 -0.0212,0.46567" />
      <path
         inkscape:connector-curvature="0"
         id="path9326"
         style="fill:none;stroke:#000000;stroke-width:0.33866665;stroke-linecap:round;stroke-linejoin:round;stroke-miterlimit:10;stroke-dasharray:none;stroke-opacity:1"
         d="m -41.652565,277.7778 c 0.0935,0 0.16933,0.0758 0.16933,0.16933 0,0.0935 -0.0758,0.16933 -0.16933,0.16933 -0.0935,0 -0.16934,-0.0758 -0.16934,-0.16933 0,-0.0935 0.0758,-0.16933 0.16934,-0.16933 z" />
      <path
         inkscape:connector-curvature="0"
         id="path9328"
         style="fill:none;stroke:#000000;stroke-width:0.33866665;stroke-linecap:round;stroke-linejoin:round;stroke-miterlimit:10;stroke-dasharray:none;stroke-opacity:1"
         d="m -41.652565,266.2843 c 0.0935,0 0.16933,0.0758 0.16933,0.16933 0,0.0935 -0.0758,0.16933 -0.16933,0.16933 -0.0935,0 -0.16934,-0.0758 -0.16934,-0.16933 0,-0.0935 0.0758,-0.16933 0.16934,-0.16933 z" />
    </g>
  </g>
</svg>
