<?xml version="1.0" encoding="UTF-8" standalone="no"?>
<!-- Created with Inkscape (http://www.inkscape.org/) -->

<svg
   xmlns:dc="http://purl.org/dc/elements/1.1/"
   xmlns:cc="http://creativecommons.org/ns#"
   xmlns:rdf="http://www.w3.org/1999/02/22-rdf-syntax-ns#"
   xmlns:svg="http://www.w3.org/2000/svg"
   xmlns="http://www.w3.org/2000/svg"
   xmlns:sodipodi="http://sodipodi.sourceforge.net/DTD/sodipodi-0.dtd"
   xmlns:inkscape="http://www.inkscape.org/namespaces/inkscape"
   width="5000"
   height="1000"
   viewBox="0 0 1322.9166 264.58333"
   version="1.1"
   id="svg10572"
   inkscape:version="0.92.5 (0.92.5+68)"
   sodipodi:docname="bakiwi_logo_5-1_purple_dark.svg"
   inkscape:export-filename="/home/ku3i/work/so2walker/Bakiwi/documents/logo/png/bakiwi_logo_5-1_purple_dark_1000px.png"
   inkscape:export-xdpi="19.200001"
   inkscape:export-ydpi="19.200001">
  <defs
     id="defs10566" />
  <sodipodi:namedview
     id="base"
     pagecolor="#ffffff"
     bordercolor="#666666"
     borderopacity="1.0"
     inkscape:pageopacity="0.0"
     inkscape:pageshadow="2"
     inkscape:zoom="0.125"
     inkscape:cx="3772.2492"
     inkscape:cy="38.03904"
     inkscape:document-units="mm"
     inkscape:current-layer="layer1"
     showgrid="false"
     fit-margin-top="0"
     fit-margin-left="0"
     fit-margin-right="0"
     fit-margin-bottom="0"
     inkscape:window-width="2560"
     inkscape:window-height="1341"
     inkscape:window-x="0"
     inkscape:window-y="35"
     inkscape:window-maximized="1"
     units="px" />
  <metadata
     id="metadata10569">
    <rdf:RDF>
      <cc:Work
         rdf:about="">
        <dc:format>image/svg+xml</dc:format>
        <dc:type
           rdf:resource="http://purl.org/dc/dcmitype/StillImage" />
        <dc:title />
      </cc:Work>
    </rdf:RDF>
  </metadata>
  <g
     inkscape:label="Ebene 1"
     inkscape:groupmode="layer"
     id="layer1"
     transform="translate(200.6868,-111.48431)">
    <rect
       style="opacity:1;fill:#010101;fill-opacity:1;stroke:none;stroke-width:16.35643578;stroke-linecap:round;stroke-linejoin:bevel;stroke-miterlimit:4;stroke-dasharray:none;stroke-dashoffset:0;stroke-opacity:1"
       id="rect4864"
       width="1322.9166"
       height="264.58334"
       x="-200.6868"
       y="111.48431" />
    <g
       id="g5054"
       transform="translate(521.75833,-7.7744951)">
      <path
         inkscape:connector-curvature="0"
         id="path5418-2"
         d="m 258.67188,136.08984 c -12.12411,0.38795 -23.72154,9.11099 -26.34638,21.15432 -0.47924,2.4667 -1.77158,5.06021 -4.4535,5.57248 -9.73804,5.4944 -12.2908,18.29489 -9.58098,28.44313 1.11403,6.35384 3.17899,12.49904 5.625,18.45507 -1.35245,4.24662 -0.52287,10.50545 4.57812,11.69922 7.50693,2.49654 14.668,-8.44438 9.05859,-14.20703 -2.27274,-2.97421 -7.62537,-0.0956 -8.68554,-4.29297 -3.40545,-9.33152 -6.60384,-20.40344 -1.44584,-29.70714 0.49848,-0.64908 1.48858,-2.79093 2.17045,-2.3827 0.0744,2.14187 1.52121,5.36017 -1.05078,6.66016 -3.46486,4.11762 0.38213,10.47739 5.30664,10.94335 4.63765,1.07156 9.19594,-3.45932 8.17578,-8.0664 -0.3193,-2.64265 -2.14206,-5.26355 -4.83008,-5.87891 -0.21437,-1.58085 -1.54105,-5.56124 1.50391,-4.38672 11.43442,2.14214 17.63101,13.01655 25.63485,20.29186 5.20421,5.24944 11.4266,10.39395 14.08976,17.37221 -0.87844,5.9682 -9.23602,8.21059 -8.50391,14.7832 1.05216,2.1769 0.37392,4.51011 -1.72461,5.71484 -2.7023,2.3519 -4.08866,5.96189 -3.42383,9.46094 -0.48217,4.35075 -0.34947,9.39312 2.89453,12.72852 -2.8629,3.68962 -1.97716,9.18071 1.64063,12.01757 3.85926,2.92347 6.57488,7.06648 10.43554,10.01954 -7.73948,15.35511 -9.68093,32.84376 -10.4082,49.79274 0.15439,11.00783 3.65573,23.46884 13.62305,29.49046 8.39755,4.62963 21.12884,1.97298 24.80273,-7.51953 2.97674,-6.33452 1.99192,-15.68226 -4.83789,-19.07617 -2.70088,-1.18649 -7.16272,0.20495 -7.07812,3.58593 1.70996,3.68615 6.71282,7.17932 3.98328,11.61523 -2.41161,5.99984 -12.42987,5.29431 -14.1161,-0.93359 -4.67967,-11.17551 -2.67037,-24.04841 1.48896,-35.10464 2.84017,-7.25846 6.96622,-14.01786 12.36065,-19.68051 4.54791,-1.14622 9.26228,0.1758 13.89339,-0.56011 6.22541,-0.17143 12.24144,-2.07791 18.22185,-3.38911 2.21327,0.0558 4.88723,-0.96496 6.77929,-0.64258 0.15444,3.63636 -1.86332,8.71006 2.07032,11.10352 1.99471,1.16268 4.32676,0.23202 6.36523,-0.25977 1.19608,4.31618 5.30505,7.30364 9.37695,8.375 1.07309,4.54058 5.66262,7.67043 10.2168,7.72266 1.67769,2.25711 3.60461,4.54686 6.28516,5.62109 -5.25287,5.36481 -8.15492,13.68292 -15.88672,16.11914 -3.69278,1.13397 -8.48571,-0.90126 -11.33594,2.56055 -2.5012,2.90849 0.35053,7.61804 4.07422,7.12109 2.00092,-0.5479 -0.60846,1.4481 -0.63086,2.5625 -1.29391,3.11511 1.5042,7.29395 5.03711,6 4.31969,-1.4366 5.02277,-6.76762 8.39577,-9.37057 5.91537,-6.11676 11.66917,-12.42261 16.41461,-19.48769 0.88429,-1.81604 2.83755,-2.95838 4.59782,-1.51869 4.25012,1.69473 8.29296,3.85672 12.53125,5.57812 -3.84536,6.87032 -7.8235,13.97031 -13.55859,19.37891 -4.08293,1.98479 -10.48718,1.67975 -12.08789,6.9043 -0.87482,3.29475 3.09798,6.43207 6.04297,4.47851 1.30704,-0.75533 3.84968,-2.15159 4.11133,0.33789 1.32974,3.19606 -0.0385,6.56494 -0.33594,9.72852 0.53711,4.11608 7.32265,5.82106 8.76758,1.41211 1.71954,-5.41978 -2.26689,-11.18112 0.33789,-16.51563 2.78888,-4.6411 6.85519,-8.41658 9.42492,-13.26761 1.85225,-2.97249 3.59572,-6.02541 5.71375,-8.82223 10.12185,2.02323 20.23053,4.47023 30.60953,4.76339 18.81364,0.89058 37.73892,-2.43144 55.3143,-9.12472 1.55098,4.80143 2.29588,9.83562 4.40485,14.46395 1.1406,3.2561 2.38009,6.57585 2.44476,10.06925 -3.54684,2.70697 -9.1858,5.57235 -8.26953,10.9375 0.76169,4.27322 7.77911,4.23775 8.52734,-0.0332 1.09384,-1.23556 2.78912,-1.61486 4.07422,-2.59375 0.98136,3.35827 1.47738,8.97123 6.01562,9.41992 4.24852,-0.21648 5.60614,-6.00631 3.01405,-8.87789 -4.74817,-11.8789 -9.7333,-23.75584 -12.07069,-36.38578 5.61702,-3.21228 12.13821,-4.53107 17.91992,-7.05078 3.95565,8.35389 7.46603,17.35632 8.40039,26.6582 -1.6417,3.58521 -6.40533,6.65183 -4.61523,11.13477 1.40481,3.95699 8.23933,3.89735 8.76758,-0.63281 0.3041,-0.99675 0.81748,-3.23692 1.49023,-1.09961 2.08856,3.80982 3.48259,9.60792 8.46875,10.45117 4.09071,-0.35715 4.68926,-6.25006 1.98501,-8.64044 -3.00661,-3.57732 -4.89979,-7.78371 -5.94796,-12.28189 -4.30608,-8.80745 -6.29248,-18.378 -9.86889,-27.50575 -1.9504,-2.73266 -0.31731,-4.22107 2.15801,-5.49966 19.27391,-13.73967 34.95432,-33.55251 41.17383,-56.61328 1.97407,-8.81967 4.05708,-17.63204 5.83008,-26.48633 0.7212,-6.10068 1.12282,-12.50163 -0.41211,-18.48242 -0.57924,-1.62844 -3.36157,-2.15157 -3.75976,-2.91015 5.23729,-4.25136 9.64402,-11.90521 6.30522,-18.54714 -3.69912,-5.04923 -11.28505,-3.83316 -15.66797,-0.40941 -4.49426,2.13795 -9.68521,3.825 -14.59429,2.16162 -1.19044,-6.0029 -8.92109,-8.51671 -14.03906,-5.91015 -8.47203,0.9577 -15.33348,-7.47831 -24.00781,-5.125 -3.00611,-0.70269 -5.30978,-3.13567 -8.43164,-3.67969 -7.80791,-2.69218 -16.55,-1.53062 -23.95073,-5.47245 -6.03884,-2.45208 -12.87705,-3.10113 -19.12349,-1.10567 -3.63116,-0.6005 -6.66668,-3.09268 -10.32617,-3.78907 -6.87841,-2.07766 -14.13799,-0.95289 -21.0918,-0.084 -4.33871,-0.94914 -8.69744,-1.64812 -13.16588,-1.39401 -20.93101,-0.20157 -41.93563,6.76075 -58.12981,20.12932 -5.85327,4.02998 -11.46702,8.47323 -16.1672,13.8057 -3.26805,1.94325 -5.50758,-2.50721 -8.48807,-3.29836 -2.97357,-1.703 -6.35594,-0.34625 -8.8381,1.47805 -2.36418,1.23209 -3.47264,-2.06639 -5.66602,-2.39648 -3.7051,-1.69198 -8.23316,-0.41587 -10.56836,2.88476 -0.99142,-7.16299 -1.62701,-14.78446 -4.16992,-21.75781 -4.33744,-12.61427 -12.84948,-25.10593 -26.12304,-29.30469 -4.87931,-1.52923 -10.04405,-1.6678 -15.11914,-1.59961 z m -0.86329,8.1543 c 10.40342,-0.48685 22.07789,3.17244 27.46094,12.72852 7.48681,10.50534 10.38805,23.78041 9.85742,36.47265 -0.8373,3.34137 -5.03715,3.05535 -6.36523,6.03711 -1.43194,2.43252 -4.27031,1.20056 -5.37891,-0.79687 -4.12896,-6.19704 -9.75287,-11.14504 -14.44644,-16.90291 -8.27997,-9.06089 -17.99248,-18.53261 -30.62778,-20.50334 1.92983,-8.82641 9.99517,-16.92736 19.5,-17.03516 z m 153.70508,19.92578 c 5.56708,-0.80254 10.75799,4.19762 16.34961,1.89453 8.35947,-3.41573 17.64735,-0.47039 25.48633,3.27344 5.26541,1.1794 10.49764,-2.40546 15.73047,-0.30664 5.57935,1.58831 10.53615,5.72273 16.65625,4.88867 5.50423,-0.22248 10.88996,1.34128 15.70312,3.99805 4.00707,1.95507 8.5,2.48075 12.86133,2.21875 6.14691,1.43898 11.42221,6.45983 18.10156,5.50976 1.73801,0.0854 3.86647,-1.4984 5.20118,-0.9082 0.70564,2.48126 1.79092,5.56492 4.875,5.63281 9.1295,2.7424 18.63381,-0.80677 26.75195,-4.77343 1.19461,0.63185 -0.74108,2.34296 -0.94727,3.25976 -3.21715,5.66209 -9.40651,8.78795 -15.60156,10.0293 -2.72564,1.31462 -2.46791,6.0255 0.81055,6.39258 2.76238,0.83045 7.12798,2.19151 6.14258,5.98437 -0.90986,6.46261 -7.43553,10.30769 -13.00904,12.25432 -3.13405,0.1874 -7.8062,1.3426 -7.5144,5.36287 0.20363,2.78289 3.71013,3.27818 5.11328,4.99805 -2.28475,3.66949 -8.49295,2.7448 -9.78711,7.42187 -0.92924,1.6157 0.14751,3.89086 -0.57422,5.30469 -3.20225,1.08379 -7.54444,2.74221 -7.43555,6.8418 -1.78699,4.21159 -7.39507,3.03867 -11.06835,3.12109 -5.48674,-0.24626 -12.33756,2.36466 -13.23438,8.45703 -0.44982,2.06092 0.90453,4.39937 0.41992,6.14063 -3.62512,2.13008 -8.53372,0.0389 -11.82422,3.15625 -2.58981,1.92343 -4.70344,6.29796 -8.57022,4.68632 -6.5139,-1.14373 -13.15095,-3.079 -19.80087,-2.4539 -3.35609,0.33689 -3.98603,4.19178 -2.97815,6.80019 0.94172,2.27835 0.76267,5.42198 -2.13513,5.99864 -5.60244,2.47804 -11.90859,0.82614 -17.33203,-1.05274 -3.20411,0.23664 -4.9747,5.50388 -8.39099,3.11631 -7.15036,-3.42762 -13.82426,-8.48083 -21.39222,-10.671 -3.72599,1.74636 -2.40278,6.63923 -0.80468,9.39649 -3.51429,3.20762 -8.48296,0.26959 -12.3887,-0.47794 -6.73926,-1.81461 -12.22817,-6.20424 -17.54037,-10.48755 -4.54917,-2.90317 -8.80918,-6.28623 -12.76625,-9.85092 -2.21536,-1.46796 -6.24248,0.75618 -4.50195,3.45703 3.85323,6.45141 10.30242,10.74083 15.91016,15.49414 9.00824,6.59997 19.90812,11.73325 31.29687,11.20118 3.92377,-0.71205 6.0871,-4.83957 9.73633,-5.92969 5.71747,3.14311 11.98564,8.85972 19.01953,6.25976 2.70364,-4.02086 7.78681,-1.01691 11.47446,-0.73317 7.18861,0.0663 16.27698,-1.83229 19.11734,-9.39183 0.51132,-1.50511 -0.60766,-3.14854 0.0684,-4.57421 7.37539,0.55576 15.40879,4.87907 22.63086,1.14453 2.6436,-1.85137 3.41771,-6.19208 7.39453,-5.7461 5.58055,0.083 12.61798,-2.76986 13.51172,-9.04101 0.56367,-2.02449 -1.16186,-3.7454 -1.33203,-5.48828 3.5922,-1.68957 7.86668,-0.0307 11.70703,-0.99024 5.34816,-0.59411 10.75892,-3.52113 12.67578,-8.8164 2.47406,-2.76896 7.09968,-3.93695 8.04687,-8.0293 0.53976,-1.55221 -1.00232,-3.63063 1.37696,-4.20703 4.05735,-1.17475 8.02639,-4.32656 7.92382,-8.9375 0.11495,-2.32252 -0.85544,-5.58046 2.38698,-6.25467 4.57739,-2.25884 8.69494,-5.79739 11.32591,-10.21213 -1.30626,7.32117 -4.01654,14.50877 -4.98139,21.98239 -1.80688,9.636 -5.38864,18.89923 -10.83111,27.06058 -7.23717,12.16861 -17.34969,22.7642 -29.26757,30.39453 -2.38181,-5.7019 -2.66437,-13.20159 -7.5293,-17.83203 -3.6627,-1.89683 -7.23775,3.5438 -4.85547,6.52344 2.12206,5.02707 3.97289,10.23394 4.67774,15.66992 -6.68563,4.06231 -14.48516,5.72632 -21.45459,9.28441 -15.21989,6.11758 -31.3124,10.68713 -47.82212,10.10697 -12.09227,0.0546 -24.16449,-1.3535 -35.89712,-4.39334 2.39563,-3.773 4.71439,-7.84479 5.61133,-12.23828 0.658,-3.70542 -4.59216,-7.02842 -7.10743,-3.58398 -2.48748,4.12024 -3.03005,9.3406 -6.4414,12.91211 -7.37062,-3.25982 -15.39166,-4.81462 -22.28907,-8.98438 -2.27817,-0.85985 -4.4886,-1.6466 -5.50195,-4.02929 -2.09203,-3.46976 -8.26904,-1.08554 -9.32422,-5.46094 -0.28792,-4.59592 -6.77729,-3.37234 -8.33984,-6.9043 0.1898,-3.6695 -1.79065,-8.88026 -6.20899,-8.54492 -1.06813,-0.3619 -2.50252,1.95792 -2.33203,0.20117 -0.81289,-5.70366 -4.81466,-10.56361 -9.75586,-13.32031 -0.58852,4.97029 -6.64215,5.57476 -10.48828,5.06641 -8.7524,3.44048 -18.28446,3.95931 -27.5307,3.04927 -2.59271,-0.45152 -5.207,0.82387 -6.12691,3.34592 -5.12951,7.33836 -10.23447,14.83044 -13.43614,23.24934 1.46475,-10.20086 3.81045,-20.62445 9.79492,-29.20117 1.14596,-4.33595 -3.63748,-6.77318 -6.66796,-8.60938 -1.88045,-2.59016 -4.83262,-5.09857 -6.21289,-7.58203 3.63322,-0.89084 4.98224,-6.48614 1.30664,-8.29102 -2.87101,-2.28498 -5.74905,-6.38044 -3.60157,-10.04687 0.002,-2.42303 0.38253,-5.78222 3.36328,-5.97266 3.23221,-2.01253 2.87896,-6.70602 1.06641,-9.50586 1.47847,-3.8399 6.97605,-4.79979 7.34375,-9.34961 0.31906,-1.65098 0.60505,-4.3214 2.92188,-3.98046 4.75815,-1.19451 6.2887,-7.02406 11.12109,-8.23438 4.09759,-1.88251 7.62255,-4.89574 11.27344,-7.31641 1.89714,0.72433 3.08566,2.97421 5.42383,2.91407 3.3319,0.55693 6.43326,-1.62981 9.41992,-2.12891 3.29541,1.76631 6.11083,6.41418 10.44473,4.59929 9.73773,-2.563 15.89476,-11.37263 23.86777,-16.81804 3.59563,-2.85868 7.99869,-4.71161 11.6289,-7.33789 2.9424,-3.68175 8.05309,-4.31768 12.03747,-6.39191 8.93842,-2.85732 18.39139,-4.55531 27.82386,-4.66278 z m -106.71094,46.41406 c -13.22763,2.58922 -21.22152,17.1215 -19.85895,29.9186 0.51206,8.76883 2.65061,19.23065 11.07966,23.76695 6.72611,2.87567 14.6285,2.76994 21.46875,0.44141 11.13951,-5.55205 15.36396,-19.13884 14.38849,-30.83683 -0.42622,-9.26566 -5.98697,-19.03005 -15.48903,-21.34326 -3.71333,-1.2936 -7.65398,-1.99992 -11.58892,-1.94687 z m 2.13477,8.75 c 7.41909,-0.13537 15.91227,5.2441 16.08946,13.45216 0.5246,2.90145 0.63608,5.87638 0.25234,8.81152 -1.04596,-8.43883 -7.94286,-16.07175 -16.68946,-16.53711 -3.28881,-0.31825 -6.67607,0.17998 -9.68554,1.5625 1.87228,-3.83692 5.54059,-7.26347 10.0332,-7.28907 z"
         style="fill:#ffffff;stroke-width:0.12583998" />
      <g
         transform="matrix(1.77408,0,0,1.77408,-232.22605,-299.96863)"
         id="g5685">
        <g
           id="g5350"
           transform="matrix(0.3808043,0,0,0.3808043,311.80498,312.61782)">
          <g
             style="stroke:#ff8400;stroke-opacity:1"
             transform="translate(-35.784398,-415.22395)"
             id="g14408">
            <path
               sodipodi:nodetypes="ccccccccccccccccccccccccccccccccccccccccccccccccccccccccccccccccccccccccccccccccccccccccccccccccccccccccccccccccccccc"
               inkscape:connector-curvature="0"
               id="path14400"
               d="m 165.40816,277.18444 c -7.8617,0.36261 -15.6963,1.19708 -23.41975,2.72955 -3.48539,0.54774 -6.60766,2.15696 -10.10301,2.69666 -7.57838,1.97482 -14.89364,5.10325 -21.55087,9.22819 -1.41412,0.76306 -2.32632,2.05621 -3.35537,3.22101 -3.08356,2.39297 -6.95285,3.50303 -10.144387,5.79467 -9.290685,6.0253 -17.10645,13.96674 -25.976182,20.54553 -3.986001,2.95169 -7.881044,6.49636 -12.883148,7.5063 -1.934802,0.39788 -4.298063,1.2 -5.908682,-0.40978 -3.151566,-2.01806 -5.467874,-5.48138 -9.189104,-6.51177 -3.926109,-0.48982 -7.118466,2.63194 -10.898211,3.14494 -2.099072,0.30774 -4.711031,0.52015 -6.095066,-1.46235 -1.441926,-1.77683 -3.775337,-3.43201 -6.145876,-2.43086 -4.976313,2.05796 -8.794457,6.08092 -13.4498268,8.71575 -2.3724737,1.52172 -5.0708215,2.59622 -7.26983974,4.33255 -2.52916526,0.20966 -4.09525516,2.62483 -5.87924006,4.15637 -2.0166964,1.80916 -3.5706794,4.34469 -6.1034904,5.46682 -2.050624,0.11766 -4.576598,0.11681 -5.697844,2.21123 -1.659827,3.04551 -1.602449,6.79828 -3.727421,9.6485 -2.544815,4.09456 -7.462785,6.14508 -9.649539,10.48052 -1.423011,3.72076 3.303571,6.81223 1.846397,10.52235 -1.439069,2.75992 -5.557165,2.47353 -6.729304,5.51076 -1.52572,3.51237 -1.187646,7.39656 -2.41949,11.00244 -1.258112,4.10609 0.920417,8.22235 3.600296,11.22309 1.909242,2.41094 4.437301,4.39079 5.912816,7.08483 -1.337342,2.64263 -5.086403,2.54069 -6.814052,4.82502 -0.386864,1.62391 1.256175,2.96434 2.007113,4.25403 2.957242,3.73276 6.243116,7.19753 9.31138,10.83309 2.55065,2.73839 6.421737,3.87049 8.735579,6.83197 0.501549,0.78187 0.828553,1.66063 1.262972,2.47944 -0.132214,-0.002 0.967751,0.8382 1.589051,1.10484 1.999411,0.98732 3.9980737,1.92858 5.8838781,3.13675 1.739601,1.34694 3.6151079,2.45467 5.5195602,3.52898 0.9979501,0.88855 2.12574711,1.88095 3.5465517,1.4025 6.1351635,0.18553 12.301921,0.9035 18.46621,0.45223 7.358927,-0.34107 14.724242,-1.51127 21.625361,-4.15224 5.061524,-1.60906 11.020544,0.47096 15.585652,-2.84842 3.016092,-2.6922 10.595959,-6.83932 14.182608,-6.74844 2.072111,-0.53036 4.348321,-0.51379 6.479169,-0.11832 0.904002,0.062 1.816524,0.37759 2.783814,0.19325 1.52355,-0.0522 3.064431,-0.0705 4.484476,0.50075 2.033772,0.3479 4.106121,0.70469 6.168099,0.53642 -0.596583,0.10988 0.688181,0.11284 0.885216,0.29144 1.648989,0.51316 3.533934,0.56263 5.012108,1.1095 1.133607,0.55854 2.111878,1.03791 3.362056,1.08985 4.44059,2.35772 7.43863,6.60548 11.69025,9.24803 8.24005,5.28899 15.69201,11.67453 23.87608,17.03924 6.03771,2.74186 12.38731,4.81227 18.79573,6.49574 3.45102,0.63256 7.09793,0.82796 10.53373,0.0512 2.40442,-0.98158 5.24216,-2.52606 5.89163,-5.2524 -0.20158,-2.61171 -2.30166,-4.64511 -2.83705,-7.14323 -0.3207,-0.74197 -0.41677,-2.58733 0.85165,-2.16474 5.91669,2.19509 11.32345,5.59697 16.93669,8.48792 4.65979,2.41183 9.1231,5.22332 13.8821,7.43103 3.20739,1.38512 6.13164,-1.26005 8.53088,-3.02993 1.34827,-0.81343 2.58435,-2.11275 4.15671,-2.34908 2.69087,0.84905 5.21507,2.26561 8.06927,2.60295 7.80745,1.43282 16.36075,0.45413 22.98001,-4.17391 2.57659,-2.02306 1.80613,-5.73966 1.26566,-8.52625 -0.69675,-2.47102 -1.04722,-5.12601 -0.0249,-7.57251 8.33885,-0.33993 16.47772,1.67622 24.68118,2.89904 3.86149,0.53862 8.02542,2.4012 11.82047,0.61029 4.25871,-3.06694 7.25956,-8.40216 12.80904,-9.31415 4.51601,-0.21471 9.35749,-0.57497 13.25292,-3.09595 2.16122,-1.28934 2.63446,-4.21645 1.33273,-6.28488 -1.57691,-3.75915 -0.77933,-8.7566 2.86084,-11.02929 3.61156,-2.60945 8.33392,-3.35333 12.68396,-2.80654 4.6881,-0.0836 9.48095,-0.42198 13.95937,-1.88722 2.96762,-1.20968 5.39522,-3.92232 5.60038,-7.21291 0.32263,-2.81424 2.97564,-4.35023 5.40012,-5.0854 2.59104,-0.77369 5.56744,-2.10127 6.5855,-4.80092 -0.0171,-1.66296 -1.08323,-3.20646 -0.73329,-4.90873 0.13682,-2.88174 2.66163,-5.0586 5.22915,-5.8782 3.01138,-0.49088 5.60146,-2.45586 7.85841,-4.41473 1.69873,-1.73106 3.48121,-4.90786 1.38907,-7.00524 -2.23142,-1.79835 -5.34456,-2.5827 -7.02644,-4.99041 0.0657,-1.75787 2.38448,-2.00626 3.71708,-2.4138 3.39656,-0.59814 6.98304,-1.0728 9.7972,-3.25315 5.40687,-3.26716 11.66077,-6.27378 14.5264,-12.27302 2.17791,-4.26431 3.42527,-9.68711 1.06349,-14.13248 -2.49478,-4.10072 -7.72978,-4.43764 -11.50731,-6.72362 -1.06585,-0.59187 0.65563,-1.05748 1.11207,-1.26505 5.25661,-1.55787 10.80373,-3.13068 14.99825,-6.91123 3.79801,-3.26499 8.06183,-6.49349 9.83652,-11.37865 0.75716,-2.21125 2.66499,-4.80512 1.29696,-7.14319 -1.48228,-2.52241 -4.84489,-2.13067 -7.19937,-1.30707 -5.78276,1.94217 -10.99407,5.43491 -17.05977,6.57847 -5.92895,1.16893 -12.16557,1.24227 -18.10631,-0.0964 -1.33559,-0.63651 -3.66435,-0.24937 -3.73365,-2.20165 -0.89101,-2.2378 -1.21769,-4.89456 -2.81159,-6.75913 -2.53492,-1.28386 -5.35559,0.45273 -7.82217,1.12096 -6.04943,2.02279 -12.18851,-0.97798 -17.62797,-3.31978 -3.19024,-1.34937 -6.2579,-3.13261 -9.50687,-4.2437 -5.77626,-0.35923 -12.02643,0.70551 -17.34265,-2.159 -9.94397,-5.32818 -21.35955,-7.80177 -32.61828,-7.04787 -2.5763,0.24889 -4.66897,-1.76236 -7.01781,-2.57656 -4.07114,-1.78398 -8.02878,-4.09004 -12.43102,-4.93438 -6.44689,-0.81198 -13.03859,-0.21278 -19.28564,1.54771 -6.96156,-2.39414 -13.7333,-5.4275 -20.88608,-7.21947 -5.16064,-0.74412 -10.44437,-0.36912 -15.59954,0.27932 -3.5402,0.35531 -6.89634,1.67148 -10.4004,2.1482 -4.35007,-0.15504 -8.12051,-2.87938 -12.2237,-3.89924 -3.43677,0.17838 -6.87355,0.35674 -10.31033,0.53509 z M 14.428231,354.24796 c 7.463187,0.14367 14.733805,2.69814 21.206495,6.29608 6.723607,4.29101 9.730142,12.36141 11.101482,19.89635 1.837897,11.06074 0.407443,23.12162 -5.121005,32.92954 -3.703526,6.25422 -9.186166,12.07513 -16.409334,14.02138 -4.032961,0.67421 -8.144655,0.81682 -12.218376,0.70072 -4.7095751,-0.55494 -9.6646547,-0.88747 -13.86375354,-3.27268 -6.41655056,-4.16148 -9.38785046,-11.7897 -10.99948346,-19.00428 -2.752095,-11.86802 -2.782951,-25.01474 3.4645445,-35.80271 3.3911804,-5.66726 8.11465162,-10.89276 14.0766586,-13.95314 2.6899023,-1.3072 5.7557749,-1.85857 8.7627719,-1.81126 z m 56.942249,82.30349 c -0.240533,0.17327 0.450612,-0.54182 0,0 z"
               style="opacity:1;fill:#ff00ff;fill-opacity:0.99489142;stroke:#ff8400;stroke-width:0;stroke-linecap:round;stroke-linejoin:bevel;stroke-miterlimit:10;stroke-dasharray:none;stroke-dashoffset:0;stroke-opacity:1" />
            <path
               inkscape:connector-curvature="0"
               id="path14398"
               d="m 399.49207,340.86687 c -2.47491,-0.0272 -3.1876,2.87959 -2.86909,4.86429 0.66426,4.15319 1.29236,8.68174 -0.90284,12.49066 -3.85778,7.72395 -11.52959,12.31651 -18.5412,16.8163 -1.23156,0.82807 -2.71542,1.75292 -2.65745,3.45279 -0.68787,4.0023 0.68096,8.64955 -1.94718,12.12898 -2.99199,3.50086 -7.83368,4.47032 -11.32229,7.34531 -1.79207,1.48947 -1.23986,3.95713 -0.48008,5.8234 0.52951,1.29227 -1.10038,2.14219 -1.76525,3.03754 -2.84401,3.0406 -6.70065,4.85421 -9.54103,7.8817 -1.92482,2.54368 -2.73355,5.9989 -5.58054,7.80003 -4.85982,3.11631 -10.85228,3.58793 -16.46169,4.06138 -3.71427,0.28958 -7.61479,-0.82868 -11.14851,0.83238 -2.16974,0.89543 -4.95006,2.73222 -4.21836,5.46375 0.68535,1.83885 2.10767,3.40204 2.19316,5.46531 0.32708,1.68537 0.27988,3.60495 -1.17305,4.77695 -1.29697,0.92741 0.0991,2.1491 0.22013,3.27268 0.14309,0.34012 0.47246,1.68577 0.84958,2.15903 1.94378,-0.69956 -0.35309,-0.34333 0.17002,0.53745 0.22174,0.46183 0.41134,1.23835 0.67847,0.28604 -0.21283,0.0706 -0.26649,0.91366 0.0393,1.39758 0.20836,1.82023 1.27241,3.31602 2.08256,4.90461 0.10202,0.93636 0.83063,1.26341 1.68466,0.90794 1.74,1.42542 2.52304,3.78206 3.40119,5.79125 2.67533,6.87099 4.24526,14.11888 6.77545,21.03038 1.27547,1.95728 3.97724,0.75354 5.29063,-0.5302 2.80951,-2.10589 6.19662,-3.51319 8.82264,-5.96958 5.23785,-4.61674 10.44988,-9.27886 15.46971,-14.13338 9.39649,-9.56924 17.38818,-20.51846 23.60459,-32.39823 1.97334,-3.45082 4.06474,-6.85051 5.85171,-10.39161 3.39241,-8.73411 6.00737,-17.78688 7.88998,-26.96425 1.64198,-8.70907 3.45046,-17.4095 6.28798,-25.81084 1.21637,-6.61458 1.57951,-13.36794 1.83605,-20.07783 0.0552,-2.49235 -0.72845,-5.9123 -3.71864,-6.19548 -0.27122,-0.0419 -0.54602,-0.0649 -0.8206,-0.0563 z m -81.87254,115.76656 c 0.0154,0.0246 0.1388,0.0856 0,0 z m -3.45199,-10.92491 c -1.2065,0.45656 -1.18126,0.12403 0,0 z m 1.4945,7.18407 c -0.40187,-0.65704 1.82949,-1.05288 0,0 z m -0.006,5e-4 c 0.006,0.023 -0.0209,-0.0353 0,0 z m 1.67018,3.15175 c -0.002,-0.006 0.004,-0.0205 0,0 z"
               style="opacity:1;fill:#8000ff;fill-opacity:0.99233716;stroke:#ff8400;stroke-width:0;stroke-linecap:round;stroke-linejoin:bevel;stroke-miterlimit:10;stroke-dasharray:none;stroke-dashoffset:0;stroke-opacity:1" />
            <path
               sodipodi:nodetypes="cccccccccccccccccccccccccccccccccccccccccccccccccccccccccccccccccccccccccc"
               inkscape:connector-curvature="0"
               id="path14394"
               d="m 75.421409,435.32828 c -1.495689,-0.17489 -3.312371,0.14787 -4.864311,0.37724 -0.951812,0.0558 -1.783265,0.36399 -2.633425,0.78031 -0.139514,0.10231 0.190236,0.36449 -0.139514,0.10231 -1.180359,0.46901 -2.445782,0.68401 -3.63855,1.02217 -0.852459,0.26228 -2.253898,1.14361 -2.550748,1.28519 -0.191053,-0.0211 -1.315389,0.7167 -0.952396,1.26814 0.09087,-1.39993 0.19876,0.94089 1.079521,0.7865 3.225601,2.82364 5.232889,6.71383 6.829226,10.62453 0.878629,2.53453 0.626295,5.3671 0.49022,8.01828 -0.447013,1.22328 0.397907,2.91473 1.857243,2.56365 2.925207,-0.54033 4.414097,-3.62635 6.867816,-4.83224 2.292006,0.45905 2.873295,3.31811 3.399763,5.23513 0.669846,3.03842 0.326046,6.98246 3.447362,8.78623 3.188335,1.90394 7.663286,2.1242 9.633003,5.7087 0.802614,2.18228 1.447985,4.80179 3.815265,5.84872 3.686996,1.93143 8.709396,1.3971 11.467516,4.94906 0.77108,1.86129 2.03425,3.58074 4.02455,4.25608 2.79609,1.15385 5.89394,1.82095 8.16798,3.94962 5.69376,3.08521 12.07931,4.56478 18.08634,6.9101 4.16499,1.40235 8.23161,3.07509 12.25219,4.82563 2.63908,1.01822 4.74477,-1.38991 5.92799,-3.43442 3.33065,-5.39277 5.15429,-11.51276 8.36901,-16.93696 0.3697,-0.96261 1.47494,-0.33787 1.91616,-0.9715 -0.0593,-0.0646 0.73946,-1.59364 0.68316,-1.75649 0.0305,-0.55131 0.10271,-0.31607 0.19947,-1.0573 0.20256,-0.58661 0.21986,-0.978 0.28733,-1.16996 0.45294,-2.35799 0.85477,-4.75573 1.36168,-7.14634 -1.14795,-1.12329 -2.19824,0.76782 -3.39206,1.11778 -2.0601,1.34636 -4.54753,1.38838 -6.86144,0.90467 -8.33813,-1.18563 -16.28503,-4.26017 -24.32423,-6.73894 -0.60794,-0.0923 -0.64733,-1.15814 -1.49863,-0.98497 -6.1151,-3.62127 -11.69236,-8.08765 -17.35201,-12.3612 -6.08811,-4.83716 -11.94168,-10.06697 -16.76786,-16.18795 -0.28483,-0.14964 -0.5284,-1.31916 -0.59635,-0.93173 0.0704,-1.30548 -1.464042,-0.95943 -2.204002,-1.63298 -2.034566,-0.89569 -4.308581,-0.87363 -6.419241,-1.57355 -2.008955,-0.13142 -4.036007,-0.12521 -5.988791,-0.60564 -0.257281,1.69395 0.421799,-0.10215 -0.651642,-0.091 -2.211229,-1.0033 -4.765173,-0.0565 -7.028524,-0.69659 -0.74303,0.0665 -1.562867,-0.29285 -2.299071,-0.21032 z m 93.600481,48.96445 c 0.003,-0.0394 -0.0117,0.0837 0,0 z M 61.76539,438.79937 c -0.149995,0.0647 0.0505,-0.0139 0,0 z m -0.119372,0.0661 c 0.02089,0.004 0.08643,-0.0203 0,0 z m -0.02842,0.008 c 0.0094,-0.002 0.02914,-0.0254 0,0 z m -0.0098,0.004 c 0.0041,0.004 0.02887,-0.0139 0,0 z m 107.792382,42.48009 c 0.005,0.0716 0.004,0.0564 0,0 z m 0.262,-0.0775 c -0.0127,0.008 0.008,-0.0204 0,0 z m -0.41495,1.66243 c -0.52647,0.37812 0.21055,-0.24754 0,0 z m -0.2341,1.39009 c -0.0138,0.0542 0.0116,-0.0346 0,0 z m -0.0207,0.12145 c -0.0251,0.16534 0.0421,-0.23612 0,0 z m -0.26199,0.19119 c 0.63662,1.5858 -0.5271,-0.63985 0,0 z m -0.24651,1.15652 c -0.004,0.013 0.003,-0.0203 0,0 z m -0.13126,0.37724 c -0.006,0.0309 0.0138,-0.11666 0,0 z m -0.0325,0.0791 c -0.0491,0.075 0.0323,-0.31761 0,0 z m -0.0739,0.26305 c -0.015,0.038 0.0185,-0.0258 0,0 z m -0.1628,0.19325 c 0.0143,-0.005 0.0297,-0.0472 0,0 z"
               style="opacity:1;fill:#c400ff;fill-opacity:1;stroke:#ff8400;stroke-width:0;stroke-linecap:round;stroke-linejoin:bevel;stroke-miterlimit:10;stroke-dasharray:none;stroke-dashoffset:0;stroke-opacity:1" />
            <path
               inkscape:connector-curvature="0"
               id="path14392"
               d="m -15.37925,440.42254 c -4.659821,6.37074 -8.155403,13.55354 -10.250078,21.16505 -1.349602,4.55639 -2.590493,9.18948 -2.933096,13.93926 -1.278872,3.03945 -1.366642,6.48499 -2.002885,9.70814 -1.019535,7.92189 -2.4359,15.84172 -2.536373,23.84536 0.328139,6.48407 0.46918,13.07587 2.095995,19.39417 0.442857,1.03378 0.647401,2.56762 1.783355,3.04168 1.269555,-0.38288 0.472665,-2.14741 0.58488,-3.11155 -0.614765,-4.86059 -0.740815,-9.68838 -0.04612,-14.54894 0.967759,-8.34583 1.619562,-16.91613 5.325766,-24.60559 2.740829,-6.19022 5.169014,-12.54178 8.362,-18.51056 3.60416,-5.68513 7.9985051,-10.85583 11.2763142,-16.76797 0.9603184,-1.47177 1.8279824,-3.39635 3.70881798,-3.82768 0.8398457,-1.265 -0.99619588,-1.43631 -1.54770928,-2.25671 -1.6928888,-1.0905 -3.4399908,-1.91788 -5.021916,-3.19257 -2.4046444,-1.7518 -5.1459949,-2.82164 -7.7220099,-4.27053 -0.360103,-0.29477 -0.684144,-0.14811 -1.076936,-0.002 z"
               style="opacity:1;fill:#ffbf00;fill-opacity:1;stroke:#ff8400;stroke-width:0;stroke-linecap:round;stroke-linejoin:bevel;stroke-miterlimit:10;stroke-dasharray:none;stroke-dashoffset:0;stroke-opacity:1" />
            <path
               inkscape:connector-curvature="0"
               id="path14161"
               d="m 312.55628,443.67972 c -4.24354,4.31869 -10.54518,5.26335 -16.29984,5.83504 -2.17426,0.29628 -4.59708,0.70763 -5.87089,2.72463 -2.23901,2.63263 -3.85456,6.356 -7.59852,7.13031 -5.41631,1.03878 -10.91192,-0.47993 -16.25039,-1.32633 -4.7983,-0.71441 -9.53463,-2.47695 -14.43196,-2.19491 -1.62425,0.10996 -3.38611,1.51276 -2.75643,3.29335 0.95859,3.40394 1.0582,7.41246 -1.37509,10.25157 -4.13163,4.79478 -10.85758,6.05586 -16.7871,6.83784 -5.17895,0.71779 -10.28208,-0.53427 -15.32517,-1.49603 -3.2426,-0.62206 -6.55823,0.60282 -8.84854,2.92383 -2.7341,2.00885 -6.38506,0.77586 -9.26817,-0.2775 -7.01283,-2.86959 -12.87803,-7.94374 -19.85047,-10.87064 -2.07116,-0.57558 -2.68179,2.08986 -3.32642,3.4685 -1.05516,2.23637 -3.33224,3.52811 -4.81883,5.29167 -0.0921,0.63018 -0.50554,1.31302 -0.11626,1.91669 -0.32107,-1.1209 -0.24651,0.5927 -0.43666,0.85887 -0.0632,0.39679 -0.22045,1.15249 -0.22326,1.30431 0.43548,0.19836 -0.0889,-0.0599 -0.0801,0.47078 -0.37071,1.7241 -0.64836,3.5838 -1.12189,5.13196 -0.4672,0.72655 -0.90408,1.94559 0.3147,2.20194 1.7485,1.00939 0.49808,3.29433 0.0357,4.74287 -1.08162,2.30915 -1.8687,4.74707 -2.72616,7.1211 -1.6088,3.43384 -4.64122,6.32166 -5.37361,10.14812 -0.10973,2.1282 2.55526,2.39056 4.04418,2.97812 10.23379,2.95143 20.9092,3.87266 31.4443,5.15197 14.71155,1.68598 29.61061,1.70831 44.30281,-0.19441 9.77046,-1.07038 19.52898,-2.72923 28.80162,-6.08346 10.96843,-3.86162 21.93708,-7.77545 32.64601,-12.31255 6.67075,-3.22873 13.99921,-5.04372 20.52521,-8.62957 1.471,-0.97562 3.01961,-2.18673 3.77407,-3.76245 -2.0637,-8.01616 -4.24987,-16.01692 -7.25744,-23.73807 -0.4318,-1.77808 -1.494,-3.93991 -0.44183,-5.6596 0.67096,-0.64553 0.32636,-1.04378 0.4558,-1.08212 -0.53044,-1.22267 -1.33715,-2.58318 -1.91773,-3.6494 -1.7368,0.12997 0.12946,0.29313 -0.0527,-0.35552 -0.29941,-0.5905 0.0136,-1.96749 -1.12292,-1.25023 -0.24945,-0.29967 1.22512,-0.016 0.52607,-0.87678 -0.79494,-1.55959 -1.38891,-3.3428 -1.90688,-4.93406 -1.61766,0.77288 0.45929,0.19778 -0.2372,-0.47799 -0.12763,-0.51276 -0.43365,-0.90265 -1.04799,-0.61185 z m -143.41657,34.75807 c -0.006,-0.0221 0.0302,-0.0947 0,0 z m -0.21807,1.38854 c -0.0348,-0.0264 0.002,-0.32036 0,0 z m -0.37724,1.88259 c -0.0772,-0.0119 -0.005,-0.21376 0,0 z m -0.70795,3.18894 c -0.0303,0.015 -0.011,-0.0308 0,0 z m 0.36843,0.0966 c -0.0398,0.0493 -0.39089,-0.17299 0,0 z m -0.83767,0.89349 c -0.006,-0.0509 0.0848,-0.26236 0,0 z m 0.0657,0.0775 c -0.0409,-0.0243 0.1044,-0.07 0,0 z m -0.0202,0.0248 c -0.19174,0.42714 -0.12305,-0.0643 0,0 z m -0.123,0.13435 c -6.1e-4,-0.002 0.003,-0.006 0,0 z m 0.0243,0.30128 c -0.14462,-0.0264 -8.2e-4,-0.43262 0,0 z"
               style="opacity:1;fill:#a000ff;fill-opacity:1;stroke:#ff8400;stroke-width:0;stroke-linecap:round;stroke-linejoin:bevel;stroke-miterlimit:10;stroke-dasharray:none;stroke-dashoffset:0;stroke-opacity:1" />
          </g>
          <g
             transform="matrix(0.52801027,0,0,0.52801027,-54.872558,378.14974)"
             id="g10853">
            <g
               id="g5528"
               transform="matrix(0.26458333,0,0,0.26458333,-241.70965,-1086.1492)">
              <path
                 sodipodi:nodetypes="ccccccccccccccccccccccccccccccccccccccccccccccccccccccccccccccccccccccccccccccccccccccccccccccccccccccccccccccccccccccccccccccccccccccccccccccccccccccccccccccccccccccccccccccccccccccccccccccccccccccccccccccccccccccccccccccccccccccccccccccccccccccccccccccccccccccccccccccccccccccccccc"
                 inkscape:connector-curvature="0"
                 id="path5418"
                 d="m 720.1792,170.38372 c -83.99818,-1.43114 -176.46376,3.3592 -240.75801,65.5347 -63.49414,46.34183 -80.23243,128.15318 -106.88382,198.70264 -81.38442,14.50455 -128.55214,106.12813 -135.84918,176.29645 -6.48582,38.46738 18.79995,209.20918 68.45002,295.62279 10.5986,25.3824 -28.06249,88.24051 18.81009,106.4964 36.06411,26.842 79.18656,-9.1334 86.45544,-42.48719 1.27965,-15.17591 14.5235,-21.65518 -1.48914,-40.8043 -3.16204,-28.16299 -26.18328,-20.89317 -62.32557,-26.04523 -28.35741,13.82188 -37.54242,-43.90406 -50.73415,-61.57508 -6.55215,-20.35692 -9.02881,-27.67747 -15.62059,-55.24931 -11.46442,-23.4217 -11.73671,-59.13314 -14.87536,-71.77377 -0.0671,-5.2026 -8.45535,-29.6606 -8.93769,-56.09815 0.67044,-22.67833 0.92485,-26.25495 3.3443,-39.38904 0.75443,-36.19282 13.32421,-48.29854 22.97893,-83.20272 22.13475,-66.52417 62.30577,-51.05746 82.02801,-64.95939 -7.02302,23.95826 16.00703,97.99276 2.72742,114.14839 -76.28196,42.09182 26.35936,107.89429 58.59557,75.99161 20.25931,-26.32175 16.82874,-52.75414 10.81277,-66.84148 -11.37254,-14.4792 -25.36208,-23.00648 -41.81429,-17.89852 -12.0258,-48.52153 -8.37738,-78.02318 -5.76449,-102.64628 31.72611,-13.60312 106.1071,16.7457 148.55196,37.70533 34.14955,25.20939 61.24853,57.42386 93.4613,84.47796 41.45608,54.80787 95.21378,98.28334 142.46603,146.64696 36.21183,48.67216 94.80062,90.40354 111.26251,150.25481 4.47625,75.2036 -87.06793,94.81448 -93.93348,162.3537 49.75702,71.9857 -78.70562,75.1881 -48.10882,164.7871 -19.06217,54.1812 1.69495,112.9503 46.75284,136.6386 -52.18882,16.602 -51.9006,85.39 0.42375,109.1236 35.38359,39.9167 74.15207,85.1225 114.7614,113.2359 -32.45208,67.7435 -67.96292,135.4749 -77.06049,213.3157 -14.72262,66.3955 -27.13473,137.0717 -36.01401,206.1967 7.07524,44.0544 -15.80651,108.3828 0.008,166.0745 1.11509,80.8606 39.48778,154.4599 90.16016,216.7419 42.95,33.0033 92.79064,46.7317 146.40879,37.0836 102.8287,0.5401 152.7701,-136.9913 112.001,-214.7241 -8.7145,-18.4731 -54.8539,-52.8763 -71.1886,-24.6699 17.1569,36.3816 73.1947,70.1573 40.9577,128.9628 -9.8706,36.2726 -52.2682,75.468 -90.6243,68.2062 -48.54082,9.1092 -92.18657,-21.5274 -112.62242,-65.7606 -22.01314,-46.5285 -26.19946,-110.8454 -31.46586,-150.9409 2.06079,-76.7734 10.02674,-154.3126 37.63633,-221.8348 39.37787,-91.7151 83.25979,-187.5401 158.59645,-253.5186 103.4121,-5.4615 212.9671,10.9459 308.141,-35.3645 48.9608,-7.9548 89.122,1.5063 122.6188,-22.0305 28.7635,33.1389 15.7397,72.8835 10.6177,110.5764 11.4236,54.0602 62.0293,6.0932 89.9059,10.2345 4.2059,55.5889 44.8011,95.4215 102.8806,95.4348 -1.7754,54.4139 43.688,83.7009 95.1965,81.3623 24.3025,20.1019 35.2123,61.8646 73.3517,61.382 39.5442,14.5649 -3.0512,50.1095 -15.0528,65.2361 -45.1987,58.17 -84.1838,125.6302 -153.8384,158.8829 -36.2081,4.852 -83.9589,6.2091 -110.0761,8.3336 -51.976,76.7028 105.769,9.0834 88.3037,28.4756 0.7717,33.91 -69.2241,54.0734 -53.0524,98.7721 38.8656,25.351 44.3392,-47.3106 74.1063,-65.002 44.4179,-55.7141 104.4326,-99.9111 139.5846,-159.3915 31.5089,-34.6621 56.5375,-82.0555 91.6936,-107.4972 70.5691,21.1244 136.5163,61.728 202.5407,84.7282 -9.7205,27.3222 -24.4937,59.8301 -46.4542,85.4546 -34.8912,55.9103 -66.3137,111.0285 -111.2384,155.2792 -35.6512,20.1132 -84.5159,21.1493 -120.609,47.5478 -18.2743,50.5472 28.6972,24.8904 55.6797,12.7971 72.8476,-27.659 55.768,178.9989 44.1135,138.8379 12.9723,36.9752 53.1127,27.417 40.3079,-12.1956 -3.9589,-64.7489 -25.5712,-154.6465 36.6517,-193.9891 45.2456,-67.0424 96.9107,-139.0612 134.1205,-210.5754 67.1044,2.2472 131.3262,34.8478 200.4217,35.102 58.7431,13.6544 128.3971,18.211 191.4546,22.0952 51.5229,-5.1359 89.0812,-1.6413 135.7104,-10.5815 133.4051,-7.3482 264.7208,-38.2838 385.6212,-88.0132 40.1901,-28.027 47.2856,24.6716 53.2099,55.9742 20.3348,73.5871 52.3511,152.7104 69.5098,232.6301 -15.5814,24.7708 -45.6116,43.878 -65.7042,53.1495 -18.9553,11.2302 -46.3157,60.3056 -12.0222,68.3274 26.5847,-6.9575 19.8577,-42.5035 53.6658,-47.092 25.8154,-7.7364 42.956,-55.5291 55.369,-9.5684 21.8939,30.8158 11.0507,68.2349 39.8843,94.0909 49.2343,-12.4264 1.318,-63.6009 -6.4167,-97.8764 -17.1972,-46.5114 -33.8691,-88.3002 -51.5029,-131.703 -12.7776,-36.7056 -32.5787,-98.2774 -45.0941,-142.7726 4.2205,-31.3858 -47.9636,-105.4349 4.8507,-107.7597 37.8658,-23.1804 44.2772,-26.5902 111.2095,-44.7114 38.1879,-13.5988 84.6583,-37.5922 100.7098,-42.7436 12.8548,44.5929 50.4974,97.7528 53.8921,136.2257 25.2228,58.8483 40.4199,124.1404 52.4349,185.8048 -9.2581,38.8533 -63.9026,64.8047 -56.8985,106.5367 39.023,43.9063 36.791,-12.5539 56.2247,-36.3612 17.5288,-50.8538 49.1334,1.2633 56.0025,29.1535 24.5145,26.7697 26.875,70.8334 61.6685,85.6281 35.3874,-30.7845 -27.9701,-70.2982 -37.6687,-103.522 -31.8716,-40.2073 -17.872,-97.3551 -56.7048,-127.9336 -25.2448,-104.681 -65.0469,-202.1338 -97.9651,-302.2654 55.6781,-41.6381 118.6042,-76.9767 167.6042,-128.3049 69.2411,-58.8975 126.535,-139.4398 180.5221,-208.7634 48.9709,-79.6276 95.6226,-156.0517 118.5831,-245.4837 29.4688,-87.5099 33.8618,-181.9865 65.7041,-271.6549 16.8341,-64.4838 9.0917,-132.29104 10.5734,-197.34662 7.8873,-63.93516 -138.0773,-30.92414 -52.0919,-79.34061 49.5587,-35.59456 99.312,-103.8333 78.4124,-166.79687 -30.4697,-41.69936 -92.3982,-28.30813 -125.4075,0.17755 -61.7223,26.727 -134.892,50.90606 -201.9109,22.91436 -0.9653,-74.03803 -75.6911,-77.70754 -129.4067,-53.70625 -89.2669,3.08507 -165.255,-88.65178 -257.0418,-53.17356 -35.658,-30.4265 -87.6598,-43.86981 -133.1517,-56.9751 -64.8626,-21.15325 -140.9281,1.35189 -196.6041,-42.65264 -56.839,-18.92704 -121.2488,-39.67545 -181.1114,-17.4057 -22.0789,9.81419 -44.1993,13.60563 -56.6724,-4.20514 -62.911,-24.01087 -128.3897,-56.72946 -196.8583,-42.18855 -51.6524,-6.43985 -109.4315,27.80008 -148.4711,-2.8895 -67.0937,-3.98335 -135.6598,-2.39742 -200.5228,1.39228 -117.2927,12.91164 -236.8704,44.34796 -339.0459,102.03704 -44.4234,21.42466 -69.3393,35.56028 -106.7586,67.94397 -68.1072,49.01375 -145.7255,94.70737 -201.5438,161.86131 -67.3351,94.65071 -106.747,-46.27384 -183.3309,-13.92294 -65.1153,63.61791 -78.9025,-23.72311 -144.3547,-15.29105 -36.8596,10.62145 -93.6779,92.26866 -91.8188,22.26865 -11.3791,-81.73617 -10.8424,-161.28102 -43.2943,-235.72151 -11.4846,-27.55847 -31.4547,-72.29875 -44.0893,-100.61245 C 994.38136,357.4698 971.52312,302.06125 936.49334,276.10529 885.28261,209.21428 801.41779,183.41365 720.1792,170.38372 Z m -108.53845,31.51025 c 93.84021,-0.30835 193.59312,2.32444 271.78596,69.10976 52.91746,41.81146 91.18572,116.41376 120.44969,162.62456 19.813,59.31818 53.1446,139.33739 50.3823,211.23119 8.3809,67.09611 29.3006,148.36994 -55.26951,167.51328 -28.37813,60.63613 -88.83826,56.89414 -116.10524,4.86698 C 844.37828,758.94009 786.46178,715.10647 749.18735,657.82807 730.85487,645.55031 709.12786,610.65253 695.98958,609.08564 663.6357,562.70762 603.00662,519.99143 549.98026,482.01557 c -44.94345,-29.9379 -113.69977,-48.85314 -154.6147,-46.58845 5.86761,-19.74386 8.26848,-42.46648 17.48784,-58.23479 4.25407,-15.37357 6.22056,-20.1382 18.28545,-44.62848 10.31073,-22.78987 27.1433,-43.19043 40.65903,-57.53203 21.97405,-27.67547 78.08039,-61.20425 118.67193,-66.55572 10.15064,-9.76058 2.41251,3.67184 21.17094,-6.58213 z M 2276.252,411.88025 c 60.8144,-15.67746 93.6481,46.55793 146.9173,20.50505 49.1788,-14.45432 99.8811,-17.31593 150.162,-15.46052 56.387,11.79341 113.6195,43.27768 164.202,55.35683 57.1474,-19.96665 125.9929,-21.25481 182.0758,3.4989 26.6027,12.2399 83.1597,51.82531 124.8626,37.92286 58.1712,-4.20328 121.6895,17.87786 179.2629,39.92859 40.5565,31.64489 85.5604,27.96323 134.0719,25.26713 73.179,19.07558 141.8498,87.01641 219.2642,50.96201 53.6728,-26.97352 48.4822,22.54466 62.5767,53.75469 77.8677,28.12685 164.1392,17.51901 241.8274,-24.54475 28.8983,-20.66767 99.104,-35.4606 87.4119,15.46052 -13.2605,34.92953 -25.6467,69.03736 -61.0189,89.9745 -30.398,30.25728 -62.5372,53.77676 -104.7248,59.96554 -94.2353,24.40412 25.0534,26.30267 48.5609,61.44256 22.8074,36.81926 5.7541,108.44481 -22.8095,131.42454 -19.7655,27.771 -58.4805,45.2738 -94.0425,65.3854 -20.1688,26.3734 -79.9556,4.9895 -90.9268,37.6484 10.4488,28.7979 84.911,25.6193 51.3212,73.5051 -12.272,27.5444 -34.4631,25.8881 -44.727,37.2005 -49.2436,9.5386 -72.8517,37.0428 -51.3778,82.9767 -15.4749,43.5355 -90.5875,26.3328 -87.3675,73.0248 -4.6509,64.6567 -87.7218,55.3617 -134.6328,64.6469 -64.3268,-18.9435 -155.4741,32.6982 -113.9502,104.41 18.2225,46.3603 -57.7203,57.4358 -86.0519,58.0526 -34.9305,-2.6262 -48.3915,9.828 -76.7335,32.7654 -19.1041,34.2205 -52.6459,54.2117 -95.0676,33.8792 -67.8762,-5.715 -141.9569,-29.9112 -201.6406,-23.2978 -26.0609,43.9958 35.812,91.0004 -18.5476,122.8892 -58.0157,32.1183 -144.3573,40.1205 -209.0219,2.1307 -39.5169,4.7958 -63.2862,72.2608 -106.5488,31.2036 -70.833,-31.7681 -139.0284,-78.7516 -210.8296,-109.3335 -32.1739,27.7381 53.4021,66.7457 -5.4764,99.4744 -67.3916,38.4324 -136.6968,-12.1202 -203.5413,-24.8069 -71.4043,-33.8658 -126.2832,-96.9158 -194.2796,-133.3375 -8.6084,-6.9434 -27.2424,-16.4062 -45.1467,-38.2417 -15.5706,-17.8038 -71.8576,-55.6422 -30.8242,-9.516 63.2434,74.984 146.017,132.2729 227.2143,189.1542 69.7215,32.3328 146.8987,57.5329 223.3403,61.6646 30.0283,-7.3891 46.8414,-27.9055 68.6341,-44.7472 10.6056,-15.6076 10.356,-55.4579 35.7477,-29.7629 64.1563,23.666 119.5137,91.5052 193.6539,81.3062 34.4373,-45.027 81.325,-28.9423 128.9957,-14.2883 67.2495,1.4931 203.997,-16.6666 185.6588,-111.8618 -28.8129,-70.0321 82.9294,-21.0619 117.8002,-21.9739 52.5787,9.5696 132.6987,37.1955 161.3327,-29.0527 26.6072,-54.9179 84.9725,-18.0499 127.5018,-47.3379 39.4147,-15.7586 70.8365,-38.778 49.2227,-87.7752 -47.8387,-42.0794 46.8286,-75.119 81.2899,-57.5643 58.1431,-6.9116 159.1102,-7.4352 169.0125,-87.9647 27.0951,-20.9393 67.1881,-39.1158 90.4224,-76.3704 -29.7132,-52.7698 25.5171,-53.2219 59.3118,-78.7272 67.7361,-28.3081 6.1159,-112.921 51.6762,-127.6068 52.6814,-33.4999 113.6766,-65.2431 138.3418,-128.99914 33.9223,-38.85276 -36.3694,-134.00981 42.3017,-113.64596 29.7204,40.88486 1.1462,97.25642 3.079,144.1554 5.9169,36.666 -14.7348,54.4324 -21.0701,90.031 -6.1421,29.1744 -21.0879,77.4037 -25.7273,116.3474 -8.8049,38.1241 -10.5653,84.3477 -29.1654,120.4879 -8.0968,26.4434 -24.3503,73.152 -28.8386,88.9374 -12.2113,31.3758 -40.4292,63.9901 -54.6789,93.3362 -28.5247,61.5269 -70.4009,117.8249 -120.3063,172.5961 -22.9624,29.7802 -41.2247,45.7271 -68.8924,72.1895 -48.3733,34.4385 -83.7298,89.9906 -134.8105,103.2113 -13.6139,23.0965 -48.1281,33.1585 -47.3542,-5.0485 -22.3785,-57.646 -31.5095,-129.4319 -66.2691,-175.7883 -39.4822,0.2865 -3.7403,48.9448 1.6183,69.5178 19.0828,48.8175 27.9681,98.3553 42.7374,149.0643 -35.0008,40.415 -93.7479,47.8619 -140.7349,70.2404 -10.7532,-0.5081 -40.4757,19.5272 -51.1071,23.6849 -116.3716,40.7175 -228.6337,93.0753 -350.9672,113.6921 -46.9408,2.8215 -90.0501,14.2222 -145.2668,15.9207 -87.8417,4.6593 -177.2628,4.1431 -263.455,-9.3031 -67.9638,-8.6226 -143.5917,-12.8405 -206.1962,-36.7759 -65.9554,-4.5736 14.2327,-64.7412 16.7357,-96.8755 2.689,-23.155 52.0696,-83.242 2.9702,-81.6692 -24.9728,39.9083 -37.4089,91.4626 -62.8227,128.6843 -25.8696,54.3605 -58.9,1.1324 -96.5123,-1.3558 -54.3625,-19.2789 -113.0524,-42.874 -161.143,-57.06 -1.0343,-30.7104 -80.5218,-17.359 -82.2019,-60.2561 -26.8062,-42.5328 -97.608,-10.2335 -108.5746,-69.2434 -9.4807,-52.4184 -83.8213,-26.4298 -93.2918,-78.3357 1.6093,-43.6918 -20.0528,-112.3674 -59.8647,-46.087 -62.5412,32.3533 -10.5944,-41.2991 -35.6911,-66.9997 -7.7037,-35.2528 -34.6288,-68.5002 -57.976,-84.6756 -25.4311,36.4765 -55.6916,43.4011 -101.0967,38.0439 -40.431,-2.416 -79.2261,33.4361 -125.5002,28.5076 -65.0284,15.867 -143.9476,10.1806 -210.402,2.1551 -27.3949,27.1588 -41.5143,69.2864 -68.43629,100.6246 -52.55077,57.4054 -70.54715,134.6535 -104.53106,201.5881 -15.59268,37.5461 -22.19444,75.3245 -23.95149,118.4136 -15.12949,58.0221 -10.31772,118.356 -3.41416,175.4573 -38.49123,-53.8701 -22.48257,-119.9862 -32.92674,-180.9578 9.03085,-62.2814 12.89424,-125.6051 25.02093,-187.2616 16.0283,-96.741 37.09798,-207.1027 103.23964,-289.3511 -8.4839,-43.6847 -55.94912,-39.3038 -77.06047,-73.1096 -23.54933,-35.5637 -61.37145,-61.0307 -78.77562,-100.2129 14.2287,-16.8323 81.04136,-20.6155 42.03116,-53.4157 -37.35256,-34.4735 -79.62836,-76.3689 -50.21947,-131.8281 3.47144,-30.1101 -1.72802,-75.47 40.02546,-81.2696 28.59471,-14.9606 26.30802,-33.1322 10.75495,-58.1979 -34.22067,-54.9472 54.46744,-72.6682 69.16274,-118.5186 17.49656,-22.41714 2.90769,-59.14466 37.07943,-73.37998 58.73245,11.14684 58.83273,-64.46125 109.56349,-70.12724 21.7262,-21.65273 51.6998,-22.64738 75.6682,-46.82549 31.8683,-15.60398 60.1503,-62.40511 102.2065,-45.36862 21.4016,45.11699 67.2625,31.52283 103.2195,9.52409 51.7684,-26.991 71.0145,34.2704 108.494,47.77387 76.2905,4.51432 123.179,-66.33361 182.5399,-101.26218 59.9257,-54.08466 120.5673,-111.27816 198.2385,-138.50709 10.1496,-24.45459 35.8993,-41.30954 68.0408,-49.29932 26.1405,-19.81451 70.1365,-34.39171 95.0312,-43.2257 43.3195,-2.0687 65.0343,-22.45843 104.9872,-24.008 63.6214,-14.55924 127.8822,-17.73231 192.1003,-19.14909 z M 1140.4746,959.08024 c -131.4096,24.03604 -199.27725,169.63156 -188.27054,293.89116 8.10311,82.4148 27.66389,192.1625 109.90074,227.6439 40.1807,10.7818 77.0724,13.7345 102.7937,14.419 21.7862,-4.3732 75.1614,4.3846 95.1381,-18.0954 43.0408,-13.9494 76.2068,-61.2513 98.1283,-100.2793 25.8101,-49.7272 37.0899,-110.4045 36.7404,-170.1545 -2.6623,-87.7685 -32.9684,-194.6551 -129.1,-219.49422 -37.4944,-21.45817 -83.5795,-24.50065 -125.3307,-27.93064 z m 15.9892,36.4539 c 82.2066,6.08816 175.356,44.19766 192.0075,134.57636 27.2976,96.6033 12.5687,216.6685 -64.5016,285.715 12.6664,-31.4129 19.81,-85.7902 20.5817,-126.6504 0.053,-74.1149 -39.6699,-137.7825 -108.5626,-165.4369 -59.3562,-26.2041 -132.8843,-8.2218 -178.8877,33.5079 -20.91173,-14.383 6.2051,-62.2785 17.0385,-84.0502 30.2598,-43.2212 68.5463,-75.92946 122.3242,-77.66176 z M 3302.4416,1591.069 c -0.07,0.065 0.021,0.03 0,0 z m -999.4819,205.9022 c -0.6166,0.2467 0.5835,0.1461 0,0 z m -4.4391,8.2811 c -0.3988,0.2659 -0.1676,0.3599 0,0 z m -0.3833,0.561 c -0.1572,0.07 0.029,0.059 0,0 z m -35.4694,29.0727 c -0.025,0.2452 0.7914,-0.1748 0,0 z m -19.258,71.6607 c -3.6779,-0.5612 0.1142,1.2515 0,0 z m 14.617,6.0939 c 0.01,0.062 0.1783,0.015 0,0 z m 0.097,0.085 c 0.075,0.1394 0.5321,0.1082 0,0 z"
                 style="fill:#000000;stroke-width:1.33333337" />
              <path
                 id="path5416"
                 d="m 3113.9688,2472.846 c -1.5719,-2.703 -1.9514,-1.8379 -0.6648,1.515 0.4573,1.1916 1.1122,1.8858 1.4556,1.5424 0.3433,-0.3432 -0.013,-1.719 -0.7908,-3.0574 z"
                 style="fill:#000000;stroke-width:1.33333337"
                 inkscape:connector-curvature="0" />
              <path
                 id="path5414"
                 d="m 3186.7168,2293.496 c -0.4256,-1.0636 -0.7416,-0.7478 -0.8056,0.8056 -0.057,1.4054 0.2573,2.193 0.7004,1.75 0.443,-0.4431 0.4904,-1.5931 0.1053,-2.5556 z"
                 style="fill:#000000;stroke-width:1.33333337"
                 inkscape:connector-curvature="0" />
              <path
                 id="path5410"
                 d="m 849.13917,2061.746 c -0.45323,-0.7334 -0.18864,-1.3334 0.58797,-1.3334 0.77661,0 1.41203,0.6 1.41203,1.3334 0,0.7333 -0.26459,1.3333 -0.58798,1.3333 -0.32338,0 -0.9588,-0.6 -1.41202,-1.3333 z"
                 style="fill:#000000;stroke-width:1.33333337"
                 inkscape:connector-curvature="0" />
              <path
                 id="path5408"
                 d="m 2223.1393,1940.334 c 0,-0.7767 0.6,-1.0412 1.3333,-0.588 0.7333,0.4532 1.3333,1.0886 1.3333,1.412 0,0.3234 -0.6,0.588 -1.3333,0.588 -0.7333,0 -1.3333,-0.6355 -1.3333,-1.412 z"
                 style="fill:#000000;stroke-width:1.33333337"
                 inkscape:connector-curvature="0" />
              <path
                 id="path5406"
                 d="m 849.4725,1831.9702 c -0.55,-1.3433 -0.98176,-4.0433 -0.95945,-6 0.0352,-3.0929 0.22052,-3.2484 1.41861,-1.1902 0.75793,1.302 1.18969,4.002 0.95945,6 -0.34961,3.0338 -0.58345,3.2301 -1.41861,1.1902 z"
                 style="fill:#000000;stroke-width:1.33333337"
                 inkscape:connector-curvature="0" />
              <path
                 id="path5404"
                 d="m 2021.5559,1798.1685 c 0.9626,-0.3852 2.1126,-0.3379 2.5556,0.1053 0.4431,0.4431 -0.3445,0.7583 -1.75,0.7004 -1.5533,-0.064 -1.8692,-0.38 -0.8056,-0.8056 z"
                 style="fill:#000000;stroke-width:1.33333337"
                 inkscape:connector-curvature="0" />
              <path
                 id="path5394"
                 d="m 1573.8059,718.0045 c 0,-0.69592 0.9,-2.01224 2,-2.92516 1.1,-0.91292 2,-1.24354 2,-0.7347 0,0.50884 -0.9,1.82518 -2,2.92518 -1.1,1.1 -2,1.4306 -2,0.73468 z"
                 style="fill:#000000;stroke-width:1.33333337"
                 inkscape:connector-curvature="0" />
              <path
                 id="path5392"
                 d="m 821.39648,2172.7713 c -0.33805,-1.2972 -0.63688,-0.5587 -0.66405,1.6413 -0.0272,2.2 0.24941,3.2615 0.61465,2.3587 0.36523,-0.9027 0.38746,-2.7027 0.0495,-4 z"
                 style="fill:#000000;stroke-width:1.33333337"
                 inkscape:connector-curvature="0" />
              <path
                 id="path5388"
                 d="m 2950.1646,2088.822 c 1.2974,-0.338 3.0974,-0.3159 4,0.049 0.9028,0.3652 -0.1586,0.6417 -2.3586,0.6147 -2.2,-0.027 -2.9386,-0.326 -1.6414,-0.6642 z"
                 style="fill:#000000;stroke-width:1.33333337"
                 inkscape:connector-curvature="0" />
              <path
                 id="path5386"
                 d="m 2182.7782,2116.9404 c -0.4431,-0.4431 -1.5931,-0.4904 -2.5556,-0.1054 -1.0636,0.4256 -0.7477,0.7416 0.8056,0.8056 1.4055,0.057 2.1931,-0.2573 1.75,-0.7004 z"
                 style="fill:#000000;stroke-width:1.33333337"
                 inkscape:connector-curvature="0" />
              <path
                 id="path5384"
                 d="m 2079.1393,2072.4126 c 0,-0.7333 -0.6355,-1.3333 -1.412,-1.3333 -0.7767,0 -1.0412,0.6 -0.588,1.3333 0.4532,0.7334 1.0886,1.3334 1.412,1.3334 0.3234,0 0.588,-0.6 0.588,-1.3334 z"
                 style="fill:#000000;stroke-width:1.33333337"
                 inkscape:connector-curvature="0" />
              <path
                 id="path5382"
                 d="m 3039.1393,2064.4126 c 0,-0.7333 -0.6355,-1.3333 -1.412,-1.3333 -0.7767,0 -1.0412,0.6 -0.588,1.3333 0.4532,0.7334 1.0887,1.3334 1.412,1.3334 0.3235,0 0.588,-0.6 0.588,-1.3334 z"
                 style="fill:#000000;stroke-width:1.33333337"
                 inkscape:connector-curvature="0" />
              <path
                 id="path5380"
                 d="m 3434.4727,2051.0793 c 0.4532,-0.7333 0.1886,-1.3333 -0.588,-1.3333 -0.7766,0 -1.412,0.6 -1.412,1.3333 0,0.7333 0.2645,1.3333 0.588,1.3333 0.3233,0 0.9588,-0.6 1.412,-1.3333 z"
                 style="fill:#000000;stroke-width:1.33333337"
                 inkscape:connector-curvature="0" />
              <path
                 id="path5378"
                 d="m 817.38331,2038.8293 c -0.42563,-1.0636 -0.74157,-0.7477 -0.80555,0.8056 -0.0579,1.4055 0.25724,2.1931 0.7003,1.75 0.44305,-0.4431 0.49041,-1.5931 0.1052,-2.5556 z"
                 style="fill:#000000;stroke-width:1.33333337"
                 inkscape:connector-curvature="0" />
              <path
                 id="path5376"
                 d="m 2022.4726,2016.4126 c -0.4532,-0.7333 -1.5387,-1.3241 -2.412,-1.3129 -0.9541,0.013 -0.7897,0.5363 0.412,1.3129 1.1,0.711 2.1855,1.3018 2.412,1.313 0.2267,0.013 0.041,-0.5796 -0.412,-1.313 z"
                 style="fill:#000000;stroke-width:1.33333337"
                 inkscape:connector-curvature="0" />
              <path
                 id="path5366"
                 d="m 3541.806,1812.4126 c 0,-0.7333 -0.6,-1.3333 -1.3333,-1.3333 -0.7334,0 -1.3334,0.6 -1.3334,1.3333 0,0.7334 0.6,1.3334 1.3334,1.3334 0.7333,0 1.3333,-0.6 1.3333,-1.3334 z"
                 style="fill:#000000;stroke-width:1.33333337"
                 inkscape:connector-curvature="0" />
              <path
                 id="path5364"
                 d="m 2090.4726,1791.0793 c -0.4532,-0.7333 -1.5387,-1.3241 -2.412,-1.3129 -0.9541,0.013 -0.7897,0.5362 0.412,1.3129 1.1,0.7109 2.1855,1.3017 2.412,1.3129 0.2267,0.013 0.041,-0.5796 -0.412,-1.3129 z"
                 style="fill:#000000;stroke-width:1.33333337"
                 inkscape:connector-curvature="0" />
              <path
                 id="path5362"
                 d="m 2074.7782,1786.2737 c -0.4431,-0.4431 -1.5931,-0.4904 -2.5556,-0.1053 -1.0636,0.4256 -0.7477,0.7416 0.8056,0.8056 1.4055,0.057 2.1931,-0.2574 1.75,-0.7004 z"
                 style="fill:#000000;stroke-width:1.33333337"
                 inkscape:connector-curvature="0" />
              <path
                 id="path5360"
                 d="m 864.02221,1750.746 c -0.36988,-0.9167 -0.67252,-0.1667 -0.67252,1.6666 0,1.8334 0.30264,2.5834 0.67252,1.6667 0.36988,-0.9167 0.36988,-2.4167 0,-3.3333 z"
                 style="fill:#000000;stroke-width:1.33333337"
                 inkscape:connector-curvature="0" />
              <path
                 id="path5358"
                 d="m 2331.1393,1743.0793 c 0,-0.7333 -0.2646,-1.3333 -0.588,-1.3333 -0.3234,0 -0.9588,0.6 -1.412,1.3333 -0.4532,0.7333 -0.1887,1.3333 0.588,1.3333 0.7765,0 1.412,-0.6 1.412,-1.3333 z"
                 style="fill:#000000;stroke-width:1.33333337"
                 inkscape:connector-curvature="0" />
              <path
                 id="path5354"
                 d="m 1524.9327,1673.0218 c -0.4343,-1.1316 -1.0755,-1.7716 -1.4251,-1.4221 -0.3494,0.3496 -0.24,1.2755 0.2435,2.0576 1.3147,2.1272 2.0832,1.714 1.1816,-0.6355 z"
                 style="fill:#000000;stroke-width:1.33333337"
                 inkscape:connector-curvature="0" />
              <path
                 id="path5352"
                 d="m 2898.1646,1666.2048 c -0.9026,-0.3654 -2.7026,-0.3875 -4,-0.049 -1.2972,0.3382 -0.5586,0.637 1.6414,0.6642 2.2,0.027 3.2614,-0.2495 2.3586,-0.6147 z"
                 style="fill:#000000;stroke-width:1.33333337"
                 inkscape:connector-curvature="0" />
              <path
                 id="path5350"
                 d="m 3712.9815,1631.6768 c 0.4553,-1.1867 0.2317,-1.7219 -0.5242,-1.2547 -0.7249,0.448 -1.318,1.3792 -1.318,2.0692 0,1.9179 0.9558,1.4953 1.8422,-0.8145 z"
                 style="fill:#000000;stroke-width:1.33333337"
                 inkscape:connector-curvature="0" />
              <path
                 id="path5344"
                 d="m 3846.4727,1459.0793 c 0.4532,-0.7333 0.1886,-1.3333 -0.588,-1.3333 -0.7766,0 -1.412,0.6 -1.412,1.3333 0,0.7333 0.2645,1.3333 0.588,1.3333 0.3233,0 0.9588,-0.6 1.412,-1.3333 z"
                 style="fill:#000000;stroke-width:1.33333337"
                 inkscape:connector-curvature="0" />
              <path
                 id="path5342"
                 d="m 787.13916,1417.158 c 0,-0.3234 -0.6,-0.9588 -1.33333,-1.412 -0.73333,-0.4532 -1.33333,-0.1887 -1.33333,0.588 0,0.7765 0.6,1.412 1.33333,1.412 0.73333,0 1.33333,-0.2646 1.33333,-0.588 z"
                 style="fill:#000000;stroke-width:1.33333337"
                 inkscape:connector-curvature="0" />
              <path
                 id="path5340"
                 d="m 3864.0501,1336.1626 c -0.4256,-1.0636 -0.7416,-0.7477 -0.8056,0.8056 -0.057,1.4055 0.2574,2.1931 0.7004,1.75 0.4431,-0.443 0.4904,-1.593 0.1054,-2.5556 z"
                 style="fill:#000000;stroke-width:1.33333337"
                 inkscape:connector-curvature="0" />
              <path
                 id="path5338"
                 d="m 3881.2783,1266.107 c -1.3554,-1.3553 -2.4738,0.6852 -1.3618,2.4846 0.8402,1.3592 1.1542,1.3602 1.6059,0 0.3087,-0.9263 0.1989,-2.0468 -0.2441,-2.4899 z"
                 style="fill:#000000;stroke-width:1.33333337"
                 inkscape:connector-curvature="0" />
              <path
                 id="path5336"
                 d="m 820.4725,1063.0793 c 0,-0.7333 -0.63542,-1.3333 -1.41203,-1.3333 -0.77661,0 -1.0412,0.6 -0.58797,1.3333 0.45322,0.7333 1.08864,1.3333 1.41202,1.3333 0.32339,0 0.58798,-0.6 0.58798,-1.3333 z"
                 style="fill:#000000;stroke-width:1.33333337"
                 inkscape:connector-curvature="0" />
              <path
                 id="path5334"
                 d="m 3933.3835,1037.496 c -0.4256,-1.0637 -0.7416,-0.7477 -0.8056,0.8055 -0.057,1.4056 0.2573,2.1931 0.7004,1.75 0.443,-0.443 0.4904,-1.593 0.1053,-2.5555 z"
                 style="fill:#000000;stroke-width:1.33333337"
                 inkscape:connector-curvature="0" />
              <path
                 id="path5332"
                 d="m 354.77804,1020.9404 c -0.44307,-0.443 -1.59307,-0.4904 -2.55556,-0.1052 -1.06364,0.4256 -0.74771,0.7416 0.80556,0.8056 1.40555,0.058 2.19305,-0.2573 1.75,-0.7003 z"
                 style="fill:#000000;stroke-width:1.33333337"
                 inkscape:connector-curvature="0" />
              <path
                 id="path5330"
                 d="m 867.13917,1004.4126 c 0,-0.7333 -0.93542,-1.3333 -2.0787,-1.3333 -1.14328,0 -1.70786,0.6 -1.25464,1.3333 0.45323,0.7334 1.38864,1.3334 2.0787,1.3334 0.69005,0 1.25464,-0.6 1.25464,-1.3334 z"
                 style="fill:#000000;stroke-width:1.33333337"
                 inkscape:connector-curvature="0" />
              <path
                 id="path5326"
                 d="m 331.13914,939.65214 c 0,-0.3666 -1.2,-0.024 -2.66666,0.7605 -1.46667,0.785 -2.66667,1.7272 -2.66667,2.0939 0,0.3666 1.2,0.024 2.66667,-0.7605 1.46666,-0.785 2.66666,-1.7272 2.66666,-2.0939 z"
                 style="fill:#000000;stroke-width:1.33333337"
                 inkscape:connector-curvature="0" />
              <path
                 id="path5324"
                 d="m 411.13915,936.41264 c 0,-0.7333 -0.6,-1.3333 -1.33334,-1.3333 -0.73333,0 -1.33333,0.6 -1.33333,1.3333 0,0.7334 0.6,1.3334 1.33333,1.3334 0.73334,0 1.33334,-0.6 1.33334,-1.3334 z"
                 style="fill:#000000;stroke-width:1.33333337"
                 inkscape:connector-curvature="0" />
              <path
                 id="path5322"
                 d="m 410.47248,932.41264 c -0.45323,-0.7333 -1.53864,-1.3241 -2.41203,-1.3129 -0.95414,0.012 -0.78969,0.5363 0.41203,1.3129 1.1,0.7109 2.18541,1.3017 2.41203,1.313 0.22661,0.011 0.0412,-0.5796 -0.41203,-1.313 z"
                 style="fill:#000000;stroke-width:1.33333337"
                 inkscape:connector-curvature="0" />
              <path
                 id="path5314"
                 d="m 895.80583,831.07934 c -0.45322,-0.73334 -0.18864,-1.33334 0.58798,-1.33334 0.77661,0 1.41202,0.6 1.41202,1.33334 0,0.73333 -0.26458,1.33333 -0.58797,1.33333 -0.32339,0 -0.9588,-0.6 -1.41203,-1.33333 z"
                 style="fill:#000000;stroke-width:1.33333337"
                 inkscape:connector-curvature="0" />
              <path
                 id="path5312"
                 d="m 522.47249,468.41267 c -0.45323,-0.73333 -0.18864,-1.33333 0.58797,-1.33333 0.77661,0 1.41203,0.6 1.41203,1.33333 0,0.73333 -0.26459,1.33333 -0.58798,1.33333 -0.32338,0 -0.9588,-0.6 -1.41202,-1.33333 z"
                 style="fill:#000000;stroke-width:1.33333337"
                 inkscape:connector-curvature="0" />
              <path
                 id="path5308"
                 d="m 1142.4726,761.746 c 0.4532,-0.73333 0.224,-1.33333 -0.5093,-1.33333 -0.7334,0 -1.7042,0.6 -2.1574,1.33333 -0.4532,0.73334 -0.224,1.33334 0.5093,1.33334 0.7333,0 1.7041,-0.6 2.1574,-1.33334 z"
                 style="fill:#000000;stroke-width:1.33333337"
                 inkscape:connector-curvature="0" />
              <path
                 id="path5306"
                 d="m 1274.778,754.27378 c -0.443,-0.44306 -1.593,-0.49042 -2.5555,-0.1052 -1.0637,0.42562 -0.7477,0.74157 0.8055,0.80554 1.4056,0.0579 2.1931,-0.25724 1.75,-0.70029 z"
                 style="fill:#000000;stroke-width:1.33333337"
                 inkscape:connector-curvature="0" />
              <path
                 id="path5304"
                 d="m 818.33515,737.52378 c -0.37768,-0.61111 -1.25129,-1.11111 -1.94135,-1.11111 -0.69005,0 -1.25464,0.5 -1.25464,1.11111 0,0.61112 0.87362,1.11112 1.94135,1.11112 1.06775,0 1.63233,-0.5 1.25464,-1.11112 z"
                 style="fill:#000000;stroke-width:1.33333337"
                 inkscape:connector-curvature="0" />
              <path
                 id="path5302"
                 d="m 796.4725,716.55532 c 0,-0.65488 -0.86944,-1.52432 -1.9321,-1.93209 -1.29136,-0.49555 -1.68622,-0.10067 -1.19068,1.19068 0.80928,2.10897 3.12278,2.65824 3.12278,0.74141 z"
                 style="fill:#000000;stroke-width:1.33333337"
                 inkscape:connector-curvature="0" />
              <path
                 id="path5300"
                 d="m 251.13917,667.07934 c 0,-0.73334 -0.6,-1.33334 -1.3334,-1.33334 -0.7333,0 -1.3333,0.6 -1.3333,1.33334 0,0.73333 0.6,1.33333 1.3333,1.33333 0.7334,0 1.3334,-0.6 1.3334,-1.33333 z"
                 style="fill:#000000;stroke-width:1.33333337"
                 inkscape:connector-curvature="0" />
              <path
                 id="path5294"
                 d="m 3493.1393,632.41267 c 0.4532,-0.73333 0.1887,-1.33333 -0.588,-1.33333 -0.7765,0 -1.412,0.6 -1.412,1.33333 0,0.73333 0.2646,1.33333 0.588,1.33333 0.3234,0 0.9588,-0.6 1.412,-1.33333 z"
                 style="fill:#000000;stroke-width:1.33333337"
                 inkscape:connector-curvature="0" />
              <path
                 id="path5292"
                 d="m 3347.1384,573.41267 c 0,-1.41152 -5.0214,-1.24861 -5.9116,0.19173 -0.4051,0.65546 0.759,1.10546 2.587,1 1.828,-0.10546 3.324,-0.64173 3.3246,-1.19173 z"
                 style="fill:#000000;stroke-width:1.33333337"
                 inkscape:connector-curvature="0" />
              <path
                 id="path5290"
                 d="m 267.13917,567.8247 c 0,-0.32339 -0.6,-0.9588 -1.3334,-1.41203 -0.7333,-0.45323 -1.3333,-0.18864 -1.3333,0.58797 0,0.77662 0.6,1.41203 1.3333,1.41203 0.7334,0 1.3334,-0.26459 1.3334,-0.58797 z"
                 style="fill:#000000;stroke-width:1.33333337"
                 inkscape:connector-curvature="0" />
              <path
                 id="path5288"
                 d="m 3172.4726,532.41267 c 0,-0.73333 -0.6354,-1.33333 -1.412,-1.33333 -0.7766,0 -1.0412,0.6 -0.588,1.33333 0.4532,0.73333 1.0887,1.33333 1.412,1.33333 0.3235,0 0.588,-0.6 0.588,-1.33333 z"
                 style="fill:#000000;stroke-width:1.33333337"
                 inkscape:connector-curvature="0" />
              <path
                 id="path5286"
                 d="m 387.13915,514.49136 c 0,-0.32338 -0.6,-0.9588 -1.33334,-1.41202 -0.73333,-0.45323 -1.33333,-0.18864 -1.33333,0.58797 0,0.77661 0.6,1.41203 1.33333,1.41203 0.73334,0 1.33334,-0.26459 1.33334,-0.58798 z"
                 style="fill:#000000;stroke-width:1.33333337"
                 inkscape:connector-curvature="0" />
              <path
                 id="path5282"
                 d="m 386.71663,498.82934 c -0.42563,-1.06364 -0.74158,-0.74771 -0.80555,0.80556 -0.0579,1.40554 0.25723,2.19305 0.70029,1.75 0.44306,-0.44306 0.49042,-1.59307 0.1052,-2.55556 z"
                 style="fill:#000000;stroke-width:1.33333337"
                 inkscape:connector-curvature="0" />
              <path
                 id="path5280"
                 d="m 1898.4726,459.07934 c -0.4532,-0.73334 -1.424,-1.33334 -2.1573,-1.33334 -0.7334,0 -0.9626,0.6 -0.5094,1.33334 0.4532,0.73333 1.424,1.33333 2.1574,1.33333 0.7333,0 0.9625,-0.6 0.5093,-1.33333 z"
                 style="fill:#000000;stroke-width:1.33333337"
                 inkscape:connector-curvature="0" />
              <path
                 id="path5276"
                 d="m 1926.4726,444.41267 c 0.4532,-0.73333 0.224,-1.33333 -0.5093,-1.33333 -0.7334,0 -1.7042,0.6 -2.1574,1.33333 -0.4532,0.73333 -0.224,1.33333 0.5094,1.33333 0.7333,0 1.7041,-0.6 2.1573,-1.33333 z"
                 style="fill:#000000;stroke-width:1.33333337"
                 inkscape:connector-curvature="0" />
              <path
                 id="path5274"
                 d="m 2039.6686,432.6349 c 0.3777,-0.61112 -0.1605,-1.11112 -1.196,-1.11112 -1.0355,0 -1.5737,0.5 -1.196,1.11112 0.3777,0.6111 0.9159,1.1111 1.196,1.1111 0.2801,0 0.8183,-0.5 1.196,-1.1111 z"
                 style="fill:#000000;stroke-width:1.33333337"
                 inkscape:connector-curvature="0" />
              <path
                 id="path5272"
                 d="m 1031.6685,417.52378 c -0.3777,-0.61111 -1.2513,-1.11111 -1.9413,-1.11111 -0.6901,0 -1.2547,0.5 -1.2547,1.11111 0,0.61112 0.8736,1.11112 1.9414,1.11112 1.0677,0 1.6323,-0.5 1.2546,-1.11112 z"
                 style="fill:#000000;stroke-width:1.33333337"
                 inkscape:connector-curvature="0" />
              <path
                 id="path5270"
                 d="m 2262.8097,410.07028 c 0.365,-1.09681 -0.4936,-1.51524 -2.4859,-1.21121 -3.9651,0.60512 -4.8431,3.24092 -1.0129,3.04068 1.6174,-0.0845 3.1918,-0.90781 3.4988,-1.82947 z"
                 style="fill:#000000;stroke-width:1.33333337"
                 inkscape:connector-curvature="0" />
              <path
                 id="path5268"
                 d="m 2183.8059,409.746 c 0.4532,-0.73333 0.224,-1.33333 -0.5093,-1.33333 -0.7333,0 -1.7041,0.6 -2.1573,1.33333 -0.4532,0.73334 -0.224,1.33334 0.5093,1.33334 0.7333,0 1.7041,-0.6 2.1573,-1.33334 z"
                 style="fill:#000000;stroke-width:1.33333337"
                 inkscape:connector-curvature="0" />
              <path
                 id="path5266"
                 d="m 2206.2621,407.81391 c 0.4954,-1.29136 0.1,-1.68623 -1.1907,-1.19068 -2.1091,0.80928 -2.6583,3.12277 -0.7415,3.12277 0.655,0 1.5243,-0.86944 1.9322,-1.93209 z"
                 style="fill:#000000;stroke-width:1.33333337"
                 inkscape:connector-curvature="0" />
              <path
                 id="path5264"
                 d="m 2442.8883,405.39736 c 0.2584,-1.34182 -0.3682,-2.31802 -1.488,-2.31802 -2.3814,0 -5.245,3.23824 -3.9812,4.5021 1.5958,1.59575 5.0034,0.23495 5.4692,-2.18408 z"
                 style="fill:#000000;stroke-width:1.33333337"
                 inkscape:connector-curvature="0" />
              <path
                 id="path5262"
                 d="m 2265.8059,403.07934 c 1.1,-0.71088 1.4,-1.2925 0.6667,-1.2925 -0.7333,0 -2.2333,0.58162 -3.3333,1.2925 -1.1,0.71088 -1.4,1.29249 -0.6667,1.29249 0.7333,0 2.2333,-0.58161 3.3333,-1.29249 z"
                 style="fill:#000000;stroke-width:1.33333337"
                 inkscape:connector-curvature="0" />
              <path
                 id="path5260"
                 d="m 1019.1392,395.07934 c 0,-0.73334 -0.6,-1.33334 -1.3334,-1.33334 -0.7333,0 -1.3333,0.6 -1.3333,1.33334 0,0.73333 0.6,1.33333 1.3333,1.33333 0.7334,0 1.3334,-0.6 1.3334,-1.33333 z"
                 style="fill:#000000;stroke-width:1.33333337"
                 inkscape:connector-curvature="0" />
              <path
                 id="path5258"
                 d="m 464.47248,283.07935 c 0,-0.73334 -0.6,-1.33334 -1.33333,-1.33334 -0.73333,0 -1.33333,0.6 -1.33333,1.33334 0,0.73333 0.6,1.33333 1.33333,1.33333 0.73333,0 1.33333,-0.6 1.33333,-1.33333 z"
                 style="fill:#000000;stroke-width:1.33333337"
                 inkscape:connector-curvature="0" />
              <path
                 id="path5256"
                 d="m 587.13915,204.41268 c 0,-0.73333 -0.26458,-1.33333 -0.58797,-1.33333 -0.32339,0 -0.9588,0.6 -1.41203,1.33333 -0.45322,0.73333 -0.18864,1.33333 0.58798,1.33333 0.77661,0 1.41202,-0.6 1.41202,-1.33333 z"
                 style="fill:#000000;stroke-width:1.33333337"
                 inkscape:connector-curvature="0" />
              <path
                 id="path5254"
                 d="m 3135.1393,2423.0006 c 0,-0.7766 0.6,-1.0412 1.3333,-0.588 0.7334,0.4532 1.3334,1.0887 1.3334,1.412 0,0.3235 -0.6,0.588 -1.3334,0.588 -0.7333,0 -1.3333,-0.6354 -1.3333,-1.412 z"
                 style="fill:#000000;stroke-width:1.33333337"
                 inkscape:connector-curvature="0" />
              <path
                 id="path5252"
                 d="m 1910.8893,2362.1685 c 0.9625,-0.3852 2.1125,-0.3379 2.5556,0.1053 0.443,0.4431 -0.3446,0.7583 -1.75,0.7004 -1.5534,-0.064 -1.8692,-0.38 -0.8056,-0.8056 z"
                 style="fill:#000000;stroke-width:1.33333337"
                 inkscape:connector-curvature="0" />
              <path
                 id="path5250"
                 d="m 1933.4726,2355.5296 c 0.9167,-0.3699 2.4167,-0.3699 3.3333,0 0.9167,0.3698 0.1667,0.6725 -1.6666,0.6725 -1.8334,0 -2.5834,-0.3027 -1.6667,-0.6725 z"
                 style="fill:#000000;stroke-width:1.33333337"
                 inkscape:connector-curvature="0" />
              <path
                 id="path5248"
                 d="m 1952.117,2349.5805 c 0.9045,-0.9112 1.9804,-1.3209 2.3909,-0.9104 0.4104,0.4105 -0.3296,1.1561 -1.6445,1.6568 -1.9003,0.7236 -2.0533,0.5704 -0.7464,-0.7464 z"
                 style="fill:#000000;stroke-width:1.33333337"
                 inkscape:connector-curvature="0" />
              <path
                 id="path5246"
                 d="m 2019.8059,2292.4126 c 0.4532,-0.7333 1.0887,-1.3333 1.412,-1.3333 0.3235,0 0.588,0.6 0.588,1.3333 0,0.7334 -0.6354,1.3334 -1.412,1.3334 -0.7766,0 -1.0412,-0.6 -0.588,-1.3334 z"
                 style="fill:#000000;stroke-width:1.33333337"
                 inkscape:connector-curvature="0" />
              <path
                 id="path5244"
                 d="m 2079.1393,2077.6673 c 0,-0.7767 0.6,-1.0412 1.3333,-0.588 0.7333,0.4532 1.3333,1.0887 1.3333,1.412 0,0.3235 -0.6,0.588 -1.3333,0.588 -0.7333,0 -1.3333,-0.6355 -1.3333,-1.412 z"
                 style="fill:#000000;stroke-width:1.33333337"
                 inkscape:connector-curvature="0" />
              <path
                 id="path5242"
                 d="m 787.80583,2056.4126 c 0.45323,-0.7333 1.08864,-1.3333 1.41203,-1.3333 0.32338,0 0.58797,0.6 0.58797,1.3333 0,0.7334 -0.63541,1.3334 -1.41203,1.3334 -0.77661,0 -1.0412,-0.6 -0.58797,-1.3334 z"
                 style="fill:#000000;stroke-width:1.33333337"
                 inkscape:connector-curvature="0" />
              <path
                 id="path5240"
                 d="m 938.4725,1881.746 c 0.45323,-0.7334 1.08864,-1.3334 1.41203,-1.3334 0.32339,0 0.58797,0.6 0.58797,1.3334 0,0.7333 -0.63541,1.3333 -1.41202,1.3333 -0.77662,0 -1.0412,-0.6 -0.58798,-1.3333 z"
                 style="fill:#000000;stroke-width:1.33333337"
                 inkscape:connector-curvature="0" />
              <path
                 id="path5203"
                 d="m 1045.3614,447.52378 c -0.4889,-0.48888 -0.8889,-1.50888 -0.8889,-2.26667 0,-0.83547 0.621,-0.75675 1.5778,0.2 0.8678,0.86779 1.2678,1.88779 0.8889,2.26667 -0.3789,0.37889 -1.0889,0.28889 -1.5778,-0.2 z"
                 style="fill:#000000;stroke-width:1.33333337"
                 inkscape:connector-curvature="0" />
            </g>
          </g>
        </g>
        <circle
           style="opacity:1;fill:#ffffff;fill-opacity:1;stroke:#ffffff;stroke-width:1.62359488;stroke-linecap:round;stroke-linejoin:bevel;stroke-miterlimit:4;stroke-dasharray:none;stroke-dashoffset:0;stroke-opacity:1"
           id="path5674"
           cx="305.78409"
           cy="302.75748"
           r="0.81179744" />
        <path
           style="opacity:1;fill:#ffffff;fill-opacity:1;stroke:#ffffff;stroke-width:0.625;stroke-linecap:round;stroke-linejoin:bevel;stroke-miterlimit:4;stroke-dasharray:none;stroke-dashoffset:0;stroke-opacity:1"
           d="m 1932.7386,263.26643 c 0.032,-0.10312 0.2955,-0.91875 0.5867,-1.8125 1.6366,-5.02351 2.8448,-12.725 3.2606,-20.78266 0.3718,-7.20689 -0.8151,-13.27666 -3.7618,-19.23812 -3.2543,-6.58372 -8.5437,-11.87792 -15.2029,-15.21647 -4.0319,-2.02141 -7.6542,-3.14892 -11.4801,-3.57338 -1.6538,-0.18349 -5.5213,-0.15381 -7.3161,0.0561 -6.9987,0.81869 -14.0811,3.85578 -19.1689,8.22002 l -0.86,0.73767 -0.363,-0.34779 c -1.7067,-1.63518 -1.3754,-5.1967 0.9792,-10.52522 1.5628,-3.53658 2.8427,-5.90003 4.1073,-7.5845 6.4167,-8.54709 13.3381,-12.95494 21.7087,-13.82508 1.6707,-0.17368 3.9982,0.0207 7.6804,0.64138 12.1628,2.0502 21.8526,7.24455 27.4877,14.7352 2.2246,2.95705 4.0131,6.89616 4.8029,10.57781 0.1475,0.6875 0.4321,1.86875 0.6325,2.625 1.9517,7.36511 2.578,16.42021 1.6772,24.25 -1.2045,10.46931 -4.7183,19.35742 -10.5498,26.68511 -0.9955,1.25087 -4.3183,4.69715 -4.2206,4.37739 z"
           id="path5676"
           inkscape:connector-curvature="0"
           transform="matrix(0.26458333,0,0,0.26458333,-200.6868,243.77598)" />
      </g>
    </g>
    <path
       style="color:#000000;font-style:normal;font-variant:normal;font-weight:normal;font-stretch:normal;font-size:medium;line-height:normal;font-family:sans-serif;font-variant-ligatures:normal;font-variant-position:normal;font-variant-caps:normal;font-variant-numeric:normal;font-variant-alternates:normal;font-feature-settings:normal;text-indent:0;text-align:start;text-decoration:none;text-decoration-line:none;text-decoration-style:solid;text-decoration-color:#000000;letter-spacing:normal;word-spacing:normal;text-transform:none;writing-mode:lr-tb;direction:ltr;text-orientation:mixed;dominant-baseline:auto;baseline-shift:baseline;text-anchor:start;white-space:normal;shape-padding:0;clip-rule:nonzero;display:inline;overflow:visible;visibility:visible;opacity:1;isolation:auto;mix-blend-mode:normal;color-interpolation:sRGB;color-interpolation-filters:linearRGB;solid-color:#000000;solid-opacity:1;vector-effect:none;fill:#ffffff;fill-opacity:1;fill-rule:nonzero;stroke:none;stroke-width:20.29831314;stroke-linecap:round;stroke-linejoin:round;stroke-miterlimit:10;stroke-dasharray:none;stroke-dashoffset:0;stroke-opacity:1;color-rendering:auto;image-rendering:auto;shape-rendering:auto;text-rendering:auto;enable-background:accumulate"
       d="m -164.96422,135.17877 a 10.150172,10.150172 0 0 0 -9.9959,10.2955 v 96.7108 a 10.150172,10.150172 0 0 0 0,3.24604 v 95.26015 a 10.150172,10.150172 0 0 0 2.82309,8.54304 10.150172,10.150172 0 0 0 0.24892,0.25996 10.150172,10.150172 0 0 0 0.0969,0.086 10.150172,10.150172 0 0 0 8.43071,2.68099 h 95.417646 a 10.150172,10.150172 0 0 0 9.168693,-3.44432 10.150172,10.150172 0 0 0 2.26023,-9.06516 l -1.134523,-12.51388 a 10.150172,10.150172 0 0 0 -0.125574,-0.8955 l -2.538903,-13.95461 a 10.150172,10.150172 0 0 0 -0.500071,-1.79872 l -5.074501,-13.32125 a 10.150172,10.150172 0 0 0 -0.699441,-1.46938 l -6.976752,-12.05235 a 10.150172,10.150172 0 0 0 -0.558446,-0.85806 l -8.246756,-11.41901 a 10.150172,10.150172 0 0 0 -1.049708,-1.23255 l -9.516764,-9.51677 a 10.150172,10.150172 0 0 0 -0.945067,-0.83271 l -11.414613,-8.88342 a 10.150172,10.150172 0 0 0 -1.69406,-1.06623 l -12.68571,-6.3401 a 10.150172,10.150172 0 0 0 -0.76994,-0.34586 l -12.68461,-5.07451 a 10.150172,10.150172 0 0 0 -1.52334,-0.47473 l -13.95462,-3.17225 a 10.150172,10.150172 0 0 0 -1.7866,-0.24124 l -4.26712,-0.19495 v -88.61935 a 10.150172,10.150172 0 0 0 -10.30321,-10.29549 z m 344.43959,0 a 10.150172,10.150172 0 0 0 -10.00031,10.2955 v 96.89805 a 10.150172,10.150172 0 0 0 0,2.86384 v 96.87601 a 10.150172,10.150172 0 1 0 20.29912,0 v -35.23405 l 6.12421,7.43276 a 10.150172,10.150172 0 0 0 0.42847,0.49126 l 9.51676,10.1457 a 10.150172,10.150172 0 0 0 1.46167,1.28653 l 11.4146,8.24676 a 10.150172,10.150172 0 0 0 0.85806,0.55735 l 12.05235,6.97786 a 10.150172,10.150172 0 0 0 1.87692,0.84482 l 13.32238,4.43785 a 10.150172,10.150172 0 0 0 0.95718,0.27096 l 13.9546,3.17226 a 10.150172,10.150172 0 0 0 1.33169,0.20819 l 13.95461,1.27001 a 10.150172,10.150172 0 1 0 1.83616,-20.21652 l -13.2805,-1.20722 -12.80909,-2.9101 -11.86951,-3.9543 -10.71075,-6.20352 -10.21181,-7.37661 -8.62235,-9.19622 -7.94276,-9.64564 -5.60321,-11.20752 -4.65925,-12.2308 -2.79775,-11.74395 -0.10794,-2.38581 h 87.69959 a 10.150172,10.150172 0 1 0 0,-20.29911 h -88.17433 v -88.16884 a 10.150172,10.150172 0 0 0 -10.29881,-10.2955 z m 172.05069,61.6761 c -5.54606,0 -10.14896,4.6044 -10.14896,10.14901 0,5.54574 4.60437,10.14572 10.14896,10.14572 5.54577,0 10.15014,-4.60108 10.15014,-10.14572 0,-5.54572 -4.60549,-10.14901 -10.15014,-10.14901 z m 344.4396,0 c -5.54605,0 -10.15008,4.6044 -10.15008,10.14901 0,5.54573 4.60549,10.14572 10.15008,10.14572 5.54573,0 10.14902,-4.60108 10.14902,-10.14572 0,-5.54572 -4.60437,-10.14901 -10.14902,-10.14901 z m -270.92807,36.64284 a 10.150172,10.150172 0 0 0 -10.03781,11.21083 l 1.27003,13.95903 a 10.150172,10.150172 0 0 0 0.23348,1.43192 l 3.17226,13.31795 a 10.150172,10.150172 0 0 0 0.24565,0.86136 l 4.43783,13.31796 a 10.150172,10.150172 0 0 0 0.73692,1.68194 l 6.97676,12.68902 a 10.150172,10.150172 0 0 0 0.83269,1.27332 l 8.24346,10.78236 a 10.150172,10.150172 0 0 0 0.88671,1.01225 l 10.14901,10.14901 a 10.150172,10.150172 0 0 0 1.23253,1.04971 l 11.41904,8.24676 a 10.150172,10.150172 0 0 0 0.85805,0.55735 l 12.05237,6.97786 a 10.150172,10.150172 0 0 0 1.8769,0.84482 l 13.31794,4.43785 a 10.150172,10.150172 0 0 0 0.86139,0.24563 l 13.31794,3.17226 a 10.150172,10.150172 0 0 0 1.47379,0.23793 l 13.18136,1.14663 a 10.150172,10.150172 0 0 0 12.37838,-8.89773 10.150172,10.150172 0 0 0 0.0595,-1.55419 v -34.50046 l 5.25844,6.87432 a 10.150172,10.150172 0 0 0 0.88671,1.01225 l 10.14901,10.14901 a 10.150172,10.150172 0 0 0 1.23253,1.04971 l 11.41904,8.24676 a 10.150172,10.150172 0 0 0 0.85805,0.55735 l 12.05125,6.97786 a 10.150172,10.150172 0 0 0 1.87363,0.84482 l 13.32233,4.43785 a 10.150172,10.150172 0 0 0 0.96161,0.27096 l 13.95459,3.17226 a 10.150172,10.150172 0 0 0 1.33173,0.20819 l 12.55022,1.14222 a 10.150172,10.150172 0 0 0 8.92416,-2.16549 10.150172,10.150172 0 0 0 0.0462,-0.0374 10.150172,10.150172 0 0 0 0.12784,-0.1179 10.150172,10.150172 0 0 0 3.37161,-9.14006 v -96.83857 a 10.150172,10.150172 0 0 0 -10.3032,-10.2911 10.150172,10.150172 0 0 0 -9.99589,10.2911 v 87.20504 l -2.21512,-0.20156 -12.80907,-2.9101 -11.86508,-3.95431 -10.71517,-6.20352 -10.3451,-7.47242 -9.09707,-9.096 -7.25213,-9.48372 -5.68581,-11.37384 -4.6593,-12.23081 -2.79773,-11.74395 -0.5904,-12.99742 a 10.150172,10.150172 0 0 0 -0.008,-0.0969 10.150172,10.150172 0 0 0 -0.0682,-0.83162 10.150172,10.150172 0 0 0 -0.0242,-0.18173 10.150172,10.150172 0 0 0 -0.14872,-0.80958 10.150172,10.150172 0 0 0 -0.0462,-0.19278 10.150172,10.150172 0 0 0 -0.22694,-0.78424 10.150172,10.150172 0 0 0 -0.0661,-0.18835 10.150172,10.150172 0 0 0 -0.29957,-0.74681 10.150172,10.150172 0 0 0 -0.0948,-0.20376 10.150172,10.150172 0 0 0 -0.35468,-0.67852 10.150172,10.150172 0 0 0 -0.14099,-0.23791 10.150172,10.150172 0 0 0 -0.39651,-0.60252 10.150172,10.150172 0 0 0 -0.18284,-0.24893 10.150172,10.150172 0 0 0 -0.44062,-0.54303 10.150172,10.150172 0 0 0 -0.21255,-0.23461 10.150172,10.150172 0 0 0 -0.49346,-0.49677 10.150172,10.150172 0 0 0 -0.23354,-0.21149 10.150172,10.150172 0 0 0 -0.5265,-0.43507 10.150172,10.150172 0 0 0 -0.28971,-0.21258 10.150172,10.150172 0 0 0 -0.51546,-0.34586 10.150172,10.150172 0 0 0 -0.37672,-0.22252 10.150172,10.150172 0 0 0 -0.48687,-0.25883 10.150172,10.150172 0 0 0 -0.43283,-0.20158 10.150172,10.150172 0 0 0 -0.49459,-0.20267 10.150172,10.150172 0 0 0 -0.45382,-0.15752 10.150172,10.150172 0 0 0 -0.50226,-0.1498 10.150172,10.150172 0 0 0 -0.50225,-0.12 10.150172,10.150172 0 0 0 -0.46041,-0.0892 10.150172,10.150172 0 0 0 -0.56509,-0.076 10.150172,10.150172 0 0 0 -0.4329,-0.0385 10.150172,10.150172 0 0 0 -0.26872,-0.0242 10.150172,10.150172 0 0 0 -0.32715,0.003 10.150172,10.150172 0 0 0 -0.21809,-0.008 10.150172,10.150172 0 0 0 -0.17516,0.0112 10.150172,10.150172 0 0 0 -0.64877,0.043 10.150172,10.150172 0 0 0 -0.34695,0.0385 10.150172,10.150172 0 0 0 -0.6653,0.1102 10.150172,10.150172 0 0 0 -0.31829,0.0683 10.150172,10.150172 0 0 0 -0.69508,0.18945 10.150172,10.150172 0 0 0 -0.2588,0.0826 10.150172,10.150172 0 0 0 -0.7116,0.27207 10.150172,10.150172 0 0 0 -0.21476,0.0937 10.150172,10.150172 0 0 0 -0.69948,0.35138 10.150172,10.150172 0 0 0 -0.20594,0.11454 10.150172,10.150172 0 0 0 -0.65651,0.41635 10.150172,10.150172 0 0 0 -0.1905,0.1333 10.150172,10.150172 0 0 0 -0.63225,0.49566 10.150172,10.150172 0 0 0 -0.14545,0.12448 10.150172,10.150172 0 0 0 -0.59807,0.57388 10.150172,10.150172 0 0 0 -0.1256,0.13218 10.150172,10.150172 0 0 0 -0.55182,0.64988 10.150172,10.150172 0 0 0 -0.0892,0.11454 10.150172,10.150172 0 0 0 -0.49674,0.71817 10.150172,10.150172 0 0 0 -0.0727,0.11679 10.150172,10.150172 0 0 0 -0.42189,0.76002 10.150172,10.150172 0 0 0 -0.0683,0.13652 10.150172,10.150172 0 0 0 -0.34367,0.80078 10.150172,10.150172 0 0 0 -0.0462,0.12336 10.150172,10.150172 0 0 0 -0.26872,0.85364 10.150172,10.150172 0 0 0 -0.0287,0.10796 10.150172,10.150172 0 0 0 -0.18396,0.88119 10.150172,10.150172 0 0 0 -0.0186,0.11454 10.150172,10.150172 0 0 0 -0.0926,0.86576 10.150172,10.150172 0 0 0 -0.0126,0.19826 10.150172,10.150172 0 0 0 -0.0112,0.70604 v 87.14116 l -2.81871,-0.24452 -12.1603,-2.89358 -11.91466,-3.97083 -10.71516,-6.20352 -10.34178,-7.47242 -9.10038,-9.096 -7.37221,-9.64233 -6.16607,-11.21083 -4.00826,-12.02262 -2.898,-12.18123 -1.20281,-13.22985 a 10.150172,10.150172 0 0 0 -10.17873,-9.37576 z m -319.78195,0.004 a 10.150172,10.150172 0 0 0 -2.00579,0.23131 l -12.256136,0.55624 a 10.150172,10.150172 0 0 0 -1.890133,0.26655 l -13.317957,3.17226 a 10.150172,10.150172 0 0 0 -1.265597,0.38662 l -13.317962,5.0745 a 10.150172,10.150172 0 0 0 -1.115793,0.50448 l -12.05126,6.34451 a 10.150172,10.150172 0 0 0 -1.503519,0.96931 l -11.419015,8.8801 a 10.150172,10.150172 0 0 0 -0.711554,0.60801 l -10.145703,9.51236 a 10.150172,10.150172 0 0 0 -1.286525,1.46166 l -8.246761,11.41901 a 10.150172,10.150172 0 0 0 -0.558447,0.85695 l -6.976759,12.05237 a 10.150172,10.150172 0 0 0 -0.8448294,1.87361 l -4.4378507,13.32126 a 10.150172,10.150172 0 0 0 -0.2709642,0.96159 l -3.1722533,13.95461 a 10.150172,10.150172 0 0 0 -0.2081787,1.33278 l -1.1422315,12.54914 a 10.150172,10.150172 0 0 0 2.14567364,8.89883 10.150172,10.150172 0 0 0 0.062787,0.0793 10.150172,10.150172 0 0 0 0.0892236,0.0969 10.150172,10.150172 0 0 0 9.16428906,3.39476 H 103.98123 a 10.150172,10.150172 0 0 0 8.56399,-2.83411 10.150172,10.150172 0 0 0 0.24673,-0.23792 10.150172,10.150172 0 0 0 0.0826,-0.0914 10.150172,10.150172 0 0 0 2.6854,-8.42851 V 245.4504 a 10.150172,10.150172 0 0 0 -2.9167,-8.91536 10.150172,10.150172 0 0 0 -0.24784,-0.23681 10.150172,10.150172 0 0 0 -0.3018,-0.27207 10.150172,10.150172 0 0 0 -6.83797,-2.52458 z m 246.12064,0 a 10.150172,10.150172 0 0 0 -9.99918,10.2911 v 98.31894 a 10.150172,10.150172 0 1 0 20.2991,0 V 243.7929 a 10.150172,10.150172 0 0 0 -10.29992,-10.2911 z m 344.4352,0 a 10.150172,10.150172 0 0 0 -9.9959,10.2911 v 98.31894 a 10.150172,10.150172 0 1 0 20.2991,0 V 243.7929 a 10.150172,10.150172 0 0 0 -10.3032,-10.2911 z M 95.260838,254.41256 v 77.54949 H 18.204805 l 0.201575,-2.21397 2.910098,-12.80908 3.954304,-11.8651 6.203518,-10.71628 7.376594,-10.20738 9.092694,-8.52544 10.340663,-8.04297 10.715169,-5.64177 12.131669,-4.6207 11.743949,-2.79776 z m -249.921848,10e-4 2.43978,0.11132 12.29359,2.79335 11.55228,4.6218 11.41131,5.70344 10.12478,7.87667 8.492388,8.49239 7.47242,10.34506 6.311464,10.90353 4.449964,11.68116 2.289961,12.58438 0.2203,2.43536 h -77.058237 z"
       id="path9292"
       inkscape:connector-curvature="0" />
  </g>
</svg>
