<?xml version="1.0" encoding="UTF-8" standalone="no"?>
<!-- Created with Inkscape (http://www.inkscape.org/) -->

<svg
   xmlns:dc="http://purl.org/dc/elements/1.1/"
   xmlns:cc="http://creativecommons.org/ns#"
   xmlns:rdf="http://www.w3.org/1999/02/22-rdf-syntax-ns#"
   xmlns:svg="http://www.w3.org/2000/svg"
   xmlns="http://www.w3.org/2000/svg"
   xmlns:sodipodi="http://sodipodi.sourceforge.net/DTD/sodipodi-0.dtd"
   xmlns:inkscape="http://www.inkscape.org/namespaces/inkscape"
   width="1024"
   height="1024"
   viewBox="0 0 270.93333 270.93334"
   version="1.1"
   id="svg57637"
   inkscape:version="0.92.5 (0.92.5+68)"
   sodipodi:docname="antenna.svg"
   inkscape:export-filename="/home/ku3i/work/so2walker/Bakiwi/documents/manual/bakiwi_kit/img/01_electronics/symbols/antenna.png"
   inkscape:export-xdpi="96"
   inkscape:export-ydpi="96">
  <defs
     id="defs57631" />
  <sodipodi:namedview
     id="base"
     pagecolor="#ffffff"
     bordercolor="#666666"
     borderopacity="1.0"
     inkscape:pageopacity="0.0"
     inkscape:pageshadow="2"
     inkscape:zoom="0.35000001"
     inkscape:cx="-492.97797"
     inkscape:cy="193.74228"
     inkscape:document-units="mm"
     inkscape:current-layer="layer1"
     showgrid="false"
     units="px"
     inkscape:window-width="2560"
     inkscape:window-height="1341"
     inkscape:window-x="0"
     inkscape:window-y="35"
     inkscape:window-maximized="1" />
  <metadata
     id="metadata57634">
    <rdf:RDF>
      <cc:Work
         rdf:about="">
        <dc:format>image/svg+xml</dc:format>
        <dc:type
           rdf:resource="http://purl.org/dc/dcmitype/StillImage" />
        <dc:title></dc:title>
      </cc:Work>
    </rdf:RDF>
  </metadata>
  <g
     inkscape:label="Ebene 1"
     inkscape:groupmode="layer"
     id="layer1"
     transform="translate(0,-26.06665)">
    <g
       id="g81885"
       transform="matrix(10,0,0,10,-1153.4321,-1296.5618)">
      <path
         d="m 125.51644,148.19337 0.42333,0.35983 0.46567,0.3175 0.48683,0.23283 0.52917,0.16934 0.55033,0.0847 0.55034,0.0212 0.55033,-0.0423 0.55033,-0.14817 0.508,-0.1905 0.48684,-0.27517 0.4445,-0.33866 0.40216,-0.381 0.3175,-0.4445 0.27517,-0.48684 0.21167,-0.508 0.127,-0.55033 0.0635,-0.55033 -0.0212,-0.55034 -0.10584,-0.55033 -0.16933,-0.52917 -0.23283,-0.508 -0.29634,-0.4445 -0.35983,-0.42333"
         style="fill:none;stroke:#000000;stroke-width:0.67733341;stroke-linecap:round;stroke-linejoin:round;stroke-miterlimit:10;stroke-dasharray:none;stroke-opacity:1"
         id="path8512"
         inkscape:connector-curvature="0" />
      <path
         d="m 128.39511,142.03387 c 1.81195,0 3.28083,1.46888 3.28083,3.28083 0,1.81195 -1.46888,3.28083 -3.28083,3.28083 -1.81196,0 -3.28084,-1.46888 -3.28084,-3.28083 0,-1.81195 1.46888,-3.28083 3.28084,-3.28083 z"
         style="fill:#ffcc00;fill-opacity:1;fill-rule:evenodd;stroke:#ffcc00;stroke-width:0.26458341;stroke-linecap:round;stroke-linejoin:round;stroke-miterlimit:10;stroke-dasharray:none;stroke-opacity:1"
         id="path14568"
         inkscape:connector-curvature="0" />
      <path
         d="m 128.39511,143.89653 c 0.78323,0 1.41816,0.63494 1.41816,1.41817 0,0.78323 -0.63493,1.41817 -1.41816,1.41817 -0.78324,0 -1.41817,-0.63494 -1.41817,-1.41817 0,-0.78323 0.63493,-1.41817 1.41817,-1.41817 z"
         style="fill:#ffffff;fill-opacity:1;fill-rule:evenodd;stroke:#000000;stroke-width:0.02116667;stroke-linecap:square;stroke-linejoin:bevel;stroke-miterlimit:10;stroke-dasharray:none;stroke-opacity:1"
         id="path14570"
         inkscape:connector-curvature="0" />
    </g>
  </g>
</svg>
