<?xml version="1.0" encoding="UTF-8" standalone="no"?>
<!-- Created with Inkscape (http://www.inkscape.org/) -->

<svg
   xmlns:dc="http://purl.org/dc/elements/1.1/"
   xmlns:cc="http://creativecommons.org/ns#"
   xmlns:rdf="http://www.w3.org/1999/02/22-rdf-syntax-ns#"
   xmlns:svg="http://www.w3.org/2000/svg"
   xmlns="http://www.w3.org/2000/svg"
   xmlns:sodipodi="http://sodipodi.sourceforge.net/DTD/sodipodi-0.dtd"
   xmlns:inkscape="http://www.inkscape.org/namespaces/inkscape"
   width="1024"
   height="1024"
   viewBox="0 0 270.93333 270.93334"
   version="1.1"
   id="svg39052"
   inkscape:version="0.92.5 (0.92.5+68)"
   sodipodi:docname="diode.svg"
   inkscape:export-filename="/home/ku3i/work/so2walker/Bakiwi/documents/manual/bakiwi_kit/img/symbols/diode.svg.png"
   inkscape:export-xdpi="96"
   inkscape:export-ydpi="96">
  <defs
     id="defs39046" />
  <sodipodi:namedview
     id="base"
     pagecolor="#ffffff"
     bordercolor="#666666"
     borderopacity="1.0"
     inkscape:pageopacity="0.0"
     inkscape:pageshadow="2"
     inkscape:zoom="0.35"
     inkscape:cx="113.17211"
     inkscape:cy="473.93308"
     inkscape:document-units="mm"
     inkscape:current-layer="layer1"
     showgrid="false"
     units="px"
     inkscape:window-width="2560"
     inkscape:window-height="1341"
     inkscape:window-x="0"
     inkscape:window-y="35"
     inkscape:window-maximized="1" />
  <metadata
     id="metadata39049">
    <rdf:RDF>
      <cc:Work
         rdf:about="">
        <dc:format>image/svg+xml</dc:format>
        <dc:type
           rdf:resource="http://purl.org/dc/dcmitype/StillImage" />
        <dc:title></dc:title>
      </cc:Work>
    </rdf:RDF>
  </metadata>
  <g
     inkscape:label="Ebene 1"
     inkscape:groupmode="layer"
     id="layer1"
     transform="translate(0,-26.06665)">
    <g
       id="g43602"
       transform="rotate(90,97.66905,190.4107)">
      <path
         d="M 100.76774,211.915 V 187.15"
         style="fill:none;stroke:#000000;stroke-width:5.29166794;stroke-linecap:round;stroke-linejoin:round;stroke-miterlimit:10;stroke-dasharray:none;stroke-opacity:1"
         id="path8534"
         inkscape:connector-curvature="0" />
      <path
         d="m 88.2794,199.4267 h 24.765"
         style="fill:none;stroke:#000000;stroke-width:5.29166794;stroke-linecap:round;stroke-linejoin:round;stroke-miterlimit:10;stroke-dasharray:none;stroke-opacity:1"
         id="path8536"
         inkscape:connector-curvature="0" />
      <path
         d="m 15.25439,169.37 3.38667,4.0217 3.81,3.5983 4.445,3.175 4.65666,2.3284 5.08001,1.905 5.29166,1.0583 5.29167,0.423"
         style="fill:none;stroke:#000000;stroke-width:4.02166748;stroke-linecap:round;stroke-linejoin:round;stroke-miterlimit:10;stroke-dasharray:none;stroke-opacity:1"
         id="path8908"
         inkscape:connector-curvature="0" />
      <path
         d="m 47.21606,185.88 5.29167,-0.423 5.08,-1.0583 4.86833,-1.6934 4.65667,-2.3283 4.445,-2.9633 3.81,-3.3867 3.38667,-4.0217"
         style="fill:none;stroke:#000000;stroke-width:4.02166748;stroke-linecap:round;stroke-linejoin:round;stroke-miterlimit:10;stroke-dasharray:none;stroke-opacity:1"
         id="path8910"
         inkscape:connector-curvature="0" />
      <path
         d="m 47.21606,107.14 -5.08,0.212 -5.08,1.0583 -4.86834,1.4817 -4.445,2.3283 -4.23333,2.7517 -4.02167,3.3866 -3.38666,3.81"
         style="fill:none;stroke:#000000;stroke-width:4.02166748;stroke-linecap:round;stroke-linejoin:round;stroke-miterlimit:10;stroke-dasharray:none;stroke-opacity:1"
         id="path8912"
         inkscape:connector-curvature="0" />
      <path
         d="m 78.33107,122.1683 -3.38667,-3.81 -3.81,-3.3866 -4.23334,-2.7517 -4.65666,-2.3283 -4.86834,-1.4817 -5.08,-1.0583 -5.08,-0.212"
         style="fill:none;stroke:#000000;stroke-width:4.02166748;stroke-linecap:round;stroke-linejoin:round;stroke-miterlimit:10;stroke-dasharray:none;stroke-opacity:1"
         id="path8914"
         inkscape:connector-curvature="0" />
      <path
         d="m 6.9993898,179.9534 4.4450002,4.8683 5.08,4.2333 5.50333,3.3867 5.92667,2.7517 6.35,2.1166 6.35,1.27 6.56167,0.423"
         style="fill:none;stroke:#000000;stroke-width:6.77333403;stroke-linecap:round;stroke-linejoin:round;stroke-miterlimit:10;stroke-dasharray:none;stroke-opacity:1"
         id="path8916"
         inkscape:connector-curvature="0" />
      <path
         d="m 47.21606,199.0034 6.35,-0.423 6.13834,-1.0583 6.13833,-1.905 5.715,-2.54 5.29167,-3.3867 5.08,-3.81 4.445,-4.445 4.02167,-4.8683 3.175,-5.5033"
         style="fill:none;stroke:#000000;stroke-width:6.77333403;stroke-linecap:round;stroke-linejoin:round;stroke-miterlimit:10;stroke-dasharray:none;stroke-opacity:1"
         id="path8918"
         inkscape:connector-curvature="0" />
      <path
         d="m 47.21606,94.016699 -6.35,0.212 -6.56167,1.27 -6.13833,1.905 -5.92667,2.751701 -5.50333,3.5983 -5.08001,4.0217 -4.4450002,4.6567"
         style="fill:none;stroke:#000000;stroke-width:6.77333403;stroke-linecap:round;stroke-linejoin:round;stroke-miterlimit:10;stroke-dasharray:none;stroke-opacity:1"
         id="path8920"
         inkscape:connector-curvature="0" />
      <path
         d="m 92.93607,120.475 -3.38667,-5.2917 -4.02167,-4.6566 -4.445,-4.2334 -4.86833,-3.5983 -5.29167,-3.175001 -5.715,-2.3283 -5.715,-1.905 -6.13834,-1.0584 -6.13833,-0.212"
         style="fill:none;stroke:#000000;stroke-width:6.77333403;stroke-linecap:round;stroke-linejoin:round;stroke-miterlimit:10;stroke-dasharray:none;stroke-opacity:1"
         id="path8922"
         inkscape:connector-curvature="0" />
      <path
         d="m 121.08774,164.5017 h 23.07167"
         style="fill:none;stroke:#000000;stroke-width:3.38666701;stroke-linecap:round;stroke-linejoin:round;stroke-miterlimit:10;stroke-dasharray:none;stroke-opacity:1"
         id="path14084"
         inkscape:connector-curvature="0" />
      <path
         d="m 144.15941,164.5017 v -11.43"
         style="fill:none;stroke:#000000;stroke-width:3.38666701;stroke-linecap:round;stroke-linejoin:round;stroke-miterlimit:10;stroke-dasharray:none;stroke-opacity:1"
         id="path14086"
         inkscape:connector-curvature="0" />
      <path
         d="m 144.15941,153.0717 -3.81,-4.0217"
         style="fill:none;stroke:#000000;stroke-width:3.38666701;stroke-linecap:round;stroke-linejoin:round;stroke-miterlimit:10;stroke-dasharray:none;stroke-opacity:1"
         id="path14088"
         inkscape:connector-curvature="0" />
      <path
         d="M 140.34941,149.05 H 124.89774"
         style="fill:none;stroke:#000000;stroke-width:3.38666701;stroke-linecap:round;stroke-linejoin:round;stroke-miterlimit:10;stroke-dasharray:none;stroke-opacity:1"
         id="path14090"
         inkscape:connector-curvature="0" />
      <path
         d="m 124.89774,149.05 -3.81,4.0217"
         style="fill:none;stroke:#000000;stroke-width:3.38666701;stroke-linecap:round;stroke-linejoin:round;stroke-miterlimit:10;stroke-dasharray:none;stroke-opacity:1"
         id="path14092"
         inkscape:connector-curvature="0" />
      <path
         d="m 121.08774,153.0717 v 11.43"
         style="fill:none;stroke:#000000;stroke-width:3.38666701;stroke-linecap:round;stroke-linejoin:round;stroke-miterlimit:10;stroke-dasharray:none;stroke-opacity:1"
         id="path14094"
         inkscape:connector-curvature="0" />
      <path
         d="m 128.70774,140.3717 -7.62,-7.8317"
         style="fill:none;stroke:#000000;stroke-width:3.38666701;stroke-linecap:round;stroke-linejoin:round;stroke-miterlimit:10;stroke-dasharray:none;stroke-opacity:1"
         id="path14096"
         inkscape:connector-curvature="0" />
      <path
         d="m 121.08774,132.54 h 23.07167"
         style="fill:none;stroke:#000000;stroke-width:3.38666701;stroke-linecap:round;stroke-linejoin:round;stroke-miterlimit:10;stroke-dasharray:none;stroke-opacity:1"
         id="path14098"
         inkscape:connector-curvature="0" />
      <path
         d="M 144.15941,140.3717 V 124.92"
         style="fill:none;stroke:#000000;stroke-width:3.38666701;stroke-linecap:round;stroke-linejoin:round;stroke-miterlimit:10;stroke-dasharray:none;stroke-opacity:1"
         id="path14100"
         inkscape:connector-curvature="0" />
      <path
         d="m 80.0244,125.1317 c 11.80692,0 21.37834,9.5714 21.37834,21.3783 0,11.807 -9.57142,21.3783 -21.37834,21.3783 -11.80694,0 -21.37834,-9.5713 -21.37834,-21.3783 0,-11.8069 9.5714,-21.3783 21.37834,-21.3783 z"
         style="fill:#ffcc00;fill-opacity:1;fill-rule:evenodd;stroke:#ffcc00;stroke-width:2.64583397;stroke-linecap:round;stroke-linejoin:round;stroke-miterlimit:10;stroke-dasharray:none;stroke-opacity:1"
         id="path14468"
         inkscape:connector-curvature="0" />
      <path
         d="m 80.0244,135.9267 c 5.84501,0 10.58333,4.7383 10.58333,10.5833 0,5.845 -4.73832,10.5833 -10.58333,10.5833 -5.84501,0 -10.58334,-4.7383 -10.58334,-10.5833 0,-5.845 4.73833,-10.5833 10.58334,-10.5833 z"
         style="fill:#ffffff;fill-opacity:1;fill-rule:evenodd;stroke:#000000;stroke-width:0.21166669;stroke-linecap:square;stroke-linejoin:bevel;stroke-miterlimit:10;stroke-dasharray:none;stroke-opacity:1"
         id="path14470"
         inkscape:connector-curvature="0" />
      <path
         d="m 14.40772,125.1317 c 11.80694,0 21.37834,9.5714 21.37834,21.3783 0,11.807 -9.5714,21.3783 -21.37834,21.3783 -11.8069402,0 -21.3783302,-9.5713 -21.3783302,-21.3783 0,-11.8069 9.57139,-21.3783 21.3783302,-21.3783 z"
         style="fill:#ffcc00;fill-opacity:1;fill-rule:evenodd;stroke:#ffcc00;stroke-width:2.64583397;stroke-linecap:round;stroke-linejoin:round;stroke-miterlimit:10;stroke-dasharray:none;stroke-opacity:1"
         id="path14472"
         inkscape:connector-curvature="0" />
      <path
         d="m 14.40772,135.9267 c 5.84501,0 10.58334,4.7383 10.58334,10.5833 0,5.845 -4.73833,10.5833 -10.58334,10.5833 -5.8450002,0 -10.5833302,-4.7383 -10.5833302,-10.5833 0,-5.845 4.73833,-10.5833 10.5833302,-10.5833 z"
         style="fill:#ffffff;fill-opacity:1;fill-rule:evenodd;stroke:#000000;stroke-width:0.21166669;stroke-linecap:square;stroke-linejoin:bevel;stroke-miterlimit:10;stroke-dasharray:none;stroke-opacity:1"
         id="path14474"
         inkscape:connector-curvature="0" />
    </g>
  </g>
</svg>
