<?xml version="1.0" encoding="UTF-8" standalone="no"?>
<!-- Created with Inkscape (http://www.inkscape.org/) -->

<svg
   xmlns:dc="http://purl.org/dc/elements/1.1/"
   xmlns:cc="http://creativecommons.org/ns#"
   xmlns:rdf="http://www.w3.org/1999/02/22-rdf-syntax-ns#"
   xmlns:svg="http://www.w3.org/2000/svg"
   xmlns="http://www.w3.org/2000/svg"
   xmlns:sodipodi="http://sodipodi.sourceforge.net/DTD/sodipodi-0.dtd"
   xmlns:inkscape="http://www.inkscape.org/namespaces/inkscape"
   width="1024"
   height="1024"
   viewBox="0 0 270.93333 270.93334"
   version="1.1"
   id="svg52855"
   inkscape:version="0.92.5 (0.92.5+68)"
   sodipodi:docname="socket.svg"
   inkscape:export-filename="/home/ku3i/work/so2walker/Bakiwi/documents/manual/bakiwi_kit/img/01_electronics/symbols/socket.png"
   inkscape:export-xdpi="96"
   inkscape:export-ydpi="96">
  <defs
     id="defs52849" />
  <sodipodi:namedview
     id="base"
     pagecolor="#ffffff"
     bordercolor="#666666"
     borderopacity="1.0"
     inkscape:pageopacity="0.0"
     inkscape:pageshadow="2"
     inkscape:zoom="0.35"
     inkscape:cx="-961.85867"
     inkscape:cy="248.53116"
     inkscape:document-units="mm"
     inkscape:current-layer="layer1"
     showgrid="false"
     units="px"
     inkscape:window-width="2560"
     inkscape:window-height="1341"
     inkscape:window-x="0"
     inkscape:window-y="35"
     inkscape:window-maximized="1" />
  <metadata
     id="metadata52852">
    <rdf:RDF>
      <cc:Work
         rdf:about="">
        <dc:format>image/svg+xml</dc:format>
        <dc:type
           rdf:resource="http://purl.org/dc/dcmitype/StillImage" />
        <dc:title />
      </cc:Work>
    </rdf:RDF>
  </metadata>
  <g
     inkscape:label="Ebene 1"
     inkscape:groupmode="layer"
     id="layer1"
     transform="translate(0,-26.06665)">
    <g
       id="g57533"
       transform="matrix(0,5,-5,0,1178.2344,-184.4296)">
      <path
         d="m 49.03258,214.14155 -0.762,-0.78317"
         style="fill:none;stroke:#000000;stroke-width:0.33866671;stroke-linecap:round;stroke-linejoin:round;stroke-miterlimit:10;stroke-dasharray:none;stroke-opacity:1"
         id="path8502"
         inkscape:connector-curvature="0" />
      <path
         d="m 48.27058,213.35838 h 2.307167"
         style="fill:none;stroke:#000000;stroke-width:0.33866671;stroke-linecap:round;stroke-linejoin:round;stroke-miterlimit:10;stroke-dasharray:none;stroke-opacity:1"
         id="path8504"
         inkscape:connector-curvature="0" />
      <path
         d="m 50.577747,214.14155 v -1.54517"
         style="fill:none;stroke:#000000;stroke-width:0.33866671;stroke-linecap:round;stroke-linejoin:round;stroke-miterlimit:10;stroke-dasharray:none;stroke-opacity:1"
         id="path8506"
         inkscape:connector-curvature="0" />
      <path
         d="m 92.170259,201.82255 -0.02119,-0.21167 -0.105831,-0.16933 -0.127,-0.14817 -0.1905,-0.0847 -0.211669,-0.0423"
         style="fill:none;stroke:#000000;stroke-width:0.40216672;stroke-linecap:round;stroke-linejoin:round;stroke-miterlimit:10;stroke-dasharray:none;stroke-opacity:1"
         id="path8670"
         inkscape:connector-curvature="0" />
      <path
         d="M 91.514087,201.16638 H 46.87358"
         style="fill:none;stroke:#000000;stroke-width:0.40216672;stroke-linecap:round;stroke-linejoin:round;stroke-miterlimit:10;stroke-dasharray:none;stroke-opacity:1"
         id="path8672"
         inkscape:connector-curvature="0" />
      <path
         d="m 46.87358,201.16638 -0.1905,0.0423 -0.1905,0.0847 -0.148167,0.14817 -0.08467,0.16933 -0.04233,0.21167"
         style="fill:none;stroke:#000000;stroke-width:0.40216672;stroke-linecap:round;stroke-linejoin:round;stroke-miterlimit:10;stroke-dasharray:none;stroke-opacity:1"
         id="path8674"
         inkscape:connector-curvature="0" />
      <path
         d="m 46.217413,215.28455 0.04233,0.1905 0.08467,0.1905 0.148167,0.14817 0.1905,0.0847 0.1905,0.0423"
         style="fill:none;stroke:#000000;stroke-width:0.40216672;stroke-linecap:round;stroke-linejoin:round;stroke-miterlimit:10;stroke-dasharray:none;stroke-opacity:1"
         id="path8676"
         inkscape:connector-curvature="0" />
      <path
         d="M 46.87358,215.94072 H 91.514087"
         style="fill:none;stroke:#000000;stroke-width:0.40216672;stroke-linecap:round;stroke-linejoin:round;stroke-miterlimit:10;stroke-dasharray:none;stroke-opacity:1"
         id="path8678"
         inkscape:connector-curvature="0" />
      <path
         d="m 91.514087,215.94072 0.211672,-0.0423 0.1905,-0.0847 0.127,-0.14817 0.105828,-0.1905 0.02119,-0.1905"
         style="fill:none;stroke:#000000;stroke-width:0.40216672;stroke-linecap:round;stroke-linejoin:round;stroke-miterlimit:10;stroke-dasharray:none;stroke-opacity:1"
         id="path8680"
         inkscape:connector-curvature="0" />
      <path
         d="m 92.170259,201.82255 v 13.462"
         style="fill:none;stroke:#000000;stroke-width:0.40216672;stroke-linecap:round;stroke-linejoin:round;stroke-miterlimit:10;stroke-dasharray:none;stroke-opacity:1"
         id="path8682"
         inkscape:connector-curvature="0" />
      <path
         d="m 46.217413,201.82255 v 4.93183"
         style="fill:none;stroke:#000000;stroke-width:0.40216672;stroke-linecap:round;stroke-linejoin:round;stroke-miterlimit:10;stroke-dasharray:none;stroke-opacity:1"
         id="path8684"
         inkscape:connector-curvature="0" />
      <path
         d="m 46.217413,215.28455 v -4.93183"
         style="fill:none;stroke:#000000;stroke-width:0.40216672;stroke-linecap:round;stroke-linejoin:round;stroke-miterlimit:10;stroke-dasharray:none;stroke-opacity:1"
         id="path8686"
         inkscape:connector-curvature="0" />
      <path
         d="m 46.217413,210.35272 0.359834,-0.0212 0.338666,-0.10583 0.3175,-0.16934 0.254,-0.23283 0.232834,-0.27517 0.169333,-0.29633 0.105834,-0.33867 0.02117,-0.35983 -0.02117,-0.35983 -0.105834,-0.33867 -0.169333,-0.29633 -0.232834,-0.27517 -0.254,-0.23283 -0.3175,-0.16934 -0.338666,-0.10583 -0.359834,-0.0212"
         style="fill:none;stroke:#000000;stroke-width:0.40216672;stroke-linecap:round;stroke-linejoin:round;stroke-miterlimit:10;stroke-dasharray:none;stroke-opacity:1"
         id="path8688"
         inkscape:connector-curvature="0" />
      <path
         d="m 57.880248,210.14105 h 0.762001"
         style="fill:none;stroke:#000000;stroke-width:0.33866671;stroke-linecap:round;stroke-linejoin:round;stroke-miterlimit:10;stroke-dasharray:none;stroke-opacity:1"
         id="path9674"
         inkscape:connector-curvature="0" />
      <path
         d="m 58.642249,210.14105 0.381,-0.381"
         style="fill:none;stroke:#000000;stroke-width:0.33866671;stroke-linecap:round;stroke-linejoin:round;stroke-miterlimit:10;stroke-dasharray:none;stroke-opacity:1"
         id="path9676"
         inkscape:connector-curvature="0" />
      <path
         d="m 59.023249,209.76005 v -0.381"
         style="fill:none;stroke:#000000;stroke-width:0.33866671;stroke-linecap:round;stroke-linejoin:round;stroke-miterlimit:10;stroke-dasharray:none;stroke-opacity:1"
         id="path9678"
         inkscape:connector-curvature="0" />
      <path
         d="m 59.023249,209.37905 -0.381,-0.381"
         style="fill:none;stroke:#000000;stroke-width:0.33866671;stroke-linecap:round;stroke-linejoin:round;stroke-miterlimit:10;stroke-dasharray:none;stroke-opacity:1"
         id="path9680"
         inkscape:connector-curvature="0" />
      <path
         d="M 58.642249,208.99805 H 57.880248"
         style="fill:none;stroke:#000000;stroke-width:0.33866671;stroke-linecap:round;stroke-linejoin:round;stroke-miterlimit:10;stroke-dasharray:none;stroke-opacity:1"
         id="path9682"
         inkscape:connector-curvature="0" />
      <path
         d="m 58.642249,210.14105 h 0.762"
         style="fill:none;stroke:#000000;stroke-width:0.33866671;stroke-linecap:round;stroke-linejoin:round;stroke-miterlimit:10;stroke-dasharray:none;stroke-opacity:1"
         id="path9684"
         inkscape:connector-curvature="0" />
      <path
         d="m 59.404249,210.14105 0.381,0.381"
         style="fill:none;stroke:#000000;stroke-width:0.33866671;stroke-linecap:round;stroke-linejoin:round;stroke-miterlimit:10;stroke-dasharray:none;stroke-opacity:1"
         id="path9686"
         inkscape:connector-curvature="0" />
      <path
         d="m 57.097082,206.56388 -0.381,0.381"
         style="fill:none;stroke:#000000;stroke-width:0.33866671;stroke-linecap:round;stroke-linejoin:round;stroke-miterlimit:10;stroke-dasharray:none;stroke-opacity:1"
         id="path9688"
         inkscape:connector-curvature="0" />
      <path
         d="m 56.716082,206.94488 v 0.78317"
         style="fill:none;stroke:#000000;stroke-width:0.33866671;stroke-linecap:round;stroke-linejoin:round;stroke-miterlimit:10;stroke-dasharray:none;stroke-opacity:1"
         id="path9690"
         inkscape:connector-curvature="0" />
      <path
         d="m 56.716082,207.72805 0.381,0.381"
         style="fill:none;stroke:#000000;stroke-width:0.33866671;stroke-linecap:round;stroke-linejoin:round;stroke-miterlimit:10;stroke-dasharray:none;stroke-opacity:1"
         id="path9692"
         inkscape:connector-curvature="0" />
      <path
         d="m 57.097082,208.10905 h 1.545167"
         style="fill:none;stroke:#000000;stroke-width:0.33866671;stroke-linecap:round;stroke-linejoin:round;stroke-miterlimit:10;stroke-dasharray:none;stroke-opacity:1"
         id="path9694"
         inkscape:connector-curvature="0" />
      <path
         d="m 58.642249,208.10905 0.381,-0.381"
         style="fill:none;stroke:#000000;stroke-width:0.33866671;stroke-linecap:round;stroke-linejoin:round;stroke-miterlimit:10;stroke-dasharray:none;stroke-opacity:1"
         id="path9696"
         inkscape:connector-curvature="0" />
      <path
         d="m 59.023249,207.72805 v -0.78317"
         style="fill:none;stroke:#000000;stroke-width:0.33866671;stroke-linecap:round;stroke-linejoin:round;stroke-miterlimit:10;stroke-dasharray:none;stroke-opacity:1"
         id="path9698"
         inkscape:connector-curvature="0" />
      <path
         d="m 59.023249,206.94488 -0.381,-0.381"
         style="fill:none;stroke:#000000;stroke-width:0.33866671;stroke-linecap:round;stroke-linejoin:round;stroke-miterlimit:10;stroke-dasharray:none;stroke-opacity:1"
         id="path9700"
         inkscape:connector-curvature="0" />
      <path
         d="m 49.498247,220.11055 v -3.40783"
         style="fill:#ffcc00;stroke:#ffcc00;stroke-width:3.42900085;stroke-linecap:round;stroke-linejoin:round;stroke-miterlimit:10;stroke-dasharray:none;stroke-opacity:1"
         id="path14328"
         inkscape:connector-curvature="0" />
      <path
         d="m 49.498247,217.33772 c 0.584501,0 1.058334,0.47383 1.058334,1.05833 0,0.5845 -0.473833,1.05834 -1.058334,1.05834 -0.584501,0 -1.058333,-0.47384 -1.058333,-1.05834 0,-0.5845 0.473832,-1.05833 1.058333,-1.05833 z"
         style="fill:#ffffff;fill-opacity:1;fill-rule:evenodd;stroke:#000000;stroke-width:0.02116667;stroke-linecap:square;stroke-linejoin:bevel;stroke-miterlimit:10;stroke-dasharray:none;stroke-opacity:1"
         id="path14330"
         inkscape:connector-curvature="0" />
      <path
         d="m 56.059915,220.11055 v -3.40783"
         style="fill:#ffcc00;stroke:#ffcc00;stroke-width:3.42900085;stroke-linecap:round;stroke-linejoin:round;stroke-miterlimit:10;stroke-dasharray:none;stroke-opacity:1"
         id="path14332"
         inkscape:connector-curvature="0" />
      <path
         d="m 56.059915,217.33772 c 0.5845,0 1.058333,0.47383 1.058333,1.05833 0,0.5845 -0.473833,1.05834 -1.058333,1.05834 -0.584501,0 -1.058334,-0.47384 -1.058334,-1.05834 0,-0.5845 0.473833,-1.05833 1.058334,-1.05833 z"
         style="fill:#ffffff;fill-opacity:1;fill-rule:evenodd;stroke:#000000;stroke-width:0.02116667;stroke-linecap:square;stroke-linejoin:bevel;stroke-miterlimit:10;stroke-dasharray:none;stroke-opacity:1"
         id="path14334"
         inkscape:connector-curvature="0" />
      <path
         d="m 88.889418,220.11055 v -3.40783"
         style="fill:#ffcc00;stroke:#ffcc00;stroke-width:3.42900085;stroke-linecap:round;stroke-linejoin:round;stroke-miterlimit:10;stroke-dasharray:none;stroke-opacity:1"
         id="path14336"
         inkscape:connector-curvature="0" />
      <path
         d="m 88.889418,217.33772 c 0.584501,0 1.058341,0.47383 1.058341,1.05833 0,0.5845 -0.47384,1.05834 -1.058341,1.05834 -0.584499,0 -1.058331,-0.47384 -1.058331,-1.05834 0,-0.5845 0.473832,-1.05833 1.058331,-1.05833 z"
         style="fill:#ffffff;fill-opacity:1;fill-rule:evenodd;stroke:#000000;stroke-width:0.02116667;stroke-linecap:square;stroke-linejoin:bevel;stroke-miterlimit:10;stroke-dasharray:none;stroke-opacity:1"
         id="path14338"
         inkscape:connector-curvature="0" />
      <path
         d="m 88.889418,200.40438 v -3.40783"
         style="fill:#ffcc00;stroke:#ffcc00;stroke-width:3.42900085;stroke-linecap:round;stroke-linejoin:round;stroke-miterlimit:10;stroke-dasharray:none;stroke-opacity:1"
         id="path14340"
         inkscape:connector-curvature="0" />
      <path
         d="m 88.889418,197.65271 c 0.584501,0 1.058341,0.47384 1.058341,1.05834 0,0.5845 -0.47384,1.05833 -1.058341,1.05833 -0.584499,0 -1.058331,-0.47383 -1.058331,-1.05833 0,-0.5845 0.473832,-1.05834 1.058331,-1.05834 z"
         style="fill:#ffffff;fill-opacity:1;fill-rule:evenodd;stroke:#000000;stroke-width:0.02116667;stroke-linecap:square;stroke-linejoin:bevel;stroke-miterlimit:10;stroke-dasharray:none;stroke-opacity:1"
         id="path14342"
         inkscape:connector-curvature="0" />
      <path
         d="m 62.642749,220.11055 v -3.40783"
         style="fill:#ffcc00;stroke:#ffcc00;stroke-width:3.42900085;stroke-linecap:round;stroke-linejoin:round;stroke-miterlimit:10;stroke-dasharray:none;stroke-opacity:1"
         id="path14344"
         inkscape:connector-curvature="0" />
      <path
         d="m 62.642749,217.33772 c 0.584501,0 1.058334,0.47383 1.058334,1.05833 0,0.5845 -0.473833,1.05834 -1.058334,1.05834 -0.584501,0 -1.058333,-0.47384 -1.058333,-1.05834 0,-0.5845 0.473832,-1.05833 1.058333,-1.05833 z"
         style="fill:#ffffff;fill-opacity:1;fill-rule:evenodd;stroke:#000000;stroke-width:0.02116667;stroke-linecap:square;stroke-linejoin:bevel;stroke-miterlimit:10;stroke-dasharray:none;stroke-opacity:1"
         id="path14346"
         inkscape:connector-curvature="0" />
      <path
         d="m 69.204418,220.11055 v -3.40783"
         style="fill:#ffcc00;stroke:#ffcc00;stroke-width:3.42900085;stroke-linecap:round;stroke-linejoin:round;stroke-miterlimit:10;stroke-dasharray:none;stroke-opacity:1"
         id="path14348"
         inkscape:connector-curvature="0" />
      <path
         d="m 69.204418,217.33772 c 0.5845,0 1.05833,0.47383 1.05833,1.05833 0,0.5845 -0.47383,1.05834 -1.05833,1.05834 -0.5845,0 -1.05833,-0.47384 -1.05833,-1.05834 0,-0.5845 0.47383,-1.05833 1.05833,-1.05833 z"
         style="fill:#ffffff;fill-opacity:1;fill-rule:evenodd;stroke:#000000;stroke-width:0.02116667;stroke-linecap:square;stroke-linejoin:bevel;stroke-miterlimit:10;stroke-dasharray:none;stroke-opacity:1"
         id="path14350"
         inkscape:connector-curvature="0" />
      <path
         d="m 82.327748,220.11055 v -3.40783"
         style="fill:#ffcc00;stroke:#ffcc00;stroke-width:3.42900085;stroke-linecap:round;stroke-linejoin:round;stroke-miterlimit:10;stroke-dasharray:none;stroke-opacity:1"
         id="path14352"
         inkscape:connector-curvature="0" />
      <path
         d="m 82.327748,217.33772 c 0.584499,0 1.058339,0.47383 1.058339,1.05833 0,0.5845 -0.47384,1.05834 -1.058339,1.05834 -0.584499,0 -1.05833,-0.47384 -1.05833,-1.05834 0,-0.5845 0.473831,-1.05833 1.05833,-1.05833 z"
         style="fill:#ffffff;fill-opacity:1;fill-rule:evenodd;stroke:#000000;stroke-width:0.02116667;stroke-linecap:square;stroke-linejoin:bevel;stroke-miterlimit:10;stroke-dasharray:none;stroke-opacity:1"
         id="path14354"
         inkscape:connector-curvature="0" />
      <path
         d="m 75.766087,220.11055 v -3.40783"
         style="fill:#ffcc00;stroke:#ffcc00;stroke-width:3.42900085;stroke-linecap:round;stroke-linejoin:round;stroke-miterlimit:10;stroke-dasharray:none;stroke-opacity:1"
         id="path14356"
         inkscape:connector-curvature="0" />
      <path
         d="m 75.766087,217.33772 c 0.584502,0 1.058331,0.47383 1.058331,1.05833 0,0.5845 -0.473829,1.05834 -1.058331,1.05834 -0.584499,0 -1.058339,-0.47384 -1.058339,-1.05834 0,-0.5845 0.47384,-1.05833 1.058339,-1.05833 z"
         style="fill:#ffffff;fill-opacity:1;fill-rule:evenodd;stroke:#000000;stroke-width:0.02116667;stroke-linecap:square;stroke-linejoin:bevel;stroke-miterlimit:10;stroke-dasharray:none;stroke-opacity:1"
         id="path14358"
         inkscape:connector-curvature="0" />
      <path
         d="m 82.327748,200.40438 v -3.40783"
         style="fill:#ffcc00;stroke:#ffcc00;stroke-width:3.42900085;stroke-linecap:round;stroke-linejoin:round;stroke-miterlimit:10;stroke-dasharray:none;stroke-opacity:1"
         id="path14360"
         inkscape:connector-curvature="0" />
      <path
         d="m 82.327748,197.65271 c 0.584499,0 1.058339,0.47384 1.058339,1.05834 0,0.5845 -0.47384,1.05833 -1.058339,1.05833 -0.584499,0 -1.05833,-0.47383 -1.05833,-1.05833 0,-0.5845 0.473831,-1.05834 1.05833,-1.05834 z"
         style="fill:#ffffff;fill-opacity:1;fill-rule:evenodd;stroke:#000000;stroke-width:0.02116667;stroke-linecap:square;stroke-linejoin:bevel;stroke-miterlimit:10;stroke-dasharray:none;stroke-opacity:1"
         id="path14362"
         inkscape:connector-curvature="0" />
      <path
         d="m 75.766087,200.40438 v -3.40783"
         style="fill:#ffcc00;stroke:#ffcc00;stroke-width:3.42900085;stroke-linecap:round;stroke-linejoin:round;stroke-miterlimit:10;stroke-dasharray:none;stroke-opacity:1"
         id="path14364"
         inkscape:connector-curvature="0" />
      <path
         d="m 75.766087,197.65271 c 0.584502,0 1.058331,0.47384 1.058331,1.05834 0,0.5845 -0.473829,1.05833 -1.058331,1.05833 -0.584499,0 -1.058339,-0.47383 -1.058339,-1.05833 0,-0.5845 0.47384,-1.05834 1.058339,-1.05834 z"
         style="fill:#ffffff;fill-opacity:1;fill-rule:evenodd;stroke:#000000;stroke-width:0.02116667;stroke-linecap:square;stroke-linejoin:bevel;stroke-miterlimit:10;stroke-dasharray:none;stroke-opacity:1"
         id="path14366"
         inkscape:connector-curvature="0" />
      <path
         d="m 69.204418,200.40438 v -3.40783"
         style="fill:#ffcc00;stroke:#ffcc00;stroke-width:3.42900085;stroke-linecap:round;stroke-linejoin:round;stroke-miterlimit:10;stroke-dasharray:none;stroke-opacity:1"
         id="path14368"
         inkscape:connector-curvature="0" />
      <path
         d="m 69.204418,197.65271 c 0.5845,0 1.05833,0.47384 1.05833,1.05834 0,0.5845 -0.47383,1.05833 -1.05833,1.05833 -0.5845,0 -1.05833,-0.47383 -1.05833,-1.05833 0,-0.5845 0.47383,-1.05834 1.05833,-1.05834 z"
         style="fill:#ffffff;fill-opacity:1;fill-rule:evenodd;stroke:#000000;stroke-width:0.02116667;stroke-linecap:square;stroke-linejoin:bevel;stroke-miterlimit:10;stroke-dasharray:none;stroke-opacity:1"
         id="path14370"
         inkscape:connector-curvature="0" />
      <path
         d="m 62.642749,200.40438 v -3.40783"
         style="fill:#ffcc00;stroke:#ffcc00;stroke-width:3.42900085;stroke-linecap:round;stroke-linejoin:round;stroke-miterlimit:10;stroke-dasharray:none;stroke-opacity:1"
         id="path14372"
         inkscape:connector-curvature="0" />
      <path
         d="m 62.642749,197.65271 c 0.584501,0 1.058334,0.47384 1.058334,1.05834 0,0.5845 -0.473833,1.05833 -1.058334,1.05833 -0.584501,0 -1.058333,-0.47383 -1.058333,-1.05833 0,-0.5845 0.473832,-1.05834 1.058333,-1.05834 z"
         style="fill:#ffffff;fill-opacity:1;fill-rule:evenodd;stroke:#000000;stroke-width:0.02116667;stroke-linecap:square;stroke-linejoin:bevel;stroke-miterlimit:10;stroke-dasharray:none;stroke-opacity:1"
         id="path14374"
         inkscape:connector-curvature="0" />
      <path
         d="m 56.059915,200.40438 v -3.40783"
         style="fill:#ffcc00;stroke:#ffcc00;stroke-width:3.42900085;stroke-linecap:round;stroke-linejoin:round;stroke-miterlimit:10;stroke-dasharray:none;stroke-opacity:1"
         id="path14376"
         inkscape:connector-curvature="0" />
      <path
         d="m 56.059915,197.65271 c 0.5845,0 1.058333,0.47384 1.058333,1.05834 0,0.5845 -0.473833,1.05833 -1.058333,1.05833 -0.584501,0 -1.058334,-0.47383 -1.058334,-1.05833 0,-0.5845 0.473833,-1.05834 1.058334,-1.05834 z"
         style="fill:#ffffff;fill-opacity:1;fill-rule:evenodd;stroke:#000000;stroke-width:0.02116667;stroke-linecap:square;stroke-linejoin:bevel;stroke-miterlimit:10;stroke-dasharray:none;stroke-opacity:1"
         id="path14378"
         inkscape:connector-curvature="0" />
      <path
         d="m 49.498247,200.40438 v -3.40783"
         style="fill:#ffcc00;stroke:#ffcc00;stroke-width:3.42900085;stroke-linecap:round;stroke-linejoin:round;stroke-miterlimit:10;stroke-dasharray:none;stroke-opacity:1"
         id="path14380"
         inkscape:connector-curvature="0" />
      <path
         d="m 49.498247,197.65271 c 0.584501,0 1.058334,0.47384 1.058334,1.05834 0,0.5845 -0.473833,1.05833 -1.058334,1.05833 -0.584501,0 -1.058333,-0.47383 -1.058333,-1.05833 0,-0.5845 0.473832,-1.05834 1.058333,-1.05834 z"
         style="fill:#ffffff;fill-opacity:1;fill-rule:evenodd;stroke:#000000;stroke-width:0.02116667;stroke-linecap:square;stroke-linejoin:bevel;stroke-miterlimit:10;stroke-dasharray:none;stroke-opacity:1"
         id="path14382"
         inkscape:connector-curvature="0" />
    </g>
  </g>
</svg>
