<?xml version="1.0" encoding="UTF-8" standalone="no"?>
<svg
   xmlns:dc="http://purl.org/dc/elements/1.1/"
   xmlns:cc="http://creativecommons.org/ns#"
   xmlns:rdf="http://www.w3.org/1999/02/22-rdf-syntax-ns#"
   xmlns:svg="http://www.w3.org/2000/svg"
   xmlns="http://www.w3.org/2000/svg"
   xmlns:sodipodi="http://sodipodi.sourceforge.net/DTD/sodipodi-0.dtd"
   xmlns:inkscape="http://www.inkscape.org/namespaces/inkscape"
   width="256"
   height="256"
   viewBox="0 0 67.733331 67.733331"
   version="1.1"
   id="svg9093"
   inkscape:version="1.0.1 (1.0.1+r75)"
   sodipodi:docname="important.svg"
   inkscape:export-filename="/home/ku3i/work/so2walker/Bakiwi/manual/bakiwi_kit/img/icons/important.png"
   inkscape:export-xdpi="24.000002"
   inkscape:export-ydpi="24.000002">
  <defs
     id="defs9087" />
  <sodipodi:namedview
     id="base"
     pagecolor="#ffffff"
     bordercolor="#666666"
     borderopacity="1.0"
     inkscape:pageopacity="0.0"
     inkscape:pageshadow="2"
     inkscape:zoom="0.47419412"
     inkscape:cx="-880.0898"
     inkscape:cy="13.027065"
     inkscape:document-units="mm"
     inkscape:current-layer="layer1"
     showgrid="false"
     inkscape:window-width="2560"
     inkscape:window-height="1341"
     inkscape:window-x="0"
     inkscape:window-y="35"
     inkscape:window-maximized="1"
     inkscape:document-rotation="0"
     units="px" />
  <metadata
     id="metadata9090">
    <rdf:RDF>
      <cc:Work
         rdf:about="">
        <dc:format>image/svg+xml</dc:format>
        <dc:type
           rdf:resource="http://purl.org/dc/dcmitype/StillImage" />
        <dc:title />
      </cc:Work>
    </rdf:RDF>
  </metadata>
  <g
     inkscape:label="Ebene 1"
     inkscape:groupmode="layer"
     id="layer1"
     transform="translate(0,-223)">
    <g
       id="g891"
       transform="translate(-18.643724,-3.1224461)">
      <g
         transform="matrix(1.7638888,0,0,-1.7638888,-795.0029,490.82924)"
         id="g9062">
        <path
           d="m 475.86,141.34 -1.38,-0.12 -1.26,-0.3 -1.26,-0.42 -1.14,-0.66 -1.08,-0.78 -0.96,-0.96 -0.78,-1.08 -0.66,-1.14 -0.42,-1.26 -0.3,-1.26 -0.12,-1.38"
           style="fill:none;stroke:#000000;stroke-width:1.92;stroke-linecap:round;stroke-linejoin:round;stroke-miterlimit:10;stroke-dasharray:none;stroke-opacity:1"
           id="path50"
           inkscape:connector-curvature="0" />
        <path
           d="m 475.86,141.34 h 9.3"
           style="fill:none;stroke:#000000;stroke-width:1.92;stroke-linecap:round;stroke-linejoin:round;stroke-miterlimit:10;stroke-dasharray:none;stroke-opacity:1"
           id="path52"
           inkscape:connector-curvature="0" />
        <path
           d="m 494.46,131.98 -0.12,1.38 -0.3,1.26 -0.42,1.26 -0.66,1.14 -0.78,1.08 -0.96,0.96 -1.08,0.78 -1.14,0.66 -1.26,0.42 -1.26,0.3 -1.32,0.12"
           style="fill:none;stroke:#000000;stroke-width:1.92;stroke-linecap:round;stroke-linejoin:round;stroke-miterlimit:10;stroke-dasharray:none;stroke-opacity:1"
           id="path54"
           inkscape:connector-curvature="0" />
        <path
           d="m 489.78,127.36 0.9,0.06 0.9,0.3 0.78,0.42 0.72,0.6 0.6,0.66 0.42,0.84 0.24,0.84 0.12,0.9"
           style="fill:none;stroke:#000000;stroke-width:1.92;stroke-linecap:round;stroke-linejoin:round;stroke-miterlimit:10;stroke-dasharray:none;stroke-opacity:1"
           id="path56"
           inkscape:connector-curvature="0" />
        <path
           d="m 485.16,131.98 0.06,-0.9 0.24,-0.84 0.48,-0.84 0.54,-0.66 0.72,-0.6 0.78,-0.42 0.9,-0.3 0.9,-0.06"
           style="fill:none;stroke:#000000;stroke-width:1.92;stroke-linecap:round;stroke-linejoin:round;stroke-miterlimit:10;stroke-dasharray:none;stroke-opacity:1"
           id="path58"
           inkscape:connector-curvature="0" />
        <path
           d="m 485.16,131.98 h -7.02"
           style="fill:none;stroke:#000000;stroke-width:1.92;stroke-linecap:round;stroke-linejoin:round;stroke-miterlimit:10;stroke-dasharray:none;stroke-opacity:1"
           id="path60"
           inkscape:connector-curvature="0" />
        <path
           d="m 478.14,131.98 h -6.96"
           style="fill:none;stroke:#000000;stroke-width:1.92;stroke-linecap:round;stroke-linejoin:round;stroke-miterlimit:10;stroke-dasharray:none;stroke-opacity:1"
           id="path62"
           inkscape:connector-curvature="0" />
        <path
           d="M 471.18,131.98 H 466.5"
           style="fill:none;stroke:#000000;stroke-width:1.92;stroke-linecap:round;stroke-linejoin:round;stroke-miterlimit:10;stroke-dasharray:none;stroke-opacity:1"
           id="path64"
           inkscape:connector-curvature="0" />
        <path
           d="m 471.18,131.98 v -4.62"
           style="fill:none;stroke:#000000;stroke-width:1.92;stroke-linecap:round;stroke-linejoin:round;stroke-miterlimit:10;stroke-dasharray:none;stroke-opacity:1"
           id="path66"
           inkscape:connector-curvature="0" />
        <path
           d="m 471.18,127.36 h 2.34"
           style="fill:none;stroke:#000000;stroke-width:1.92;stroke-linecap:round;stroke-linejoin:round;stroke-miterlimit:10;stroke-dasharray:none;stroke-opacity:1"
           id="path68"
           inkscape:connector-curvature="0" />
        <path
           d="m 478.14,131.98 v -4.62"
           style="fill:none;stroke:#000000;stroke-width:1.92;stroke-linecap:round;stroke-linejoin:round;stroke-miterlimit:10;stroke-dasharray:none;stroke-opacity:1"
           id="path70"
           inkscape:connector-curvature="0" />
        <path
           d="m 478.14,127.36 h 2.34"
           style="fill:none;stroke:#000000;stroke-width:1.92;stroke-linecap:round;stroke-linejoin:round;stroke-miterlimit:10;stroke-dasharray:none;stroke-opacity:1"
           id="path72"
           inkscape:connector-curvature="0" />
        <path
           d="m 491.16,131.98 c 0,-0.76215 -0.61785,-1.38 -1.38,-1.38 -0.76216,0 -1.38,0.61785 -1.38,1.38 0,0.76216 0.61784,1.38 1.38,1.38 0.76215,0 1.38,-0.61784 1.38,-1.38 z"
           style="fill:none;stroke:#000000;stroke-width:1.44;stroke-linecap:round;stroke-linejoin:round;stroke-miterlimit:10;stroke-dasharray:none;stroke-opacity:1"
           id="path74"
           inkscape:connector-curvature="0" />
        <path
           d="M 489.78,127.36 V 120.4"
           style="fill:none;stroke:#000000;stroke-width:1.92018907;stroke-linecap:round;stroke-linejoin:round;stroke-miterlimit:10;stroke-dasharray:none;stroke-opacity:1"
           id="path76"
           inkscape:connector-curvature="0" />
      </g>
      <path
         id="path854"
         style="opacity:1;fill:#ff80b2;fill-opacity:1;stroke:none;stroke-width:0.471585;stroke-linecap:round;stroke-linejoin:round"
         d="m 49.476048,242.72799 c -2.04388,0.0179 -4.089122,0.007 -6.131528,0.0939 -1.538528,0.1393 -3.046524,0.52339 -4.510714,1.00583 -1.397596,0.51268 -2.663614,1.32555 -3.857131,2.204 -0.945906,0.70166 -1.797748,1.52837 -2.508258,2.46864 -0.907282,1.19425 -1.726972,2.4749 -2.273892,3.87672 -0.362194,1.05006 -0.629695,2.13135 -0.876983,3.21356 -0.06091,0.25689 -0.118374,0.52132 -0.02423,0.77809 0.126402,0.18332 0.323125,0.33062 0.557545,0.33221 1.130123,0.085 2.265445,0.0629 3.398055,0.0804 6.084911,0.0307 12.169952,0.0163 18.254919,0.0253 2.891806,0.007 5.784043,-0.009 8.675441,0.0466 0.337397,0.0201 0.736867,6.4e-4 1.08572,0.0899 0.34919,0.12646 0.577361,0.45262 0.637816,0.81117 0.162356,0.75119 0.123409,1.5369 0.36141,2.27433 0.637767,2.08003 2.335416,3.75793 4.352388,4.52643 1.845177,0.68453 3.987598,0.47092 5.681305,-0.52348 1.361355,-0.79783 2.554592,-1.97833 3.120982,-3.47408 0.66175,-1.70139 0.554665,-3.58919 0.190445,-5.34553 -0.382836,-1.73919 -0.92638,-3.4674 -1.857267,-4.99719 -1.464339,-2.44839 -3.66015,-4.42217 -6.16277,-5.76987 -1.455195,-0.71865 -3.033403,-1.16304 -4.625332,-1.45621 -0.737354,-0.14426 -1.487231,-0.19686 -2.237443,-0.20491 -3.749599,-0.0721 -7.500369,-0.0626 -11.250478,-0.0558 z m 19.442226,12.14965 c 0.447122,-0.007 0.912114,0.004 1.313307,0.22762 1.25517,0.58168 2.10616,2.03361 1.837629,3.41727 -0.21958,1.23941 -1.166188,2.39236 -2.433164,2.63998 -1.240967,0.2878 -2.611974,-0.24521 -3.345232,-1.2841 -0.312931,-0.4427 -0.565021,-0.95995 -0.536882,-1.51574 0.0015,-0.53777 -0.06038,-1.11187 0.217807,-1.59911 0.385752,-0.8932 1.196391,-1.57124 2.126091,-1.83781 0.269177,-0.0547 0.54718,-0.0428 0.820444,-0.0481 z" />
    </g>
    <circle
       style="opacity:1;fill:#000000;fill-opacity:1;stroke:none;stroke-width:0.74998;stroke-linecap:round;stroke-linejoin:round"
       id="path908"
       cx="50.270832"
       cy="280.8291"
       r="1.6935" />
  </g>
</svg>
